<svg xmlns="http://www.w3.org/2000/svg" viewBox="0 0 208.6 62" enable-background="new 0 0 208.6 62"><path fill="#21A0FF" d="M31 52.9s.1 0 .1 0c.1 0 .1 0 .2 0 7 0 14.1 0 21.1 0 .9 0 1.7.5 2.2 1.2.2.2.3.5.4.8 0 .1.1.1.1.2-.1 0-.1 0-.2 0s-.1 0-.2 0c-7 0-14 0-21 0-1 0-1.7-.4-2.2-1.3-.1-.2-.3-.5-.4-.7-.1 0-.1-.1-.1-.2zM1 1c.1 0 .2 0 .3 0 3.5 0 7 0 10.5 0 .6 0 1.1.2 1.5.6.3.2.5.4.6.7 2 3.5 4.1 7 6.1 10.6 2.5 4.3 5 8.6 7.4 12.9.8 1.3 1.5 2.6 2.3 4 .7 1.2 1.8 1.9 3.2 2.2.2 0 .4.1.6.1 2.3 0 4.6 0 6.9 0 .9 0 1.7.4 2.1 1.2 1.8 3 3.5 6.1 5.3 9.2 0 .1.1.2.1.3-.1 0-.2 0-.3 0-7 0-14.1 0-21.1 0-.4 0-.7-.1-1-.2-.5-.3-.9-.6-1.2-1.1-2.8-4.8-5.5-9.6-8.3-14.3-2.9-5-5.8-10.1-8.7-15.1-2-3.5-4-7-6-10.4-.2-.5-.2-.6-.3-.7z"/><path fill="#0160BA" d="M72.8 61c-.1 0-.2 0-.2 0-3.5 0-7 0-10.5 0-.9 0-1.7-.4-2.1-1.2-3.2-5.4-6.3-10.9-9.4-16.3-2.2-3.8-4.3-7.5-6.5-11.3-.5-.9-1.3-1.5-2.2-1.8-.5-.2-1-.3-1.5-.3-2.3 0-4.5 0-6.8 0-.9 0-1.7-.4-2.2-1.2-1.8-3-3.5-6.1-5.3-9.1 0-.1-.1-.2-.1-.3.1 0 .2 0 .3 0 1.1 0 2.3 0 3.4 0 5.9 0 11.8 0 17.7 0 .8 0 1.9.6 2.2 1.3 3 5.3 6.1 10.6 9.2 15.9 3.7 6.3 7.3 12.7 11 19 1 1.7 2 3.5 3 5.2 0-.1.1 0 0 .1zM42.9 9.1c-.1.1-.2 0-.3 0-5.5 0-11 0-16.5 0-1.6 0-3.1 0-4.7 0-.9 0-1.7-.5-2.2-1.2-.2-.3-.3-.5-.4-.8 0-.1-.1-.1-.1-.2.1-.1.2 0 .2 0 .4 0 .8 0 1.2 0 6.7 0 13.3 0 20 0 1 0 1.7.5 2.2 1.3.1.2.3.5.4.7.1 0 .2.1.2.2zM21.2 11c.1-.1.2 0 .3 0 4.4 0 8.8 0 13.3 0 2.6 0 5.2 0 7.8 0 1 0 1.7.5 2.2 1.3.2.3.3.5.4.8 0 .1.1.1.1.2s-.1 0-.2 0-.1 0-.2 0c-7 0-14 0-21 0-.8 0-1.4-.3-2-.9-.1-.1-.2-.2-.2-.3-.2-.3-.4-.6-.5-.9 0 0 0-.1 0-.2z"/><path fill="#21A0FF" d="M52.7 51c-.1 0-.2 0-.3 0-7 0-14.1 0-21.1 0-.9 0-1.7-.5-2.2-1.3-.2-.3-.3-.5-.4-.8 0-.1-.1-.1-.1-.2s.1 0 .1 0c.1 0 .1 0 .2 0 7 0 14.1 0 21.1 0 .9 0 1.7.5 2.2 1.3.2.2.3.5.4.8 0 0 .1.1.1.2z"/><path fill="#0160BA" d="M23.6 15.2c.1-.1.2 0 .3 0 7.1 0 14.2 0 21.3 0 .7 0 1.2.3 1.7.7.2.2.3.3.4.5.1.3.3.5.4.8 0 .1.1.1.1.2s-.1 0-.1.1c-.1 0-.1 0-.2 0-7 0-14 0-21.1 0-1 0-1.7-.5-2.2-1.3-.2-.2-.3-.5-.4-.8-.2 0-.2-.1-.2-.2z"/><path fill="#21A0FF" d="M50.3 46.8c-.1 0-.2 0-.3 0-4.6 0-9.2 0-13.7 0-2.5 0-5 0-7.4 0-.7 0-1.8-.6-2.1-1.2-.1-.3-.3-.5-.5-.8 0-.1-.1-.1-.1-.2s.1 0 .2 0 .1 0 .2 0c7 0 14.1 0 21.1 0 .9 0 1.7.5 2.2 1.3.2.3.3.5.5.8-.2-.1-.1 0-.1.1z"/><g fill="#0160BA"><path d="M119.4 52.1H93.9V9.4h5v38.3h20.4l.1 4.4zM120 52.6H93.4V8.9h6.1v38.3h20.4l.1 5.4zm-25.6-1h24.5v-3.3H98.4V9.9h-4v41.7zM122.7 22h4.8v30.1h-4.8V22zm4.7-12.8v4.5h-4.5V9.2h4.5zM128.1 52.6h-5.9V21.5h5.9v31.1zm-4.9-1h3.8v-29h-3.8v29zm4.7-37.3h-5.5V8.7h5.5v5.6zm-4.4-1h3.4V9.8h-3.4v3.5zM152.7 27.3c-1.1-.7-2.3-1.2-3.8-1.6-1.5-.3-3-.5-4.6-.5-.9 0-1.7.1-2.5.3-.8.2-1.4.5-2 .8-.6.4-1 .8-1.3 1.3-.3.5-.5 1.1-.5 1.7 0 .7.2 1.3.5 1.8s.8.9 1.3 1.3c.6.4 1.2.7 2 1 .8.3 1.6.6 2.4.8.8.2 1.6.5 2.5.7.9.3 1.8.6 2.6.9.9.3 1.7.7 2.5 1.2s1.5 1 2.1 1.6c.6.6 1.1 1.4 1.5 2.2.4.8.5 1.8.5 2.9 0 1.5-.4 2.8-1.1 4-.7 1.1-1.6 2.1-2.8 2.8-1.2.7-2.5 1.3-4 1.7-1.5.4-3 .6-4.6.6-1 0-2.1-.1-3.1-.2s-2-.3-2.9-.6c-.9-.3-1.8-.6-2.6-1.1-.8-.4-1.5-1-2-1.6l1.3-4c.5.6 1.1 1.2 1.8 1.6.7.5 1.5.8 2.3 1.1.8.3 1.6.5 2.5.6.9.1 1.7.2 2.5.2 1.1 0 2.1-.1 3-.3.9-.2 1.7-.5 2.4-.9s1.2-.9 1.6-1.5c.4-.6.6-1.3.6-2.1 0-.9-.2-1.6-.6-2.2-.4-.6-1-1-1.8-1.4-.8-.4-1.7-.8-2.7-1.1-1.1-.3-2.2-.6-3.4-1-1.5-.5-2.8-1-4-1.5-1.2-.5-2.2-1.1-3-1.8-.8-.7-1.5-1.5-1.9-2.4-.4-.9-.7-2-.7-3.2 0-1.4.3-2.6 1-3.6.6-1 1.5-1.9 2.5-2.6 1-.7 2.2-1.2 3.5-1.5 1.3-.3 2.7-.5 4-.5 2 0 3.9.2 5.6.6 1.7.4 3.2 1 4.4 2l-1 3.5zM143.7 53.3c-1.1 0-2.1-.1-3.1-.2s-2-.3-3-.6-1.9-.7-2.7-1.1c-.8-.5-1.6-1-2.2-1.7l-.2-.2 1.7-5.1.6.7c.5.6 1.1 1.1 1.7 1.5.7.4 1.4.8 2.2 1 .8.3 1.6.5 2.4.6 1.9.3 3.8.2 5.4-.1.9-.2 1.6-.5 2.2-.8.6-.4 1.1-.8 1.4-1.3.3-.5.5-1.1.5-1.8 0-.8-.2-1.4-.5-1.9-.4-.5-.9-.9-1.6-1.3-.7-.4-1.6-.7-2.6-1-1.1-.3-2.2-.7-3.4-1-1.5-.5-2.8-1-4-1.5-1.2-.5-2.3-1.2-3.1-1.9-.9-.7-1.6-1.6-2-2.6-.5-1-.7-2.1-.7-3.5 0-1.5.3-2.8 1-3.9s1.6-2 2.7-2.7c1.1-.7 2.3-1.2 3.7-1.6 1.4-.3 2.8-.5 4.2-.5 2 0 4 .2 5.7.6 1.8.4 3.3 1.1 4.6 2.1l.3.2-1.6 4.4-.6-.4c-1-.7-2.2-1.2-3.6-1.5-1.4-.3-3-.5-4.5-.5-.8 0-1.6.1-2.4.3-.7.2-1.3.4-1.8.8-.5.3-.9.7-1.2 1.2-.3.4-.4.9-.4 1.5s.1 1.1.4 1.5c.3.4.7.8 1.2 1.1.5.3 1.2.6 1.9.9.8.3 1.6.5 2.4.8.8.2 1.6.5 2.5.7.9.3 1.8.6 2.7.9.9.3 1.8.8 2.6 1.2.8.5 1.6 1.1 2.2 1.7.7.7 1.2 1.5 1.6 2.4.4.9.6 2 .6 3.1 0 1.6-.4 3-1.1 4.3-.7 1.2-1.7 2.2-2.9 3-1.2.8-2.6 1.4-4.1 1.7-1.9.3-3.5.5-5.1.5zm-10-4.1c.5.5 1 .9 1.7 1.3.8.4 1.6.8 2.5 1 .9.3 1.8.5 2.8.6 2.5.3 5.1.2 7.5-.4 1.4-.4 2.7-.9 3.8-1.6 1.1-.7 2-1.6 2.6-2.6.6-1 1-2.3 1-3.7 0-1-.2-1.9-.5-2.7-.3-.8-.8-1.5-1.4-2-.6-.6-1.3-1.1-2-1.5-.8-.4-1.6-.8-2.4-1.2-.9-.3-1.7-.6-2.6-.9-.9-.3-1.7-.5-2.5-.7-.9-.3-1.7-.5-2.5-.8-.8-.3-1.5-.6-2.1-1-.6-.4-1.1-.9-1.5-1.4-.4-.6-.6-1.3-.6-2.1 0-.7.2-1.4.6-2 .4-.6.9-1.1 1.5-1.5.6-.4 1.3-.7 2.1-.9.8-.2 1.7-.3 2.6-.3 1.6 0 3.2.2 4.7.5 1.3.3 2.4.7 3.4 1.3l.9-2.4c-1.1-.8-2.4-1.3-3.8-1.6-1.7-.4-3.5-.6-5.5-.6-1.3 0-2.6.2-3.9.5-1.3.3-2.4.8-3.4 1.4-1 .6-1.8 1.4-2.3 2.4-.6.9-.9 2.1-.9 3.4 0 1.2.2 2.2.6 3 .4.8 1 1.6 1.8 2.2.8.6 1.7 1.2 2.9 1.7s2.5 1 3.9 1.5c1.2.4 2.4.7 3.4 1 1.1.3 2 .7 2.8 1.1.8.4 1.5 1 2 1.6.5.7.8 1.5.8 2.5 0 .9-.2 1.7-.7 2.4-.4.7-1 1.2-1.8 1.7-.7.4-1.6.8-2.5 1-1.7.4-3.7.4-5.7.1-.9-.1-1.8-.3-2.6-.6s-1.7-.7-2.4-1.2c-.5-.3-.9-.7-1.3-1l-1 2.5zM163.2 25.2h-5.9V22h5.9l.1-8 4.7-1.4V22h7.5v3.1H168v18c0 .7 0 1.3.1 2 0 .7.2 1.3.4 1.9.2.6.6 1 1 1.4.5.4 1.1.5 2 .5.6 0 1.3-.1 2-.2.7-.2 1.4-.4 2.3-.7v3.6c-.7.4-1.4.7-2.2.8s-1.7.2-2.7.2c-1.6 0-3-.3-3.9-.8s-1.7-1.3-2.3-2.2c-.5-.9-.9-2-1.1-3.3-.2-1.2-.3-2.6-.3-4V25.2zM170.7 53.3c-1.7 0-3.1-.3-4.2-.9-1.1-.6-1.9-1.4-2.5-2.4-.6-1-.9-2.2-1.1-3.5-.2-1.3-.3-2.6-.3-4V25.7h-5.9v-4.2h6l.1-7.8 5.7-1.7v9.5h7.5v4.2h-7.5v17.4c0 .7 0 1.3.1 2 0 .6.2 1.2.4 1.7s.5.9.9 1.2c.7.5 2.1.5 3.5.2.7-.2 1.4-.4 2.2-.7l.7-.3v4.7l-.3.2c-.7.4-1.5.7-2.4.9-.9.2-1.8.3-2.9.3zm-13-28.7h5.9v17.8c0 1.4.1 2.7.3 3.9.2 1.2.5 2.2 1 3.1.5.8 1.2 1.5 2.1 2 .9.5 2.1.8 3.7.8 1 0 1.9-.1 2.6-.2.6-.1 1.2-.3 1.8-.6v-2.5c-.6.2-1.1.3-1.6.5-1.8.4-3.5.3-4.4-.4-.5-.4-1-1-1.2-1.6-.2-.6-.4-1.3-.4-2.1 0-.7-.1-1.4-.1-2.1V24.6h7.5v-2.1h-7.5v-9.2l-3.6 1.1-.1 8.1h-5.9v2.1zM191.5 21.3c1.2 0 2.4.1 3.4.3 1 .2 2 .5 2.8 1 .9.4 1.7.9 2.4 1.5s1.4 1.3 2 2.1l.2-4.1h4.8l-.1 7.4v22.7h-4.8l.1-4.2c-.5.6-1.1 1.2-1.8 1.8-.7.6-1.5 1.1-2.4 1.6-.9.5-1.9.8-3 1.1s-2.2.4-3.4.4c-1.7 0-3.2-.2-4.6-.7s-2.6-1-3.7-1.8-2-1.7-2.8-2.7c-.8-1-1.4-2.1-1.9-3.3-.5-1.2-.9-2.4-1.1-3.7-.3-1.3-.4-2.5-.4-3.8 0-1.9.3-3.8.9-5.7.6-1.9 1.5-3.5 2.7-5 1.2-1.4 2.7-2.6 4.5-3.5 1.7-1 3.8-1.4 6.2-1.4zm.5 27.6c1.4 0 2.7-.3 3.9-.8s2.3-1.4 3.2-2.5c.9-1.1 1.6-2.4 2.2-4 .5-1.6.8-3.5.8-5.6 0-1.6-.2-3-.7-4.3-.5-1.3-1.2-2.4-2-3.4-.9-1-1.9-1.7-3.2-2.2-1.3-.5-2.7-.8-4.2-.8-1.2 0-2.3.2-3.2.5-1 .3-1.8.8-2.5 1.3-.7.6-1.4 1.2-1.9 2s-1 1.6-1.3 2.4c-.4.9-.6 1.8-.8 2.7-.2.9-.2 1.9-.2 2.8 0 .9.1 1.8.2 2.8.1.9.3 1.9.6 2.7.3.9.7 1.7 1.2 2.5s1.1 1.5 1.9 2c.8.6 1.7 1 2.7 1.4.7.3 2 .5 3.3.5zM191.5 53.3c-1.7 0-3.3-.2-4.7-.7-1.4-.5-2.7-1.1-3.8-1.9-1.1-.8-2.1-1.7-2.9-2.8-.8-1.1-1.5-2.2-2-3.5-.5-1.2-.9-2.5-1.2-3.8-.3-1.3-.4-2.6-.4-3.9 0-2 .3-3.9.9-5.8.6-1.9 1.6-3.6 2.8-5.1 1.2-1.5 2.8-2.7 4.7-3.6 1.9-.9 4.1-1.4 6.6-1.4 1.3 0 2.4.1 3.5.3 1 .2 2 .6 2.9 1 .9.4 1.7 1 2.5 1.6.4.3.8.7 1.2 1.1l.1-3.3h5.8l-.1 8v23.2h-5.9v-3.3c-.3.3-.6.5-.9.8-.7.6-1.6 1.2-2.5 1.6-.9.5-2 .8-3.1 1.1s-2.2.4-3.5.4zm0-31.5c-2.3 0-4.4.4-6.1 1.3-1.7.8-3.2 2-4.3 3.3-1.2 1.4-2 3-2.6 4.8-.6 1.8-.9 3.7-.9 5.5 0 1.2.1 2.5.4 3.7.2 1.2.6 2.5 1.1 3.6.5 1.1 1.1 2.2 1.9 3.2.8 1 1.7 1.9 2.7 2.6 1 .7 2.2 1.3 3.5 1.7 1.3.4 2.8.6 4.4.6 1.1 0 2.2-.1 3.3-.4 1-.3 2-.6 2.9-1 .9-.4 1.6-.9 2.3-1.5.7-.6 1.2-1.2 1.7-1.7l1-1.3-.1 5.3h3.8V29.4l.1-6.9h-3.7l-.2 5-.9-1.1c-.6-.7-1.3-1.4-2-2-.7-.6-1.4-1.1-2.3-1.5-.8-.4-1.7-.7-2.7-.9-1-.1-2.1-.2-3.3-.2zm.5 27.6c-1.4 0-2.7-.2-3.8-.5-1.1-.4-2.1-.8-2.9-1.5-.8-.6-1.5-1.3-2-2.2-.5-.8-1-1.7-1.3-2.6-.3-.9-.5-1.9-.7-2.8-.1-1-.2-1.9-.2-2.8 0-.9.1-1.9.3-2.9.2-1 .4-1.9.8-2.8.4-.9.8-1.8 1.4-2.6.6-.8 1.3-1.5 2-2.1.8-.6 1.7-1.1 2.7-1.4 1-.3 2.1-.5 3.4-.5 1.6 0 3.1.3 4.4.8 1.3.6 2.5 1.3 3.4 2.4.9 1 1.6 2.2 2.1 3.6s.8 2.9.8 4.5c0 2.2-.3 4.1-.9 5.8-.6 1.7-1.3 3.1-2.3 4.2-1 1.1-2.1 2-3.3 2.6-1 .5-2.4.8-3.9.8zm-.1-23.7c-1.1 0-2.2.2-3.1.5-.9.3-1.7.7-2.4 1.3-.7.5-1.3 1.2-1.8 1.9s-1 1.5-1.3 2.3c-.3.8-.6 1.7-.7 2.6-.2.9-.2 1.8-.2 2.7 0 .9.1 1.8.2 2.7.1.9.3 1.8.6 2.6s.7 1.6 1.1 2.4c.5.7 1.1 1.4 1.8 1.9s1.6 1 2.5 1.3c1 .3 2.2.5 3.5.5 1.3 0 2.5-.3 3.6-.8s2.1-1.3 3-2.3c.9-1 1.6-2.3 2.1-3.9s.8-3.4.8-5.4c0-1.5-.2-2.9-.7-4.1-.5-1.2-1.1-2.3-1.9-3.2-.8-.9-1.8-1.6-3-2.1-1.3-.6-2.6-.9-4.1-.9z"/></g></svg>