<?xml version="1.0" encoding="utf-8"?>
<!-- Generator: Adobe Illustrator 18.0.0, SVG Export Plug-In . SVG Version: 6.00 Build 0)  -->
<!DOCTYPE svg PUBLIC "-//W3C//DTD SVG 1.1//EN" "http://www.w3.org/Graphics/SVG/1.1/DTD/svg11.dtd">
<svg version="1.1" id="Layer_1" xmlns="http://www.w3.org/2000/svg" xmlns:xlink="http://www.w3.org/1999/xlink" x="0px" y="0px"
	 viewBox="0 0 748.9 513" enable-background="new 0 0 748.9 513" xml:space="preserve">
<g>
	<g>
		<g>
			<g>
				<path fill="#FFFFFF" d="M254.6,70h-8.5v4.8h7.6v1.4h-7.6v4.9h8.6v1.4h-10.2v-14h10.1V70z"/>
				<path fill="#FFFFFF" d="M258.2,74.2l-0.5-1.3c1.1-0.5,2.3-0.9,3.8-0.9c2.8,0,4.4,1.4,4.4,4.2v6.3h-1.5V81
					c-0.7,0.9-1.9,1.8-3.7,1.8c-1.9,0-3.9-1.1-3.9-3.2c0-2.2,1.8-3.4,4.4-3.4c1.3,0,2.3,0.2,3.2,0.4v-0.4c0-1.9-1.1-2.8-3.1-2.8
					C260.1,73.5,259.2,73.8,258.2,74.2z M258.4,79.5c0,1.3,1.2,2.1,2.6,2.1c1.9,0,3.5-1.2,3.5-2.8v-1c-0.8-0.2-1.8-0.4-3-0.4
					C259.5,77.4,258.4,78.2,258.4,79.5z"/>
				<path fill="#FFFFFF" d="M272.6,82.8c-1.5,0-3.1-0.6-4.3-1.5l0.8-1.1c1.1,0.8,2.4,1.3,3.6,1.3c1.2,0,2.1-0.6,2.1-1.6v0
					c0-1-1.2-1.4-2.6-1.8c-1.6-0.5-3.4-1-3.4-2.9v0c0-1.8,1.5-3,3.5-3c1.3,0,2.7,0.4,3.7,1.1l-0.7,1.2c-1-0.6-2.1-1-3.1-1
					c-1.2,0-2,0.6-2,1.5v0c0,1,1.3,1.4,2.7,1.8c1.6,0.5,3.3,1.1,3.3,3v0C276.3,81.7,274.7,82.8,272.6,82.8z"/>
				<path fill="#FFFFFF" d="M279.2,70v-1.7h1.8V70H279.2z M279.3,82.6V72.3h1.5v10.3H279.3z"/>
				<path fill="#FFFFFF" d="M284.6,82.6V68h1.5v14.6H284.6z"/>
				<path fill="#FFFFFF" d="M294.7,82.9c-0.9,2.1-1.9,2.9-3.4,2.9c-0.9,0-1.5-0.2-2.2-0.5l0.5-1.2c0.5,0.3,1,0.4,1.6,0.4
					c0.9,0,1.5-0.5,2.1-1.9l-4.7-10.3h1.7l3.8,8.6l3.3-8.6h1.6L294.7,82.9z"/>
				<path fill="#FFFFFF" d="M310.9,82.8c-1.5,0-3.1-0.6-4.3-1.5l0.8-1.1c1.1,0.8,2.4,1.3,3.6,1.3c1.2,0,2.1-0.6,2.1-1.6v0
					c0-1-1.2-1.4-2.6-1.8c-1.6-0.5-3.4-1-3.4-2.9v0c0-1.8,1.5-3,3.5-3c1.3,0,2.7,0.4,3.7,1.1l-0.7,1.2c-1-0.6-2.1-1-3.1-1
					c-1.2,0-2,0.6-2,1.5v0c0,1,1.3,1.4,2.7,1.8c1.6,0.5,3.3,1.1,3.3,3v0C314.6,81.7,313,82.8,310.9,82.8z"/>
				<path fill="#FFFFFF" d="M322,81.5c1.4,0,2.4-0.6,3.3-1.5l1,0.9c-1,1.2-2.3,1.9-4.3,1.9c-2.8,0-5.2-2.2-5.2-5.4
					c0-3,2.1-5.4,5-5.4c3.1,0,4.8,2.4,4.8,5.5c0,0.1,0,0.3,0,0.5h-8.2C318.6,80.2,320.2,81.5,322,81.5z M325,76.9
					c-0.2-1.9-1.2-3.5-3.3-3.5c-1.8,0-3.2,1.5-3.4,3.5H325z"/>
				<path fill="#FFFFFF" d="M329.9,74.2l-0.5-1.3c1.1-0.5,2.3-0.9,3.8-0.9c2.8,0,4.4,1.4,4.4,4.2v6.3h-1.5V81
					c-0.7,0.9-1.9,1.8-3.7,1.8c-1.9,0-3.9-1.1-3.9-3.2c0-2.2,1.8-3.4,4.4-3.4c1.3,0,2.3,0.2,3.2,0.4v-0.4c0-1.9-1.1-2.8-3.1-2.8
					C331.8,73.5,330.9,73.8,329.9,74.2z M330.1,79.5c0,1.3,1.2,2.1,2.6,2.1c1.9,0,3.5-1.2,3.5-2.8v-1c-0.8-0.2-1.8-0.4-3-0.4
					C331.2,77.4,330.1,78.2,330.1,79.5z"/>
				<path fill="#FFFFFF" d="M342.4,82.6h-1.5V72.3h1.5V75c0.8-1.7,2.3-3,4.2-2.9v1.7h-0.1c-2.3,0-4.1,1.6-4.1,4.7V82.6z"/>
				<path fill="#FFFFFF" d="M353.2,82.8c-3,0-5.3-2.5-5.3-5.4c0-2.9,2.3-5.4,5.3-5.4c2,0,3.2,0.8,4.1,1.8l-1,1.1
					c-0.8-0.9-1.7-1.6-3.1-1.6c-2.1,0-3.7,1.8-3.7,4c0,2.3,1.6,4,3.8,4c1.3,0,2.3-0.7,3.2-1.5l1,0.9C356.4,82,355.1,82.8,353.2,82.8
					z"/>
				<path fill="#FFFFFF" d="M361.5,82.6H360V68h1.5v6.1c0.7-1.1,1.8-2,3.5-2c2.5,0,4,1.7,4,4.1v6.4h-1.5v-6c0-1.9-1-3.1-2.9-3.1
					c-1.8,0-3.1,1.3-3.1,3.2V82.6z"/>
				<path fill="#FFFFFF" d="M383.7,72.3v1.3h-3.3v9h-1.5v-9h-1.4v-1.3h1.4v-0.9c0-2.3,1.1-3.5,3.1-3.5c0.7,0,1.2,0.1,1.7,0.3v1.3
					c-0.6-0.2-1-0.3-1.5-0.3c-1.2,0-1.8,0.7-1.8,2.2v0.8H383.7z"/>
				<path fill="#FFFFFF" d="M390.1,82.8c-3.1,0-5.4-2.4-5.4-5.4s2.3-5.4,5.4-5.4c3.1,0,5.4,2.4,5.4,5.4
					C395.6,80.4,393.3,82.8,390.1,82.8z M390.1,73.4c-2.2,0-3.8,1.8-3.8,4c0,2.2,1.6,4,3.8,4c2.2,0,3.8-1.8,3.8-4
					C394,75.2,392.3,73.4,390.1,73.4z"/>
				<path fill="#FFFFFF" d="M399.9,82.6h-1.5V72.3h1.5V75c0.8-1.7,2.3-3,4.2-2.9v1.7H404c-2.3,0-4.1,1.6-4.1,4.7V82.6z"/>
				<path fill="#FFFFFF" d="M412.6,82.6V68h1.5v14.6H412.6z"/>
				<path fill="#FFFFFF" d="M417.7,70v-1.7h1.8V70H417.7z M417.8,82.6V72.3h1.5v10.3H417.8z"/>
				<path fill="#FFFFFF" d="M426.4,82.8c-1.5,0-3.1-0.6-4.3-1.5l0.8-1.1c1.1,0.8,2.4,1.3,3.6,1.3c1.2,0,2.1-0.6,2.1-1.6v0
					c0-1-1.2-1.4-2.6-1.8c-1.6-0.5-3.4-1-3.4-2.9v0c0-1.8,1.5-3,3.5-3c1.3,0,2.7,0.4,3.7,1.1l-0.7,1.2c-1-0.6-2.1-1-3.1-1
					c-1.2,0-2,0.6-2,1.5v0c0,1,1.3,1.4,2.7,1.8c1.6,0.5,3.3,1.1,3.3,3v0C430.1,81.7,428.4,82.8,426.4,82.8z"/>
				<path fill="#FFFFFF" d="M434.8,79.7c0,1.3,0.7,1.7,1.7,1.7c0.5,0,1-0.1,1.5-0.4v1.3c-0.5,0.3-1.1,0.4-1.9,0.4
					c-1.7,0-2.9-0.8-2.9-2.9v-6.2h-1.4v-1.4h1.4v-3.1h1.5v3.1h3.3v1.4h-3.3V79.7z"/>
				<path fill="#FFFFFF" d="M445.1,81.5c1.4,0,2.4-0.6,3.3-1.5l1,0.9c-1,1.2-2.3,1.9-4.3,1.9c-2.8,0-5.2-2.2-5.2-5.4
					c0-3,2.1-5.4,5-5.4c3.1,0,4.8,2.4,4.8,5.5c0,0.1,0,0.3,0,0.5h-8.2C441.6,80.2,443.2,81.5,445.1,81.5z M448.1,76.9
					c-0.2-1.9-1.2-3.5-3.3-3.5c-1.8,0-3.2,1.5-3.4,3.5H448.1z"/>
				<path fill="#FFFFFF" d="M460.6,82.6v-2.1c-0.8,1.2-2.1,2.3-4,2.3c-2.5,0-4.9-2-4.9-5.4c0-3.4,2.5-5.4,4.9-5.4c1.9,0,3.2,1,4,2.2
					V68h1.5v14.6H460.6z M457,73.4c-2,0-3.6,1.5-3.6,4c0,2.5,1.7,4,3.6,4c1.9,0,3.7-1.6,3.7-4C460.7,75,458.9,73.4,457,73.4z"/>
				<path fill="#FFFFFF" d="M473.3,72.3v10.9c0,1.8-1,2.7-2.5,2.7c-0.4,0-0.6,0-1-0.1v-1.3c0.2,0,0.5,0.1,0.8,0.1
					c0.7,0,1.2-0.4,1.2-1.4V72.3H473.3z M471.7,70v-1.7h1.8V70H471.7z"/>
				<path fill="#FFFFFF" d="M481.6,82.8c-3.1,0-5.4-2.4-5.4-5.4s2.3-5.4,5.4-5.4c3.1,0,5.4,2.4,5.4,5.4
					C487,80.4,484.7,82.8,481.6,82.8z M481.6,73.4c-2.2,0-3.8,1.8-3.8,4c0,2.2,1.6,4,3.8,4c2.2,0,3.8-1.8,3.8-4
					C485.4,75.2,483.8,73.4,481.6,73.4z"/>
				<path fill="#FFFFFF" d="M495.3,82.8c-1.9,0-3.2-1-4-2.2v2h-1.5V68h1.5v6.3c0.8-1.2,2.1-2.3,4-2.3c2.5,0,4.9,2,4.9,5.4
					C500.2,80.8,497.8,82.8,495.3,82.8z M495,73.4c-1.9,0-3.7,1.6-3.7,4c0,2.4,1.8,4,3.7,4c2,0,3.6-1.5,3.6-4
					C498.7,75,497,73.4,495,73.4z"/>
				<path fill="#FFFFFF" d="M506.5,82.8c-1.5,0-3.1-0.6-4.3-1.5l0.8-1.1c1.1,0.8,2.4,1.3,3.6,1.3c1.2,0,2.1-0.6,2.1-1.6v0
					c0-1-1.2-1.4-2.6-1.8c-1.6-0.5-3.4-1-3.4-2.9v0c0-1.8,1.5-3,3.5-3c1.3,0,2.7,0.4,3.7,1.1l-0.7,1.2c-1-0.6-2.1-1-3.1-1
					c-1.2,0-2,0.6-2,1.5v0c0,1,1.3,1.4,2.7,1.8c1.6,0.5,3.3,1.1,3.3,3v0C510.2,81.7,508.6,82.8,506.5,82.8z"/>
				<path fill="#FFFFFF" d="M529.4,80.6l2.7-8.3h1.6l-3.6,10.4h-1.3l-2.8-8.2l-2.8,8.2h-1.4l-3.6-10.4h1.6l2.7,8.3l2.8-8.3h1.3
					L529.4,80.6z"/>
				<path fill="#FFFFFF" d="M536.3,70v-1.7h1.8V70H536.3z M536.4,82.6V72.3h1.5v10.3H536.4z"/>
				<path fill="#FFFFFF" d="M543.6,79.7c0,1.3,0.7,1.7,1.7,1.7c0.5,0,1-0.1,1.5-0.4v1.3c-0.5,0.3-1.1,0.4-1.9,0.4
					c-1.7,0-2.9-0.8-2.9-2.9v-6.2h-1.4v-1.4h1.4v-3.1h1.5v3.1h3.3v1.4h-3.3V79.7z"/>
				<path fill="#FFFFFF" d="M551.1,82.6h-1.5V68h1.5v6.1c0.7-1.1,1.8-2,3.5-2c2.5,0,4,1.7,4,4.1v6.4h-1.5v-6c0-1.9-1-3.1-2.9-3.1
					c-1.8,0-3.1,1.3-3.1,3.2V82.6z"/>
				<path fill="#FFFFFF" d="M562,70v-1.7h1.8V70H562z M562.1,82.6V72.3h1.5v10.3H562.1z"/>
				<path fill="#FFFFFF" d="M568.7,82.6h-1.5V72.3h1.5v1.8c0.7-1.1,1.8-2,3.5-2c2.5,0,4,1.7,4,4.1v6.4h-1.5v-6c0-1.9-1-3.1-2.9-3.1
					c-1.8,0-3.1,1.3-3.1,3.2V82.6z"/>
				<path fill="#FFFFFF" d="M590.5,82.9c-0.9,2.1-1.9,2.9-3.4,2.9c-0.9,0-1.5-0.2-2.2-0.5l0.5-1.2c0.5,0.3,1,0.4,1.6,0.4
					c0.9,0,1.5-0.5,2.1-1.9l-4.7-10.3h1.7l3.8,8.6l3.3-8.6h1.6L590.5,82.9z"/>
				<path fill="#FFFFFF" d="M601.4,82.8c-3.1,0-5.4-2.4-5.4-5.4s2.3-5.4,5.4-5.4c3.1,0,5.4,2.4,5.4,5.4
					C606.9,80.4,604.6,82.8,601.4,82.8z M601.4,73.4c-2.2,0-3.8,1.8-3.8,4c0,2.2,1.6,4,3.8,4c2.2,0,3.8-1.8,3.8-4
					C605.3,75.2,603.6,73.4,601.4,73.4z"/>
				<path fill="#FFFFFF" d="M617,72.3h1.5v10.3H617v-1.8c-0.7,1.1-1.8,2-3.5,2c-2.5,0-4-1.7-4-4.1v-6.4h1.5v6c0,1.9,1,3.1,2.9,3.1
					c1.8,0,3.1-1.3,3.1-3.2V72.3z"/>
				<path fill="#FFFFFF" d="M623.5,82.6H622V72.3h1.5V75c0.8-1.7,2.3-3,4.2-2.9v1.7h-0.1c-2.3,0-4.1,1.6-4.1,4.7V82.6z"/>
				<path fill="#FFFFFF" d="M640.7,82.8c-3,0-5.3-2.5-5.3-5.4c0-2.9,2.3-5.4,5.3-5.4c2,0,3.2,0.8,4.1,1.8l-1,1.1
					c-0.8-0.9-1.7-1.6-3.1-1.6c-2.1,0-3.7,1.8-3.7,4c0,2.3,1.6,4,3.8,4c1.3,0,2.3-0.7,3.2-1.5l1,0.9C643.9,82,642.7,82.8,640.7,82.8
					z"/>
				<path fill="#FFFFFF" d="M651.9,82.8c-3.1,0-5.4-2.4-5.4-5.4s2.3-5.4,5.4-5.4c3.1,0,5.4,2.4,5.4,5.4
					C657.3,80.4,655,82.8,651.9,82.8z M651.9,73.4c-2.2,0-3.8,1.8-3.8,4c0,2.2,1.6,4,3.8,4c2.2,0,3.8-1.8,3.8-4
					C655.7,75.2,654.1,73.4,651.9,73.4z"/>
				<path fill="#FFFFFF" d="M671.9,72c2.4,0,3.8,1.6,3.8,4.2v6.4h-1.5v-6c0-2-1-3.1-2.7-3.1c-1.6,0-2.9,1.2-2.9,3.2v6h-1.5v-6.1
					c0-1.9-1-3.1-2.7-3.1s-2.9,1.4-2.9,3.3v5.9h-1.5V72.3h1.5V74c0.7-1,1.6-2,3.3-2c1.7,0,2.8,0.9,3.3,2.1C669,73,670.1,72,671.9,72
					z"/>
				<path fill="#FFFFFF" d="M691,72c2.4,0,3.8,1.6,3.8,4.2v6.4h-1.5v-6c0-2-1-3.1-2.7-3.1c-1.6,0-2.9,1.2-2.9,3.2v6h-1.5v-6.1
					c0-1.9-1-3.1-2.7-3.1s-2.9,1.4-2.9,3.3v5.9h-1.5V72.3h1.5V74c0.7-1,1.6-2,3.3-2c1.7,0,2.8,0.9,3.3,2.1C688.1,73,689.2,72,691,72
					z"/>
				<path fill="#FFFFFF" d="M705.5,72.3h1.5v10.3h-1.5v-1.8c-0.7,1.1-1.8,2-3.5,2c-2.5,0-4-1.7-4-4.1v-6.4h1.5v6
					c0,1.9,1,3.1,2.9,3.1c1.8,0,3.1-1.3,3.1-3.2V72.3z"/>
				<path fill="#FFFFFF" d="M712,82.6h-1.5V72.3h1.5v1.8c0.7-1.1,1.8-2,3.5-2c2.5,0,4,1.7,4,4.1v6.4H718v-6c0-1.9-1-3.1-2.9-3.1
					c-1.8,0-3.1,1.3-3.1,3.2V82.6z"/>
				<path fill="#FFFFFF" d="M722.8,70v-1.7h1.8V70H722.8z M722.9,82.6V72.3h1.5v10.3H722.9z"/>
				<path fill="#FFFFFF" d="M730.1,79.7c0,1.3,0.7,1.7,1.7,1.7c0.5,0,1-0.1,1.5-0.4v1.3c-0.5,0.3-1.1,0.4-1.9,0.4
					c-1.7,0-2.9-0.8-2.9-2.9v-6.2h-1.4v-1.4h1.4v-3.1h1.5v3.1h3.3v1.4h-3.3V79.7z"/>
				<path fill="#FFFFFF" d="M741.2,82.9c-0.9,2.1-1.9,2.9-3.4,2.9c-0.9,0-1.5-0.2-2.2-0.5l0.5-1.2c0.5,0.3,1,0.4,1.6,0.4
					c0.9,0,1.5-0.5,2.1-1.9l-4.7-10.3h1.7l3.8,8.6l3.3-8.6h1.6L741.2,82.9z"/>
				<path fill="#FFFFFF" d="M746.1,82.6v-2.1h1.8v2.1H746.1z"/>
			</g>
			<g>
				<path fill="#21A0FF" d="M246.8,24.1l-3,0.8l-0.6-2.4l4.5-1.4h2V38h-2.9V24.1z"/>
				<path fill="#21A0FF" d="M253.7,34.7h3.2V38h-3.2V34.7z"/>
				<path fill="#21A0FF" d="M266.8,35.6l1.8-2.1c1.6,1.4,3.2,2.2,5.3,2.2c1.8,0,3-0.9,3-2.1v0c0-1.2-0.7-1.8-3.8-2.6
					c-3.6-0.9-5.6-1.9-5.6-5v0c0-2.9,2.4-4.9,5.7-4.9c2.4,0,4.4,0.7,6.1,2.1l-1.6,2.2c-1.5-1.1-3-1.7-4.6-1.7c-1.7,0-2.7,0.9-2.7,2
					v0c0,1.3,0.8,1.9,4,2.6c3.6,0.9,5.4,2.1,5.4,4.9v0c0,3.1-2.5,5-6,5C271.2,38.2,268.8,37.4,266.8,35.6z"/>
				<path fill="#21A0FF" d="M282.2,31.7L282.2,31.7c0-3.7,2.6-6.6,6.2-6.6c4,0,6.1,3.2,6.1,6.8c0,0.3,0,0.5,0,0.8h-9.3
					c0.3,2.1,1.8,3.2,3.6,3.2c1.4,0,2.4-0.5,3.4-1.5l1.7,1.5c-1.2,1.4-2.9,2.4-5.2,2.4C285.1,38.3,282.2,35.6,282.2,31.7z
					 M291.6,30.8c-0.2-1.9-1.3-3.3-3.2-3.3c-1.8,0-3,1.4-3.3,3.3H291.6z"/>
				<path fill="#21A0FF" d="M296.6,34.4L296.6,34.4c0-2.8,2.1-4.1,5.2-4.1c1.4,0,2.4,0.2,3.4,0.5v-0.3c0-1.8-1.1-2.8-3.1-2.8
					c-1.4,0-2.5,0.3-3.6,0.8l-0.8-2.3c1.4-0.6,2.8-1,4.8-1c1.9,0,3.3,0.5,4.2,1.4c0.9,0.9,1.4,2.3,1.4,3.9V38h-2.8v-1.6
					c-0.9,1-2.2,1.8-4.1,1.8C298.7,38.3,296.6,36.9,296.6,34.4z M305.3,33.4v-0.9c-0.7-0.3-1.7-0.5-2.9-0.5c-1.9,0-3,0.8-3,2.1v0
					c0,1.2,1.1,1.9,2.5,1.9C303.8,36.2,305.3,35,305.3,33.4z"/>
				<path fill="#21A0FF" d="M311.5,25.3h2.9v2.9c0.8-1.9,2.3-3.2,4.5-3.1v3.1h-0.2c-2.5,0-4.3,1.7-4.3,5V38h-2.9V25.3z"/>
				<path fill="#21A0FF" d="M320.3,31.7L320.3,31.7c0-3.6,2.8-6.7,6.6-6.7c2.4,0,3.9,0.9,5.1,2.2l-1.8,1.9c-0.9-0.9-1.8-1.6-3.3-1.6
					c-2.1,0-3.7,1.8-3.7,4v0c0,2.3,1.6,4.1,3.8,4.1c1.4,0,2.4-0.6,3.3-1.6l1.8,1.7c-1.2,1.4-2.7,2.4-5.2,2.4
					C323.1,38.3,320.3,35.3,320.3,31.7z"/>
				<path fill="#21A0FF" d="M334.7,20.5h2.9v6.8c0.8-1.2,2-2.2,4-2.2c2.9,0,4.5,1.9,4.5,4.8V38h-2.9v-7.2c0-2-1-3.1-2.7-3.1
					c-1.7,0-2.9,1.2-2.9,3.1V38h-2.9V20.5z"/>
			</g>
		</g>
		<g>
			<g>
				<path fill="#FFFFFF" d="M250.9,276.8c-4,0-7-3.2-7-7.2c0-4,3-7.3,7.1-7.3c2.5,0,4.1,0.9,5.5,2.2l-1.1,1.2
					c-1.2-1.1-2.5-1.9-4.4-1.9c-3.1,0-5.4,2.5-5.4,5.8s2.3,5.8,5.4,5.8c1.9,0,3.2-0.7,4.5-2l1,1C255,275.9,253.4,276.8,250.9,276.8z
					"/>
				<path fill="#FFFFFF" d="M263.5,276.8c-3.1,0-5.4-2.4-5.4-5.4s2.3-5.4,5.4-5.4c3.1,0,5.4,2.4,5.4,5.4S266.6,276.8,263.5,276.8z
					 M263.5,267.4c-2.2,0-3.8,1.8-3.8,4c0,2.2,1.6,4,3.8,4c2.2,0,3.8-1.8,3.8-4C267.3,269.2,265.7,267.4,263.5,267.4z"/>
				<path fill="#FFFFFF" d="M273.2,276.6h-1.5v-10.3h1.5v1.8c0.7-1.1,1.8-2,3.5-2c2.5,0,4,1.7,4,4.1v6.4h-1.5v-6
					c0-1.9-1-3.1-2.9-3.1c-1.8,0-3.1,1.3-3.1,3.2V276.6z"/>
				<path fill="#FFFFFF" d="M285.6,276.6H284v-10.3h1.5v1.8c0.7-1.1,1.8-2,3.5-2c2.5,0,4,1.7,4,4.1v6.4h-1.5v-6c0-1.9-1-3.1-2.9-3.1
					c-1.8,0-3.1,1.3-3.1,3.2V276.6z"/>
				<path fill="#FFFFFF" d="M300.9,275.5c1.4,0,2.4-0.6,3.3-1.5l1,0.9c-1,1.2-2.3,1.9-4.3,1.9c-2.8,0-5.2-2.2-5.2-5.4
					c0-3,2.1-5.4,5-5.4c3.1,0,4.8,2.4,4.8,5.5c0,0.1,0,0.3,0,0.5h-8.2C297.5,274.2,299.1,275.5,300.9,275.5z M303.9,270.9
					c-0.2-1.9-1.2-3.5-3.3-3.5c-1.8,0-3.2,1.5-3.4,3.5H303.9z"/>
				<path fill="#FFFFFF" d="M312.8,276.8c-3,0-5.3-2.5-5.3-5.4c0-2.9,2.3-5.4,5.3-5.4c2,0,3.2,0.8,4.1,1.8l-1,1.1
					c-0.8-0.9-1.7-1.6-3.1-1.6c-2.1,0-3.7,1.8-3.7,4c0,2.3,1.6,4,3.8,4c1.3,0,2.3-0.7,3.2-1.5l1,0.9
					C316,276,314.8,276.8,312.8,276.8z"/>
				<path fill="#FFFFFF" d="M321.7,273.7c0,1.3,0.7,1.7,1.7,1.7c0.5,0,1-0.1,1.5-0.4v1.3c-0.5,0.3-1.1,0.4-1.9,0.4
					c-1.7,0-2.9-0.8-2.9-2.9v-6.2h-1.4v-1.4h1.4v-3.1h1.5v3.1h3.3v1.4h-3.3V273.7z"/>
				<path fill="#FFFFFF" d="M344,274.6l2.7-8.3h1.6l-3.6,10.4h-1.3l-2.8-8.2l-2.8,8.2h-1.4l-3.6-10.4h1.6l2.7,8.3l2.8-8.3h1.3
					L344,274.6z"/>
				<path fill="#FFFFFF" d="M350.9,264v-1.7h1.8v1.7H350.9z M351,276.6v-10.3h1.5v10.3H351z"/>
				<path fill="#FFFFFF" d="M358.2,273.7c0,1.3,0.7,1.7,1.7,1.7c0.5,0,1-0.1,1.5-0.4v1.3c-0.5,0.3-1.1,0.4-1.9,0.4
					c-1.7,0-2.9-0.8-2.9-2.9v-6.2h-1.4v-1.4h1.4v-3.1h1.5v3.1h3.3v1.4h-3.3V273.7z"/>
				<path fill="#FFFFFF" d="M365.8,276.6h-1.5V262h1.5v6.1c0.7-1.1,1.8-2,3.5-2c2.5,0,4,1.7,4,4.1v6.4h-1.5v-6c0-1.9-1-3.1-2.9-3.1
					c-1.8,0-3.1,1.3-3.1,3.2V276.6z"/>
				<path fill="#FFFFFF" d="M386,276.8c-1.5,0-3.1-0.6-4.3-1.5l0.8-1.1c1.1,0.8,2.4,1.3,3.6,1.3c1.2,0,2.1-0.6,2.1-1.6v0
					c0-1-1.2-1.4-2.6-1.8c-1.6-0.5-3.4-1-3.4-2.9v0c0-1.8,1.5-3,3.5-3c1.3,0,2.7,0.4,3.7,1.1l-0.7,1.2c-1-0.6-2.1-1-3.1-1
					c-1.2,0-2,0.6-2,1.5v0c0,1,1.3,1.4,2.7,1.8c1.6,0.5,3.3,1.1,3.3,3v0C389.7,275.7,388,276.8,386,276.8z"/>
				<path fill="#FFFFFF" d="M397.2,276.8c-3.1,0-5.4-2.4-5.4-5.4s2.3-5.4,5.4-5.4c3.1,0,5.4,2.4,5.4,5.4S400.4,276.8,397.2,276.8z
					 M397.2,267.4c-2.2,0-3.8,1.8-3.8,4c0,2.2,1.6,4,3.8,4c2.2,0,3.8-1.8,3.8-4C401.1,269.2,399.4,267.4,397.2,267.4z"/>
				<path fill="#FFFFFF" d="M417.3,266c2.4,0,3.8,1.6,3.8,4.2v6.4h-1.5v-6c0-2-1-3.1-2.7-3.1c-1.6,0-2.9,1.2-2.9,3.2v6h-1.5v-6.1
					c0-1.9-1-3.1-2.7-3.1s-2.9,1.4-2.9,3.3v5.9h-1.5v-10.3h1.5v1.7c0.7-1,1.6-2,3.3-2c1.7,0,2.8,0.9,3.3,2.1
					C414.4,267,415.5,266,417.3,266z"/>
				<path fill="#FFFFFF" d="M429,275.5c1.4,0,2.4-0.6,3.3-1.5l1,0.9c-1,1.2-2.3,1.9-4.3,1.9c-2.8,0-5.2-2.2-5.2-5.4
					c0-3,2.1-5.4,5-5.4c3.1,0,4.8,2.4,4.8,5.5c0,0.1,0,0.3,0,0.5h-8.2C425.6,274.2,427.2,275.5,429,275.5z M432,270.9
					c-0.2-1.9-1.2-3.5-3.3-3.5c-1.8,0-3.2,1.5-3.4,3.5H432z"/>
				<path fill="#FFFFFF" d="M441,276.8c-3.1,0-5.4-2.4-5.4-5.4s2.3-5.4,5.4-5.4c3.1,0,5.4,2.4,5.4,5.4S444.1,276.8,441,276.8z
					 M441,267.4c-2.2,0-3.8,1.8-3.8,4c0,2.2,1.6,4,3.8,4c2.2,0,3.8-1.8,3.8-4C444.9,269.2,443.2,267.4,441,267.4z"/>
				<path fill="#FFFFFF" d="M450.8,276.6h-1.5v-10.3h1.5v1.8c0.7-1.1,1.8-2,3.5-2c2.5,0,4,1.7,4,4.1v6.4h-1.5v-6
					c0-1.9-1-3.1-2.9-3.1c-1.8,0-3.1,1.3-3.1,3.2V276.6z"/>
				<path fill="#FFFFFF" d="M466.1,275.5c1.4,0,2.4-0.6,3.3-1.5l1,0.9c-1,1.2-2.3,1.9-4.3,1.9c-2.8,0-5.2-2.2-5.2-5.4
					c0-3,2.1-5.4,5-5.4c3.1,0,4.8,2.4,4.8,5.5c0,0.1,0,0.3,0,0.5h-8.2C462.7,274.2,464.3,275.5,466.1,275.5z M469.1,270.9
					c-0.2-1.9-1.2-3.5-3.3-3.5c-1.8,0-3.2,1.5-3.4,3.5H469.1z"/>
				<path fill="#FFFFFF" d="M481.5,273.7c0,1.3,0.7,1.7,1.7,1.7c0.5,0,1-0.1,1.5-0.4v1.3c-0.5,0.3-1.1,0.4-1.9,0.4
					c-1.7,0-2.9-0.8-2.9-2.9v-6.2h-1.4v-1.4h1.4v-3.1h1.5v3.1h3.3v1.4h-3.3V273.7z"/>
				<path fill="#FFFFFF" d="M489,276.6h-1.5V262h1.5v6.1c0.7-1.1,1.8-2,3.5-2c2.5,0,4,1.7,4,4.1v6.4H495v-6c0-1.9-1-3.1-2.9-3.1
					c-1.8,0-3.1,1.3-3.1,3.2V276.6z"/>
				<path fill="#FFFFFF" d="M500.4,268.2l-0.5-1.3c1.1-0.5,2.3-0.9,3.8-0.9c2.8,0,4.4,1.4,4.4,4.2v6.3h-1.5V275
					c-0.7,0.9-1.9,1.8-3.7,1.8c-1.9,0-3.9-1.1-3.9-3.2c0-2.2,1.8-3.4,4.4-3.4c1.3,0,2.3,0.2,3.2,0.4v-0.4c0-1.9-1.1-2.8-3.1-2.8
					C502.3,267.5,501.3,267.8,500.4,268.2z M500.6,273.5c0,1.3,1.2,2.1,2.6,2.1c1.9,0,3.5-1.2,3.5-2.8v-1c-0.8-0.2-1.8-0.4-3-0.4
					C501.6,271.4,500.6,272.2,500.6,273.5z"/>
				<path fill="#FFFFFF" d="M513.3,273.7c0,1.3,0.7,1.7,1.7,1.7c0.5,0,1-0.1,1.5-0.4v1.3c-0.5,0.3-1.1,0.4-1.9,0.4
					c-1.7,0-2.9-0.8-2.9-2.9v-6.2h-1.4v-1.4h1.4v-3.1h1.5v3.1h3.3v1.4h-3.3V273.7z"/>
				<path fill="#FFFFFF" d="M526.9,276.6h-1.5v-10.3h1.5v1.8c0.7-1.1,1.8-2,3.5-2c2.5,0,4,1.7,4,4.1v6.4h-1.5v-6
					c0-1.9-1-3.1-2.9-3.1c-1.8,0-3.1,1.3-3.1,3.2V276.6z"/>
				<path fill="#FFFFFF" d="M542.2,275.5c1.4,0,2.4-0.6,3.3-1.5l1,0.9c-1,1.2-2.3,1.9-4.3,1.9c-2.8,0-5.2-2.2-5.2-5.4
					c0-3,2.1-5.4,5-5.4c3.1,0,4.8,2.4,4.8,5.5c0,0.1,0,0.3,0,0.5h-8.2C538.8,274.2,540.4,275.5,542.2,275.5z M545.2,270.9
					c-0.2-1.9-1.2-3.5-3.3-3.5c-1.8,0-3.2,1.5-3.4,3.5H545.2z"/>
				<path fill="#FFFFFF" d="M554.1,275.5c1.4,0,2.4-0.6,3.3-1.5l1,0.9c-1,1.2-2.3,1.9-4.3,1.9c-2.8,0-5.2-2.2-5.2-5.4
					c0-3,2.1-5.4,5-5.4c3.1,0,4.8,2.4,4.8,5.5c0,0.1,0,0.3,0,0.5h-8.2C550.6,274.2,552.2,275.5,554.1,275.5z M557.1,270.9
					c-0.2-1.9-1.2-3.5-3.3-3.5c-1.8,0-3.2,1.5-3.4,3.5H557.1z"/>
				<path fill="#FFFFFF" d="M569.6,276.6v-2.1c-0.8,1.2-2.1,2.3-4,2.3c-2.5,0-4.9-2-4.9-5.4c0-3.4,2.5-5.4,4.9-5.4
					c1.9,0,3.2,1,4,2.2V262h1.5v14.6H569.6z M566,267.4c-2,0-3.6,1.5-3.6,4c0,2.5,1.7,4,3.6,4c1.9,0,3.7-1.6,3.7-4
					C569.7,269,567.9,267.4,566,267.4z"/>
				<path fill="#FFFFFF" d="M578,276.8c-1.5,0-3.1-0.6-4.3-1.5l0.8-1.1c1.1,0.8,2.4,1.3,3.6,1.3c1.2,0,2.1-0.6,2.1-1.6v0
					c0-1-1.2-1.4-2.6-1.8c-1.6-0.5-3.4-1-3.4-2.9v0c0-1.8,1.5-3,3.5-3c1.3,0,2.7,0.4,3.7,1.1l-0.7,1.2c-1-0.6-2.1-1-3.1-1
					c-1.2,0-2,0.6-2,1.5v0c0,1,1.3,1.4,2.7,1.8c1.6,0.5,3.3,1.1,3.3,3v0C581.7,275.7,580.1,276.8,578,276.8z"/>
				<path fill="#FFFFFF" d="M595.6,276.9c-0.9,2.1-1.9,2.9-3.4,2.9c-0.9,0-1.5-0.2-2.2-0.5l0.5-1.2c0.5,0.3,1,0.4,1.6,0.4
					c0.9,0,1.5-0.5,2.1-1.9l-4.7-10.3h1.7l3.8,8.6l3.3-8.6h1.6L595.6,276.9z"/>
				<path fill="#FFFFFF" d="M606.5,276.8c-3.1,0-5.4-2.4-5.4-5.4s2.3-5.4,5.4-5.4c3.1,0,5.4,2.4,5.4,5.4S609.6,276.8,606.5,276.8z
					 M606.5,267.4c-2.2,0-3.8,1.8-3.8,4c0,2.2,1.6,4,3.8,4c2.2,0,3.8-1.8,3.8-4C610.4,269.2,608.7,267.4,606.5,267.4z"/>
				<path fill="#FFFFFF" d="M622.1,266.3h1.5v10.3h-1.5v-1.8c-0.7,1.1-1.8,2-3.5,2c-2.5,0-4-1.7-4-4.1v-6.4h1.5v6
					c0,1.9,1,3.1,2.9,3.1c1.8,0,3.1-1.3,3.1-3.2V266.3z"/>
				<path fill="#FFFFFF" d="M628.6,276.6H627v-10.3h1.5v2.7c0.8-1.7,2.3-3,4.2-2.9v1.7h-0.1c-2.3,0-4.1,1.6-4.1,4.7V276.6z"/>
				<path fill="#FFFFFF" d="M642.7,276.6h-1.5V262h1.5v6.1c0.7-1.1,1.8-2,3.5-2c2.5,0,4,1.7,4,4.1v6.4h-1.5v-6c0-1.9-1-3.1-2.9-3.1
					c-1.8,0-3.1,1.3-3.1,3.2V276.6z"/>
				<path fill="#FFFFFF" d="M658,275.5c1.4,0,2.4-0.6,3.3-1.5l1,0.9c-1,1.2-2.3,1.9-4.3,1.9c-2.8,0-5.2-2.2-5.2-5.4
					c0-3,2.1-5.4,5-5.4c3.1,0,4.8,2.4,4.8,5.5c0,0.1,0,0.3,0,0.5h-8.2C654.6,274.2,656.2,275.5,658,275.5z M661,270.9
					c-0.2-1.9-1.2-3.5-3.3-3.5c-1.8,0-3.2,1.5-3.4,3.5H661z"/>
				<path fill="#FFFFFF" d="M665.4,276.6V262h1.5v14.6H665.4z"/>
				<path fill="#FFFFFF" d="M676.1,276.8c-1.9,0-3.2-1-4-2.2v5.2h-1.5v-13.5h1.5v2.1c0.8-1.2,2.1-2.3,4-2.3c2.5,0,4.9,2,4.9,5.4
					C681,274.8,678.6,276.8,676.1,276.8z M675.8,267.4c-1.9,0-3.7,1.6-3.7,4c0,2.4,1.8,4,3.7,4c2,0,3.6-1.5,3.6-4
					C679.4,269,677.7,267.4,675.8,267.4z"/>
				<path fill="#FFFFFF" d="M691.9,273.7c0,1.3,0.7,1.7,1.7,1.7c0.5,0,1-0.1,1.5-0.4v1.3c-0.5,0.3-1.1,0.4-1.9,0.4
					c-1.7,0-2.9-0.8-2.9-2.9v-6.2h-1.4v-1.4h1.4v-3.1h1.5v3.1h3.3v1.4h-3.3V273.7z"/>
				<path fill="#FFFFFF" d="M702.3,276.8c-3.1,0-5.4-2.4-5.4-5.4s2.3-5.4,5.4-5.4c3.1,0,5.4,2.4,5.4,5.4S705.5,276.8,702.3,276.8z
					 M702.3,267.4c-2.2,0-3.8,1.8-3.8,4c0,2.2,1.6,4,3.8,4c2.2,0,3.8-1.8,3.8-4C706.2,269.2,704.5,267.4,702.3,267.4z"/>
				<path fill="#FFFFFF" d="M248.9,300.8c-3,0-5.3-2.5-5.3-5.4c0-2.9,2.3-5.4,5.3-5.4c2,0,3.2,0.8,4.1,1.8l-1,1.1
					c-0.8-0.9-1.7-1.6-3.1-1.6c-2.1,0-3.7,1.8-3.7,4c0,2.3,1.6,4,3.8,4c1.3,0,2.3-0.7,3.2-1.5l1,0.9
					C252.1,300,250.8,300.8,248.9,300.8z"/>
				<path fill="#FFFFFF" d="M260.1,300.8c-3.1,0-5.4-2.4-5.4-5.4s2.3-5.4,5.4-5.4c3.1,0,5.4,2.4,5.4,5.4S263.2,300.8,260.1,300.8z
					 M260.1,291.4c-2.2,0-3.8,1.8-3.8,4c0,2.2,1.6,4,3.8,4c2.2,0,3.8-1.8,3.8-4C263.9,293.2,262.2,291.4,260.1,291.4z"/>
				<path fill="#FFFFFF" d="M280.1,290c2.4,0,3.8,1.6,3.8,4.2v6.4h-1.5v-6c0-2-1-3.1-2.7-3.1c-1.6,0-2.9,1.2-2.9,3.2v6h-1.5v-6.1
					c0-1.9-1-3.1-2.7-3.1s-2.9,1.4-2.9,3.3v5.9h-1.5v-10.3h1.5v1.7c0.7-1,1.6-2,3.3-2c1.7,0,2.8,0.9,3.3,2.1
					C277.2,291,278.3,290,280.1,290z"/>
				<path fill="#FFFFFF" d="M292.8,300.8c-1.9,0-3.2-1-4-2.2v5.2h-1.5v-13.5h1.5v2.1c0.8-1.2,2.1-2.3,4-2.3c2.5,0,4.9,2,4.9,5.4
					C297.7,298.8,295.3,300.8,292.8,300.8z M292.5,291.4c-1.9,0-3.7,1.6-3.7,4c0,2.4,1.8,4,3.7,4c2,0,3.6-1.5,3.6-4
					C296.1,293,294.5,291.4,292.5,291.4z"/>
				<path fill="#FFFFFF" d="M300.7,300.6V286h1.5v14.6H300.7z"/>
				<path fill="#FFFFFF" d="M310.4,299.5c1.4,0,2.4-0.6,3.3-1.5l1,0.9c-1,1.2-2.3,1.9-4.3,1.9c-2.8,0-5.2-2.2-5.2-5.4
					c0-3,2.1-5.4,5-5.4c3.1,0,4.8,2.4,4.8,5.5c0,0.1,0,0.3,0,0.5h-8.2C307,298.2,308.6,299.5,310.4,299.5z M313.4,294.9
					c-0.2-1.9-1.2-3.5-3.3-3.5c-1.8,0-3.2,1.5-3.4,3.5H313.4z"/>
				<path fill="#FFFFFF" d="M319.7,297.7c0,1.3,0.7,1.7,1.7,1.7c0.5,0,1-0.1,1.5-0.4v1.3c-0.5,0.3-1.1,0.4-1.9,0.4
					c-1.7,0-2.9-0.8-2.9-2.9v-6.2h-1.4v-1.4h1.4v-3.1h1.5v3.1h3.3v1.4h-3.3V297.7z"/>
				<path fill="#FFFFFF" d="M330,299.5c1.4,0,2.4-0.6,3.3-1.5l1,0.9c-1,1.2-2.3,1.9-4.3,1.9c-2.8,0-5.2-2.2-5.2-5.4
					c0-3,2.1-5.4,5-5.4c3.1,0,4.8,2.4,4.8,5.5c0,0.1,0,0.3,0,0.5h-8.2C326.6,298.2,328.2,299.5,330,299.5z M333,294.9
					c-0.2-1.9-1.2-3.5-3.3-3.5c-1.8,0-3.2,1.5-3.4,3.5H333z"/>
				<path fill="#FFFFFF" d="M343.9,292.2l-0.5-1.3c1.1-0.5,2.3-0.9,3.8-0.9c2.8,0,4.4,1.4,4.4,4.2v6.3h-1.5V299
					c-0.7,0.9-1.9,1.8-3.7,1.8c-1.9,0-3.9-1.1-3.9-3.2c0-2.2,1.8-3.4,4.4-3.4c1.3,0,2.3,0.2,3.2,0.4v-0.4c0-1.9-1.1-2.8-3.1-2.8
					C345.8,291.5,344.8,291.8,343.9,292.2z M344.1,297.5c0,1.3,1.2,2.1,2.6,2.1c1.9,0,3.5-1.2,3.5-2.8v-1c-0.8-0.2-1.8-0.4-3-0.4
					C345.1,295.4,344.1,296.2,344.1,297.5z"/>
				<path fill="#FFFFFF" d="M362.9,297.7c0,1.3,0.7,1.7,1.7,1.7c0.5,0,1-0.1,1.5-0.4v1.3c-0.5,0.3-1.1,0.4-1.9,0.4
					c-1.7,0-2.9-0.8-2.9-2.9v-6.2H360v-1.4h1.4v-3.1h1.5v3.1h3.3v1.4h-3.3V297.7z"/>
				<path fill="#FFFFFF" d="M369.5,292.2l-0.5-1.3c1.1-0.5,2.3-0.9,3.8-0.9c2.8,0,4.4,1.4,4.4,4.2v6.3h-1.5V299
					c-0.7,0.9-1.9,1.8-3.7,1.8c-1.9,0-3.9-1.1-3.9-3.2c0-2.2,1.8-3.4,4.4-3.4c1.3,0,2.3,0.2,3.2,0.4v-0.4c0-1.9-1.1-2.8-3.1-2.8
					C371.5,291.5,370.5,291.8,369.5,292.2z M369.7,297.5c0,1.3,1.2,2.1,2.6,2.1c1.9,0,3.5-1.2,3.5-2.8v-1c-0.8-0.2-1.8-0.4-3-0.4
					C370.8,295.4,369.7,296.2,369.7,297.5z"/>
				<path fill="#FFFFFF" d="M383.9,300.8c-1.5,0-3.1-0.6-4.3-1.5l0.8-1.1c1.1,0.8,2.4,1.3,3.6,1.3c1.2,0,2.1-0.6,2.1-1.6v0
					c0-1-1.2-1.4-2.6-1.8c-1.6-0.5-3.4-1-3.4-2.9v0c0-1.8,1.5-3,3.5-3c1.3,0,2.7,0.4,3.7,1.1l-0.7,1.2c-1-0.6-2.1-1-3.1-1
					c-1.2,0-2,0.6-2,1.5v0c0,1,1.3,1.4,2.7,1.8c1.6,0.5,3.3,1.1,3.3,3v0C387.6,299.7,386,300.8,383.9,300.8z"/>
				<path fill="#FFFFFF" d="M399.7,300.6h-1.8l-3.7-4.8l-2.1,2.1v2.7h-1.5V286h1.5v10.1l5.6-5.8h1.9l-4.3,4.4L399.7,300.6z"/>
				<path fill="#FFFFFF" d="M401.7,300.6v-2.1h1.8v2.1H401.7z"/>
			</g>
			<g>
				<path fill="#21A0FF" d="M243.8,229.6l6-5.1c2.4-2,3.3-3.1,3.3-4.7c0-1.7-1.2-2.7-2.8-2.7s-2.7,0.9-4,2.6l-2.2-1.7
					c1.7-2.3,3.3-3.6,6.4-3.6c3.4,0,5.8,2.1,5.8,5.2v0c0,2.7-1.5,4.2-4.5,6.8l-3.6,3h8.3v2.7h-12.6V229.6z"/>
				<path fill="#21A0FF" d="M259.6,228.6h3.3v3.4h-3.3V228.6z"/>
				<path fill="#21A0FF" d="M273.6,223.3L273.6,223.3c0-5,3.7-9.1,9-9.1c3.2,0,5.2,1.1,6.8,2.7l-2,2.3c-1.4-1.3-2.9-2.2-4.9-2.2
					c-3.3,0-5.8,2.8-5.8,6.2v0c0,3.4,2.4,6.2,5.8,6.2c2.1,0,3.5-0.8,5-2.2l2,2c-1.8,1.9-3.8,3.1-7.1,3.1
					C277.4,232.3,273.6,228.3,273.6,223.3z"/>
				<path fill="#21A0FF" d="M291.5,225.5L291.5,225.5c0-3.8,3-6.9,7-6.9c4,0,7,3.1,7,6.8v0c0,3.7-3,6.9-7.1,6.9
					C294.5,232.3,291.5,229.2,291.5,225.5z M302.5,225.5L302.5,225.5c0-2.4-1.7-4.3-4-4.3c-2.4,0-4,1.9-4,4.2v0c0,2.3,1.7,4.2,4,4.2
					C301,229.7,302.5,227.8,302.5,225.5z"/>
				<path fill="#21A0FF" d="M308.7,218.8h3v2c0.8-1.2,2.1-2.3,4.1-2.3c3,0,4.7,2,4.7,5v8.4h-3v-7.5c0-2-1-3.2-2.8-3.2
					c-1.8,0-3,1.2-3,3.3v7.4h-3V218.8z"/>
				<path fill="#21A0FF" d="M324.1,218.8h3v2c0.8-1.2,2.1-2.3,4.1-2.3c3,0,4.7,2,4.7,5v8.4h-3v-7.5c0-2-1-3.2-2.8-3.2
					c-1.8,0-3,1.2-3,3.3v7.4h-3V218.8z"/>
				<path fill="#21A0FF" d="M338.9,225.5L338.9,225.5c0-3.8,2.7-6.9,6.4-6.9c4.2,0,6.3,3.3,6.3,7.1c0,0.3,0,0.5,0,0.8H342
					c0.3,2.1,1.8,3.3,3.8,3.3c1.5,0,2.5-0.5,3.6-1.6l1.8,1.6c-1.2,1.5-3,2.5-5.4,2.5C341.9,232.3,338.9,229.5,338.9,225.5z
					 M348.7,224.5c-0.2-1.9-1.3-3.5-3.3-3.5c-1.8,0-3.2,1.4-3.4,3.5H348.7z"/>
				<path fill="#21A0FF" d="M354,225.5L354,225.5c0-3.8,2.9-6.9,6.9-6.9c2.5,0,4,0.9,5.3,2.3l-1.9,2c-0.9-1-1.9-1.6-3.4-1.6
					c-2.2,0-3.8,1.9-3.8,4.2v0c0,2.3,1.6,4.2,3.9,4.2c1.4,0,2.5-0.6,3.4-1.6l1.8,1.8c-1.3,1.5-2.8,2.5-5.4,2.5
					C356.9,232.3,354,229.2,354,225.5z"/>
				<path fill="#21A0FF" d="M369.7,228.4v-6.9H368v-2.6h1.7v-3.6h3v3.6h3.5v2.6h-3.5v6.5c0,1.2,0.6,1.6,1.6,1.6
					c0.7,0,1.3-0.1,1.9-0.4v2.5c-0.8,0.4-1.6,0.7-2.7,0.7C371.2,232.2,369.7,231.2,369.7,228.4z"/>
			</g>
		</g>
		<g>
			<g>
				<path fill="#FFFFFF" d="M254.6,458h-8.5v4.8h7.6v1.4h-7.6v4.9h8.6v1.4h-10.2v-14h10.1V458z"/>
				<path fill="#FFFFFF" d="M258.2,462.2l-0.5-1.3c1.1-0.5,2.3-0.9,3.8-0.9c2.8,0,4.4,1.4,4.4,4.2v6.3h-1.5V469
					c-0.7,0.9-1.9,1.8-3.7,1.8c-1.9,0-3.9-1.1-3.9-3.2c0-2.2,1.8-3.4,4.4-3.4c1.3,0,2.3,0.2,3.2,0.4v-0.4c0-1.9-1.1-2.8-3.1-2.8
					C260.1,461.5,259.2,461.8,258.2,462.2z M258.4,467.5c0,1.3,1.2,2.1,2.6,2.1c1.9,0,3.5-1.2,3.5-2.8v-1c-0.8-0.2-1.8-0.4-3-0.4
					C259.5,465.4,258.4,466.2,258.4,467.5z"/>
				<path fill="#FFFFFF" d="M270.7,470.6h-1.5v-10.3h1.5v2.7c0.8-1.7,2.3-3,4.2-2.9v1.7h-0.1c-2.3,0-4.1,1.6-4.1,4.7V470.6z"/>
				<path fill="#FFFFFF" d="M278.8,470.6h-1.5v-10.3h1.5v1.8c0.7-1.1,1.8-2,3.5-2c2.5,0,4,1.7,4,4.1v6.4h-1.5v-6
					c0-1.9-1-3.1-2.9-3.1c-1.8,0-3.1,1.3-3.1,3.2V470.6z"/>
				<path fill="#FFFFFF" d="M295.7,458v-1.7h1.8v1.7H295.7z M295.8,470.6v-10.3h1.5v10.3H295.8z"/>
				<path fill="#FFFFFF" d="M302.4,470.6h-1.5v-10.3h1.5v1.8c0.7-1.1,1.8-2,3.5-2c2.5,0,4,1.7,4,4.1v6.4h-1.5v-6
					c0-1.9-1-3.1-2.9-3.1c-1.8,0-3.1,1.3-3.1,3.2V470.6z"/>
				<path fill="#FFFFFF" d="M316.6,470.8c-1.5,0-3.1-0.6-4.3-1.5l0.8-1.1c1.1,0.8,2.4,1.3,3.6,1.3c1.2,0,2.1-0.6,2.1-1.6v0
					c0-1-1.2-1.4-2.6-1.8c-1.6-0.5-3.4-1-3.4-2.9v0c0-1.8,1.5-3,3.5-3c1.3,0,2.7,0.4,3.7,1.1l-0.7,1.2c-1-0.6-2.1-1-3.1-1
					c-1.2,0-2,0.6-2,1.5v0c0,1,1.3,1.4,2.7,1.8c1.6,0.5,3.3,1.1,3.3,3v0C320.3,469.7,318.7,470.8,316.6,470.8z"/>
				<path fill="#FFFFFF" d="M325,467.7c0,1.3,0.7,1.7,1.7,1.7c0.5,0,1-0.1,1.5-0.4v1.3c-0.5,0.3-1.1,0.4-1.9,0.4
					c-1.7,0-2.9-0.8-2.9-2.9v-6.2h-1.4v-1.4h1.4v-3.1h1.5v3.1h3.3v1.4H325V467.7z"/>
				<path fill="#FFFFFF" d="M331.6,462.2l-0.5-1.3c1.1-0.5,2.3-0.9,3.8-0.9c2.8,0,4.4,1.4,4.4,4.2v6.3h-1.5V469
					c-0.7,0.9-1.9,1.8-3.7,1.8c-1.9,0-3.9-1.1-3.9-3.2c0-2.2,1.8-3.4,4.4-3.4c1.3,0,2.3,0.2,3.2,0.4v-0.4c0-1.9-1.1-2.8-3.1-2.8
					C333.6,461.5,332.6,461.8,331.6,462.2z M331.8,467.5c0,1.3,1.2,2.1,2.6,2.1c1.9,0,3.5-1.2,3.5-2.8v-1c-0.8-0.2-1.8-0.4-3-0.4
					C332.9,465.4,331.8,466.2,331.8,467.5z"/>
				<path fill="#FFFFFF" d="M344.2,470.6h-1.5v-10.3h1.5v1.8c0.7-1.1,1.8-2,3.5-2c2.5,0,4,1.7,4,4.1v6.4h-1.5v-6
					c0-1.9-1-3.1-2.9-3.1c-1.8,0-3.1,1.3-3.1,3.2V470.6z"/>
				<path fill="#FFFFFF" d="M357,467.7c0,1.3,0.7,1.7,1.7,1.7c0.5,0,1-0.1,1.5-0.4v1.3c-0.5,0.3-1.1,0.4-1.9,0.4
					c-1.7,0-2.9-0.8-2.9-2.9v-6.2H354v-1.4h1.4v-3.1h1.5v3.1h3.3v1.4H357V467.7z"/>
				<path fill="#FFFFFF" d="M363.2,470.6V456h1.5v14.6H363.2z"/>
				<path fill="#FFFFFF" d="M373.3,470.9c-0.9,2.1-1.9,2.9-3.4,2.9c-0.9,0-1.5-0.2-2.2-0.5l0.5-1.2c0.5,0.3,1,0.4,1.6,0.4
					c0.9,0,1.5-0.5,2.1-1.9l-4.7-10.3h1.7l3.8,8.6l3.3-8.6h1.6L373.3,470.9z"/>
				<path fill="#FFFFFF" d="M393.4,460.3h1.5v10.3h-1.5v-1.8c-0.7,1.1-1.8,2-3.5,2c-2.5,0-4-1.7-4-4.1v-6.4h1.5v6
					c0,1.9,1,3.1,2.9,3.1c1.8,0,3.1-1.3,3.1-3.2V460.3z"/>
				<path fill="#FFFFFF" d="M403.9,470.8c-1.9,0-3.2-1-4-2.2v5.2h-1.5v-13.5h1.5v2.1c0.8-1.2,2.1-2.3,4-2.3c2.5,0,4.9,2,4.9,5.4
					C408.9,468.8,406.4,470.8,403.9,470.8z M403.6,461.4c-1.9,0-3.7,1.6-3.7,4c0,2.4,1.8,4,3.7,4c2,0,3.6-1.5,3.6-4
					C407.3,463,405.6,461.4,403.6,461.4z"/>
				<path fill="#FFFFFF" d="M416.4,470.8c-3.1,0-5.4-2.4-5.4-5.4s2.3-5.4,5.4-5.4c3.1,0,5.4,2.4,5.4,5.4S419.5,470.8,416.4,470.8z
					 M416.4,461.4c-2.2,0-3.8,1.8-3.8,4c0,2.2,1.6,4,3.8,4c2.2,0,3.8-1.8,3.8-4C420.3,463.2,418.6,461.4,416.4,461.4z"/>
				<path fill="#FFFFFF" d="M426.2,470.6h-1.5v-10.3h1.5v1.8c0.7-1.1,1.8-2,3.5-2c2.5,0,4,1.7,4,4.1v6.4h-1.5v-6
					c0-1.9-1-3.1-2.9-3.1c-1.8,0-3.1,1.3-3.1,3.2V470.6z"/>
				<path fill="#FFFFFF" d="M447.6,470.8c-3,0-5.3-2.5-5.3-5.4c0-2.9,2.3-5.4,5.3-5.4c2,0,3.2,0.8,4.1,1.8l-1,1.1
					c-0.8-0.9-1.7-1.6-3.1-1.6c-2.1,0-3.7,1.8-3.7,4c0,2.3,1.6,4,3.8,4c1.3,0,2.3-0.7,3.2-1.5l1,0.9
					C450.8,470,449.5,470.8,447.6,470.8z"/>
				<path fill="#FFFFFF" d="M458.8,470.8c-3.1,0-5.4-2.4-5.4-5.4s2.3-5.4,5.4-5.4c3.1,0,5.4,2.4,5.4,5.4S461.9,470.8,458.8,470.8z
					 M458.8,461.4c-2.2,0-3.8,1.8-3.8,4c0,2.2,1.6,4,3.8,4c2.2,0,3.8-1.8,3.8-4C462.6,463.2,461,461.4,458.8,461.4z"/>
				<path fill="#FFFFFF" d="M478.8,460c2.4,0,3.8,1.6,3.8,4.2v6.4h-1.5v-6c0-2-1-3.1-2.7-3.1c-1.6,0-2.9,1.2-2.9,3.2v6h-1.5v-6.1
					c0-1.9-1-3.1-2.7-3.1c-1.6,0-2.9,1.4-2.9,3.3v5.9H467v-10.3h1.5v1.7c0.7-1,1.6-2,3.3-2c1.7,0,2.8,0.9,3.3,2.1
					C475.9,461,477,460,478.8,460z"/>
				<path fill="#FFFFFF" d="M491.5,470.8c-1.9,0-3.2-1-4-2.2v5.2H486v-13.5h1.5v2.1c0.8-1.2,2.1-2.3,4-2.3c2.5,0,4.9,2,4.9,5.4
					C496.4,468.8,494,470.8,491.5,470.8z M491.2,461.4c-1.9,0-3.7,1.6-3.7,4c0,2.4,1.8,4,3.7,4c2,0,3.6-1.5,3.6-4
					C494.9,463,493.2,461.4,491.2,461.4z"/>
				<path fill="#FFFFFF" d="M499.4,470.6V456h1.5v14.6H499.4z"/>
				<path fill="#FFFFFF" d="M509.1,469.5c1.4,0,2.4-0.6,3.3-1.5l1,0.9c-1,1.2-2.3,1.9-4.3,1.9c-2.8,0-5.2-2.2-5.2-5.4
					c0-3,2.1-5.4,5-5.4c3.1,0,4.8,2.4,4.8,5.5c0,0.1,0,0.3,0,0.5h-8.2C505.7,468.2,507.3,469.5,509.1,469.5z M512.1,464.9
					c-0.2-1.9-1.2-3.5-3.3-3.5c-1.8,0-3.2,1.5-3.4,3.5H512.1z"/>
				<path fill="#FFFFFF" d="M518.5,467.7c0,1.3,0.7,1.7,1.7,1.7c0.5,0,1-0.1,1.5-0.4v1.3c-0.5,0.3-1.1,0.4-1.9,0.4
					c-1.7,0-2.9-0.8-2.9-2.9v-6.2h-1.4v-1.4h1.4v-3.1h1.5v3.1h3.3v1.4h-3.3V467.7z"/>
				<path fill="#FFFFFF" d="M524.5,458v-1.7h1.8v1.7H524.5z M524.6,470.6v-10.3h1.5v10.3H524.6z"/>
				<path fill="#FFFFFF" d="M531.3,470.6h-1.5v-10.3h1.5v1.8c0.7-1.1,1.8-2,3.5-2c2.5,0,4,1.7,4,4.1v6.4h-1.5v-6
					c0-1.9-1-3.1-2.9-3.1c-1.8,0-3.1,1.3-3.1,3.2V470.6z"/>
				<path fill="#FFFFFF" d="M546.6,473.8c-1.7,0-3.3-0.5-4.7-1.4l0.7-1.2c1.2,0.9,2.5,1.3,4,1.3c2.3,0,3.8-1.3,3.8-3.7v-1.2
					c-0.9,1.2-2.2,2.2-4.1,2.2c-2.5,0-4.9-1.8-4.9-4.9c0-3,2.4-4.9,4.9-4.9c1.9,0,3.2,1,4,2.1v-1.9h1.5v8.5
					C551.9,472.1,549.8,473.8,546.6,473.8z M546.6,461.4c-2,0-3.6,1.3-3.6,3.5c0,2.1,1.7,3.5,3.6,3.5c2,0,3.8-1.4,3.8-3.5
					C550.4,462.8,548.6,461.4,546.6,461.4z"/>
				<path fill="#FFFFFF" d="M563.4,467.7c0,1.3,0.7,1.7,1.7,1.7c0.5,0,1-0.1,1.5-0.4v1.3c-0.5,0.3-1.1,0.4-1.9,0.4
					c-1.7,0-2.9-0.8-2.9-2.9v-6.2h-1.4v-1.4h1.4v-3.1h1.5v3.1h3.3v1.4h-3.3V467.7z"/>
				<path fill="#FFFFFF" d="M570.9,470.6h-1.5V456h1.5v6.1c0.7-1.1,1.8-2,3.5-2c2.5,0,4,1.7,4,4.1v6.4h-1.5v-6c0-1.9-1-3.1-2.9-3.1
					c-1.8,0-3.1,1.3-3.1,3.2V470.6z"/>
				<path fill="#FFFFFF" d="M586.3,469.5c1.4,0,2.4-0.6,3.3-1.5l1,0.9c-1,1.2-2.3,1.9-4.3,1.9c-2.8,0-5.2-2.2-5.2-5.4
					c0-3,2.1-5.4,5-5.4c3.1,0,4.8,2.4,4.8,5.5c0,0.1,0,0.3,0,0.5h-8.2C582.9,468.2,584.5,469.5,586.3,469.5z M589.3,464.9
					c-0.2-1.9-1.2-3.5-3.3-3.5c-1.8,0-3.2,1.5-3.4,3.5H589.3z"/>
				<path fill="#FFFFFF" d="M601.2,460.3v10.9c0,1.8-1,2.7-2.5,2.7c-0.4,0-0.6,0-1-0.1v-1.3c0.2,0,0.5,0.1,0.8,0.1
					c0.7,0,1.2-0.4,1.2-1.4v-10.9H601.2z M599.6,458v-1.7h1.8v1.7H599.6z"/>
				<path fill="#FFFFFF" d="M609.5,470.8c-3.1,0-5.4-2.4-5.4-5.4s2.3-5.4,5.4-5.4c3.1,0,5.4,2.4,5.4,5.4S612.7,470.8,609.5,470.8z
					 M609.5,461.4c-2.2,0-3.8,1.8-3.8,4c0,2.2,1.6,4,3.8,4c2.2,0,3.8-1.8,3.8-4C613.4,463.2,611.7,461.4,609.5,461.4z"/>
				<path fill="#FFFFFF" d="M623.2,470.8c-1.9,0-3.2-1-4-2.2v2h-1.5V456h1.5v6.3c0.8-1.2,2.1-2.3,4-2.3c2.5,0,4.9,2,4.9,5.4
					C628.2,468.8,625.7,470.8,623.2,470.8z M623,461.4c-1.9,0-3.7,1.6-3.7,4c0,2.4,1.8,4,3.7,4c2,0,3.6-1.5,3.6-4
					C626.6,463,624.9,461.4,623,461.4z"/>
				<path fill="#FFFFFF" d="M631.4,470.6h-0.7v-2.1h1.8v1.8c0,1.6-0.7,2.4-2.2,2.7l-0.2-0.7C631,472,631.4,471.5,631.4,470.6z"/>
				<path fill="#FFFFFF" d="M642.3,462.2l-0.5-1.3c1.1-0.5,2.3-0.9,3.8-0.9c2.8,0,4.4,1.4,4.4,4.2v6.3h-1.5V469
					c-0.7,0.9-1.9,1.8-3.7,1.8c-1.9,0-3.9-1.1-3.9-3.2c0-2.2,1.8-3.4,4.4-3.4c1.3,0,2.3,0.2,3.2,0.4v-0.4c0-1.9-1.1-2.8-3.1-2.8
					C644.2,461.5,643.3,461.8,642.3,462.2z M642.5,467.5c0,1.3,1.2,2.1,2.6,2.1c1.9,0,3.5-1.2,3.5-2.8v-1c-0.8-0.2-1.8-0.4-3-0.4
					C643.6,465.4,642.5,466.2,642.5,467.5z"/>
				<path fill="#FFFFFF" d="M654.8,470.6h-1.5v-10.3h1.5v1.8c0.7-1.1,1.8-2,3.5-2c2.5,0,4,1.7,4,4.1v6.4h-1.5v-6
					c0-1.9-1-3.1-2.9-3.1c-1.8,0-3.1,1.3-3.1,3.2V470.6z"/>
				<path fill="#FFFFFF" d="M673.9,470.6v-2.1c-0.8,1.2-2.1,2.3-4,2.3c-2.5,0-4.9-2-4.9-5.4c0-3.4,2.5-5.4,4.9-5.4
					c1.9,0,3.2,1,4,2.2V456h1.5v14.6H673.9z M670.2,461.4c-2,0-3.6,1.5-3.6,4c0,2.5,1.7,4,3.6,4c1.9,0,3.7-1.6,3.7-4
					C674,463,672.2,461.4,670.2,461.4z"/>
				<path fill="#FFFFFF" d="M695.2,468.6l2.7-8.3h1.6l-3.6,10.4h-1.3l-2.8-8.2l-2.8,8.2h-1.4l-3.6-10.4h1.6l2.7,8.3l2.8-8.3h1.3
					L695.2,468.6z"/>
				<path fill="#FFFFFF" d="M706.3,470.8c-3.1,0-5.4-2.4-5.4-5.4s2.3-5.4,5.4-5.4c3.1,0,5.4,2.4,5.4,5.4S709.5,470.8,706.3,470.8z
					 M706.3,461.4c-2.2,0-3.8,1.8-3.8,4c0,2.2,1.6,4,3.8,4c2.2,0,3.8-1.8,3.8-4C710.2,463.2,708.5,461.4,706.3,461.4z"/>
				<path fill="#FFFFFF" d="M716.1,470.6h-1.5v-10.3h1.5v2.7c0.8-1.7,2.3-3,4.2-2.9v1.7h-0.1c-2.3,0-4.1,1.6-4.1,4.7V470.6z"/>
				<path fill="#FFFFFF" d="M731.8,470.6H730l-3.7-4.8l-2.1,2.1v2.7h-1.5V456h1.5v10.1l5.6-5.8h1.9l-4.3,4.4L731.8,470.6z"/>
				<path fill="#FFFFFF" d="M248.9,494.8c-3.1,0-5.4-2.4-5.4-5.4s2.3-5.4,5.4-5.4c3.1,0,5.4,2.4,5.4,5.4S252.1,494.8,248.9,494.8z
					 M248.9,485.4c-2.2,0-3.8,1.8-3.8,4c0,2.2,1.6,4,3.8,4c2.2,0,3.8-1.8,3.8-4C252.8,487.2,251.1,485.4,248.9,485.4z"/>
				<path fill="#FFFFFF" d="M258.7,494.6h-1.5v-10.3h1.5v1.8c0.7-1.1,1.8-2,3.5-2c2.5,0,4,1.7,4,4.1v6.4h-1.5v-6
					c0-1.9-1-3.1-2.9-3.1c-1.8,0-3.1,1.3-3.1,3.2V494.6z"/>
				<path fill="#FFFFFF" d="M280.5,494.9c-0.9,2.1-1.9,2.9-3.4,2.9c-0.9,0-1.5-0.2-2.2-0.5l0.5-1.2c0.5,0.3,1,0.4,1.6,0.4
					c0.9,0,1.5-0.5,2.1-1.9l-4.7-10.3h1.7l3.8,8.6l3.3-8.6h1.6L280.5,494.9z"/>
				<path fill="#FFFFFF" d="M291.4,494.8c-3.1,0-5.4-2.4-5.4-5.4s2.3-5.4,5.4-5.4c3.1,0,5.4,2.4,5.4,5.4S294.5,494.8,291.4,494.8z
					 M291.4,485.4c-2.2,0-3.8,1.8-3.8,4c0,2.2,1.6,4,3.8,4c2.2,0,3.8-1.8,3.8-4C295.2,487.2,293.6,485.4,291.4,485.4z"/>
				<path fill="#FFFFFF" d="M306.9,484.3h1.5v10.3h-1.5v-1.8c-0.7,1.1-1.8,2-3.5,2c-2.5,0-4-1.7-4-4.1v-6.4h1.5v6
					c0,1.9,1,3.1,2.9,3.1c1.8,0,3.1-1.3,3.1-3.2V484.3z"/>
				<path fill="#FFFFFF" d="M313.5,494.6h-1.5v-10.3h1.5v2.7c0.8-1.7,2.3-3,4.2-2.9v1.7h-0.1c-2.3,0-4.1,1.6-4.1,4.7V494.6z"/>
				<path fill="#FFFFFF" d="M330.7,494.8c-3.1,0-5.4-2.4-5.4-5.4s2.3-5.4,5.4-5.4c3.1,0,5.4,2.4,5.4,5.4S333.9,494.8,330.7,494.8z
					 M330.7,485.4c-2.2,0-3.8,1.8-3.8,4c0,2.2,1.6,4,3.8,4c2.2,0,3.8-1.8,3.8-4C334.6,487.2,332.9,485.4,330.7,485.4z"/>
				<path fill="#FFFFFF" d="M348.8,492.6l2.7-8.3h1.6l-3.6,10.4h-1.3l-2.8-8.2l-2.8,8.2h-1.4l-3.6-10.4h1.6l2.7,8.3l2.8-8.3h1.3
					L348.8,492.6z"/>
				<path fill="#FFFFFF" d="M357.2,494.6h-1.5v-10.3h1.5v1.8c0.7-1.1,1.8-2,3.5-2c2.5,0,4,1.7,4,4.1v6.4h-1.5v-6
					c0-1.9-1-3.1-2.9-3.1c-1.8,0-3.1,1.3-3.1,3.2V494.6z"/>
				<path fill="#FFFFFF" d="M376.1,491.7c0,1.3,0.7,1.7,1.7,1.7c0.5,0,1-0.1,1.5-0.4v1.3c-0.5,0.3-1.1,0.4-1.9,0.4
					c-1.7,0-2.9-0.8-2.9-2.9v-6.2h-1.4v-1.4h1.4v-3.1h1.5v3.1h3.3v1.4h-3.3V491.7z"/>
				<path fill="#FFFFFF" d="M382.1,482v-1.7h1.8v1.7H382.1z M382.2,494.6v-10.3h1.5v10.3H382.2z"/>
				<path fill="#FFFFFF" d="M399.2,484c2.4,0,3.8,1.6,3.8,4.2v6.4h-1.5v-6c0-2-1-3.1-2.7-3.1c-1.6,0-2.9,1.2-2.9,3.2v6h-1.5v-6.1
					c0-1.9-1-3.1-2.7-3.1c-1.6,0-2.9,1.4-2.9,3.3v5.9h-1.5v-10.3h1.5v1.7c0.7-1,1.6-2,3.3-2c1.7,0,2.8,0.9,3.3,2.1
					C396.3,485,397.4,484,399.2,484z"/>
				<path fill="#FFFFFF" d="M410.9,493.5c1.4,0,2.4-0.6,3.3-1.5l1,0.9c-1,1.2-2.3,1.9-4.3,1.9c-2.8,0-5.2-2.2-5.2-5.4
					c0-3,2.1-5.4,5-5.4c3.1,0,4.8,2.4,4.8,5.5c0,0.1,0,0.3,0,0.5h-8.2C407.5,492.2,409.1,493.5,410.9,493.5z M413.9,488.9
					c-0.2-1.9-1.2-3.5-3.3-3.5c-1.8,0-3.2,1.5-3.4,3.5H413.9z"/>
				<path fill="#FFFFFF" d="M417.8,494.6v-2.1h1.8v2.1H417.8z"/>
			</g>
			<g>
				<path fill="#21A0FF" d="M243.6,423.3l2.1-1.9c1.2,1.4,2.5,2.2,4.4,2.2c1.7,0,2.9-1,2.9-2.5v0c0-1.7-1.5-2.6-3.9-2.6h-1.4
					l-0.5-1.8l4.5-4.8h-7.3v-2.6h11.1v2.2l-4.7,4.8c2.5,0.3,4.9,1.6,4.9,4.7v0c0,3.1-2.4,5.3-5.9,5.3
					C247.1,426.3,245,425.1,243.6,423.3z"/>
				<path fill="#21A0FF" d="M259,422.7h3.2v3.3H259V422.7z"/>
				<path fill="#21A0FF" d="M273.2,409.2h12.5v2.6h-9.5v4.4h8.4v2.6h-8.4v4.5h9.6v2.6h-12.6V409.2z"/>
				<path fill="#21A0FF" d="M288.1,422.4L288.1,422.4c0-2.8,2.1-4.1,5.2-4.1c1.4,0,2.4,0.2,3.4,0.5v-0.3c0-1.8-1.1-2.8-3.1-2.8
					c-1.4,0-2.5,0.3-3.6,0.8l-0.8-2.3c1.4-0.6,2.8-1,4.8-1c1.9,0,3.3,0.5,4.2,1.4c0.9,0.9,1.4,2.3,1.4,3.9v7.5h-2.8v-1.6
					c-0.9,1-2.2,1.8-4.1,1.8C290.2,426.3,288.1,424.9,288.1,422.4z M296.8,421.4v-0.9c-0.7-0.3-1.7-0.5-2.9-0.5c-1.9,0-3,0.8-3,2.1
					v0c0,1.2,1.1,1.9,2.5,1.9C295.4,424.2,296.8,423,296.8,421.4z"/>
				<path fill="#21A0FF" d="M303,413.3h2.9v2.9c0.8-1.9,2.3-3.2,4.5-3.1v3.1h-0.2c-2.5,0-4.3,1.7-4.3,5v4.8H303V413.3z"/>
				<path fill="#21A0FF" d="M313,413.3h2.9v1.9c0.8-1.2,2-2.2,4-2.2c2.9,0,4.5,1.9,4.5,4.8v8.1h-2.9v-7.2c0-2-1-3.1-2.7-3.1
					c-1.7,0-2.9,1.2-2.9,3.1v7.2H313V413.3z"/>
			</g>
		</g>
	</g>
	<g>
		<g>
			<path fill="#21A0FF" d="M62.5,318C28.6,318,1,290.4,1,256.5S28.6,195,62.5,195s61.5,27.6,61.5,61.5S96.4,318,62.5,318z M62.5,198
				C30.2,198,4,224.2,4,256.5S30.2,315,62.5,315s58.5-26.2,58.5-58.5S94.8,198,62.5,198z"/>
		</g>
		<g>
			<g>
				<g>
					<g id="XMLID_18_">
						<g>
							<path fill="#21A0FF" d="M99.4,277.5H65.6c1-9.3,4.6-16.9,9.4-20.8c2.1,1.4,4.6,2.3,7.4,2.3c2.7,0,5.3-0.9,7.4-2.3
								C94.8,260.7,98.4,268.3,99.4,277.5z"/>
							<path fill="#21A0FF" d="M82.5,235.6c5.6,0,10.2,4.6,10.2,10.2c0,5.6-4.6,10.2-10.2,10.2s-10.3-4.6-10.3-10.2
								C72.2,240.2,76.8,235.6,82.5,235.6z"/>
						</g>
					</g>
				</g>
				<g>
					<g id="XMLID_17_">
						<g>
							<path fill="#21A0FF" d="M59.4,277.4H25.7c1-9.3,4.6-16.9,9.4-20.8c2.1,1.4,4.6,2.3,7.4,2.3c2.7,0,5.3-0.9,7.4-2.3
								C54.8,260.5,58.4,268.1,59.4,277.4z"/>
							<path fill="#21A0FF" d="M42.6,235.5c5.6,0,10.2,4.6,10.2,10.2c0,5.6-4.6,10.2-10.2,10.2c-5.7,0-10.3-4.6-10.3-10.2
								C32.3,240.1,36.9,235.5,42.6,235.5z"/>
						</g>
					</g>
				</g>
				<g>
					<path fill="#21A0FF" d="M70.9,257.6H54.1c-0.6,0-1-0.4-1-1s0.4-1,1-1h16.8c0.6,0,1,0.4,1,1S71.4,257.6,70.9,257.6z"/>
				</g>
			</g>
			<g>
				<g>
					<path fill="#21A0FF" d="M62.5,124C28.6,124,1,96.4,1,62.5S28.6,1,62.5,1S124,28.6,124,62.5S96.4,124,62.5,124z M62.5,4
						C30.3,4,4,30.2,4,62.5S30.3,121,62.5,121S121,94.8,121,62.5S94.8,4,62.5,4z"/>
				</g>
				<g>
					<g>
						<path fill="#21A0FF" d="M82.7,79L70.1,66.4c1.8-2.6,2.9-5.7,2.9-9.1c0-8.7-7-15.7-15.7-15.7s-15.7,7-15.7,15.7
							c0,8.7,7,15.7,15.7,15.7c3.4,0,6.5-1.1,9.1-2.9L79,82.7c1,1,2.7,1,3.7,0C83.7,81.7,83.7,80,82.7,79z M66.3,62.6
							c-0.9,1.5-2.2,2.8-3.7,3.7c-1.6,0.9-3.4,1.5-5.3,1.5c-5.8,0-10.5-4.7-10.5-10.5s4.7-10.5,10.5-10.5s10.5,4.7,10.5,10.5
							C67.8,59.2,67.2,61,66.3,62.6z"/>
					</g>
				</g>
			</g>
			<g>
				<g>
					<path fill="#21A0FF" d="M62.5,512C28.6,512,1,484.4,1,450.5S28.6,389,62.5,389s61.5,27.6,61.5,61.5S96.4,512,62.5,512z
						 M62.5,392C30.2,392,4,418.2,4,450.5S30.2,509,62.5,509s58.5-26.2,58.5-58.5S94.8,392,62.5,392z"/>
				</g>
				<g>
					<g>
						<path fill="#21A0FF" d="M62.5,465.5c-5.6,0-11.5-1.2-14.9-3.7c0,0,0,0.1,0,0.1c0,0.6,0,2.9,0,3.6c0,3.3,6.7,5.9,15,5.9
							c8.3,0,15-2.7,15-5.9c0-0.6,0-2.9,0-3.6c0,0,0-0.1,0-0.1C74,464.3,68.1,465.5,62.5,465.5z"/>
					</g>
					<g>
						<path fill="#21A0FF" d="M62.5,456.6c-5.6,0-11.5-1.2-14.9-3.7c0,0,0,0.1,0,0.1c0,0.6,0,2.9,0,3.6c0,3.3,6.7,5.9,15,5.9
							c8.3,0,15-2.7,15-5.9c0-0.6,0-2.9,0-3.6c0,0,0-0.1,0-0.1C74,455.4,68.1,456.6,62.5,456.6z"/>
					</g>
					<g>
						<path fill="#21A0FF" d="M47.5,444.3c0,0.8,0,2.8,0,3.4c0,3.3,6.7,5.9,15,5.9c8.3,0,15-2.7,15-5.9c0-0.6,0-2.7,0-3.4
							c-3.4,2.5-9.3,3.7-15,3.7C56.9,448,51,446.8,47.5,444.3z"/>
					</g>
					<g>
						<path fill="#21A0FF" d="M62.5,429.5c-8.3,0-15,2.7-15,5.9c0,0.6,0,2.9,0,3.6c0,3.3,6.7,5.9,15,5.9c8.3,0,15-2.7,15-5.9
							c0-0.6,0-2.9,0-3.6C77.5,432.2,70.8,429.5,62.5,429.5z"/>
					</g>
				</g>
			</g>
			<g>
				<g>
					<path fill="#21A0FF" d="M62.5,124c-0.4,0-0.8-0.2-1.1-0.4c-0.3-0.3-0.4-0.7-0.4-1.1c0-0.4,0.2-0.8,0.4-1.1
						c0.6-0.6,1.6-0.6,2.1,0c0.3,0.3,0.4,0.7,0.4,1.1c0,0.4-0.2,0.8-0.4,1.1C63.3,123.8,62.9,124,62.5,124z"/>
				</g>
				<g>
					<path fill="#21A0FF" d="M61,190.3c0-0.8,0.7-1.5,1.5-1.5l0,0c0.8,0,1.5,0.7,1.5,1.5l0,0c0,0.8-0.7,1.5-1.5,1.5l0,0
						C61.7,191.8,61,191.2,61,190.3z M61,184.2c0-0.8,0.7-1.5,1.5-1.5l0,0c0.8,0,1.5,0.7,1.5,1.5l0,0c0,0.8-0.7,1.5-1.5,1.5l0,0
						C61.7,185.7,61,185,61,184.2z M61,178c0-0.8,0.7-1.5,1.5-1.5l0,0c0.8,0,1.5,0.7,1.5,1.5l0,0c0,0.8-0.7,1.5-1.5,1.5l0,0
						C61.7,179.5,61,178.8,61,178z M61,171.8c0-0.8,0.7-1.5,1.5-1.5l0,0c0.8,0,1.5,0.7,1.5,1.5l0,0c0,0.8-0.7,1.5-1.5,1.5l0,0
						C61.7,173.3,61,172.7,61,171.8z M62.5,167.2c-0.8,0-1.5-0.7-1.5-1.5l0,0c0-0.8,0.7-1.5,1.5-1.5l0,0c0.8,0,1.5,0.7,1.5,1.5l0,0
						C64,166.5,63.3,167.2,62.5,167.2L62.5,167.2L62.5,167.2z M61,159.5c0-0.8,0.7-1.5,1.5-1.5l0,0c0.8,0,1.5,0.7,1.5,1.5l0,0
						c0,0.8-0.7,1.5-1.5,1.5l0,0C61.7,161,61,160.3,61,159.5z M62.5,154.8c-0.8,0-1.5-0.7-1.5-1.5l0,0c0-0.8,0.7-1.5,1.5-1.5l0,0
						c0.8,0,1.5,0.7,1.5,1.5l0,0C64,154.2,63.3,154.8,62.5,154.8L62.5,154.8C62.5,154.8,62.5,154.8,62.5,154.8z M61,147.2
						c0-0.8,0.7-1.5,1.5-1.5l0,0c0.8,0,1.5,0.7,1.5,1.5l0,0c0,0.8-0.7,1.5-1.5,1.5l0,0C61.7,148.7,61,148,61,147.2z M61,141
						c0-0.8,0.7-1.5,1.5-1.5l0,0c0.8,0,1.5,0.7,1.5,1.5l0,0c0,0.8-0.7,1.5-1.5,1.5l0,0C61.7,142.5,61,141.8,61,141z M61,134.8
						c0-0.8,0.7-1.5,1.5-1.5l0,0c0.8,0,1.5,0.7,1.5,1.5l0,0c0,0.8-0.7,1.5-1.5,1.5l0,0C61.7,136.3,61,135.7,61,134.8z M61,128.7
						c0-0.8,0.7-1.5,1.5-1.5l0,0c0.8,0,1.5,0.7,1.5,1.5l0,0c0,0.8-0.7,1.5-1.5,1.5l0,0C61.7,130.2,61,129.5,61,128.7z"/>
				</g>
				<g>
					<path fill="#21A0FF" d="M62.5,198c-0.4,0-0.8-0.2-1.1-0.4c-0.3-0.3-0.4-0.7-0.4-1.1c0-0.4,0.2-0.8,0.4-1.1
						c0.6-0.6,1.6-0.6,2.1,0c0.3,0.3,0.4,0.7,0.4,1.1c0,0.4-0.2,0.8-0.4,1.1C63.3,197.8,62.9,198,62.5,198z"/>
				</g>
			</g>
			<g>
				<g>
					<path fill="#21A0FF" d="M62.5,318c-0.4,0-0.8-0.2-1.1-0.4c-0.3-0.3-0.4-0.7-0.4-1.1c0-0.4,0.2-0.8,0.4-1.1
						c0.6-0.6,1.6-0.6,2.1,0c0.3,0.3,0.4,0.7,0.4,1.1c0,0.4-0.2,0.8-0.4,1.1C63.3,317.8,62.9,318,62.5,318z"/>
				</g>
				<g>
					<path fill="#21A0FF" d="M61,384.3c0-0.8,0.7-1.5,1.5-1.5l0,0c0.8,0,1.5,0.7,1.5,1.5l0,0c0,0.8-0.7,1.5-1.5,1.5l0,0
						C61.7,385.8,61,385.2,61,384.3z M61,378.2c0-0.8,0.7-1.5,1.5-1.5l0,0c0.8,0,1.5,0.7,1.5,1.5l0,0c0,0.8-0.7,1.5-1.5,1.5l0,0
						C61.7,379.7,61,379,61,378.2z M62.5,373.5c-0.8,0-1.5-0.7-1.5-1.5l0,0c0-0.8,0.7-1.5,1.5-1.5l0,0c0.8,0,1.5,0.7,1.5,1.5l0,0
						C64,372.8,63.3,373.5,62.5,373.5L62.5,373.5L62.5,373.5z M61,365.8c0-0.8,0.7-1.5,1.5-1.5l0,0c0.8,0,1.5,0.7,1.5,1.5l0,0
						c0,0.8-0.7,1.5-1.5,1.5l0,0C61.7,367.3,61,366.7,61,365.8z M61,359.7c0-0.8,0.7-1.5,1.5-1.5l0,0c0.8,0,1.5,0.7,1.5,1.5l0,0
						c0,0.8-0.7,1.5-1.5,1.5l0,0C61.7,361.2,61,360.5,61,359.7z M61,353.5c0-0.8,0.7-1.5,1.5-1.5l0,0c0.8,0,1.5,0.7,1.5,1.5l0,0
						c0,0.8-0.7,1.5-1.5,1.5l0,0C61.7,355,61,354.3,61,353.5z M61,347.3c0-0.8,0.7-1.5,1.5-1.5l0,0c0.8,0,1.5,0.7,1.5,1.5l0,0
						c0,0.8-0.7,1.5-1.5,1.5l0,0C61.7,348.8,61,348.2,61,347.3z M62.5,342.7c-0.8,0-1.5-0.7-1.5-1.5l0,0c0-0.8,0.7-1.5,1.5-1.5l0,0
						c0.8,0,1.5,0.7,1.5,1.5l0,0C64,342,63.3,342.7,62.5,342.7L62.5,342.7C62.5,342.7,62.5,342.7,62.5,342.7z M61,335
						c0-0.8,0.7-1.5,1.5-1.5l0,0c0.8,0,1.5,0.7,1.5,1.5l0,0c0,0.8-0.7,1.5-1.5,1.5l0,0C61.7,336.5,61,335.8,61,335z M62.5,330.3
						c-0.8,0-1.5-0.7-1.5-1.5l0,0c0-0.8,0.7-1.5,1.5-1.5l0,0c0.8,0,1.5,0.7,1.5,1.5l0,0C64,329.7,63.3,330.3,62.5,330.3L62.5,330.3
						C62.5,330.3,62.5,330.3,62.5,330.3z M61,322.7c0-0.8,0.7-1.5,1.5-1.5l0,0c0.8,0,1.5,0.7,1.5,1.5l0,0c0,0.8-0.7,1.5-1.5,1.5l0,0
						C61.7,324.2,61,323.5,61,322.7z"/>
				</g>
				<g>
					<path fill="#21A0FF" d="M62.5,392c-0.4,0-0.8-0.2-1.1-0.4c-0.3-0.3-0.4-0.7-0.4-1.1c0-0.4,0.2-0.8,0.4-1.1
						c0.6-0.6,1.6-0.6,2.1,0c0.3,0.3,0.4,0.7,0.4,1.1c0,0.4-0.2,0.8-0.4,1.1C63.3,391.8,62.9,392,62.5,392z"/>
				</g>
			</g>
		</g>
	</g>
</g>
</svg>
