<?xml version="1.0" encoding="utf-8"?>
<!-- Generator: Adobe Illustrator 18.0.0, SVG Export Plug-In . SVG Version: 6.00 Build 0)  -->
<!DOCTYPE svg PUBLIC "-//W3C//DTD SVG 1.1//EN" "http://www.w3.org/Graphics/SVG/1.1/DTD/svg11.dtd">
<svg version="1.1" id="Layer_1" xmlns="http://www.w3.org/2000/svg" xmlns:xlink="http://www.w3.org/1999/xlink" x="0px" y="0px"
	 viewBox="0 0 122 122" enable-background="new 0 0 122 122" xml:space="preserve">
<path opacity="0.3" fill="#FFFFFF" d="M61,0C27.9,0,1,26.9,1,60s26.9,60,60,60s60-26.9,60-60S94.1,0,61,0z M86.7,63.2L65.5,84.4
	c-0.9,0.9-2,1.3-3.2,1.3c-1.2,0-2.3-0.4-3.2-1.3c-1.8-1.8-1.8-4.6,0-6.4l13.5-13.5H38.5c-2.5,0-4.5-2-4.5-4.5s2-4.5,4.5-4.5h34.1
	L59.1,42c-1.8-1.8-1.8-4.6,0-6.4c1.8-1.8,4.6-1.8,6.4,0l21.2,21.2c0.2,0.2,0.4,0.4,0.6,0.7c0.1,0.1,0.1,0.2,0.2,0.4
	c0.1,0.1,0.2,0.3,0.2,0.4c0.1,0.2,0.1,0.3,0.1,0.5c0,0.1,0.1,0.2,0.1,0.4c0.1,0.6,0.1,1.2,0,1.8c0,0.1-0.1,0.2-0.1,0.4
	c0,0.2-0.1,0.3-0.1,0.5c-0.1,0.1-0.1,0.3-0.2,0.4c-0.1,0.1-0.1,0.2-0.2,0.4C87.1,62.7,86.9,63,86.7,63.2z"/>
</svg>
