<svg xmlns="http://www.w3.org/2000/svg" viewBox="0 0 37 37" enable-background="new 0 0 37 37"><circle cx="18.5" cy="17.5" r="17.5" fill="#21A0FF"/><path fill="#0160BA" d="M27.1 11.8c-.3.2-1.2.5-2 .6.5-.3 1.3-1.3 1.5-2.1-.5.3-1.6.8-2.2.8-.6-.7-1.6-1.2-2.6-1.2-2 0-3.5 1.7-3.5 3.8 0 .3 0 .6.1.8-2.6-.1-5.7-1.5-7.5-4-1.1 2-.1 4.2 1.1 5-.4 0-1.2-.1-1.5-.4 0 1.3.6 3.1 2.7 3.7-.4.2-1.2.2-1.5.1.1 1.1 1.6 2.6 3.2 2.6-.6.7-2.5 2-4.9 1.6 1.6 1.1 3.5 1.7 5.5 1.7 5.7 0 10.1-5 9.9-11.1 0 0 0 0 0-.1 0 0 0 0 0-.1.5-.1 1.2-.8 1.7-1.7z"/></svg>