<svg xmlns="http://www.w3.org/2000/svg" viewBox="0 0 125 125" enable-background="new 0 0 125 125"><path fill="#21A0FF" d="M62.5 124C28.6 124 1 96.4 1 62.5S28.6 1 62.5 1 124 28.6 124 62.5 96.4 124 62.5 124zm0-120C30.2 4 4 30.2 4 62.5S30.2 121 62.5 121 121 94.8 121 62.5 94.8 4 62.5 4z"/><g fill="#21A0FF"><path d="M99.4 83.5H65.6c1-9.3 4.6-16.9 9.4-20.8 2.1 1.4 4.6 2.3 7.4 2.3 2.7 0 5.3-.9 7.4-2.3 5 4 8.6 11.6 9.6 20.8zM82.5 41.6c5.6 0 10.2 4.6 10.2 10.2S88.1 62 82.5 62s-10.3-4.6-10.3-10.2 4.6-10.2 10.3-10.2z"/></g><g fill="#21A0FF"><path d="M59.4 83.4H25.7c1-9.3 4.6-16.9 9.4-20.8 2.1 1.4 4.6 2.3 7.4 2.3 2.7 0 5.3-.9 7.4-2.3 4.9 3.9 8.5 11.5 9.5 20.8zM42.6 41.5c5.6 0 10.2 4.6 10.2 10.2s-4.6 10.2-10.2 10.2-10.3-4.6-10.3-10.2 4.6-10.2 10.3-10.2z"/></g><path fill="#21A0FF" d="M70.9 63.6H54.1c-.6 0-1-.4-1-1s.4-1 1-1h16.8c.6 0 1 .4 1 1s-.5 1-1 1z"/></svg>