<?xml version="1.0" encoding="utf-8"?>
<!-- Generator: Adobe Illustrator 18.0.0, SVG Export Plug-In . SVG Version: 6.00 Build 0)  -->
<!DOCTYPE svg PUBLIC "-//W3C//DTD SVG 1.1//EN" "http://www.w3.org/Graphics/SVG/1.1/DTD/svg11.dtd">
<svg version="1.1" id="Layer_1" xmlns="http://www.w3.org/2000/svg" xmlns:xlink="http://www.w3.org/1999/xlink" x="0px" y="0px"
	 viewBox="0 0 125 125" enable-background="new 0 0 125 125" xml:space="preserve">
<g>
	<g>
		<path fill="#0160BA" d="M62.5,124C28.6,124,1,96.4,1,62.5S28.6,1,62.5,1S124,28.6,124,62.5S96.4,124,62.5,124z M62.5,4
			C30.2,4,4,30.2,4,62.5S30.2,121,62.5,121S121,94.8,121,62.5S94.8,4,62.5,4z"/>
	</g>
	<g>
		<g>
			<path fill="#0160BA" d="M83.3,81.7H48.4l5.8-1.9c0.8-0.1,1.6-0.4,2.2-1l25.3-25.3c1.4-1.4,1.4-3.6,0-5l-6-6c-1.4-1.4-3.6-1.4-5,0
				L45.5,67.9c-0.6,0.6-0.9,1.4-1,2.2l-3.5,11.1c-0.2,0.6,0,1.3,0.4,1.8c0.3,0.3,0.7,0.4,1.1,0.5c0,0,0.1,0,0.1,0h40.7
				c0.5,0,0.9-0.4,0.9-0.9C84.2,82.1,83.8,81.7,83.3,81.7z M73.2,45.1l6,6L54.6,75.7l-6-6L73.2,45.1z M47.6,71.5c0-0.1,0-0.2,0-0.2
				l5.4,5.4c-0.1,0-0.2,0-0.2,0L45.3,79L47.6,71.5z"/>
		</g>
	</g>
</g>
</svg>
