<?xml version="1.0" encoding="utf-8"?>
<!-- Generator: Adobe Illustrator 18.0.0, SVG Export Plug-In . SVG Version: 6.00 Build 0)  -->
<!DOCTYPE svg PUBLIC "-//W3C//DTD SVG 1.1//EN" "http://www.w3.org/Graphics/SVG/1.1/DTD/svg11.dtd">
<svg version="1.1" id="Layer_1" xmlns="http://www.w3.org/2000/svg" xmlns:xlink="http://www.w3.org/1999/xlink" x="0px" y="0px"
	 viewBox="0 0 256.7 62" enable-background="new 0 0 256.7 62" xml:space="preserve">
<g>
	<g>
		<g>
			<path fill="#21A0FF" d="M1,1c0.1,0,0.2,0,0.3,0c3.5,0,7,0,10.5,0c0.6,0,1.1,0.2,1.5,0.6c0.3,0.2,0.5,0.4,0.6,0.7
				c2,3.5,4.1,7,6.1,10.6c2.5,4.3,5,8.6,7.4,12.9c0.8,1.3,1.5,2.6,2.3,4c0.7,1.2,1.8,1.9,3.2,2.2c0.2,0,0.4,0.1,0.6,0.1
				c2.3,0,4.6,0,6.9,0c0.9,0,1.7,0.4,2.1,1.2c1.8,3,3.5,6.1,5.3,9.2c0,0.1,0.1,0.2,0.1,0.3c-0.1,0-0.2,0-0.3,0c-7,0-14.1,0-21.1,0
				c-0.4,0-0.7-0.1-1-0.2c-0.5-0.3-0.9-0.6-1.2-1.1c-2.8-4.8-5.5-9.6-8.3-14.3c-2.9-5-5.8-10.1-8.7-15.1c-2-3.5-4-7-6-10.4
				C1.1,1.2,1.1,1.1,1,1z"/>
		</g>
		<g>
			<path fill="#0160BA" d="M72.8,61c-0.1,0-0.2,0-0.2,0c-3.5,0-7,0-10.5,0c-0.9,0-1.7-0.4-2.1-1.2c-3.2-5.4-6.3-10.9-9.4-16.3
				c-2.2-3.8-4.3-7.5-6.5-11.3c-0.5-0.9-1.3-1.5-2.2-1.8c-0.5-0.2-1-0.3-1.5-0.3c-2.3,0-4.5,0-6.8,0c-0.9,0-1.7-0.4-2.2-1.2
				c-1.8-3-3.5-6.1-5.3-9.1c0-0.1-0.1-0.2-0.1-0.3c0.1,0,0.2,0,0.3,0c1.1,0,2.3,0,3.4,0c5.9,0,11.8,0,17.7,0c0.8,0,1.9,0.6,2.2,1.3
				c3,5.3,6.1,10.6,9.2,15.9c3.7,6.3,7.3,12.7,11,19c1,1.7,2,3.5,3,5.2C72.8,60.8,72.9,60.9,72.8,61z"/>
		</g>
		<g>
			<path fill="#0160BA" d="M42.9,9.1c-0.1,0.1-0.2,0-0.3,0c-5.5,0-11,0-16.5,0c-1.6,0-3.1,0-4.7,0c-0.9,0-1.7-0.5-2.2-1.2
				c-0.2-0.3-0.3-0.5-0.4-0.8c0-0.1-0.1-0.1-0.1-0.2c0.1-0.1,0.2,0,0.2,0c0.4,0,0.8,0,1.2,0c6.7,0,13.3,0,20,0c1,0,1.7,0.5,2.2,1.3
				c0.1,0.2,0.3,0.5,0.4,0.7C42.8,8.9,42.9,9,42.9,9.1z"/>
		</g>
		<g>
			<path fill="#21A0FF" d="M31,52.9c0,0,0.1,0,0.1,0c0.1,0,0.1,0,0.2,0c7,0,14.1,0,21.1,0c0.9,0,1.7,0.5,2.2,1.2
				c0.2,0.2,0.3,0.5,0.4,0.8c0,0.1,0.1,0.1,0.1,0.2c-0.1,0-0.1,0-0.2,0c-0.1,0-0.1,0-0.2,0c-7,0-14,0-21,0c-1,0-1.7-0.4-2.2-1.3
				c-0.1-0.2-0.3-0.5-0.4-0.7C31,53.1,31,53,31,52.9z"/>
		</g>
		<g>
			<path fill="#0160BA" d="M21.2,11c0.1-0.1,0.2,0,0.3,0c4.4,0,8.8,0,13.3,0c2.6,0,5.2,0,7.8,0c1,0,1.7,0.5,2.2,1.3
				c0.2,0.3,0.3,0.5,0.4,0.8c0,0.1,0.1,0.1,0.1,0.2c0,0.1-0.1,0-0.2,0c-0.1,0-0.1,0-0.2,0c-7,0-14,0-21,0c-0.8,0-1.4-0.3-2-0.9
				c-0.1-0.1-0.2-0.2-0.2-0.3c-0.2-0.3-0.4-0.6-0.5-0.9C21.2,11.2,21.2,11.1,21.2,11z"/>
		</g>
		<g>
			<path fill="#21A0FF" d="M52.7,51c-0.1,0-0.2,0-0.3,0c-7,0-14.1,0-21.1,0c-0.9,0-1.7-0.5-2.2-1.3c-0.2-0.3-0.3-0.5-0.4-0.8
				c0-0.1-0.1-0.1-0.1-0.2c0-0.1,0.1,0,0.1,0c0.1,0,0.1,0,0.2,0c7,0,14.1,0,21.1,0c0.9,0,1.7,0.5,2.2,1.3c0.2,0.2,0.3,0.5,0.4,0.8
				C52.6,50.8,52.7,50.9,52.7,51z"/>
		</g>
		<g>
			<path fill="#0160BA" d="M23.6,15.2c0.1-0.1,0.2,0,0.3,0c7.1,0,14.2,0,21.3,0c0.7,0,1.2,0.3,1.7,0.7c0.2,0.2,0.3,0.3,0.4,0.5
				c0.1,0.3,0.3,0.5,0.4,0.8c0,0.1,0.1,0.1,0.1,0.2c0,0.1-0.1,0-0.1,0.1c-0.1,0-0.1,0-0.2,0c-7,0-14,0-21.1,0c-1,0-1.7-0.5-2.2-1.3
				c-0.2-0.2-0.3-0.5-0.4-0.8C23.7,15.4,23.6,15.3,23.6,15.2z"/>
		</g>
		<g>
			<path fill="#21A0FF" d="M50.3,46.8c-0.1,0-0.2,0-0.3,0c-4.6,0-9.2,0-13.7,0c-2.5,0-5,0-7.4,0c-0.7,0-1.8-0.6-2.1-1.2
				c-0.1-0.3-0.3-0.5-0.5-0.8c0-0.1-0.1-0.1-0.1-0.2c0-0.1,0.1,0,0.2,0c0.1,0,0.1,0,0.2,0c7,0,14.1,0,21.1,0c0.9,0,1.7,0.5,2.2,1.3
				c0.2,0.3,0.3,0.5,0.5,0.8C50.2,46.6,50.3,46.7,50.3,46.8z"/>
		</g>
	</g>
	<g>
		<g>
			<path fill="#0160BA" d="M121.3,51.2H96.8V10.3h4.8V47h19.6L121.3,51.2z"/>
			<path fill="#0160BA" d="M121.4,51.3H96.7V10.2h5.1v36.7h19.6L121.4,51.3z M96.9,51.1h24.2l-0.1-3.9h-19.6V10.4h-4.6V51.1z"/>
		</g>
		<g>
			<path fill="#0160BA" d="M124.4,22.4h4.6v28.8h-4.6V22.4z M128.9,10.2v4.4h-4.3v-4.4H128.9z"/>
			<path fill="#0160BA" d="M129.1,51.3h-4.9v-29h4.9V51.3z M124.5,51.1h4.4V22.5h-4.4V51.1z M129,14.6h-4.5V10h4.5V14.6z
				 M124.7,14.4h4.1v-4.1h-4.1V14.4z"/>
		</g>
		<g>
			<path fill="#0160BA" d="M153.2,27.4c-1-0.7-2.2-1.2-3.6-1.5c-1.4-0.3-2.9-0.5-4.4-0.5c-0.9,0-1.7,0.1-2.4,0.3
				c-0.7,0.2-1.4,0.5-1.9,0.8c-0.5,0.3-1,0.8-1.3,1.3c-0.3,0.5-0.5,1.1-0.5,1.7c0,0.7,0.2,1.2,0.5,1.7c0.3,0.5,0.7,0.9,1.3,1.2
				c0.5,0.3,1.2,0.7,1.9,0.9c0.7,0.3,1.5,0.5,2.3,0.8c0.7,0.2,1.5,0.5,2.4,0.7c0.9,0.2,1.7,0.5,2.5,0.9c0.8,0.3,1.6,0.7,2.4,1.2
				c0.8,0.4,1.4,1,2,1.6c0.6,0.6,1.1,1.3,1.4,2.1c0.3,0.8,0.5,1.7,0.5,2.8c0,1.5-0.3,2.7-1,3.8c-0.7,1.1-1.6,2-2.7,2.7
				c-1.1,0.7-2.4,1.2-3.8,1.6c-1.4,0.4-2.9,0.5-4.4,0.5c-1,0-2-0.1-2.9-0.2c-1-0.1-1.9-0.3-2.8-0.6c-0.9-0.3-1.7-0.6-2.5-1
				c-0.8-0.4-1.4-0.9-2-1.5l1.2-3.8c0.5,0.6,1.1,1.1,1.8,1.5c0.7,0.4,1.4,0.8,2.2,1.1c0.8,0.3,1.6,0.5,2.4,0.6
				c0.8,0.1,1.6,0.2,2.4,0.2c1,0,2-0.1,2.9-0.3c0.9-0.2,1.6-0.5,2.3-0.9c0.6-0.4,1.2-0.9,1.5-1.4c0.4-0.6,0.5-1.2,0.5-2
				c0-0.9-0.2-1.6-0.6-2.1c-0.4-0.5-1-1-1.7-1.4c-0.7-0.4-1.6-0.7-2.6-1c-1-0.3-2.1-0.6-3.3-1c-1.4-0.4-2.7-0.9-3.8-1.4
				c-1.1-0.5-2.1-1.1-2.9-1.7c-0.8-0.7-1.4-1.4-1.8-2.3c-0.4-0.9-0.6-1.9-0.6-3.1c0-1.3,0.3-2.5,0.9-3.5c0.6-1,1.4-1.8,2.4-2.5
				c1-0.6,2.1-1.1,3.4-1.4c1.3-0.3,2.6-0.5,3.9-0.5c1.9,0,3.7,0.2,5.4,0.5c1.6,0.4,3,1,4.2,1.9L153.2,27.4z"/>
			<path fill="#0160BA" d="M144.5,52c-1,0-2-0.1-3-0.2c-1-0.1-1.9-0.3-2.8-0.6c-0.9-0.3-1.7-0.6-2.5-1c-0.8-0.4-1.4-0.9-2-1.6l0,0
				l1.3-4l0.1,0.2c0.5,0.6,1.1,1.1,1.7,1.5c0.7,0.4,1.4,0.8,2.2,1c0.8,0.3,1.6,0.5,2.4,0.6c1.9,0.3,3.8,0.2,5.3-0.1
				c0.9-0.2,1.6-0.5,2.3-0.9c0.6-0.4,1.1-0.8,1.5-1.4c0.4-0.6,0.5-1.2,0.5-1.9c0-0.8-0.2-1.5-0.6-2c-0.4-0.5-1-1-1.7-1.3
				c-0.7-0.4-1.6-0.7-2.6-1c-1-0.3-2.1-0.6-3.3-1c-1.4-0.4-2.7-0.9-3.8-1.4c-1.1-0.5-2.1-1.1-2.9-1.7c-0.8-0.7-1.4-1.4-1.8-2.3
				c-0.4-0.9-0.6-1.9-0.6-3.2c0-1.3,0.3-2.5,0.9-3.5c0.6-1,1.4-1.8,2.4-2.5c1-0.6,2.1-1.1,3.4-1.5c1.3-0.3,2.6-0.5,3.9-0.5
				c1.9,0,3.7,0.2,5.4,0.6c1.6,0.4,3.1,1,4.2,1.9l0.1,0l-1.3,3.5l-0.1-0.1c-1-0.7-2.2-1.2-3.6-1.5c-1.4-0.3-2.9-0.5-4.4-0.5
				c-0.8,0-1.6,0.1-2.4,0.3c-0.7,0.2-1.3,0.4-1.9,0.8c-0.5,0.3-0.9,0.7-1.2,1.2c-0.3,0.5-0.4,1-0.4,1.6c0,0.6,0.2,1.2,0.5,1.6
				c0.3,0.5,0.7,0.9,1.3,1.2c0.5,0.3,1.2,0.6,1.9,0.9c0.7,0.3,1.5,0.5,2.3,0.8c0.8,0.2,1.6,0.5,2.4,0.7c0.8,0.2,1.7,0.5,2.5,0.9
				c0.8,0.3,1.7,0.7,2.4,1.2c0.8,0.4,1.5,1,2.1,1.6c0.6,0.6,1.1,1.3,1.4,2.1c0.4,0.8,0.5,1.8,0.5,2.8c0,1.5-0.3,2.8-1,3.9
				c-0.7,1.1-1.6,2-2.7,2.7c-1.1,0.7-2.4,1.3-3.8,1.6C147.5,51.8,146,52,144.5,52z M134.5,48.5c0.5,0.6,1.2,1.1,1.9,1.5
				c0.7,0.4,1.6,0.7,2.4,1c0.9,0.3,1.8,0.4,2.8,0.6c1,0.1,2,0.2,2.9,0.2c1.5,0,2.9-0.2,4.4-0.5c1.4-0.4,2.7-0.9,3.8-1.6
				c1.1-0.7,2-1.6,2.6-2.6c0.7-1.1,1-2.3,1-3.7c0-1-0.2-1.9-0.5-2.7c-0.3-0.8-0.8-1.5-1.4-2.1c-0.6-0.6-1.3-1.1-2-1.5
				c-0.8-0.4-1.6-0.8-2.4-1.1c-0.8-0.3-1.7-0.6-2.5-0.9c-0.8-0.2-1.6-0.5-2.4-0.7c-0.8-0.2-1.6-0.5-2.3-0.8
				c-0.7-0.3-1.4-0.6-1.9-0.9c-0.6-0.4-1-0.8-1.3-1.3c-0.3-0.5-0.5-1.1-0.5-1.7c0-0.6,0.2-1.2,0.5-1.7c0.3-0.5,0.8-0.9,1.3-1.3
				c0.5-0.4,1.2-0.6,1.9-0.8c0.7-0.2,1.5-0.3,2.4-0.3c1.5,0,3,0.2,4.5,0.5c1.4,0.3,2.6,0.8,3.6,1.4l1.1-3.1
				c-1.1-0.9-2.5-1.5-4.1-1.8c-1.6-0.4-3.4-0.5-5.3-0.5c-1.3,0-2.6,0.2-3.8,0.5c-1.2,0.3-2.4,0.8-3.4,1.4c-1,0.6-1.8,1.4-2.4,2.4
				c-0.6,1-0.9,2.1-0.9,3.4c0,1.2,0.2,2.2,0.6,3.1c0.4,0.9,1,1.6,1.8,2.3c0.8,0.6,1.7,1.2,2.9,1.7c1.1,0.5,2.4,1,3.8,1.4
				c1.2,0.4,2.3,0.7,3.3,1c1,0.3,1.9,0.6,2.6,1c0.7,0.4,1.3,0.9,1.8,1.4c0.4,0.6,0.6,1.3,0.6,2.2c0,0.8-0.2,1.5-0.6,2
				c-0.4,0.6-0.9,1.1-1.6,1.5c-0.7,0.4-1.4,0.7-2.3,0.9c-1.5,0.3-3.4,0.4-5.4,0.1c-0.8-0.1-1.6-0.3-2.4-0.6
				c-0.8-0.3-1.5-0.6-2.2-1.1c-0.6-0.4-1.2-0.9-1.7-1.4L134.5,48.5z"/>
		</g>
		<g>
			<path fill="#0160BA" d="M163.2,25.4h-5.7v-3h5.7l0.1-7.6l4.5-1.3v9h7.2v3h-7.2v17.2c0,0.6,0,1.3,0.1,2c0,0.7,0.2,1.3,0.4,1.8
				c0.2,0.6,0.5,1,1,1.3c0.4,0.3,1.1,0.5,1.9,0.5c0.6,0,1.2-0.1,1.9-0.2c0.7-0.2,1.4-0.4,2.2-0.7l0,3.5c-0.7,0.4-1.4,0.6-2.1,0.8
				c-0.8,0.2-1.6,0.2-2.6,0.2c-1.6,0-2.8-0.3-3.8-0.8s-1.7-1.2-2.2-2.1c-0.5-0.9-0.9-1.9-1-3.1c-0.2-1.2-0.3-2.5-0.3-3.8V25.4z"/>
			<path fill="#0160BA" d="M170.4,52c-1.6,0-2.9-0.3-3.8-0.8c-1-0.5-1.7-1.3-2.2-2.2c-0.5-0.9-0.9-2-1-3.2c-0.2-1.2-0.3-2.5-0.3-3.8
				V25.5h-5.7v-3.2h5.7l0.1-7.6l4.7-1.4v9h7.2v3.2h-7.2v17.1c0,0.6,0,1.3,0.1,1.9c0,0.6,0.2,1.3,0.4,1.8c0.2,0.5,0.5,1,1,1.3
				c0.4,0.3,1,0.5,1.8,0.5c0.6,0,1.2-0.1,1.9-0.2c0.6-0.2,1.4-0.4,2.2-0.7l0.1-0.1l0,3.7l-0.1,0c-0.7,0.4-1.4,0.7-2.2,0.8
				C172.3,51.9,171.4,52,170.4,52z M157.6,25.3h5.7V42c0,1.3,0.1,2.6,0.3,3.8c0.2,1.2,0.5,2.2,1,3.1c0.5,0.9,1.2,1.6,2.1,2.1
				c0.9,0.5,2.2,0.8,3.7,0.8c1,0,1.8-0.1,2.6-0.2c0.7-0.2,1.4-0.4,2-0.8l0-3.2c-0.7,0.3-1.4,0.5-2,0.6c-0.7,0.2-1.3,0.2-1.9,0.2
				c-0.8,0-1.5-0.2-2-0.5c-0.5-0.4-0.8-0.8-1-1.4c-0.2-0.6-0.3-1.2-0.4-1.9c0-0.7-0.1-1.3-0.1-2V25.3h7.2v-2.8h-7.2v-8.9l-4.3,1.3
				l-0.1,7.7h-5.7V25.3z"/>
		</g>
		<g>
			<path fill="#0160BA" d="M190.3,21.7c1.2,0,2.3,0.1,3.2,0.3c1,0.2,1.9,0.5,2.7,0.9c0.8,0.4,1.6,0.9,2.3,1.5c0.7,0.6,1.3,1.2,1.9,2
				l0.2-4h4.6l-0.1,7.1v21.7h-4.6l0.1-4c-0.4,0.6-1,1.2-1.7,1.8c-0.7,0.6-1.5,1.1-2.3,1.5c-0.9,0.4-1.8,0.8-2.9,1
				c-1,0.3-2.1,0.4-3.3,0.4c-1.6,0-3.1-0.2-4.4-0.6c-1.3-0.4-2.5-1-3.5-1.7c-1-0.7-1.9-1.6-2.7-2.6c-0.8-1-1.4-2.1-1.9-3.2
				c-0.5-1.1-0.9-2.3-1.1-3.6c-0.2-1.2-0.4-2.4-0.4-3.6c0-1.9,0.3-3.7,0.9-5.4c0.6-1.8,1.4-3.4,2.6-4.7c1.2-1.4,2.6-2.5,4.3-3.3
				C185.9,22.1,188,21.7,190.3,21.7z M190.8,48.1c1.3,0,2.5-0.3,3.7-0.8c1.2-0.5,2.2-1.3,3-2.4s1.6-2.3,2.1-3.9
				c0.5-1.5,0.8-3.3,0.8-5.3c0-1.5-0.2-2.9-0.7-4.2c-0.5-1.3-1.1-2.3-2-3.3c-0.8-0.9-1.9-1.6-3.1-2.1c-1.2-0.5-2.6-0.8-4.1-0.8
				c-1.1,0-2.2,0.2-3.1,0.5c-0.9,0.3-1.7,0.7-2.4,1.3c-0.7,0.5-1.3,1.2-1.9,1.9c-0.5,0.7-1,1.5-1.3,2.3c-0.3,0.8-0.6,1.7-0.7,2.6
				c-0.2,0.9-0.2,1.8-0.2,2.7c0,0.9,0.1,1.7,0.2,2.7c0.1,0.9,0.3,1.8,0.6,2.6s0.7,1.6,1.2,2.4c0.5,0.7,1.1,1.4,1.8,2
				c0.7,0.6,1.6,1,2.6,1.3C188.3,48,189.5,48.1,190.8,48.1z"/>
			<path fill="#0160BA" d="M190.3,52c-1.6,0-3.1-0.2-4.4-0.6c-1.3-0.4-2.5-1-3.5-1.8c-1-0.7-1.9-1.6-2.7-2.6c-0.8-1-1.4-2.1-1.9-3.2
				c-0.5-1.1-0.9-2.3-1.1-3.6c-0.2-1.2-0.4-2.5-0.4-3.7c0-1.9,0.3-3.7,0.9-5.5c0.6-1.8,1.4-3.4,2.6-4.8c1.2-1.4,2.6-2.5,4.4-3.4
				c1.7-0.8,3.8-1.3,6.1-1.3c1.2,0,2.3,0.1,3.3,0.3c1,0.2,1.9,0.5,2.7,0.9c0.8,0.4,1.6,0.9,2.3,1.5c0.6,0.5,1.2,1.1,1.8,1.8l0.2-3.8
				h4.8l-0.1,7.2v21.8h-4.9l0.1-3.8c-0.4,0.5-0.9,1-1.5,1.5c-0.7,0.6-1.5,1.1-2.3,1.5c-0.9,0.4-1.8,0.8-2.9,1
				C192.6,51.8,191.5,52,190.3,52z M190.3,21.8c-2.3,0-4.3,0.4-6,1.3c-1.7,0.8-3.2,1.9-4.3,3.3c-1.1,1.4-2,3-2.6,4.7
				c-0.6,1.8-0.9,3.6-0.9,5.4c0,1.2,0.1,2.4,0.4,3.6c0.2,1.2,0.6,2.4,1.1,3.5c0.5,1.1,1.1,2.2,1.9,3.2c0.7,1,1.6,1.8,2.7,2.6
				c1,0.7,2.2,1.3,3.5,1.7c1.3,0.4,2.8,0.6,4.3,0.6c1.1,0,2.2-0.1,3.2-0.4c1-0.3,2-0.6,2.8-1c0.8-0.4,1.6-0.9,2.3-1.5
				c0.7-0.6,1.2-1.1,1.7-1.7l0.2-0.3l-0.1,4.3h4.4V29.5l0.1-7h-4.4l-0.2,4.1l-0.2-0.2c-0.6-0.7-1.2-1.4-1.9-2
				c-0.7-0.6-1.4-1.1-2.3-1.4c-0.8-0.4-1.7-0.7-2.7-0.9C192.5,21.9,191.5,21.8,190.3,21.8z M190.8,48.3c-1.3,0-2.5-0.2-3.5-0.5
				c-1-0.3-1.9-0.8-2.6-1.3c-0.7-0.6-1.3-1.2-1.8-2c-0.5-0.8-0.9-1.6-1.2-2.4c-0.3-0.8-0.5-1.7-0.6-2.6c-0.1-0.9-0.2-1.8-0.2-2.7
				c0-0.9,0.1-1.8,0.2-2.7c0.2-0.9,0.4-1.8,0.8-2.6c0.3-0.8,0.8-1.6,1.3-2.4c0.5-0.7,1.2-1.4,1.9-1.9c0.7-0.5,1.6-1,2.5-1.3
				c0.9-0.3,2-0.5,3.1-0.5c1.5,0,2.9,0.3,4.1,0.8c1.2,0.5,2.3,1.2,3.1,2.2c0.8,0.9,1.5,2,2,3.3c0.5,1.3,0.7,2.7,0.7,4.2
				c0,2-0.3,3.8-0.8,5.4c-0.5,1.6-1.2,2.9-2.1,3.9c-0.9,1-1.9,1.8-3.1,2.4C193.4,48,192.1,48.3,190.8,48.3z M190.7,25.6
				c-1.1,0-2.2,0.2-3.1,0.5c-0.9,0.3-1.7,0.7-2.4,1.3c-0.7,0.5-1.3,1.2-1.8,1.9c-0.5,0.7-0.9,1.5-1.3,2.3c-0.3,0.8-0.6,1.7-0.7,2.6
				c-0.2,0.9-0.2,1.8-0.2,2.6c0,0.9,0.1,1.7,0.2,2.6c0.1,0.9,0.3,1.8,0.6,2.6c0.3,0.8,0.7,1.6,1.1,2.4c0.5,0.7,1.1,1.4,1.8,1.9
				c0.7,0.5,1.6,1,2.6,1.3c1,0.3,2.1,0.5,3.5,0.5c1.3,0,2.5-0.3,3.6-0.8c1.1-0.5,2.1-1.3,3-2.3c0.9-1,1.5-2.3,2.1-3.8
				c0.5-1.5,0.8-3.3,0.8-5.3c0-1.5-0.2-2.9-0.7-4.1c-0.5-1.2-1.1-2.3-1.9-3.2c-0.8-0.9-1.8-1.6-3-2.1
				C193.5,25.8,192.1,25.6,190.7,25.6z"/>
		</g>
		<g>
			<path fill="#0160BA" d="M215.4,51.2h-4.6V29.3c0-0.9,0-1.7,0-2.5c0-0.8,0-1.6-0.1-2.2c0-0.7-0.1-1.5-0.1-2.2h4.7l0.1,4
				c1.1-1.6,2.5-2.8,4.1-3.5c1.6-0.8,3.4-1.2,5.6-1.2c2.1,0,3.8,0.3,5.2,1c1.4,0.7,2.4,1.7,3.2,2.9c0.8,1.2,1.3,2.7,1.7,4.5
				c0.3,1.7,0.5,3.6,0.5,5.7v15.4h-4.6V36.3c0-1.6-0.1-3.1-0.2-4.5c-0.1-1.3-0.4-2.5-0.9-3.4c-0.5-0.9-1.1-1.7-2-2.2
				c-0.9-0.5-2.1-0.8-3.6-0.8c-1.4,0-2.6,0.3-3.7,0.8c-1.1,0.5-2,1.2-2.8,2c-0.7,0.8-1.3,1.6-1.7,2.4c-0.4,0.9-0.6,1.6-0.6,2.2V51.2
				z"/>
			<path fill="#0160BA" d="M235.7,51.3h-4.9v-15c0-1.6-0.1-3.1-0.2-4.4c-0.1-1.3-0.4-2.5-0.9-3.4c-0.4-0.9-1.1-1.6-2-2.1
				c-0.9-0.5-2.1-0.8-3.6-0.8c-1.4,0-2.6,0.3-3.7,0.8c-1.1,0.5-2,1.2-2.7,1.9c-0.7,0.8-1.3,1.6-1.7,2.4c-0.4,0.8-0.6,1.6-0.6,2.2
				v18.4h-4.9v-22c0-0.8,0-1.7,0-2.5c0-0.8,0-1.6-0.1-2.2c0-0.7-0.1-1.5-0.1-2.2l0-0.1h4.9l0.1,3.8c1.1-1.5,2.4-2.6,3.9-3.3
				c1.6-0.8,3.5-1.2,5.7-1.2c2.1,0,3.9,0.4,5.2,1.1c1.4,0.7,2.5,1.7,3.3,2.9c0.8,1.3,1.4,2.8,1.7,4.5c0.3,1.7,0.5,3.6,0.5,5.7V51.3z
				 M231,51.1h4.4V35.8c0-2-0.2-3.9-0.5-5.7c-0.3-1.7-0.9-3.2-1.6-4.4c-0.8-1.2-1.9-2.2-3.2-2.9c-1.3-0.7-3.1-1-5.1-1
				c-2.1,0-4,0.4-5.6,1.1c-1.6,0.8-2.9,1.9-4,3.5l-0.2,0.3l-0.1-4.2h-4.5c0,0.7,0,1.3,0.1,2c0,0.7,0,1.4,0.1,2.2c0,0.9,0,1.7,0,2.5
				v21.8h4.4V32.9c0-0.7,0.2-1.4,0.6-2.3c0.4-0.9,1-1.7,1.7-2.5c0.8-0.8,1.7-1.4,2.8-2c1.1-0.5,2.4-0.8,3.8-0.8
				c1.5,0,2.8,0.3,3.7,0.8c0.9,0.5,1.6,1.3,2.1,2.2c0.5,1,0.8,2.1,0.9,3.5c0.1,1.3,0.2,2.8,0.2,4.5V51.1z"/>
		</g>
		<g>
			<path fill="#0160BA" d="M243.5,25.4h-5.7v-3h5.7l0.1-7.6l4.5-1.3v9h7.2v3h-7.2v17.2c0,0.6,0,1.3,0.1,2c0,0.7,0.2,1.3,0.4,1.8
				c0.2,0.6,0.5,1,1,1.3c0.4,0.3,1.1,0.5,1.9,0.5c0.6,0,1.2-0.1,1.9-0.2c0.7-0.2,1.4-0.4,2.2-0.7l0,3.5c-0.7,0.4-1.4,0.6-2.1,0.8
				c-0.8,0.2-1.6,0.2-2.6,0.2c-1.6,0-2.8-0.3-3.8-0.8c-0.9-0.5-1.7-1.2-2.2-2.1c-0.5-0.9-0.9-1.9-1-3.1c-0.2-1.2-0.3-2.5-0.3-3.8
				V25.4z"/>
			<path fill="#0160BA" d="M250.8,52c-1.6,0-2.9-0.3-3.8-0.8c-1-0.5-1.7-1.3-2.2-2.2c-0.5-0.9-0.9-2-1-3.2c-0.2-1.2-0.3-2.5-0.3-3.8
				V25.5h-5.7v-3.2h5.7l0.1-7.6l4.7-1.4v9h7.2v3.2h-7.2v17.1c0,0.6,0,1.3,0.1,1.9c0,0.6,0.2,1.3,0.4,1.8c0.2,0.5,0.5,1,1,1.3
				c0.4,0.3,1,0.5,1.8,0.5c0.6,0,1.2-0.1,1.9-0.2c0.6-0.2,1.4-0.4,2.2-0.7l0.1-0.1l0,3.7l-0.1,0c-0.7,0.4-1.4,0.7-2.2,0.8
				C252.7,51.9,251.8,52,250.8,52z M238,25.3h5.7V42c0,1.3,0.1,2.6,0.3,3.8c0.2,1.2,0.5,2.2,1,3.1c0.5,0.9,1.2,1.6,2.1,2.1
				c0.9,0.5,2.2,0.8,3.7,0.8c1,0,1.8-0.1,2.6-0.2c0.7-0.2,1.4-0.4,2-0.8l0-3.2c-0.7,0.3-1.4,0.5-2,0.6c-0.7,0.2-1.3,0.2-1.9,0.2
				c-0.8,0-1.5-0.2-2-0.5c-0.5-0.4-0.8-0.8-1-1.4c-0.2-0.6-0.3-1.2-0.4-1.9c0-0.7-0.1-1.3-0.1-2V25.3h7.2v-2.8h-7.2v-8.9l-4.3,1.3
				l-0.1,7.7H238V25.3z"/>
		</g>
	</g>
</g>
</svg>
