<?xml version="1.0" encoding="utf-8"?>
<!-- Generator: Adobe Illustrator 18.0.0, SVG Export Plug-In . SVG Version: 6.00 Build 0)  -->
<!DOCTYPE svg PUBLIC "-//W3C//DTD SVG 1.1//EN" "http://www.w3.org/Graphics/SVG/1.1/DTD/svg11.dtd">
<svg version="1.1" id="Layer_1" xmlns="http://www.w3.org/2000/svg" xmlns:xlink="http://www.w3.org/1999/xlink" x="0px" y="0px"
	 viewBox="0 0 171.8 42" enable-background="new 0 0 171.8 42" xml:space="preserve">
<g>
	<g>
		<g>
			<path fill="#21A0FF" d="M1,1c0.1,0,0.1,0,0.2,0c2.3,0,4.7,0,7,0c0.4,0,0.7,0.2,1,0.4c0.2,0.1,0.3,0.3,0.4,0.5
				c1.4,2.3,2.7,4.7,4.1,7c1.7,2.9,3.3,5.7,5,8.6c0.5,0.9,1,1.8,1.5,2.6c0.5,0.8,1.2,1.3,2.1,1.5c0.1,0,0.3,0,0.4,0
				c1.5,0,3.1,0,4.6,0c0.6,0,1.1,0.3,1.4,0.8c1.2,2,2.4,4.1,3.5,6.1c0,0.1,0.1,0.1,0.1,0.2c-0.1,0-0.1,0-0.2,0c-4.7,0-9.4,0-14.1,0
				c-0.2,0-0.5-0.1-0.7-0.2c-0.3-0.2-0.6-0.4-0.8-0.7c-1.8-3.2-3.7-6.4-5.5-9.6C9,14.9,7.1,11.6,5.1,8.2c-1.3-2.3-2.7-4.6-4-7
				C1.1,1.2,1,1.1,1,1z"/>
		</g>
		<g>
			<path fill="#0160BA" d="M48.9,41c-0.1,0-0.1,0-0.2,0c-2.3,0-4.6,0-7,0c-0.6,0-1.1-0.3-1.4-0.8c-2.1-3.6-4.2-7.3-6.3-10.9
				c-1.4-2.5-2.9-5-4.3-7.5c-0.3-0.6-0.9-1-1.5-1.2c-0.3-0.1-0.7-0.2-1-0.2c-1.5,0-3,0-4.5,0c-0.6,0-1.1-0.3-1.4-0.8
				c-1.2-2-2.3-4.1-3.5-6.1c0-0.1-0.1-0.1-0.1-0.2c0.1,0,0.1,0,0.2,0c0.8,0,1.5,0,2.3,0c3.9,0,7.9,0,11.8,0c0.5,0,1.2,0.4,1.5,0.8
				c2,3.5,4.1,7.1,6.1,10.6c2.4,4.2,4.9,8.4,7.3,12.7c0.7,1.2,1.3,2.3,2,3.5C48.9,40.9,48.9,40.9,48.9,41z"/>
		</g>
		<g>
			<path fill="#0160BA" d="M28.9,6.4c-0.1,0-0.1,0-0.2,0c-3.7,0-7.3,0-11,0c-1,0-2.1,0-3.1,0c-0.6,0-1.1-0.3-1.4-0.8
				c-0.1-0.2-0.2-0.3-0.3-0.5c0,0-0.1-0.1-0.1-0.1c0,0,0.1,0,0.2,0c0.3,0,0.5,0,0.8,0c4.4,0,8.9,0,13.3,0c0.6,0,1.1,0.3,1.5,0.8
				c0.1,0.2,0.2,0.3,0.3,0.5C28.9,6.3,28.9,6.3,28.9,6.4z"/>
		</g>
		<g>
			<path fill="#21A0FF" d="M21,35.6C21,35.6,21,35.6,21,35.6c0.1,0,0.2,0,0.2,0c4.7,0,9.4,0,14.1,0c0.6,0,1.1,0.3,1.4,0.8
				c0.1,0.2,0.2,0.3,0.3,0.5c0,0.1,0.1,0.1,0.1,0.2c0,0-0.1,0-0.1,0c0,0-0.1,0-0.1,0c-4.7,0-9.3,0-14,0c-0.7,0-1.2-0.3-1.5-0.9
				c-0.1-0.2-0.2-0.3-0.3-0.5C21,35.7,21,35.7,21,35.6z"/>
		</g>
		<g>
			<path fill="#0160BA" d="M14.5,7.7c0.1,0,0.1,0,0.2,0c2.9,0,5.9,0,8.8,0c1.7,0,3.5,0,5.2,0c0.6,0,1.1,0.3,1.5,0.8
				c0.1,0.2,0.2,0.3,0.3,0.5c0,0,0.1,0.1,0.1,0.1c0,0-0.1,0-0.1,0c0,0-0.1,0-0.1,0c-4.7,0-9.3,0-14,0c-0.5,0-0.9-0.2-1.3-0.6
				c-0.1-0.1-0.1-0.1-0.2-0.2c-0.1-0.2-0.2-0.4-0.4-0.6C14.5,7.8,14.5,7.7,14.5,7.7z"/>
		</g>
		<g>
			<path fill="#21A0FF" d="M35.5,34.3c-0.1,0-0.1,0-0.2,0c-4.7,0-9.4,0-14.1,0c-0.6,0-1.1-0.3-1.5-0.8c-0.1-0.2-0.2-0.3-0.3-0.5
				c0,0-0.1-0.1-0.1-0.1c0,0,0.1,0,0.1,0c0,0,0.1,0,0.1,0c4.7,0,9.4,0,14.1,0c0.6,0,1.1,0.3,1.5,0.8c0.1,0.2,0.2,0.3,0.3,0.5
				C35.4,34.2,35.5,34.2,35.5,34.3z"/>
		</g>
		<g>
			<path fill="#0160BA" d="M16.1,10.5c0.1,0,0.1,0,0.2,0c4.7,0,9.5,0,14.2,0c0.4,0,0.8,0.2,1.1,0.5c0.1,0.1,0.2,0.2,0.3,0.4
				c0.1,0.2,0.2,0.3,0.3,0.5c0,0,0.1,0.1,0.1,0.1c0,0-0.1,0-0.1,0c0,0-0.1,0-0.1,0c-4.7,0-9.4,0-14,0c-0.6,0-1.1-0.3-1.5-0.9
				c-0.1-0.2-0.2-0.3-0.3-0.5C16.1,10.6,16.1,10.5,16.1,10.5z"/>
		</g>
		<g>
			<path fill="#21A0FF" d="M33.9,31.5c-0.1,0-0.1,0-0.2,0c-3.1,0-6.1,0-9.2,0c-1.7,0-3.3,0-5,0c-0.5,0-1.2-0.4-1.4-0.8
				c-0.1-0.2-0.2-0.4-0.3-0.5c0,0-0.1-0.1-0.1-0.1c0,0,0.1,0,0.1,0c0,0,0.1,0,0.1,0c4.7,0,9.4,0,14.1,0c0.6,0,1.1,0.3,1.4,0.8
				c0.1,0.2,0.2,0.4,0.3,0.5C33.8,31.4,33.8,31.5,33.9,31.5z"/>
		</g>
	</g>
	<g>
		<g>
			<path fill="#0160BA" d="M81.2,34.5H64.9V7.2h3.2v24.5h13L81.2,34.5z"/>
			<path fill="#0160BA" d="M81.3,34.5H64.8V7.1h3.4v24.5h13L81.3,34.5z M64.9,34.4h16.2l0-2.6H68V7.3h-3.1V34.4z"/>
		</g>
		<g>
			<path fill="#0160BA" d="M83.3,15.3h3.1v19.2h-3.1V15.3z M86.3,7.1V10h-2.9V7.1H86.3z"/>
			<path fill="#0160BA" d="M86.4,34.5h-3.2V15.2h3.2V34.5z M83.3,34.4h2.9V15.3h-2.9V34.4z M86.4,10.1h-3V7h3V10.1z M83.5,9.9h2.7
				V7.2h-2.7V9.9z"/>
		</g>
		<g>
			<path fill="#0160BA" d="M102.4,18.6c-0.7-0.5-1.5-0.8-2.4-1c-0.9-0.2-1.9-0.3-3-0.3c-0.6,0-1.1,0.1-1.6,0.2
				c-0.5,0.1-0.9,0.3-1.3,0.5c-0.4,0.2-0.6,0.5-0.8,0.8C93.2,19.2,93,19.6,93,20c0,0.4,0.1,0.8,0.3,1.1c0.2,0.3,0.5,0.6,0.9,0.8
				c0.4,0.2,0.8,0.4,1.3,0.6c0.5,0.2,1,0.4,1.6,0.5c0.5,0.1,1,0.3,1.6,0.5c0.6,0.2,1.1,0.4,1.7,0.6c0.6,0.2,1.1,0.5,1.6,0.8
				c0.5,0.3,1,0.6,1.4,1c0.4,0.4,0.7,0.9,0.9,1.4c0.2,0.5,0.3,1.2,0.3,1.9c0,1-0.2,1.8-0.7,2.5c-0.4,0.7-1,1.3-1.8,1.8
				c-0.7,0.5-1.6,0.8-2.5,1.1c-0.9,0.2-1.9,0.4-2.9,0.4c-0.7,0-1.3,0-2-0.1c-0.6-0.1-1.3-0.2-1.9-0.4c-0.6-0.2-1.1-0.4-1.6-0.7
				c-0.5-0.3-0.9-0.6-1.3-1l0.8-2.5c0.3,0.4,0.7,0.7,1.2,1c0.4,0.3,0.9,0.5,1.5,0.7c0.5,0.2,1.1,0.3,1.6,0.4
				c0.6,0.1,1.1,0.1,1.6,0.1c0.7,0,1.3-0.1,1.9-0.2c0.6-0.1,1.1-0.3,1.5-0.6c0.4-0.3,0.8-0.6,1-1c0.2-0.4,0.4-0.8,0.4-1.3
				c0-0.6-0.1-1-0.4-1.4c-0.3-0.4-0.7-0.7-1.1-0.9c-0.5-0.3-1.1-0.5-1.7-0.7c-0.7-0.2-1.4-0.4-2.2-0.7c-0.9-0.3-1.8-0.6-2.5-0.9
				c-0.8-0.3-1.4-0.7-1.9-1.2c-0.5-0.4-0.9-0.9-1.2-1.5c-0.3-0.6-0.4-1.3-0.4-2.1c0-0.9,0.2-1.7,0.6-2.3c0.4-0.7,0.9-1.2,1.6-1.6
				c0.7-0.4,1.4-0.8,2.3-1c0.8-0.2,1.7-0.3,2.6-0.3c1.3,0,2.5,0.1,3.6,0.4c1.1,0.2,2,0.7,2.8,1.3L102.4,18.6z"/>
			<path fill="#0160BA" d="M96.7,35c-0.7,0-1.3,0-2-0.1c-0.6-0.1-1.3-0.2-1.9-0.4c-0.6-0.2-1.2-0.4-1.7-0.7c-0.5-0.3-1-0.6-1.3-1
				l0,0l0.9-2.7l0.1,0.1c0.3,0.4,0.7,0.7,1.2,1c0.4,0.3,0.9,0.5,1.4,0.7c0.5,0.2,1,0.3,1.6,0.4c1.3,0.2,2.5,0.2,3.5-0.1
				c0.6-0.1,1.1-0.3,1.5-0.6c0.4-0.2,0.8-0.6,1-0.9c0.2-0.4,0.4-0.8,0.4-1.3c0-0.6-0.1-1-0.4-1.3c-0.3-0.3-0.6-0.6-1.1-0.9
				c-0.5-0.3-1.1-0.5-1.7-0.7c-0.7-0.2-1.4-0.4-2.2-0.7c-0.9-0.3-1.8-0.6-2.5-0.9c-0.8-0.3-1.4-0.7-1.9-1.2c-0.5-0.4-0.9-1-1.2-1.6
				c-0.3-0.6-0.4-1.3-0.4-2.1c0-0.9,0.2-1.7,0.6-2.4c0.4-0.7,1-1.2,1.6-1.7c0.7-0.4,1.4-0.8,2.3-1c0.8-0.2,1.7-0.3,2.6-0.3
				c1.3,0,2.5,0.1,3.6,0.4c1.1,0.2,2,0.7,2.8,1.3l0,0l-0.8,2.3l-0.1-0.1c-0.7-0.5-1.5-0.8-2.4-1c-0.9-0.2-1.9-0.3-2.9-0.3
				c-0.6,0-1.1,0.1-1.6,0.2c-0.5,0.1-0.9,0.3-1.2,0.5c-0.3,0.2-0.6,0.5-0.8,0.8c-0.2,0.3-0.3,0.7-0.3,1.1c0,0.4,0.1,0.8,0.3,1.1
				c0.2,0.3,0.5,0.6,0.8,0.8c0.4,0.2,0.8,0.4,1.3,0.6c0.5,0.2,1,0.4,1.5,0.5c0.5,0.2,1,0.3,1.6,0.5c0.6,0.2,1.1,0.4,1.7,0.6
				c0.6,0.2,1.1,0.5,1.6,0.8c0.5,0.3,1,0.6,1.4,1.1c0.4,0.4,0.7,0.9,0.9,1.4c0.2,0.5,0.4,1.2,0.4,1.9c0,1-0.2,1.8-0.7,2.6
				c-0.5,0.7-1.1,1.3-1.8,1.8c-0.7,0.5-1.6,0.8-2.5,1.1C98.7,34.9,97.7,35,96.7,35z M90,32.7c0.3,0.4,0.8,0.7,1.3,1
				c0.5,0.3,1,0.5,1.6,0.7c0.6,0.2,1.2,0.3,1.9,0.4c0.6,0.1,1.3,0.1,2,0.1c1,0,2-0.1,2.9-0.4c0.9-0.2,1.8-0.6,2.5-1.1
				c0.7-0.5,1.3-1.1,1.8-1.8c0.4-0.7,0.7-1.5,0.7-2.5c0-0.7-0.1-1.3-0.3-1.8c-0.2-0.5-0.5-1-0.9-1.4c-0.4-0.4-0.8-0.7-1.3-1
				c-0.5-0.3-1-0.5-1.6-0.8c-0.6-0.2-1.1-0.4-1.7-0.6c-0.6-0.2-1.1-0.3-1.6-0.5c-0.5-0.2-1.1-0.3-1.6-0.5c-0.5-0.2-0.9-0.4-1.3-0.6
				c-0.4-0.2-0.7-0.5-0.9-0.8C93.1,20.8,93,20.4,93,20c0-0.4,0.1-0.8,0.3-1.2c0.2-0.3,0.5-0.6,0.9-0.9c0.4-0.2,0.8-0.4,1.3-0.5
				c0.5-0.1,1-0.2,1.6-0.2c1,0,2,0.1,3,0.3c0.9,0.2,1.7,0.5,2.4,1l0.7-2.1c-0.7-0.6-1.7-1-2.7-1.2c-1.1-0.2-2.3-0.4-3.6-0.4
				c-0.9,0-1.7,0.1-2.6,0.3c-0.8,0.2-1.6,0.5-2.2,1c-0.6,0.4-1.2,1-1.6,1.6c-0.4,0.6-0.6,1.4-0.6,2.3c0,0.8,0.1,1.5,0.4,2
				c0.3,0.6,0.7,1.1,1.2,1.5c0.5,0.4,1.2,0.8,1.9,1.1c0.8,0.3,1.6,0.6,2.5,0.9c0.8,0.2,1.5,0.5,2.2,0.7c0.7,0.2,1.3,0.4,1.8,0.7
				c0.5,0.3,0.9,0.6,1.2,0.9c0.3,0.4,0.4,0.9,0.4,1.4c0,0.5-0.1,1-0.4,1.4c-0.2,0.4-0.6,0.7-1,1c-0.4,0.3-1,0.5-1.5,0.6
				c-1,0.2-2.3,0.3-3.6,0.1c-0.6-0.1-1.1-0.2-1.6-0.4c-0.5-0.2-1-0.4-1.5-0.7c-0.4-0.3-0.8-0.6-1.1-0.9L90,32.7z"/>
		</g>
		<g>
			<path fill="#0160BA" d="M109.1,17.3h-3.8v-2h3.8l0.1-5.1l3-0.9v6h4.8v2h-4.8v11.5c0,0.4,0,0.9,0,1.3c0,0.4,0.1,0.8,0.3,1.2
				c0.1,0.4,0.4,0.7,0.7,0.9c0.3,0.2,0.7,0.3,1.3,0.3c0.4,0,0.8-0.1,1.3-0.2c0.4-0.1,0.9-0.3,1.4-0.4l0,2.3
				c-0.4,0.2-0.9,0.4-1.4,0.5c-0.5,0.1-1.1,0.2-1.7,0.2c-1,0-1.9-0.2-2.5-0.5c-0.6-0.4-1.1-0.8-1.5-1.4s-0.6-1.3-0.7-2.1
				c-0.1-0.8-0.2-1.6-0.2-2.5V17.3z"/>
			<path fill="#0160BA" d="M113.9,35c-1.1,0-1.9-0.2-2.6-0.5c-0.6-0.4-1.1-0.9-1.5-1.5c-0.3-0.6-0.6-1.3-0.7-2.1
				c-0.1-0.8-0.2-1.7-0.2-2.5v-11h-3.8v-2.2h3.8l0.1-5.1l3.1-0.9v6h4.8v2.2h-4.8v11.4c0,0.4,0,0.9,0,1.3c0,0.4,0.1,0.8,0.2,1.2
				c0.1,0.4,0.4,0.6,0.6,0.9c0.3,0.2,0.7,0.3,1.2,0.3c0.4,0,0.8-0.1,1.2-0.2c0.4-0.1,0.9-0.3,1.4-0.4l0.1,0l0,2.5l0,0
				c-0.4,0.3-0.9,0.4-1.4,0.5C115.2,34.9,114.6,35,113.9,35z M105.4,17.2h3.8v11.1c0,0.9,0.1,1.7,0.2,2.5c0.1,0.8,0.3,1.5,0.7,2.1
				c0.3,0.6,0.8,1.1,1.4,1.4c0.6,0.3,1.5,0.5,2.5,0.5c0.6,0,1.2-0.1,1.7-0.2c0.5-0.1,0.9-0.3,1.4-0.5l0-2.2
				c-0.5,0.2-0.9,0.3-1.3,0.4c-0.4,0.1-0.9,0.2-1.3,0.2c-0.6,0-1-0.1-1.3-0.4c-0.3-0.2-0.5-0.6-0.7-0.9c-0.1-0.4-0.2-0.8-0.3-1.2
				c0-0.4,0-0.9,0-1.3V17.2h4.8v-1.9h-4.8V9.4l-2.8,0.8l-0.1,5.1h-3.8V17.2z"/>
		</g>
		<g>
			<path fill="#0160BA" d="M127.2,14.8c0.8,0,1.5,0.1,2.2,0.2c0.6,0.1,1.2,0.3,1.8,0.6c0.5,0.3,1.1,0.6,1.5,1
				c0.5,0.4,0.9,0.8,1.3,1.3l0.1-2.6h3.1L137,20v14.5H134l0-2.7c-0.3,0.4-0.7,0.8-1.1,1.2c-0.5,0.4-1,0.7-1.5,1
				c-0.6,0.3-1.2,0.5-1.9,0.7c-0.7,0.2-1.4,0.3-2.2,0.3c-1.1,0-2-0.1-2.9-0.4c-0.9-0.3-1.7-0.7-2.3-1.2c-0.7-0.5-1.3-1.1-1.8-1.7
				c-0.5-0.7-0.9-1.4-1.2-2.1c-0.3-0.8-0.6-1.6-0.7-2.4c-0.2-0.8-0.2-1.6-0.2-2.4c0-1.2,0.2-2.4,0.6-3.6c0.4-1.2,1-2.2,1.7-3.2
				c0.8-0.9,1.7-1.7,2.9-2.2S125.6,14.8,127.2,14.8z M127.6,32.4c0.9,0,1.7-0.2,2.5-0.5c0.8-0.4,1.4-0.9,2-1.6s1-1.6,1.4-2.6
				c0.3-1,0.5-2.2,0.5-3.6c0-1-0.2-1.9-0.5-2.8c-0.3-0.8-0.7-1.6-1.3-2.2c-0.6-0.6-1.2-1.1-2-1.4c-0.8-0.3-1.7-0.5-2.7-0.5
				c-0.8,0-1.4,0.1-2.1,0.3c-0.6,0.2-1.2,0.5-1.6,0.9c-0.5,0.4-0.9,0.8-1.2,1.3c-0.3,0.5-0.6,1-0.9,1.6c-0.2,0.6-0.4,1.1-0.5,1.7
				c-0.1,0.6-0.2,1.2-0.2,1.8c0,0.6,0,1.2,0.1,1.8c0.1,0.6,0.2,1.2,0.4,1.8c0.2,0.6,0.4,1.1,0.8,1.6c0.3,0.5,0.7,0.9,1.2,1.3
				c0.5,0.4,1.1,0.7,1.7,0.9C125.9,32.3,126.7,32.4,127.6,32.4z"/>
			<path fill="#0160BA" d="M127.2,35c-1.1,0-2.1-0.1-2.9-0.4c-0.9-0.3-1.7-0.7-2.4-1.2c-0.7-0.5-1.3-1.1-1.8-1.7
				c-0.5-0.7-0.9-1.4-1.3-2.1c-0.3-0.8-0.6-1.6-0.7-2.4c-0.2-0.8-0.2-1.6-0.2-2.4c0-1.2,0.2-2.5,0.6-3.7c0.4-1.2,1-2.3,1.7-3.2
				c0.8-0.9,1.7-1.7,2.9-2.2c1.2-0.6,2.5-0.8,4.1-0.8c0.8,0,1.5,0.1,2.2,0.2c0.7,0.1,1.3,0.4,1.8,0.6c0.6,0.3,1.1,0.6,1.5,1
				c0.4,0.3,0.8,0.7,1.2,1.2l0.1-2.5h3.2l-0.1,4.8v14.5h-3.2l0-2.6c-0.3,0.3-0.6,0.7-1,1c-0.5,0.4-1,0.7-1.6,1
				c-0.6,0.3-1.2,0.5-1.9,0.7C128.7,34.9,128,35,127.2,35z M127.2,14.9c-1.5,0-2.9,0.3-4,0.8c-1.1,0.6-2.1,1.3-2.9,2.2
				c-0.8,0.9-1.3,2-1.7,3.1c-0.4,1.2-0.6,2.4-0.6,3.6c0,0.8,0.1,1.6,0.2,2.4c0.2,0.8,0.4,1.6,0.7,2.4c0.3,0.8,0.7,1.5,1.2,2.1
				c0.5,0.7,1.1,1.2,1.8,1.7c0.7,0.5,1.5,0.9,2.3,1.2c0.9,0.3,1.8,0.4,2.9,0.4c0.8,0,1.5-0.1,2.2-0.3c0.7-0.2,1.3-0.4,1.9-0.7
				c0.6-0.3,1.1-0.6,1.5-1c0.4-0.4,0.8-0.8,1.1-1.2l0.1-0.2l0,2.8h2.9V20l0.1-4.7h-2.9l-0.1,2.8l-0.1-0.1c-0.4-0.5-0.8-0.9-1.3-1.3
				c-0.5-0.4-1-0.7-1.5-1c-0.5-0.3-1.1-0.5-1.8-0.6C128.7,14.9,128,14.9,127.2,14.9z M127.6,32.5c-0.9,0-1.7-0.1-2.4-0.3
				c-0.7-0.2-1.3-0.5-1.7-0.9c-0.5-0.4-0.9-0.8-1.2-1.3c-0.3-0.5-0.6-1-0.8-1.6c-0.2-0.6-0.3-1.2-0.4-1.8c-0.1-0.6-0.1-1.2-0.1-1.8
				c0-0.6,0.1-1.2,0.2-1.8c0.1-0.6,0.3-1.2,0.5-1.7c0.2-0.6,0.5-1.1,0.9-1.6c0.4-0.5,0.8-0.9,1.3-1.3c0.5-0.4,1-0.7,1.6-0.9
				c0.6-0.2,1.3-0.3,2.1-0.3c1,0,1.9,0.2,2.7,0.5c0.8,0.3,1.5,0.8,2.1,1.4c0.6,0.6,1,1.4,1.3,2.2c0.3,0.8,0.5,1.8,0.5,2.8
				c0,1.4-0.2,2.6-0.5,3.6c-0.3,1-0.8,1.9-1.4,2.6c-0.6,0.7-1.3,1.2-2,1.6C129.3,32.3,128.4,32.5,127.6,32.5z M127.4,17.4
				c-0.8,0-1.4,0.1-2,0.3c-0.6,0.2-1.1,0.5-1.6,0.8c-0.5,0.4-0.9,0.8-1.2,1.3c-0.3,0.5-0.6,1-0.9,1.5c-0.2,0.5-0.4,1.1-0.5,1.7
				c-0.1,0.6-0.2,1.2-0.2,1.8c0,0.6,0,1.2,0.1,1.8c0.1,0.6,0.2,1.2,0.4,1.7c0.2,0.6,0.4,1.1,0.8,1.6c0.3,0.5,0.7,0.9,1.2,1.3
				c0.5,0.4,1,0.7,1.7,0.9c0.7,0.2,1.4,0.3,2.3,0.3c0.9,0,1.7-0.2,2.4-0.5c0.8-0.3,1.4-0.9,2-1.6c0.6-0.7,1-1.5,1.4-2.6
				c0.3-1,0.5-2.2,0.5-3.5c0-1-0.2-1.9-0.5-2.7c-0.3-0.8-0.7-1.5-1.3-2.1c-0.6-0.6-1.2-1.1-2-1.4C129.3,17.5,128.4,17.4,127.4,17.4z
				"/>
		</g>
		<g>
			<path fill="#0160BA" d="M143.9,34.5h-3.1V19.9c0-0.6,0-1.1,0-1.7c0-0.6,0-1.1,0-1.5c0-0.5,0-1-0.1-1.4h3.1l0.1,2.7
				c0.7-1.1,1.7-1.8,2.7-2.4c1.1-0.5,2.3-0.8,3.7-0.8c1.4,0,2.6,0.2,3.5,0.7c0.9,0.5,1.6,1.1,2.2,1.9c0.5,0.8,0.9,1.8,1.1,3
				c0.2,1.1,0.3,2.4,0.3,3.8v10.3h-3.1v-9.9c0-1.1,0-2.1-0.1-3c-0.1-0.9-0.3-1.7-0.6-2.3c-0.3-0.6-0.8-1.1-1.4-1.5
				c-0.6-0.3-1.4-0.5-2.4-0.5c-0.9,0-1.8,0.2-2.5,0.5c-0.7,0.4-1.3,0.8-1.8,1.3c-0.5,0.5-0.9,1.1-1.2,1.6c-0.3,0.6-0.4,1.1-0.4,1.5
				V34.5z"/>
			<path fill="#0160BA" d="M157.5,34.5h-3.2v-10c0-1.1,0-2.1-0.1-3c-0.1-0.9-0.3-1.6-0.6-2.3c-0.3-0.6-0.7-1.1-1.3-1.4
				c-0.6-0.3-1.4-0.5-2.4-0.5c-0.9,0-1.7,0.2-2.5,0.5c-0.7,0.4-1.3,0.8-1.8,1.3c-0.5,0.5-0.9,1-1.1,1.6c-0.3,0.6-0.4,1-0.4,1.5v12.3
				h-3.2V19.9c0-0.6,0-1.1,0-1.7c0-0.6,0-1.1,0-1.5c0-0.5,0-1-0.1-1.4l0-0.1h3.3l0.1,2.5c0.7-1,1.6-1.7,2.6-2.2
				c1.1-0.5,2.3-0.8,3.8-0.8c1.4,0,2.6,0.2,3.5,0.7c0.9,0.5,1.7,1.1,2.2,2c0.5,0.8,0.9,1.8,1.1,3c0.2,1.1,0.3,2.4,0.3,3.8V34.5z
				 M154.4,34.4h2.9V24.2c0-1.4-0.1-2.6-0.3-3.8c-0.2-1.1-0.6-2.1-1.1-2.9c-0.5-0.8-1.2-1.5-2.1-1.9c-0.9-0.5-2.1-0.7-3.4-0.7
				c-1.4,0-2.7,0.3-3.7,0.8c-1,0.5-1.9,1.3-2.7,2.3l-0.1,0.2l-0.1-2.8h-3c0,0.4,0,0.9,0.1,1.4c0,0.4,0,0.9,0,1.5c0,0.6,0,1.1,0,1.7
				v14.5h2.9V22.3c0-0.4,0.1-0.9,0.4-1.5c0.3-0.6,0.7-1.1,1.2-1.6c0.5-0.5,1.1-1,1.9-1.3c0.7-0.4,1.6-0.6,2.5-0.6
				c1,0,1.8,0.2,2.5,0.5c0.6,0.3,1.1,0.9,1.4,1.5c0.3,0.6,0.5,1.4,0.6,2.3c0.1,0.9,0.1,1.9,0.1,3V34.4z"/>
		</g>
		<g>
			<path fill="#0160BA" d="M162.7,17.3h-3.8v-2h3.8l0.1-5.1l3-0.9v6h4.8v2h-4.8v11.5c0,0.4,0,0.9,0,1.3c0,0.4,0.1,0.8,0.3,1.2
				c0.1,0.4,0.4,0.7,0.7,0.9c0.3,0.2,0.7,0.3,1.3,0.3c0.4,0,0.8-0.1,1.3-0.2c0.4-0.1,0.9-0.3,1.4-0.4l0,2.3
				c-0.4,0.2-0.9,0.4-1.4,0.5c-0.5,0.1-1.1,0.2-1.7,0.2c-1,0-1.9-0.2-2.5-0.5c-0.6-0.4-1.1-0.8-1.5-1.4c-0.3-0.6-0.6-1.3-0.7-2.1
				c-0.1-0.8-0.2-1.6-0.2-2.5V17.3z"/>
			<path fill="#0160BA" d="M167.5,35c-1.1,0-1.9-0.2-2.6-0.5c-0.6-0.4-1.1-0.9-1.5-1.5c-0.3-0.6-0.6-1.3-0.7-2.1
				c-0.1-0.8-0.2-1.7-0.2-2.5v-11h-3.8v-2.2h3.8l0.1-5.1l3.1-0.9v6h4.8v2.2h-4.8v11.4c0,0.4,0,0.9,0,1.3c0,0.4,0.1,0.8,0.2,1.2
				c0.1,0.4,0.4,0.6,0.6,0.9c0.3,0.2,0.7,0.3,1.2,0.3c0.4,0,0.8-0.1,1.2-0.2c0.4-0.1,0.9-0.3,1.4-0.4l0.1,0l0,2.5l0,0
				c-0.4,0.3-0.9,0.4-1.4,0.5C168.8,34.9,168.2,35,167.5,35z M159,17.2h3.8v11.1c0,0.9,0.1,1.7,0.2,2.5c0.1,0.8,0.3,1.5,0.7,2.1
				c0.3,0.6,0.8,1.1,1.4,1.4c0.6,0.3,1.5,0.5,2.5,0.5c0.6,0,1.2-0.1,1.7-0.2c0.5-0.1,0.9-0.3,1.4-0.5l0-2.2
				c-0.5,0.2-0.9,0.3-1.3,0.4c-0.4,0.1-0.9,0.2-1.3,0.2c-0.6,0-1-0.1-1.3-0.4c-0.3-0.2-0.5-0.6-0.7-0.9c-0.1-0.4-0.2-0.8-0.3-1.2
				c0-0.4,0-0.9,0-1.3V17.2h4.8v-1.9h-4.8V9.4l-2.8,0.8l-0.1,5.1H159V17.2z"/>
		</g>
	</g>
</g>
</svg>
