<?xml version="1.0" encoding="utf-8"?>
<!-- Generator: Adobe Illustrator 18.0.0, SVG Export Plug-In . SVG Version: 6.00 Build 0)  -->
<!DOCTYPE svg PUBLIC "-//W3C//DTD SVG 1.1//EN" "http://www.w3.org/Graphics/SVG/1.1/DTD/svg11.dtd">
<svg version="1.1" id="Layer_1" xmlns="http://www.w3.org/2000/svg" xmlns:xlink="http://www.w3.org/1999/xlink" x="0px" y="0px"
	 viewBox="0 0 125 125" enable-background="new 0 0 125 125" xml:space="preserve">
<g>
	<g>
		<path fill="#21A0FF" d="M62.5,124C28.6,124,1,96.4,1,62.5S28.6,1,62.5,1S124,28.6,124,62.5S96.4,124,62.5,124z M62.5,4
			C30.2,4,4,30.2,4,62.5S30.2,121,62.5,121S121,94.8,121,62.5S94.8,4,62.5,4z"/>
	</g>
	<g>
		<g>
			<path fill="#21A0FF" d="M62.5,77.5c-5.6,0-11.5-1.2-14.9-3.7c0,0,0,0.1,0,0.1c0,0.6,0,2.9,0,3.6c0,3.3,6.7,5.9,15,5.9
				c8.3,0,15-2.7,15-5.9c0-0.6,0-2.9,0-3.6c0,0,0-0.1,0-0.1C74,76.3,68.1,77.5,62.5,77.5z"/>
		</g>
		<g>
			<path fill="#21A0FF" d="M62.5,68.6c-5.6,0-11.5-1.2-14.9-3.7c0,0,0,0.1,0,0.1c0,0.6,0,2.9,0,3.6c0,3.3,6.7,5.9,15,5.9
				c8.3,0,15-2.7,15-5.9c0-0.6,0-2.9,0-3.6c0,0,0-0.1,0-0.1C74,67.4,68.1,68.6,62.5,68.6z"/>
		</g>
		<g>
			<path fill="#21A0FF" d="M47.5,56.3c0,0.8,0,2.8,0,3.4c0,3.3,6.7,5.9,15,5.9c8.3,0,15-2.7,15-5.9c0-0.6,0-2.7,0-3.4
				c-3.4,2.5-9.3,3.7-15,3.7C56.9,60,51,58.8,47.5,56.3z"/>
		</g>
		<g>
			<path fill="#21A0FF" d="M62.5,41.5c-8.3,0-15,2.7-15,5.9c0,0.6,0,2.9,0,3.6c0,3.3,6.7,5.9,15,5.9c8.3,0,15-2.7,15-5.9
				c0-0.6,0-2.9,0-3.6C77.5,44.2,70.8,41.5,62.5,41.5z"/>
		</g>
	</g>
</g>
</svg>
