<?xml version="1.0" encoding="utf-8"?>
<!-- Generator: Adobe Illustrator 18.0.0, SVG Export Plug-In . SVG Version: 6.00 Build 0)  -->
<!DOCTYPE svg PUBLIC "-//W3C//DTD SVG 1.1//EN" "http://www.w3.org/Graphics/SVG/1.1/DTD/svg11.dtd">
<svg version="1.1" id="Layer_1" xmlns="http://www.w3.org/2000/svg" xmlns:xlink="http://www.w3.org/1999/xlink" x="0px" y="0px"
	 viewBox="0 0 125 125" enable-background="new 0 0 125 125" xml:space="preserve">
<g>
	<g>
		<path fill="#0160BA" d="M62.5,124C28.6,124,1,96.4,1,62.5C1,28.6,28.6,1,62.5,1S124,28.6,124,62.5C124,96.4,96.4,124,62.5,124z
			 M62.5,4C30.2,4,4,30.2,4,62.5C4,94.8,30.2,121,62.5,121S121,94.8,121,62.5C121,30.2,94.8,4,62.5,4z"/>
	</g>
	<g>
		<polygon fill="#0160BA" points="54.4,83.5 35.1,64.1 41.5,57.7 54.4,70.6 83.5,41.5 89.9,48 		"/>
	</g>
</g>
</svg>
