<?xml version="1.0" encoding="utf-8"?>
<!-- Generator: Adobe Illustrator 18.0.0, SVG Export Plug-In . SVG Version: 6.00 Build 0)  -->
<!DOCTYPE svg PUBLIC "-//W3C//DTD SVG 1.1//EN" "http://www.w3.org/Graphics/SVG/1.1/DTD/svg11.dtd">
<svg version="1.1" id="Layer_1" xmlns="http://www.w3.org/2000/svg" xmlns:xlink="http://www.w3.org/1999/xlink" x="0px" y="0px"
	 viewBox="0 0 757 669.9" enable-background="new 0 0 757 669.9" xml:space="preserve">
<g>
	<g>
		<g>
			<path fill="#FFFFFF" d="M254.1,226.9h-8.5v4.8h7.6v1.4h-7.6v4.9h8.6v1.4H244v-14h10.1V226.9z"/>
			<path fill="#FFFFFF" d="M257.7,231.1l-0.5-1.3c1.1-0.5,2.3-0.9,3.8-0.9c2.8,0,4.4,1.4,4.4,4.2v6.3h-1.5v-1.6
				c-0.7,0.9-1.9,1.8-3.7,1.8c-1.9,0-3.9-1.1-3.9-3.2c0-2.2,1.8-3.4,4.4-3.4c1.3,0,2.3,0.2,3.2,0.4v-0.4c0-1.9-1.1-2.8-3.1-2.8
				C259.6,230.4,258.7,230.7,257.7,231.1z M257.9,236.4c0,1.3,1.2,2.1,2.6,2.1c1.9,0,3.5-1.2,3.5-2.8v-1c-0.8-0.2-1.8-0.4-3-0.4
				C259,234.3,257.9,235.1,257.9,236.4z"/>
			<path fill="#FFFFFF" d="M272.1,239.7c-1.5,0-3.1-0.6-4.3-1.5l0.8-1.1c1.1,0.8,2.4,1.3,3.6,1.3c1.2,0,2.1-0.6,2.1-1.6v0
				c0-1-1.2-1.4-2.6-1.8c-1.6-0.5-3.4-1-3.4-2.9v0c0-1.8,1.5-3,3.5-3c1.3,0,2.7,0.4,3.7,1.1l-0.7,1.2c-1-0.6-2.1-1-3.1-1
				c-1.2,0-2,0.6-2,1.5v0c0,1,1.3,1.4,2.7,1.8c1.6,0.5,3.3,1.1,3.3,3v0C275.8,238.6,274.2,239.7,272.1,239.7z"/>
			<path fill="#FFFFFF" d="M278.7,226.9v-1.7h1.8v1.7H278.7z M278.8,239.5v-10.3h1.5v10.3H278.8z"/>
			<path fill="#FFFFFF" d="M284.1,239.5v-14.6h1.5v14.6H284.1z"/>
			<path fill="#FFFFFF" d="M294.2,239.8c-0.9,2.1-1.9,2.9-3.4,2.9c-0.9,0-1.5-0.2-2.2-0.5l0.5-1.2c0.5,0.3,1,0.4,1.6,0.4
				c0.9,0,1.5-0.5,2.1-1.9l-4.7-10.3h1.7l3.8,8.6l3.3-8.6h1.6L294.2,239.8z"/>
			<path fill="#FFFFFF" d="M307.1,239.5v-14.6h1.5v14.6H307.1z"/>
			<path fill="#FFFFFF" d="M312.3,226.9v-1.7h1.8v1.7H312.3z M312.4,239.5v-10.3h1.5v10.3H312.4z"/>
			<path fill="#FFFFFF" d="M320.9,239.7c-1.5,0-3.1-0.6-4.3-1.5l0.8-1.1c1.1,0.8,2.4,1.3,3.6,1.3c1.2,0,2.1-0.6,2.1-1.6v0
				c0-1-1.2-1.4-2.6-1.8c-1.6-0.5-3.4-1-3.4-2.9v0c0-1.8,1.5-3,3.5-3c1.3,0,2.7,0.4,3.7,1.1l-0.7,1.2c-1-0.6-2.1-1-3.1-1
				c-1.2,0-2,0.6-2,1.5v0c0,1,1.3,1.4,2.7,1.8c1.6,0.5,3.3,1.1,3.3,3v0C324.6,238.6,323,239.7,320.9,239.7z"/>
			<path fill="#FFFFFF" d="M329.4,236.6c0,1.3,0.7,1.7,1.7,1.7c0.5,0,1-0.1,1.5-0.4v1.3c-0.5,0.3-1.1,0.4-1.9,0.4
				c-1.7,0-2.9-0.8-2.9-2.9v-6.2h-1.4v-1.4h1.4V226h1.5v3.1h3.3v1.4h-3.3V236.6z"/>
			<path fill="#FFFFFF" d="M342,231.1l-0.5-1.3c1.1-0.5,2.3-0.9,3.8-0.9c2.8,0,4.4,1.4,4.4,4.2v6.3h-1.5v-1.6
				c-0.7,0.9-1.9,1.8-3.7,1.8c-1.9,0-3.9-1.1-3.9-3.2c0-2.2,1.8-3.4,4.4-3.4c1.3,0,2.3,0.2,3.2,0.4v-0.4c0-1.9-1.1-2.8-3.1-2.8
				C343.9,230.4,342.9,230.7,342,231.1z M342.1,236.4c0,1.3,1.2,2.1,2.6,2.1c1.9,0,3.5-1.2,3.5-2.8v-1c-0.8-0.2-1.8-0.4-3-0.4
				C343.2,234.3,342.1,235.1,342.1,236.4z"/>
			<path fill="#FFFFFF" d="M361,236.6c0,1.3,0.7,1.7,1.7,1.7c0.5,0,1-0.1,1.5-0.4v1.3c-0.5,0.3-1.1,0.4-1.9,0.4
				c-1.7,0-2.9-0.8-2.9-2.9v-6.2H358v-1.4h1.4V226h1.5v3.1h3.3v1.4H361V236.6z"/>
			<path fill="#FFFFFF" d="M367.6,231.1l-0.5-1.3c1.1-0.5,2.3-0.9,3.8-0.9c2.8,0,4.4,1.4,4.4,4.2v6.3h-1.5v-1.6
				c-0.7,0.9-1.9,1.8-3.7,1.8c-1.9,0-3.9-1.1-3.9-3.2c0-2.2,1.8-3.4,4.4-3.4c1.3,0,2.3,0.2,3.2,0.4v-0.4c0-1.9-1.1-2.8-3.1-2.8
				C369.5,230.4,368.6,230.7,367.6,231.1z M367.8,236.4c0,1.3,1.2,2.1,2.6,2.1c1.9,0,3.5-1.2,3.5-2.8v-1c-0.8-0.2-1.8-0.4-3-0.4
				C368.9,234.3,367.8,235.1,367.8,236.4z"/>
			<path fill="#FFFFFF" d="M382,239.7c-1.5,0-3.1-0.6-4.3-1.5l0.8-1.1c1.1,0.8,2.4,1.3,3.6,1.3c1.2,0,2.1-0.6,2.1-1.6v0
				c0-1-1.2-1.4-2.6-1.8c-1.6-0.5-3.4-1-3.4-2.9v0c0-1.8,1.5-3,3.5-3c1.3,0,2.7,0.4,3.7,1.1l-0.7,1.2c-1-0.6-2.1-1-3.1-1
				c-1.2,0-2,0.6-2,1.5v0c0,1,1.3,1.4,2.7,1.8c1.6,0.5,3.3,1.1,3.3,3v0C385.7,238.6,384.1,239.7,382,239.7z"/>
			<path fill="#FFFFFF" d="M397.7,239.5h-1.8l-3.7-4.8l-2.1,2.1v2.7h-1.5v-14.6h1.5V235l5.6-5.8h1.9l-4.3,4.4L397.7,239.5z"/>
			<path fill="#FFFFFF" d="M411,239.8c-0.9,2.1-1.9,2.9-3.4,2.9c-0.9,0-1.5-0.2-2.2-0.5l0.5-1.2c0.5,0.3,1,0.4,1.6,0.4
				c0.9,0,1.5-0.5,2.1-1.9l-4.7-10.3h1.7l3.8,8.6l3.3-8.6h1.6L411,239.8z"/>
			<path fill="#FFFFFF" d="M421.9,239.7c-3.1,0-5.4-2.4-5.4-5.4s2.3-5.4,5.4-5.4c3.1,0,5.4,2.4,5.4,5.4
				C427.3,237.3,425,239.7,421.9,239.7z M421.9,230.3c-2.2,0-3.8,1.8-3.8,4c0,2.2,1.6,4,3.8,4c2.2,0,3.8-1.8,3.8-4
				C425.7,232.1,424.1,230.3,421.9,230.3z"/>
			<path fill="#FFFFFF" d="M437.4,229.2h1.5v10.3h-1.5v-1.8c-0.7,1.1-1.8,2-3.5,2c-2.5,0-4-1.7-4-4.1v-6.4h1.5v6
				c0,1.9,1,3.1,2.9,3.1c1.8,0,3.1-1.3,3.1-3.2V229.2z"/>
			<path fill="#FFFFFF" d="M449.9,239.5h-1.5v-10.3h1.5v1.8c0.7-1.1,1.8-2,3.5-2c2.5,0,4,1.7,4,4.1v6.4h-1.5v-6c0-1.9-1-3.1-2.9-3.1
				c-1.8,0-3.1,1.3-3.1,3.2V239.5z"/>
			<path fill="#FFFFFF" d="M465.3,238.4c1.4,0,2.4-0.6,3.3-1.5l1,0.9c-1,1.2-2.3,1.9-4.3,1.9c-2.8,0-5.2-2.2-5.2-5.4
				c0-3,2.1-5.4,5-5.4c3.1,0,4.8,2.4,4.8,5.5c0,0.1,0,0.3,0,0.5h-8.2C461.9,237.1,463.5,238.4,465.3,238.4z M468.3,233.8
				c-0.2-1.9-1.2-3.5-3.3-3.5c-1.8,0-3.2,1.5-3.4,3.5H468.3z"/>
			<path fill="#FFFFFF" d="M477.1,238.4c1.4,0,2.4-0.6,3.3-1.5l1,0.9c-1,1.2-2.3,1.9-4.3,1.9c-2.8,0-5.2-2.2-5.2-5.4
				c0-3,2.1-5.4,5-5.4c3.1,0,4.8,2.4,4.8,5.5c0,0.1,0,0.3,0,0.5h-8.2C473.7,237.1,475.3,238.4,477.1,238.4z M480.1,233.8
				c-0.2-1.9-1.2-3.5-3.3-3.5c-1.8,0-3.2,1.5-3.4,3.5H480.1z"/>
			<path fill="#FFFFFF" d="M492.7,239.5v-2.1c-0.8,1.2-2.1,2.3-4,2.3c-2.5,0-4.9-2-4.9-5.4c0-3.4,2.5-5.4,4.9-5.4c1.9,0,3.2,1,4,2.2
				v-6.2h1.5v14.6H492.7z M489,230.3c-2,0-3.6,1.5-3.6,4c0,2.5,1.7,4,3.6,4c1.9,0,3.7-1.6,3.7-4C492.8,231.9,490.9,230.3,489,230.3z
				"/>
			<path fill="#FFFFFF" d="M508.3,239.7c-3,0-5.3-2.5-5.3-5.4c0-2.9,2.3-5.4,5.3-5.4c2,0,3.2,0.8,4.1,1.8l-1,1.1
				c-0.8-0.9-1.7-1.6-3.1-1.6c-2.1,0-3.7,1.8-3.7,4c0,2.3,1.6,4,3.8,4c1.3,0,2.3-0.7,3.2-1.5l1,0.9
				C511.5,238.9,510.3,239.7,508.3,239.7z"/>
			<path fill="#FFFFFF" d="M519.5,239.7c-3.1,0-5.4-2.4-5.4-5.4s2.3-5.4,5.4-5.4c3.1,0,5.4,2.4,5.4,5.4
				C524.9,237.3,522.6,239.7,519.5,239.7z M519.5,230.3c-2.2,0-3.8,1.8-3.8,4c0,2.2,1.6,4,3.8,4c2.2,0,3.8-1.8,3.8-4
				C523.4,232.1,521.7,230.3,519.5,230.3z"/>
			<path fill="#FFFFFF" d="M539.6,228.9c2.4,0,3.8,1.6,3.8,4.2v6.4h-1.5v-6c0-2-1-3.1-2.7-3.1c-1.6,0-2.9,1.2-2.9,3.2v6h-1.5v-6.1
				c0-1.9-1-3.1-2.7-3.1c-1.6,0-2.9,1.4-2.9,3.3v5.9h-1.5v-10.3h1.5v1.7c0.7-1,1.6-2,3.3-2c1.7,0,2.8,0.9,3.3,2.1
				C536.7,229.9,537.8,228.9,539.6,228.9z"/>
			<path fill="#FFFFFF" d="M552.2,239.7c-1.9,0-3.2-1-4-2.2v5.2h-1.5v-13.5h1.5v2.1c0.8-1.2,2.1-2.3,4-2.3c2.5,0,4.9,2,4.9,5.4
				C557.2,237.7,554.7,239.7,552.2,239.7z M552,230.3c-1.9,0-3.7,1.6-3.7,4c0,2.4,1.8,4,3.7,4c2,0,3.6-1.5,3.6-4
				C555.6,231.9,553.9,230.3,552,230.3z"/>
			<path fill="#FFFFFF" d="M560.2,239.5v-14.6h1.5v14.6H560.2z"/>
			<path fill="#FFFFFF" d="M569.8,238.4c1.4,0,2.4-0.6,3.3-1.5l1,0.9c-1,1.2-2.3,1.9-4.3,1.9c-2.8,0-5.2-2.2-5.2-5.4
				c0-3,2.1-5.4,5-5.4c3.1,0,4.8,2.4,4.8,5.5c0,0.1,0,0.3,0,0.5h-8.2C566.4,237.1,568,238.4,569.8,238.4z M572.9,233.8
				c-0.2-1.9-1.2-3.5-3.3-3.5c-1.8,0-3.2,1.5-3.4,3.5H572.9z"/>
			<path fill="#FFFFFF" d="M579.2,236.6c0,1.3,0.7,1.7,1.7,1.7c0.5,0,1-0.1,1.5-0.4v1.3c-0.5,0.3-1.1,0.4-1.9,0.4
				c-1.7,0-2.9-0.8-2.9-2.9v-6.2h-1.4v-1.4h1.4V226h1.5v3.1h3.3v1.4h-3.3V236.6z"/>
			<path fill="#FFFFFF" d="M589.5,238.4c1.4,0,2.4-0.6,3.3-1.5l1,0.9c-1,1.2-2.3,1.9-4.3,1.9c-2.8,0-5.2-2.2-5.2-5.4
				c0-3,2.1-5.4,5-5.4c3.1,0,4.8,2.4,4.8,5.5c0,0.1,0,0.3,0,0.5h-8.2C586,237.1,587.6,238.4,589.5,238.4z M592.5,233.8
				c-0.2-1.9-1.2-3.5-3.3-3.5c-1.8,0-3.2,1.5-3.4,3.5H592.5z"/>
			<path fill="#FFFFFF" d="M605,239.5v-2.1c-0.8,1.2-2.1,2.3-4,2.3c-2.5,0-4.9-2-4.9-5.4c0-3.4,2.5-5.4,4.9-5.4c1.9,0,3.2,1,4,2.2
				v-6.2h1.5v14.6H605z M601.4,230.3c-2,0-3.6,1.5-3.6,4c0,2.5,1.7,4,3.6,4c1.9,0,3.7-1.6,3.7-4
				C605.1,231.9,603.3,230.3,601.4,230.3z"/>
			<path fill="#FFFFFF" d="M609.8,239.5v-2.1h1.8v2.1H609.8z"/>
		</g>
		<g>
			<path fill="#0160BA" d="M246.3,181l-3,0.8l-0.6-2.4l4.5-1.4h2v16.9h-2.9V181z"/>
			<path fill="#0160BA" d="M253.2,191.6h3.2v3.3h-3.2V191.6z"/>
			<path fill="#0160BA" d="M267.4,178.1h3v14.1h8.8v2.7h-11.8V178.1z"/>
			<path fill="#0160BA" d="M281.9,177.5h3.1v2.8h-3.1V177.5z M282.1,182.2h2.9v12.7h-2.9V182.2z"/>
			<path fill="#0160BA" d="M287.7,193.2l1.3-2c1.4,1,2.9,1.6,4.2,1.6c1.2,0,2-0.5,2-1.4v0c0-1-1.3-1.3-2.8-1.8c-1.9-0.5-4-1.3-4-3.7
				v0c0-2.4,2-3.9,4.5-3.9c1.6,0,3.3,0.6,4.7,1.4l-1.2,2.1c-1.2-0.7-2.5-1.2-3.6-1.2c-1.1,0-1.8,0.5-1.8,1.2v0
				c0,0.9,1.4,1.3,2.9,1.8c1.8,0.6,3.9,1.4,3.9,3.7v0c0,2.7-2.1,4-4.7,4C291.3,195.1,289.3,194.5,287.7,193.2z"/>
			<path fill="#0160BA" d="M301.1,191.4v-6.7h-1.6v-2.5h1.6v-3.5h2.9v3.5h3.4v2.5h-3.4v6.2c0,1.1,0.6,1.6,1.6,1.6
				c0.6,0,1.2-0.1,1.8-0.4v2.4c-0.7,0.4-1.5,0.6-2.6,0.6C302.7,195.1,301.1,194.2,301.1,191.4z"/>
		</g>
	</g>
	<g>
		<path fill="#FFFFFF" d="M311.8,12.5L311.8,12.5c0-5.9,4.5-10.9,10.8-10.9c3.7,0,5.9,1,8.1,2.9l-2.3,2.8c-1.6-1.4-3.2-2.2-5.9-2.2
			c-3.9,0-6.8,3.4-6.8,7.4v0.1c0,4.3,2.8,7.5,7.1,7.5c2,0,3.8-0.6,5.1-1.6v-3.9h-5.4v-3.2h8.9V20c-2.1,1.8-5,3.3-8.8,3.3
			C316.2,23.3,311.8,18.6,311.8,12.5z"/>
		<path fill="#FFFFFF" d="M335,15L335,15c0-4.6,3.2-8.3,7.7-8.3c5,0,7.6,4,7.6,8.5c0,0.3,0,0.7-0.1,1h-11.6c0.4,2.6,2.2,4,4.6,4
			c1.8,0,3-0.7,4.3-1.9l2.1,1.9c-1.5,1.8-3.6,3-6.5,3C338.6,23.3,335,19.9,335,15z M346.7,13.9c-0.2-2.3-1.6-4.2-4-4.2
			c-2.2,0-3.8,1.7-4.1,4.2H346.7z"/>
		<path fill="#FFFFFF" d="M354.7,18.5v-8.3h-2V7.1h2V2.7h3.6v4.3h4.3v3.1h-4.3v7.8c0,1.4,0.7,2,2,2c0.8,0,1.5-0.2,2.2-0.5v3
			c-0.9,0.5-1.9,0.8-3.3,0.8C356.6,23.2,354.7,22,354.7,18.5z"/>
		<path fill="#FFFFFF" d="M374.3,18.3L374.3,18.3c0-3.5,2.7-5.2,6.5-5.2c1.8,0,3,0.3,4.3,0.7v-0.4c0-2.2-1.4-3.5-3.9-3.5
			c-1.8,0-3.1,0.4-4.5,1l-1-2.9c1.7-0.8,3.4-1.3,6-1.3c2.4,0,4.1,0.6,5.2,1.8c1.2,1.1,1.7,2.8,1.7,4.9v9.4H385v-2
			c-1.1,1.3-2.7,2.3-5.2,2.3C376.9,23.2,374.3,21.5,374.3,18.3z M385.1,17.2v-1.1c-0.9-0.4-2.2-0.6-3.6-0.6c-2.3,0-3.7,1-3.7,2.6
			v0.1c0,1.5,1.3,2.4,3.1,2.4C383.3,20.6,385.1,19.2,385.1,17.2z"/>
		<path fill="#FFFFFF" d="M399.4,27.6v-2.9c0.4,0.1,0.7,0.1,1,0.1c1,0,1.7-0.5,1.7-1.9V7.1h3.6v16c0,3.2-1.7,4.7-4.6,4.7
			C400.5,27.8,400,27.7,399.4,27.6z M402,1.2h3.9v3.4H402V1.2z"/>
		<path fill="#FFFFFF" d="M409.7,15.1L409.7,15.1c0-4.6,3.6-8.3,8.5-8.3c4.9,0,8.4,3.7,8.4,8.2V15c0,4.5-3.6,8.2-8.5,8.2
			C413.2,23.3,409.7,19.6,409.7,15.1z M422.9,15.1L422.9,15.1c0-2.8-2-5.2-4.9-5.2c-2.9,0-4.8,2.3-4.8,5V15c0,2.8,2,5.1,4.8,5.1
			C421.1,20.1,422.9,17.8,422.9,15.1z"/>
		<path fill="#FFFFFF" d="M433.9,20.4v2.5h-3.6V1h3.6v8.7c1.2-1.7,2.8-3,5.4-3c3.7,0,7.3,2.9,7.3,8.2V15c0,5.2-3.6,8.2-7.3,8.2
			C436.6,23.2,435,21.9,433.9,20.4z M442.9,15L442.9,15c0-3.1-2.1-5.1-4.5-5.1s-4.6,2-4.6,5.1V15c0,3,2.2,5.1,4.6,5.1
			C440.9,20.1,442.9,18.1,442.9,15z"/>
		<path fill="#FFFFFF" d="M458.5,15L458.5,15c0-5.3,3.6-8.3,7.3-8.3c2.6,0,4.3,1.3,5.4,2.8V1h3.6v21.9h-3.6v-2.6
			c-1.2,1.6-2.8,3-5.4,3C462.2,23.2,458.5,20.3,458.5,15z M471.4,15L471.4,15c0-3.1-2.2-5.1-4.6-5.1c-2.5,0-4.6,1.9-4.6,5.1V15
			c0,3.1,2.1,5.1,4.6,5.1C469.2,20.1,471.4,18,471.4,15z"/>
		<path fill="#FFFFFF" d="M478.6,15.1L478.6,15.1c0-4.6,3.6-8.3,8.5-8.3c4.9,0,8.4,3.7,8.4,8.2V15c0,4.5-3.6,8.2-8.5,8.2
			C482.2,23.3,478.6,19.6,478.6,15.1z M491.9,15.1L491.9,15.1c0-2.8-2-5.2-4.9-5.2c-2.9,0-4.8,2.3-4.8,5V15c0,2.8,2,5.1,4.8,5.1
			C490,20.1,491.9,17.8,491.9,15.1z"/>
		<path fill="#FFFFFF" d="M499.2,7.1h3.6v2.4c1-1.5,2.5-2.8,4.9-2.8c3.6,0,5.6,2.4,5.6,6.1v10.1h-3.6v-9c0-2.5-1.2-3.9-3.4-3.9
			c-2.1,0-3.6,1.5-3.6,3.9v8.9h-3.6V7.1z"/>
		<path fill="#FFFFFF" d="M516.9,15L516.9,15c0-4.6,3.2-8.3,7.7-8.3c5,0,7.6,4,7.6,8.5c0,0.3,0,0.7-0.1,1h-11.6c0.4,2.6,2.2,4,4.6,4
			c1.8,0,3-0.7,4.3-1.9l2.1,1.9c-1.5,1.8-3.6,3-6.5,3C520.5,23.3,516.9,19.9,516.9,15z M528.7,13.9c-0.2-2.3-1.6-4.2-4-4.2
			c-2.2,0-3.8,1.7-4.1,4.2H528.7z"/>
	</g>
	<g>
		<g>
			<path fill="#FFFFFF" d="M243.4,426.5L243.4,426.5c0-4,3-7.3,7.1-7.3c2.5,0,4.1,0.9,5.5,2.2l-1.1,1.2c-1.2-1.1-2.5-1.9-4.4-1.9
				c-3.1,0-5.4,2.5-5.4,5.7v0c0,3.2,2.3,5.8,5.4,5.8c1.9,0,3.2-0.7,4.5-2l1,1c-1.5,1.5-3.1,2.5-5.6,2.5
				C246.3,433.7,243.4,430.6,243.4,426.5z"/>
			<path fill="#FFFFFF" d="M257.6,428.4L257.6,428.4c0-3,2.3-5.4,5.4-5.4c3.1,0,5.4,2.4,5.4,5.4v0c0,2.9-2.3,5.4-5.4,5.4
				C259.9,433.7,257.6,431.3,257.6,428.4z M266.8,428.4L266.8,428.4c0-2.3-1.7-4.1-3.8-4.1c-2.2,0-3.8,1.8-3.8,4v0
				c0,2.2,1.6,4,3.8,4C265.3,432.4,266.8,430.6,266.8,428.4z"/>
			<path fill="#FFFFFF" d="M271.2,423.2h1.5v1.8c0.7-1.1,1.8-2,3.5-2c2.5,0,4,1.7,4,4.1v6.4h-1.5v-6c0-1.9-1-3.1-2.9-3.1
				c-1.8,0-3.1,1.3-3.1,3.2v5.9h-1.5V423.2z"/>
			<path fill="#FFFFFF" d="M283.5,423.2h1.5v1.8c0.7-1.1,1.8-2,3.5-2c2.5,0,4,1.7,4,4.1v6.4H291v-6c0-1.9-1-3.1-2.9-3.1
				c-1.8,0-3.1,1.3-3.1,3.2v5.9h-1.5V423.2z"/>
			<path fill="#FFFFFF" d="M295.2,428.4L295.2,428.4c0-3,2.1-5.4,5-5.4c3.1,0,4.8,2.4,4.8,5.5c0,0.2,0,0.3,0,0.5h-8.2
				c0.2,2.2,1.8,3.5,3.6,3.5c1.4,0,2.4-0.6,3.3-1.5l1,0.9c-1,1.2-2.3,1.9-4.3,1.9C297.5,433.7,295.2,431.6,295.2,428.4z
				 M303.4,427.8c-0.2-1.9-1.2-3.5-3.3-3.5c-1.8,0-3.2,1.5-3.4,3.5H303.4z"/>
			<path fill="#FFFFFF" d="M307,428.4L307,428.4c0-3,2.3-5.4,5.3-5.4c2,0,3.2,0.8,4.1,1.8l-1,1.1c-0.8-0.9-1.7-1.6-3.1-1.6
				c-2.1,0-3.7,1.8-3.7,4v0c0,2.2,1.6,4,3.8,4c1.3,0,2.3-0.7,3.2-1.5l1,0.9c-1,1.2-2.3,2-4.2,2C309.3,433.7,307,431.3,307,428.4z"/>
			<path fill="#FFFFFF" d="M319.6,430.8v-6.2h-1.4v-1.4h1.4V420h1.5v3.1h3.3v1.4h-3.3v6c0,1.3,0.7,1.7,1.7,1.7c0.5,0,1-0.1,1.5-0.4
				v1.3c-0.5,0.3-1.1,0.4-1.9,0.4C320.9,433.7,319.6,432.9,319.6,430.8z"/>
			<path fill="#FFFFFF" d="M332.3,423.2h1.6l2.7,8.3l2.8-8.3h1.3l2.8,8.3l2.7-8.3h1.6l-3.6,10.4h-1.3l-2.8-8.2l-2.8,8.2h-1.4
				L332.3,423.2z"/>
			<path fill="#FFFFFF" d="M350.4,419.2h1.8v1.7h-1.8V419.2z M350.5,423.2h1.5v10.3h-1.5V423.2z"/>
			<path fill="#FFFFFF" d="M356.2,430.8v-6.2h-1.4v-1.4h1.4V420h1.5v3.1h3.3v1.4h-3.3v6c0,1.3,0.7,1.7,1.7,1.7c0.5,0,1-0.1,1.5-0.4
				v1.3c-0.5,0.3-1.1,0.4-1.9,0.4C357.5,433.7,356.2,432.9,356.2,430.8z"/>
			<path fill="#FFFFFF" d="M363.7,418.9h1.5v6.1c0.7-1.1,1.8-2,3.5-2c2.5,0,4,1.7,4,4.1v6.4h-1.5v-6c0-1.9-1-3.1-2.9-3.1
				c-1.8,0-3.1,1.3-3.1,3.2v5.9h-1.5V418.9z"/>
			<path fill="#FFFFFF" d="M382.6,430.8v-6.2h-1.4v-1.4h1.4V420h1.5v3.1h3.3v1.4h-3.3v6c0,1.3,0.7,1.7,1.7,1.7c0.5,0,1-0.1,1.5-0.4
				v1.3c-0.5,0.3-1.1,0.4-1.9,0.4C383.9,433.7,382.6,432.9,382.6,430.8z"/>
			<path fill="#FFFFFF" d="M389.2,428.4L389.2,428.4c0-3,2.3-5.4,5.4-5.4c3.1,0,5.4,2.4,5.4,5.4v0c0,2.9-2.3,5.4-5.4,5.4
				C391.5,433.7,389.2,431.3,389.2,428.4z M398.4,428.4L398.4,428.4c0-2.3-1.7-4.1-3.8-4.1c-2.2,0-3.8,1.8-3.8,4v0
				c0,2.2,1.6,4,3.8,4C396.8,432.4,398.4,430.6,398.4,428.4z"/>
			<path fill="#FFFFFF" d="M402.8,423.2h1.5v2.1c0.8-1.2,2.1-2.3,4-2.3c2.5,0,4.9,2,4.9,5.4v0c0,3.4-2.4,5.4-4.9,5.4
				c-1.9,0-3.2-1-4-2.2v5.2h-1.5V423.2z M411.6,428.4L411.6,428.4c0-2.5-1.7-4-3.6-4c-1.9,0-3.7,1.6-3.7,4v0c0,2.4,1.8,4,3.7,4
				C410,432.3,411.6,430.9,411.6,428.4z"/>
			<path fill="#FFFFFF" d="M421.3,430.5L421.3,430.5c0-2.2,1.8-3.4,4.4-3.4c1.3,0,2.3,0.2,3.2,0.4v-0.4c0-1.9-1.1-2.8-3.1-2.8
				c-1.2,0-2.2,0.3-3.1,0.8l-0.5-1.3c1.1-0.5,2.3-0.9,3.8-0.9c1.5,0,2.6,0.4,3.3,1.1c0.7,0.7,1.1,1.7,1.1,3v6.3h-1.5v-1.6
				c-0.7,0.9-1.9,1.8-3.7,1.8C423.2,433.7,421.3,432.6,421.3,430.5z M428.9,429.7v-1c-0.8-0.2-1.8-0.4-3-0.4c-1.9,0-3,0.8-3,2.1v0
				c0,1.3,1.2,2.1,2.6,2.1C427.3,432.5,428.9,431.3,428.9,429.7z"/>
			<path fill="#FFFFFF" d="M433.6,423.2h1.5v2.1c0.8-1.2,2.1-2.3,4-2.3c2.5,0,4.9,2,4.9,5.4v0c0,3.4-2.4,5.4-4.9,5.4
				c-1.9,0-3.2-1-4-2.2v5.2h-1.5V423.2z M442.5,428.4L442.5,428.4c0-2.5-1.7-4-3.6-4c-1.9,0-3.7,1.6-3.7,4v0c0,2.4,1.8,4,3.7,4
				C440.8,432.3,442.5,430.9,442.5,428.4z"/>
			<path fill="#FFFFFF" d="M446.9,423.2h1.5v2.1c0.8-1.2,2.1-2.3,4-2.3c2.5,0,4.9,2,4.9,5.4v0c0,3.4-2.4,5.4-4.9,5.4
				c-1.9,0-3.2-1-4-2.2v5.2h-1.5V423.2z M455.8,428.4L455.8,428.4c0-2.5-1.7-4-3.6-4c-1.9,0-3.7,1.6-3.7,4v0c0,2.4,1.8,4,3.7,4
				C454.1,432.3,455.8,430.9,455.8,428.4z"/>
			<path fill="#FFFFFF" d="M460.3,418.9h1.5v14.6h-1.5V418.9z"/>
			<path fill="#FFFFFF" d="M465.5,419.2h1.8v1.7h-1.8V419.2z M465.6,423.2h1.5v10.3h-1.5V423.2z"/>
			<path fill="#FFFFFF" d="M470.1,428.4L470.1,428.4c0-3,2.3-5.4,5.3-5.4c2,0,3.2,0.8,4.1,1.8l-1,1.1c-0.8-0.9-1.7-1.6-3.1-1.6
				c-2.1,0-3.7,1.8-3.7,4v0c0,2.2,1.6,4,3.8,4c1.3,0,2.3-0.7,3.2-1.5l1,0.9c-1,1.2-2.3,2-4.2,2C472.3,433.7,470.1,431.3,470.1,428.4
				z"/>
			<path fill="#FFFFFF" d="M481.3,430.5L481.3,430.5c0-2.2,1.8-3.4,4.4-3.4c1.3,0,2.3,0.2,3.2,0.4v-0.4c0-1.9-1.1-2.8-3.1-2.8
				c-1.2,0-2.2,0.3-3.1,0.8l-0.5-1.3c1.1-0.5,2.3-0.9,3.8-0.9c1.5,0,2.6,0.4,3.3,1.1c0.7,0.7,1.1,1.7,1.1,3v6.3h-1.5v-1.6
				c-0.7,0.9-1.9,1.8-3.7,1.8C483.3,433.7,481.3,432.6,481.3,430.5z M489,429.7v-1c-0.8-0.2-1.8-0.4-3-0.4c-1.9,0-3,0.8-3,2.1v0
				c0,1.3,1.2,2.1,2.6,2.1C487.4,432.5,489,431.3,489,429.7z"/>
			<path fill="#FFFFFF" d="M493.7,423.2h1.5v1.8c0.7-1.1,1.8-2,3.5-2c2.5,0,4,1.7,4,4.1v6.4h-1.5v-6c0-1.9-1-3.1-2.9-3.1
				c-1.8,0-3.1,1.3-3.1,3.2v5.9h-1.5V423.2z"/>
			<path fill="#FFFFFF" d="M506.6,430.8v-6.2h-1.4v-1.4h1.4V420h1.5v3.1h3.3v1.4h-3.3v6c0,1.3,0.7,1.7,1.7,1.7c0.5,0,1-0.1,1.5-0.4
				v1.3c-0.5,0.3-1.1,0.4-1.9,0.4C507.8,433.7,506.6,432.9,506.6,430.8z"/>
			<path fill="#FFFFFF" d="M513.2,432.2l0.8-1.1c1.1,0.8,2.4,1.3,3.6,1.3c1.2,0,2.1-0.6,2.1-1.6v0c0-1-1.2-1.4-2.6-1.8
				c-1.6-0.5-3.4-1-3.4-2.9v0c0-1.8,1.5-3,3.5-3c1.3,0,2.7,0.4,3.7,1.1l-0.7,1.2c-1-0.6-2.1-1-3.1-1c-1.2,0-2,0.6-2,1.5v0
				c0,1,1.3,1.4,2.7,1.8c1.6,0.5,3.3,1.1,3.3,3v0c0,2-1.6,3.1-3.7,3.1C516,433.7,514.4,433.1,513.2,432.2z"/>
			<path fill="#FFFFFF" d="M529.2,423.2h1.6l2.7,8.3l2.8-8.3h1.3l2.8,8.3l2.7-8.3h1.6l-3.6,10.4h-1.3l-2.8-8.2l-2.8,8.2h-1.4
				L529.2,423.2z"/>
			<path fill="#FFFFFF" d="M547.3,419.2h1.8v1.7h-1.8V419.2z M547.4,423.2h1.5v10.3h-1.5V423.2z"/>
			<path fill="#FFFFFF" d="M553.1,430.8v-6.2h-1.4v-1.4h1.4V420h1.5v3.1h3.3v1.4h-3.3v6c0,1.3,0.7,1.7,1.7,1.7c0.5,0,1-0.1,1.5-0.4
				v1.3c-0.5,0.3-1.1,0.4-1.9,0.4C554.3,433.7,553.1,432.9,553.1,430.8z"/>
			<path fill="#FFFFFF" d="M560.6,418.9h1.5v6.1c0.7-1.1,1.8-2,3.5-2c2.5,0,4,1.7,4,4.1v6.4h-1.5v-6c0-1.9-1-3.1-2.9-3.1
				c-1.8,0-3.1,1.3-3.1,3.2v5.9h-1.5V418.9z"/>
			<path fill="#FFFFFF" d="M573,419.2h1.8v1.7H573V419.2z M573.1,423.2h1.5v10.3h-1.5V423.2z"/>
			<path fill="#FFFFFF" d="M578.2,423.2h1.5v1.8c0.7-1.1,1.8-2,3.5-2c2.5,0,4,1.7,4,4.1v6.4h-1.5v-6c0-1.9-1-3.1-2.9-3.1
				c-1.8,0-3.1,1.3-3.1,3.2v5.9h-1.5V423.2z"/>
			<path fill="#FFFFFF" d="M604.3,423.2h1.6l-4.3,10.7c-0.9,2.1-1.9,2.9-3.4,2.9c-0.9,0-1.5-0.2-2.2-0.5l0.5-1.2
				c0.5,0.3,1,0.4,1.6,0.4c0.9,0,1.5-0.5,2.1-1.9l-4.7-10.3h1.7l3.8,8.6L604.3,423.2z"/>
			<path fill="#FFFFFF" d="M607.1,428.4L607.1,428.4c0-3,2.3-5.4,5.4-5.4c3.1,0,5.4,2.4,5.4,5.4v0c0,2.9-2.3,5.4-5.4,5.4
				C609.4,433.7,607.1,431.3,607.1,428.4z M616.3,428.4L616.3,428.4c0-2.3-1.7-4.1-3.8-4.1c-2.2,0-3.8,1.8-3.8,4v0
				c0,2.2,1.6,4,3.8,4C614.7,432.4,616.3,430.6,616.3,428.4z"/>
			<path fill="#FFFFFF" d="M620.5,429.6v-6.4h1.5v6c0,1.9,1,3.1,2.9,3.1c1.8,0,3.1-1.3,3.1-3.2v-5.9h1.5v10.3H628v-1.8
				c-0.7,1.1-1.8,2-3.5,2C622,433.7,620.5,432,620.5,429.6z"/>
			<path fill="#FFFFFF" d="M633,423.2h1.5v2.7c0.8-1.7,2.3-3,4.2-2.9v1.7h-0.1c-2.3,0-4.1,1.6-4.1,4.7v4.1H633V423.2z"/>
			<path fill="#FFFFFF" d="M646.4,428.4L646.4,428.4c0-3,2.3-5.4,5.3-5.4c2,0,3.2,0.8,4.1,1.8l-1,1.1c-0.8-0.9-1.7-1.6-3.1-1.6
				c-2.1,0-3.7,1.8-3.7,4v0c0,2.2,1.6,4,3.8,4c1.3,0,2.3-0.7,3.2-1.5l1,0.9c-1,1.2-2.3,2-4.2,2C648.7,433.7,646.4,431.3,646.4,428.4
				z"/>
			<path fill="#FFFFFF" d="M657.6,428.4L657.6,428.4c0-3,2.3-5.4,5.4-5.4c3.1,0,5.4,2.4,5.4,5.4v0c0,2.9-2.3,5.4-5.4,5.4
				C659.8,433.7,657.6,431.3,657.6,428.4z M666.8,428.4L666.8,428.4c0-2.3-1.7-4.1-3.8-4.1c-2.2,0-3.8,1.8-3.8,4v0
				c0,2.2,1.6,4,3.8,4C665.2,432.4,666.8,430.6,666.8,428.4z"/>
			<path fill="#FFFFFF" d="M671.1,423.2h1.5v1.7c0.7-1,1.6-2,3.3-2c1.7,0,2.8,0.9,3.3,2.1c0.7-1.1,1.8-2.1,3.6-2.1
				c2.4,0,3.8,1.6,3.8,4.2v6.4h-1.5v-6c0-2-1-3.1-2.7-3.1c-1.6,0-2.8,1.2-2.8,3.2v6h-1.5v-6.1c0-1.9-1-3.1-2.7-3.1
				c-1.6,0-2.9,1.4-2.9,3.3v5.9h-1.5V423.2z"/>
			<path fill="#FFFFFF" d="M690.1,423.2h1.5v1.7c0.7-1,1.6-2,3.3-2c1.7,0,2.8,0.9,3.3,2.1c0.7-1.1,1.8-2.1,3.6-2.1
				c2.4,0,3.8,1.6,3.8,4.2v6.4h-1.5v-6c0-2-1-3.1-2.7-3.1c-1.6,0-2.8,1.2-2.8,3.2v6h-1.5v-6.1c0-1.9-1-3.1-2.7-3.1
				c-1.6,0-2.9,1.4-2.9,3.3v5.9h-1.5V423.2z"/>
			<path fill="#FFFFFF" d="M709,429.6v-6.4h1.5v6c0,1.9,1,3.1,2.9,3.1c1.8,0,3.1-1.3,3.1-3.2v-5.9h1.5v10.3h-1.5v-1.8
				c-0.7,1.1-1.8,2-3.5,2C710.5,433.7,709,432,709,429.6z"/>
			<path fill="#FFFFFF" d="M721.5,423.2h1.5v1.8c0.7-1.1,1.8-2,3.5-2c2.5,0,4,1.7,4,4.1v6.4H729v-6c0-1.9-1-3.1-2.9-3.1
				c-1.8,0-3.1,1.3-3.1,3.2v5.9h-1.5V423.2z"/>
			<path fill="#FFFFFF" d="M733.8,419.2h1.8v1.7h-1.8V419.2z M733.9,423.2h1.5v10.3h-1.5V423.2z"/>
			<path fill="#FFFFFF" d="M739.6,430.8v-6.2h-1.4v-1.4h1.4V420h1.5v3.1h3.3v1.4h-3.3v6c0,1.3,0.7,1.7,1.7,1.7c0.5,0,1-0.1,1.5-0.4
				v1.3c-0.5,0.3-1.1,0.4-1.9,0.4C740.9,433.7,739.6,432.9,739.6,430.8z"/>
			<path fill="#FFFFFF" d="M754.9,423.2h1.6l-4.3,10.7c-0.9,2.1-1.9,2.9-3.4,2.9c-0.9,0-1.5-0.2-2.2-0.5l0.5-1.2
				c0.5,0.3,1,0.4,1.6,0.4c0.9,0,1.5-0.5,2.1-1.9l-4.7-10.3h1.7l3.8,8.6L754.9,423.2z"/>
			<path fill="#FFFFFF" d="M245.3,455.5v2h-1.5v-14.6h1.5v6.3c0.8-1.2,2.1-2.3,4-2.3c2.5,0,4.9,2,4.9,5.4v0c0,3.4-2.4,5.4-4.9,5.4
				C247.3,457.7,246.1,456.7,245.3,455.5z M252.6,452.4L252.6,452.4c0-2.5-1.7-4-3.6-4c-1.9,0-3.7,1.6-3.7,4v0c0,2.4,1.8,4,3.7,4
				C250.9,456.3,252.6,454.9,252.6,452.4z"/>
			<path fill="#FFFFFF" d="M256.2,454.5L256.2,454.5c0-2.2,1.8-3.4,4.4-3.4c1.3,0,2.3,0.2,3.2,0.4v-0.4c0-1.9-1.1-2.8-3.1-2.8
				c-1.2,0-2.2,0.3-3.1,0.8l-0.5-1.3c1.1-0.5,2.3-0.9,3.8-0.9c1.5,0,2.6,0.4,3.3,1.1c0.7,0.7,1.1,1.7,1.1,3v6.3h-1.5v-1.6
				c-0.7,0.9-1.9,1.8-3.7,1.8C258.2,457.7,256.2,456.6,256.2,454.5z M263.8,453.7v-1c-0.8-0.2-1.8-0.4-3-0.4c-1.9,0-3,0.8-3,2.1v0
				c0,1.3,1.2,2.1,2.6,2.1C262.3,456.5,263.8,455.3,263.8,453.7z"/>
			<path fill="#FFFFFF" d="M267.7,456.2l0.8-1.1c1.1,0.8,2.4,1.3,3.6,1.3c1.2,0,2.1-0.6,2.1-1.6v0c0-1-1.2-1.4-2.6-1.8
				c-1.6-0.5-3.4-1-3.4-2.9v0c0-1.8,1.5-3,3.5-3c1.3,0,2.7,0.4,3.7,1.1l-0.7,1.2c-1-0.6-2.1-1-3.1-1c-1.2,0-2,0.6-2,1.5v0
				c0,1,1.3,1.4,2.7,1.8c1.6,0.5,3.3,1.1,3.3,3v0c0,2-1.6,3.1-3.7,3.1C270.5,457.7,268.9,457.1,267.7,456.2z"/>
			<path fill="#FFFFFF" d="M277.9,452.4L277.9,452.4c0-3,2.1-5.4,5-5.4c3.1,0,4.8,2.4,4.8,5.5c0,0.2,0,0.3,0,0.5h-8.2
				c0.2,2.2,1.8,3.5,3.6,3.5c1.4,0,2.4-0.6,3.3-1.5l1,0.9c-1,1.2-2.3,1.9-4.3,1.9C280.2,457.7,277.9,455.6,277.9,452.4z
				 M286.1,451.8c-0.2-1.9-1.2-3.5-3.3-3.5c-1.8,0-3.2,1.5-3.4,3.5H286.1z"/>
			<path fill="#FFFFFF" d="M289.8,452.4L289.8,452.4c0-3.4,2.5-5.4,4.9-5.4c1.9,0,3.2,1,4,2.2v-6.2h1.5v14.6h-1.5v-2.1
				c-0.8,1.2-2.1,2.3-4,2.3C292.2,457.7,289.8,455.8,289.8,452.4z M298.7,452.3L298.7,452.3c0-2.4-1.8-4-3.7-4c-2,0-3.6,1.5-3.6,4v0
				c0,2.4,1.7,4,3.6,4C296.9,456.3,298.7,454.7,298.7,452.3z"/>
			<path fill="#FFFFFF" d="M309,452.4L309,452.4c0-3,2.3-5.4,5.4-5.4c3.1,0,5.4,2.4,5.4,5.4v0c0,2.9-2.3,5.4-5.4,5.4
				C311.3,457.7,309,455.3,309,452.4z M318.2,452.4L318.2,452.4c0-2.3-1.7-4.1-3.8-4.1c-2.2,0-3.8,1.8-3.8,4v0c0,2.2,1.6,4,3.8,4
				C316.7,456.4,318.2,454.6,318.2,452.4z"/>
			<path fill="#FFFFFF" d="M322.6,447.2h1.5v1.8c0.7-1.1,1.8-2,3.5-2c2.5,0,4,1.7,4,4.1v6.4h-1.5v-6c0-1.9-1-3.1-2.9-3.1
				c-1.8,0-3.1,1.3-3.1,3.2v5.9h-1.5V447.2z"/>
			<path fill="#FFFFFF" d="M348.6,447.2h1.6l-4.3,10.7c-0.9,2.1-1.9,2.9-3.4,2.9c-0.9,0-1.5-0.2-2.2-0.5l0.5-1.2
				c0.5,0.3,1,0.4,1.6,0.4c0.9,0,1.5-0.5,2.1-1.9l-4.7-10.3h1.7l3.8,8.6L348.6,447.2z"/>
			<path fill="#FFFFFF" d="M351.5,452.4L351.5,452.4c0-3,2.3-5.4,5.4-5.4c3.1,0,5.4,2.4,5.4,5.4v0c0,2.9-2.3,5.4-5.4,5.4
				C353.7,457.7,351.5,455.3,351.5,452.4z M360.7,452.4L360.7,452.4c0-2.3-1.7-4.1-3.8-4.1c-2.2,0-3.8,1.8-3.8,4v0
				c0,2.2,1.6,4,3.8,4C359.1,456.4,360.7,454.6,360.7,452.4z"/>
			<path fill="#FFFFFF" d="M364.9,453.6v-6.4h1.5v6c0,1.9,1,3.1,2.9,3.1c1.8,0,3.1-1.3,3.1-3.2v-5.9h1.5v10.3h-1.5v-1.8
				c-0.7,1.1-1.8,2-3.5,2C366.3,457.7,364.9,456,364.9,453.6z"/>
			<path fill="#FFFFFF" d="M377.4,447.2h1.5v2.7c0.8-1.7,2.3-3,4.2-2.9v1.7H383c-2.3,0-4.1,1.6-4.1,4.7v4.1h-1.5V447.2z"/>
			<path fill="#FFFFFF" d="M390.9,452.4L390.9,452.4c0-3.4,2.5-5.4,4.9-5.4c1.9,0,3.2,1,4,2.2v-6.2h1.5v14.6h-1.5v-2.1
				c-0.8,1.2-2.1,2.3-4,2.3C393.3,457.7,390.9,455.8,390.9,452.4z M399.8,452.3L399.8,452.3c0-2.4-1.8-4-3.7-4c-2,0-3.6,1.5-3.6,4v0
				c0,2.4,1.7,4,3.6,4C398,456.3,399.8,454.7,399.8,452.3z"/>
			<path fill="#FFFFFF" d="M404.1,452.4L404.1,452.4c0-3,2.1-5.4,5-5.4c3.1,0,4.8,2.4,4.8,5.5c0,0.2,0,0.3,0,0.5h-8.2
				c0.2,2.2,1.8,3.5,3.6,3.5c1.4,0,2.4-0.6,3.3-1.5l1,0.9c-1,1.2-2.3,1.9-4.3,1.9C406.4,457.7,404.1,455.6,404.1,452.4z
				 M412.3,451.8c-0.2-1.9-1.2-3.5-3.3-3.5c-1.8,0-3.2,1.5-3.4,3.5H412.3z"/>
			<path fill="#FFFFFF" d="M415.7,456.2l0.8-1.1c1.1,0.8,2.4,1.3,3.6,1.3c1.2,0,2.1-0.6,2.1-1.6v0c0-1-1.2-1.4-2.6-1.8
				c-1.6-0.5-3.4-1-3.4-2.9v0c0-1.8,1.5-3,3.5-3c1.3,0,2.7,0.4,3.7,1.1l-0.7,1.2c-1-0.6-2.1-1-3.1-1c-1.2,0-2,0.6-2,1.5v0
				c0,1,1.3,1.4,2.7,1.8c1.6,0.5,3.3,1.1,3.3,3v0c0,2-1.6,3.1-3.7,3.1C418.5,457.7,416.9,457.1,415.7,456.2z"/>
			<path fill="#FFFFFF" d="M425.9,452.4L425.9,452.4c0-3,2.3-5.4,5.3-5.4c2,0,3.2,0.8,4.1,1.8l-1,1.1c-0.8-0.9-1.7-1.6-3.1-1.6
				c-2.1,0-3.7,1.8-3.7,4v0c0,2.2,1.6,4,3.8,4c1.3,0,2.3-0.7,3.2-1.5l1,0.9c-1,1.2-2.3,2-4.2,2C428.2,457.7,425.9,455.3,425.9,452.4
				z"/>
			<path fill="#FFFFFF" d="M438,447.2h1.5v2.7c0.8-1.7,2.3-3,4.2-2.9v1.7h-0.1c-2.3,0-4.1,1.6-4.1,4.7v4.1H438V447.2z"/>
			<path fill="#FFFFFF" d="M446.1,443.2h1.8v1.7h-1.8V443.2z M446.2,447.2h1.5v10.3h-1.5V447.2z"/>
			<path fill="#FFFFFF" d="M451.3,447.2h1.5v2.1c0.8-1.2,2.1-2.3,4-2.3c2.5,0,4.9,2,4.9,5.4v0c0,3.4-2.4,5.4-4.9,5.4
				c-1.9,0-3.2-1-4-2.2v5.2h-1.5V447.2z M460.2,452.4L460.2,452.4c0-2.5-1.7-4-3.6-4c-1.9,0-3.7,1.6-3.7,4v0c0,2.4,1.8,4,3.7,4
				C458.5,456.3,460.2,454.9,460.2,452.4z"/>
			<path fill="#FFFFFF" d="M465.1,454.8v-6.2h-1.4v-1.4h1.4V444h1.5v3.1h3.3v1.4h-3.3v6c0,1.3,0.7,1.7,1.7,1.7c0.5,0,1-0.1,1.5-0.4
				v1.3c-0.5,0.3-1.1,0.4-1.9,0.4C466.4,457.7,465.1,456.9,465.1,454.8z"/>
			<path fill="#FFFFFF" d="M472.7,443.2h1.8v1.7h-1.8V443.2z M472.8,447.2h1.5v10.3h-1.5V447.2z"/>
			<path fill="#FFFFFF" d="M477.3,452.4L477.3,452.4c0-3,2.3-5.4,5.4-5.4c3.1,0,5.4,2.4,5.4,5.4v0c0,2.9-2.3,5.4-5.4,5.4
				C479.6,457.7,477.3,455.3,477.3,452.4z M486.5,452.4L486.5,452.4c0-2.3-1.7-4.1-3.8-4.1c-2.2,0-3.8,1.8-3.8,4v0
				c0,2.2,1.6,4,3.8,4C484.9,456.4,486.5,454.6,486.5,452.4z"/>
			<path fill="#FFFFFF" d="M490.9,447.2h1.5v1.8c0.7-1.1,1.8-2,3.5-2c2.5,0,4,1.7,4,4.1v6.4h-1.5v-6c0-1.9-1-3.1-2.9-3.1
				c-1.8,0-3.1,1.3-3.1,3.2v5.9h-1.5V447.2z"/>
			<path fill="#FFFFFF" d="M508.4,454.5L508.4,454.5c0-2.2,1.8-3.4,4.4-3.4c1.3,0,2.3,0.2,3.2,0.4v-0.4c0-1.9-1.1-2.8-3.1-2.8
				c-1.2,0-2.2,0.3-3.1,0.8l-0.5-1.3c1.1-0.5,2.3-0.9,3.8-0.9c1.5,0,2.6,0.4,3.3,1.1c0.7,0.7,1.1,1.7,1.1,3v6.3H516v-1.6
				c-0.7,0.9-1.9,1.8-3.7,1.8C510.3,457.7,508.4,456.6,508.4,454.5z M516,453.7v-1c-0.8-0.2-1.8-0.4-3-0.4c-1.9,0-3,0.8-3,2.1v0
				c0,1.3,1.2,2.1,2.6,2.1C514.5,456.5,516,455.3,516,453.7z"/>
			<path fill="#FFFFFF" d="M520.8,447.2h1.5v1.8c0.7-1.1,1.8-2,3.5-2c2.5,0,4,1.7,4,4.1v6.4h-1.5v-6c0-1.9-1-3.1-2.9-3.1
				c-1.8,0-3.1,1.3-3.1,3.2v5.9h-1.5V447.2z"/>
			<path fill="#FFFFFF" d="M532.5,452.4L532.5,452.4c0-3.4,2.5-5.4,4.9-5.4c1.9,0,3.2,1,4,2.2v-6.2h1.5v14.6h-1.5v-2.1
				c-0.8,1.2-2.1,2.3-4,2.3C534.9,457.7,532.5,455.8,532.5,452.4z M541.4,452.3L541.4,452.3c0-2.4-1.8-4-3.7-4c-2,0-3.6,1.5-3.6,4v0
				c0,2.4,1.7,4,3.6,4C539.6,456.3,541.4,454.7,541.4,452.3z"/>
			<path fill="#FFFFFF" d="M552.9,454.8v-6.2h-1.4v-1.4h1.4V444h1.5v3.1h3.3v1.4h-3.3v6c0,1.3,0.7,1.7,1.7,1.7c0.5,0,1-0.1,1.5-0.4
				v1.3c-0.5,0.3-1.1,0.4-1.9,0.4C554.2,457.7,552.9,456.9,552.9,454.8z"/>
			<path fill="#FFFFFF" d="M560.4,442.9h1.5v6.1c0.7-1.1,1.8-2,3.5-2c2.5,0,4,1.7,4,4.1v6.4h-1.5v-6c0-1.9-1-3.1-2.9-3.1
				c-1.8,0-3.1,1.3-3.1,3.2v5.9h-1.5V442.9z"/>
			<path fill="#FFFFFF" d="M572.1,452.4L572.1,452.4c0-3,2.1-5.4,5-5.4c3.1,0,4.8,2.4,4.8,5.5c0,0.2,0,0.3,0,0.5h-8.2
				c0.2,2.2,1.8,3.5,3.6,3.5c1.4,0,2.4-0.6,3.3-1.5l1,0.9c-1,1.2-2.3,1.9-4.3,1.9C574.4,457.7,572.1,455.6,572.1,452.4z
				 M580.3,451.8c-0.2-1.9-1.2-3.5-3.3-3.5c-1.8,0-3.2,1.5-3.4,3.5H580.3z"/>
			<path fill="#FFFFFF" d="M584.6,443.2h1.8v1.7h-1.8V443.2z M584.7,447.2h1.5v10.3h-1.5V447.2z"/>
			<path fill="#FFFFFF" d="M589.9,447.2h1.5v2.7c0.8-1.7,2.3-3,4.2-2.9v1.7h-0.1c-2.3,0-4.1,1.6-4.1,4.7v4.1h-1.5V447.2z"/>
			<path fill="#FFFFFF" d="M604,447.2h1.5v1.7c0.7-1,1.6-2,3.3-2c1.7,0,2.8,0.9,3.3,2.1c0.7-1.1,1.8-2.1,3.6-2.1
				c2.4,0,3.8,1.6,3.8,4.2v6.4h-1.5v-6c0-2-1-3.1-2.7-3.1c-1.6,0-2.8,1.2-2.8,3.2v6H611v-6.1c0-1.9-1-3.1-2.7-3.1
				c-1.6,0-2.9,1.4-2.9,3.3v5.9H604V447.2z"/>
			<path fill="#FFFFFF" d="M622.3,452.4L622.3,452.4c0-3,2.1-5.4,5-5.4c3.1,0,4.8,2.4,4.8,5.5c0,0.2,0,0.3,0,0.5h-8.2
				c0.2,2.2,1.8,3.5,3.6,3.5c1.4,0,2.4-0.6,3.3-1.5l1,0.9c-1,1.2-2.3,1.9-4.3,1.9C624.7,457.7,622.3,455.6,622.3,452.4z
				 M630.6,451.8c-0.2-1.9-1.2-3.5-3.3-3.5c-1.8,0-3.2,1.5-3.4,3.5H630.6z"/>
			<path fill="#FFFFFF" d="M634.8,447.2h1.5v2.7c0.8-1.7,2.3-3,4.2-2.9v1.7h-0.1c-2.3,0-4.1,1.6-4.1,4.7v4.1h-1.5V447.2z"/>
			<path fill="#FFFFFF" d="M643,443.2h1.8v1.7H643V443.2z M643.1,447.2h1.5v10.3h-1.5V447.2z"/>
			<path fill="#FFFFFF" d="M648.7,454.8v-6.2h-1.4v-1.4h1.4V444h1.5v3.1h3.3v1.4h-3.3v6c0,1.3,0.7,1.7,1.7,1.7c0.5,0,1-0.1,1.5-0.4
				v1.3c-0.5,0.3-1.1,0.4-1.9,0.4C650,457.7,648.7,456.9,648.7,454.8z"/>
			<path fill="#FFFFFF" d="M656.1,455.4h1.8v2.1h-1.8V455.4z"/>
		</g>
		<g>
			<path fill="#0160BA" d="M243.3,386.5l6-5.1c2.4-2,3.3-3.1,3.3-4.7c0-1.7-1.2-2.7-2.8-2.7s-2.7,0.9-4,2.6l-2.2-1.7
				c1.7-2.3,3.3-3.6,6.4-3.6c3.4,0,5.8,2.1,5.8,5.2v0c0,2.7-1.4,4.2-4.5,6.8l-3.6,3h8.3v2.7h-12.6V386.5z"/>
			<path fill="#0160BA" d="M259.1,385.5h3.3v3.4h-3.3V385.5z"/>
			<path fill="#0160BA" d="M273.1,380.2L273.1,380.2c0-5,3.7-9.1,9-9.1c3.2,0,5.2,1.1,6.8,2.7l-2,2.3c-1.4-1.3-2.9-2.2-4.9-2.2
				c-3.3,0-5.8,2.8-5.8,6.2v0c0,3.4,2.4,6.2,5.8,6.2c2.1,0,3.5-0.8,5-2.2l2,2c-1.8,1.9-3.8,3.1-7.1,3.1
				C276.9,389.2,273.1,385.2,273.1,380.2z"/>
			<path fill="#0160BA" d="M291,382.4L291,382.4c0-3.8,3-6.9,7-6.9s7,3.1,7,6.8v0c0,3.7-3,6.9-7.1,6.9
				C294,389.2,291,386.1,291,382.4z M302,382.4L302,382.4c0-2.4-1.7-4.3-4-4.3c-2.4,0-4,1.9-4,4.2v0c0,2.3,1.7,4.2,4,4.2
				C300.5,386.5,302,384.7,302,382.4z"/>
			<path fill="#0160BA" d="M308.2,375.7h3v2c0.8-1.2,2.1-2.3,4.1-2.3c3,0,4.7,2,4.7,5v8.4h-3v-7.5c0-2-1-3.2-2.8-3.2
				c-1.7,0-3,1.2-3,3.3v7.4h-3V375.7z"/>
			<path fill="#0160BA" d="M323.6,375.7h3v2c0.8-1.2,2.1-2.3,4.1-2.3c3,0,4.7,2,4.7,5v8.4h-3v-7.5c0-2-1-3.2-2.8-3.2
				c-1.8,0-3,1.2-3,3.3v7.4h-3V375.7z"/>
			<path fill="#0160BA" d="M338.4,382.4L338.4,382.4c0-3.8,2.7-6.9,6.4-6.9c4.2,0,6.3,3.3,6.3,7.1c0,0.3,0,0.5,0,0.8h-9.7
				c0.3,2.1,1.8,3.3,3.8,3.3c1.5,0,2.5-0.5,3.6-1.6l1.8,1.6c-1.2,1.5-3,2.5-5.4,2.5C341.4,389.2,338.4,386.4,338.4,382.4z
				 M348.2,381.4c-0.2-1.9-1.3-3.5-3.3-3.5c-1.8,0-3.1,1.4-3.4,3.5H348.2z"/>
			<path fill="#0160BA" d="M353.5,382.4L353.5,382.4c0-3.8,2.9-6.9,6.9-6.9c2.5,0,4,0.9,5.3,2.3l-1.9,2c-0.9-1-1.9-1.6-3.4-1.6
				c-2.2,0-3.8,1.9-3.8,4.2v0c0,2.3,1.6,4.2,3.9,4.2c1.4,0,2.5-0.6,3.4-1.6l1.8,1.8c-1.3,1.5-2.8,2.5-5.4,2.5
				C356.4,389.2,353.5,386.1,353.5,382.4z"/>
			<path fill="#0160BA" d="M369.2,385.3v-6.9h-1.7v-2.6h1.7v-3.6h3v3.6h3.5v2.6h-3.5v6.5c0,1.2,0.6,1.6,1.6,1.6
				c0.7,0,1.3-0.1,1.9-0.4v2.5c-0.8,0.4-1.6,0.7-2.7,0.7C370.7,389.1,369.2,388.1,369.2,385.3z"/>
		</g>
	</g>
	<g>
		<g>
			<path fill="#FFFFFF" d="M250.4,627.7c-4,0-7-3.2-7-7.2c0-4,3-7.3,7.1-7.3c2.5,0,4.1,0.9,5.5,2.2l-1.1,1.2
				c-1.2-1.1-2.5-1.9-4.4-1.9c-3.1,0-5.4,2.5-5.4,5.8s2.3,5.8,5.4,5.8c1.9,0,3.2-0.7,4.5-2l1,1C254.5,626.8,252.9,627.7,250.4,627.7
				z"/>
			<path fill="#FFFFFF" d="M263,627.7c-3.1,0-5.4-2.4-5.4-5.4s2.3-5.4,5.4-5.4c3.1,0,5.4,2.4,5.4,5.4S266.1,627.7,263,627.7z
				 M263,618.3c-2.2,0-3.8,1.8-3.8,4c0,2.2,1.6,4,3.8,4c2.2,0,3.8-1.8,3.8-4C266.8,620.1,265.2,618.3,263,618.3z"/>
			<path fill="#FFFFFF" d="M283,616.9c2.4,0,3.8,1.6,3.8,4.2v6.4h-1.5v-6c0-2-1-3.1-2.7-3.1c-1.6,0-2.9,1.2-2.9,3.2v6h-1.5v-6.1
				c0-1.9-1-3.1-2.7-3.1c-1.6,0-2.9,1.4-2.9,3.3v5.9h-1.5v-10.3h1.5v1.7c0.7-1,1.6-2,3.3-2c1.7,0,2.8,0.9,3.3,2.1
				C280.1,617.9,281.2,616.9,283,616.9z"/>
			<path fill="#FFFFFF" d="M295.7,627.7c-1.9,0-3.2-1-4-2.2v5.2h-1.5v-13.5h1.5v2.1c0.8-1.2,2.1-2.3,4-2.3c2.5,0,4.9,2,4.9,5.4
				C300.7,625.7,298.2,627.7,295.7,627.7z M295.4,618.3c-1.9,0-3.7,1.6-3.7,4c0,2.4,1.8,4,3.7,4c2,0,3.6-1.5,3.6-4
				C299.1,619.9,297.4,618.3,295.4,618.3z"/>
			<path fill="#FFFFFF" d="M303.6,627.5v-14.6h1.5v14.6H303.6z"/>
			<path fill="#FFFFFF" d="M313.3,626.4c1.4,0,2.4-0.6,3.3-1.5l1,0.9c-1,1.2-2.3,1.9-4.3,1.9c-2.8,0-5.2-2.2-5.2-5.4
				c0-3,2.1-5.4,5-5.4c3.1,0,4.8,2.4,4.8,5.5c0,0.1,0,0.3,0,0.5h-8.2C309.9,625.1,311.5,626.4,313.3,626.4z M316.3,621.8
				c-0.2-1.9-1.2-3.5-3.3-3.5c-1.8,0-3.2,1.5-3.4,3.5H316.3z"/>
			<path fill="#FFFFFF" d="M322.7,624.6c0,1.3,0.7,1.7,1.7,1.7c0.5,0,1-0.1,1.5-0.4v1.3c-0.5,0.3-1.1,0.4-1.9,0.4
				c-1.7,0-2.9-0.8-2.9-2.9v-6.2h-1.4v-1.4h1.4V614h1.5v3.1h3.3v1.4h-3.3V624.6z"/>
			<path fill="#FFFFFF" d="M332.9,626.4c1.4,0,2.4-0.6,3.3-1.5l1,0.9c-1,1.2-2.3,1.9-4.3,1.9c-2.8,0-5.2-2.2-5.2-5.4
				c0-3,2.1-5.4,5-5.4c3.1,0,4.8,2.4,4.8,5.5c0,0.1,0,0.3,0,0.5h-8.2C329.5,625.1,331.1,626.4,332.9,626.4z M336,621.8
				c-0.2-1.9-1.2-3.5-3.3-3.5c-1.8,0-3.2,1.5-3.4,3.5H336z"/>
			<path fill="#FFFFFF" d="M348.3,624.6c0,1.3,0.7,1.7,1.7,1.7c0.5,0,1-0.1,1.5-0.4v1.3c-0.5,0.3-1.1,0.4-1.9,0.4
				c-1.7,0-2.9-0.8-2.9-2.9v-6.2h-1.4v-1.4h1.4V614h1.5v3.1h3.3v1.4h-3.3V624.6z"/>
			<path fill="#FFFFFF" d="M355.8,627.5h-1.5v-14.6h1.5v6.1c0.7-1.1,1.8-2,3.5-2c2.5,0,4,1.7,4,4.1v6.4h-1.5v-6c0-1.9-1-3.1-2.9-3.1
				c-1.8,0-3.1,1.3-3.1,3.2V627.5z"/>
			<path fill="#FFFFFF" d="M371.2,626.4c1.4,0,2.4-0.6,3.3-1.5l1,0.9c-1,1.2-2.3,1.9-4.3,1.9c-2.8,0-5.2-2.2-5.2-5.4
				c0-3,2.1-5.4,5-5.4c3.1,0,4.8,2.4,4.8,5.5c0,0.1,0,0.3,0,0.5h-8.2C367.8,625.1,369.4,626.4,371.2,626.4z M374.2,621.8
				c-0.2-1.9-1.2-3.5-3.3-3.5c-1.8,0-3.2,1.5-3.4,3.5H374.2z"/>
			<path fill="#FFFFFF" d="M386.5,624.6c0,1.3,0.7,1.7,1.7,1.7c0.5,0,1-0.1,1.5-0.4v1.3c-0.5,0.3-1.1,0.4-1.9,0.4
				c-1.7,0-2.9-0.8-2.9-2.9v-6.2h-1.4v-1.4h1.4V614h1.5v3.1h3.3v1.4h-3.3V624.6z"/>
			<path fill="#FFFFFF" d="M393.1,619.1l-0.5-1.3c1.1-0.5,2.3-0.9,3.8-0.9c2.8,0,4.4,1.4,4.4,4.2v6.3h-1.5v-1.6
				c-0.7,0.9-1.9,1.8-3.7,1.8c-1.9,0-3.9-1.1-3.9-3.2c0-2.2,1.8-3.4,4.4-3.4c1.3,0,2.3,0.2,3.2,0.4v-0.4c0-1.9-1.1-2.8-3.1-2.8
				C395.1,618.4,394.1,618.7,393.1,619.1z M393.3,624.4c0,1.3,1.2,2.1,2.6,2.1c1.9,0,3.5-1.2,3.5-2.8v-1c-0.8-0.2-1.8-0.4-3-0.4
				C394.4,622.3,393.3,623.1,393.3,624.4z"/>
			<path fill="#FFFFFF" d="M407.5,627.7c-1.5,0-3.1-0.6-4.3-1.5l0.8-1.1c1.1,0.8,2.4,1.3,3.6,1.3c1.2,0,2.1-0.6,2.1-1.6v0
				c0-1-1.2-1.4-2.6-1.8c-1.6-0.5-3.4-1-3.4-2.9v0c0-1.8,1.5-3,3.5-3c1.3,0,2.7,0.4,3.7,1.1l-0.7,1.2c-1-0.6-2.1-1-3.1-1
				c-1.2,0-2,0.6-2,1.5v0c0,1,1.3,1.4,2.7,1.8c1.6,0.5,3.3,1.1,3.3,3v0C411.2,626.6,409.6,627.7,407.5,627.7z"/>
			<path fill="#FFFFFF" d="M423.3,627.5h-1.8l-3.7-4.8l-2.1,2.1v2.7h-1.5v-14.6h1.5V623l5.6-5.8h1.9l-4.3,4.4L423.3,627.5z"/>
			<path fill="#FFFFFF" d="M436,626.4c1.4,0,2.4-0.6,3.3-1.5l1,0.9c-1,1.2-2.3,1.9-4.3,1.9c-2.8,0-5.2-2.2-5.2-5.4
				c0-3,2.1-5.4,5-5.4c3.1,0,4.8,2.4,4.8,5.5c0,0.1,0,0.3,0,0.5h-8.2C432.6,625.1,434.2,626.4,436,626.4z M439,621.8
				c-0.2-1.9-1.2-3.5-3.3-3.5c-1.8,0-3.2,1.5-3.4,3.5H439z"/>
			<path fill="#FFFFFF" d="M448.7,617.2v1.3h-3.3v9h-1.5v-9h-1.4v-1.3h1.4v-0.9c0-2.3,1.1-3.5,3.1-3.5c0.7,0,1.2,0.1,1.7,0.3v1.3
				c-0.6-0.2-1-0.3-1.5-0.3c-1.2,0-1.8,0.7-1.8,2.2v0.8H448.7z"/>
			<path fill="#FFFFFF" d="M456,617.2v1.3h-3.3v9h-1.5v-9h-1.4v-1.3h1.4v-0.9c0-2.3,1.1-3.5,3.1-3.5c0.7,0,1.2,0.1,1.7,0.3v1.3
				c-0.6-0.2-1-0.3-1.5-0.3c-1.2,0-1.8,0.7-1.8,2.2v0.8H456z"/>
			<path fill="#FFFFFF" d="M458,614.9v-1.7h1.8v1.7H458z M458.1,627.5v-10.3h1.5v10.3H458.1z"/>
			<path fill="#FFFFFF" d="M467.9,627.7c-3,0-5.3-2.5-5.3-5.4c0-2.9,2.3-5.4,5.3-5.4c2,0,3.2,0.8,4.1,1.8l-1,1.1
				c-0.8-0.9-1.7-1.6-3.1-1.6c-2.1,0-3.7,1.8-3.7,4c0,2.3,1.6,4,3.8,4c1.3,0,2.3-0.7,3.2-1.5l1,0.9
				C471.1,626.9,469.8,627.7,467.9,627.7z"/>
			<path fill="#FFFFFF" d="M474.7,614.9v-1.7h1.8v1.7H474.7z M474.8,627.5v-10.3h1.5v10.3H474.8z"/>
			<path fill="#FFFFFF" d="M484.5,626.4c1.4,0,2.4-0.6,3.3-1.5l1,0.9c-1,1.2-2.3,1.9-4.3,1.9c-2.8,0-5.2-2.2-5.2-5.4
				c0-3,2.1-5.4,5-5.4c3.1,0,4.8,2.4,4.8,5.5c0,0.1,0,0.3,0,0.5h-8.2C481.1,625.1,482.7,626.4,484.5,626.4z M487.5,621.8
				c-0.2-1.9-1.2-3.5-3.3-3.5c-1.8,0-3.2,1.5-3.4,3.5H487.5z"/>
			<path fill="#FFFFFF" d="M493.3,627.5h-1.5v-10.3h1.5v1.8c0.7-1.1,1.8-2,3.5-2c2.5,0,4,1.7,4,4.1v6.4h-1.5v-6c0-1.9-1-3.1-2.9-3.1
				c-1.8,0-3.1,1.3-3.1,3.2V627.5z"/>
			<path fill="#FFFFFF" d="M506.2,624.6c0,1.3,0.7,1.7,1.7,1.7c0.5,0,1-0.1,1.5-0.4v1.3c-0.5,0.3-1.1,0.4-1.9,0.4
				c-1.7,0-2.9-0.8-2.9-2.9v-6.2h-1.4v-1.4h1.4V614h1.5v3.1h3.3v1.4h-3.3V624.6z"/>
			<path fill="#FFFFFF" d="M512.3,627.5v-14.6h1.5v14.6H512.3z"/>
			<path fill="#FFFFFF" d="M522.5,627.8c-0.9,2.1-1.9,2.9-3.4,2.9c-0.9,0-1.5-0.2-2.2-0.5l0.5-1.2c0.5,0.3,1,0.4,1.6,0.4
				c0.9,0,1.5-0.5,2.1-1.9l-4.7-10.3h1.7l3.8,8.6l3.3-8.6h1.6L522.5,627.8z"/>
			<path fill="#FFFFFF" d="M528.1,627.5h-0.7v-2.1h1.8v1.8c0,1.6-0.7,2.4-2.2,2.7l-0.2-0.7C527.7,628.9,528.2,628.4,528.1,627.5z"/>
			<path fill="#FFFFFF" d="M539,619.1l-0.5-1.3c1.1-0.5,2.3-0.9,3.8-0.9c2.8,0,4.4,1.4,4.4,4.2v6.3h-1.5v-1.6
				c-0.7,0.9-1.9,1.8-3.7,1.8c-1.9,0-3.9-1.1-3.9-3.2c0-2.2,1.8-3.4,4.4-3.4c1.3,0,2.3,0.2,3.2,0.4v-0.4c0-1.9-1.1-2.8-3.1-2.8
				C541,618.4,540,618.7,539,619.1z M539.2,624.4c0,1.3,1.2,2.1,2.6,2.1c1.9,0,3.5-1.2,3.5-2.8v-1c-0.8-0.2-1.8-0.4-3-0.4
				C540.3,622.3,539.2,623.1,539.2,624.4z"/>
			<path fill="#FFFFFF" d="M551.6,627.5H550v-10.3h1.5v1.8c0.7-1.1,1.8-2,3.5-2c2.5,0,4,1.7,4,4.1v6.4h-1.5v-6c0-1.9-1-3.1-2.9-3.1
				c-1.8,0-3.1,1.3-3.1,3.2V627.5z"/>
			<path fill="#FFFFFF" d="M570.6,627.5v-2.1c-0.8,1.2-2.1,2.3-4,2.3c-2.5,0-4.9-2-4.9-5.4c0-3.4,2.5-5.4,4.9-5.4c1.9,0,3.2,1,4,2.2
				v-6.2h1.5v14.6H570.6z M567,618.3c-2,0-3.6,1.5-3.6,4c0,2.5,1.7,4,3.6,4c1.9,0,3.7-1.6,3.7-4C570.7,619.9,568.9,618.3,567,618.3z
				"/>
			<path fill="#FFFFFF" d="M585,627.7c-1.5,0-3.1-0.6-4.3-1.5l0.8-1.1c1.1,0.8,2.4,1.3,3.6,1.3c1.2,0,2.1-0.6,2.1-1.6v0
				c0-1-1.2-1.4-2.6-1.8c-1.6-0.5-3.4-1-3.4-2.9v0c0-1.8,1.5-3,3.5-3c1.3,0,2.7,0.4,3.7,1.1l-0.7,1.2c-1-0.6-2.1-1-3.1-1
				c-1.2,0-2,0.6-2,1.5v0c0,1,1.3,1.4,2.7,1.8c1.6,0.5,3.3,1.1,3.3,3v0C588.7,626.6,587.1,627.7,585,627.7z"/>
			<path fill="#FFFFFF" d="M597.1,627.7c-1.9,0-3.2-1-4-2.2v5.2h-1.5v-13.5h1.5v2.1c0.8-1.2,2.1-2.3,4-2.3c2.5,0,4.9,2,4.9,5.4
				C602,625.7,599.6,627.7,597.1,627.7z M596.8,618.3c-1.9,0-3.7,1.6-3.7,4c0,2.4,1.8,4,3.7,4c2,0,3.6-1.5,3.6-4
				C600.4,619.9,598.8,618.3,596.8,618.3z"/>
			<path fill="#FFFFFF" d="M609.4,626.4c1.4,0,2.4-0.6,3.3-1.5l1,0.9c-1,1.2-2.3,1.9-4.3,1.9c-2.8,0-5.2-2.2-5.2-5.4
				c0-3,2.1-5.4,5-5.4c3.1,0,4.8,2.4,4.8,5.5c0,0.1,0,0.3,0,0.5h-8.2C606,625.1,607.6,626.4,609.4,626.4z M612.4,621.8
				c-0.2-1.9-1.2-3.5-3.3-3.5c-1.8,0-3.2,1.5-3.4,3.5H612.4z"/>
			<path fill="#FFFFFF" d="M618.2,627.5h-1.5v-10.3h1.5v1.8c0.7-1.1,1.8-2,3.5-2c2.5,0,4,1.7,4,4.1v6.4h-1.5v-6c0-1.9-1-3.1-2.9-3.1
				c-1.8,0-3.1,1.3-3.1,3.2V627.5z"/>
			<path fill="#FFFFFF" d="M637.3,627.5v-2.1c-0.8,1.2-2.1,2.3-4,2.3c-2.5,0-4.9-2-4.9-5.4c0-3.4,2.5-5.4,4.9-5.4c1.9,0,3.2,1,4,2.2
				v-6.2h1.5v14.6H637.3z M633.6,618.3c-2,0-3.6,1.5-3.6,4c0,2.5,1.7,4,3.6,4c1.9,0,3.7-1.6,3.7-4
				C637.4,619.9,635.6,618.3,633.6,618.3z"/>
			<path fill="#FFFFFF" d="M650.4,624.6c0,1.3,0.7,1.7,1.7,1.7c0.5,0,1-0.1,1.5-0.4v1.3c-0.5,0.3-1.1,0.4-1.9,0.4
				c-1.7,0-2.9-0.8-2.9-2.9v-6.2h-1.4v-1.4h1.4V614h1.5v3.1h3.3v1.4h-3.3V624.6z"/>
			<path fill="#FFFFFF" d="M656.4,614.9v-1.7h1.8v1.7H656.4z M656.5,627.5v-10.3h1.5v10.3H656.5z"/>
			<path fill="#FFFFFF" d="M673.5,616.9c2.4,0,3.8,1.6,3.8,4.2v6.4h-1.5v-6c0-2-1-3.1-2.7-3.1c-1.6,0-2.9,1.2-2.9,3.2v6h-1.5v-6.1
				c0-1.9-1-3.1-2.7-3.1c-1.6,0-2.9,1.4-2.9,3.3v5.9h-1.5v-10.3h1.5v1.7c0.7-1,1.6-2,3.3-2c1.7,0,2.8,0.9,3.3,2.1
				C670.6,617.9,671.7,616.9,673.5,616.9z"/>
			<path fill="#FFFFFF" d="M685.2,626.4c1.4,0,2.4-0.6,3.3-1.5l1,0.9c-1,1.2-2.3,1.9-4.3,1.9c-2.8,0-5.2-2.2-5.2-5.4
				c0-3,2.1-5.4,5-5.4c3.1,0,4.8,2.4,4.8,5.5c0,0.1,0,0.3,0,0.5h-8.2C681.8,625.1,683.4,626.4,685.2,626.4z M688.2,621.8
				c-0.2-1.9-1.2-3.5-3.3-3.5c-1.8,0-3.2,1.5-3.4,3.5H688.2z"/>
			<path fill="#FFFFFF" d="M706.8,627.5v-2.1c-0.8,1.2-2.1,2.3-4,2.3c-2.5,0-4.9-2-4.9-5.4c0-3.4,2.5-5.4,4.9-5.4c1.9,0,3.2,1,4,2.2
				v-6.2h1.5v14.6H706.8z M703.1,618.3c-2,0-3.6,1.5-3.6,4c0,2.5,1.7,4,3.6,4c1.9,0,3.7-1.6,3.7-4
				C706.9,619.9,705,618.3,703.1,618.3z"/>
			<path fill="#FFFFFF" d="M716.5,627.7c-3.1,0-5.4-2.4-5.4-5.4s2.3-5.4,5.4-5.4c3.1,0,5.4,2.4,5.4,5.4S719.6,627.7,716.5,627.7z
				 M716.5,618.3c-2.2,0-3.8,1.8-3.8,4c0,2.2,1.6,4,3.8,4c2.2,0,3.8-1.8,3.8-4C720.3,620.1,718.7,618.3,716.5,618.3z"/>
			<path fill="#FFFFFF" d="M724.7,614.9v-1.7h1.8v1.7H724.7z M724.8,627.5v-10.3h1.5v10.3H724.8z"/>
			<path fill="#FFFFFF" d="M731.5,627.5H730v-10.3h1.5v1.8c0.7-1.1,1.8-2,3.5-2c2.5,0,4,1.7,4,4.1v6.4h-1.5v-6c0-1.9-1-3.1-2.9-3.1
				c-1.8,0-3.1,1.3-3.1,3.2V627.5z"/>
			<path fill="#FFFFFF" d="M746.9,630.7c-1.7,0-3.3-0.5-4.7-1.4l0.7-1.2c1.2,0.9,2.5,1.3,4,1.3c2.3,0,3.8-1.3,3.8-3.7v-1.2
				c-0.9,1.2-2.2,2.2-4.1,2.2c-2.5,0-4.9-1.8-4.9-4.9c0-3,2.4-4.9,4.9-4.9c1.9,0,3.2,1,4,2.1v-1.9h1.5v8.5
				C752.1,629,750,630.7,746.9,630.7z M746.8,618.3c-2,0-3.6,1.3-3.6,3.5c0,2.1,1.7,3.5,3.6,3.5c2,0,3.8-1.4,3.8-3.5
				C750.6,619.7,748.8,618.3,746.8,618.3z"/>
			<path fill="#FFFFFF" d="M255.6,640.9c2.4,0,3.8,1.6,3.8,4.2v6.4h-1.5v-6c0-2-1-3.1-2.7-3.1c-1.6,0-2.9,1.2-2.9,3.2v6h-1.5v-6.1
				c0-1.9-1-3.1-2.7-3.1c-1.6,0-2.9,1.4-2.9,3.3v5.9h-1.5v-10.3h1.5v1.7c0.7-1,1.6-2,3.3-2c1.7,0,2.8,0.9,3.3,2.1
				C252.7,641.9,253.8,640.9,255.6,640.9z"/>
			<path fill="#FFFFFF" d="M267.5,651.7c-3.1,0-5.4-2.4-5.4-5.4s2.3-5.4,5.4-5.4c3.1,0,5.4,2.4,5.4,5.4S270.6,651.7,267.5,651.7z
				 M267.5,642.3c-2.2,0-3.8,1.8-3.8,4c0,2.2,1.6,4,3.8,4c2.2,0,3.8-1.8,3.8-4C271.3,644.1,269.6,642.3,267.5,642.3z"/>
			<path fill="#FFFFFF" d="M277.2,651.5h-1.5v-10.3h1.5v2.7c0.8-1.7,2.3-3,4.2-2.9v1.7h-0.1c-2.3,0-4.1,1.6-4.1,4.7V651.5z"/>
			<path fill="#FFFFFF" d="M287.9,650.4c1.4,0,2.4-0.6,3.3-1.5l1,0.9c-1,1.2-2.3,1.9-4.3,1.9c-2.8,0-5.2-2.2-5.2-5.4
				c0-3,2.1-5.4,5-5.4c3.1,0,4.8,2.4,4.8,5.5c0,0.1,0,0.3,0,0.5h-8.2C284.5,649.1,286.1,650.4,287.9,650.4z M290.9,645.8
				c-0.2-1.9-1.2-3.5-3.3-3.5c-1.8,0-3.2,1.5-3.4,3.5H290.9z"/>
			<path fill="#FFFFFF" d="M305.9,651.7c-3.1,0-5.4-2.4-5.4-5.4s2.3-5.4,5.4-5.4c3.1,0,5.4,2.4,5.4,5.4S309,651.7,305.9,651.7z
				 M305.9,642.3c-2.2,0-3.8,1.8-3.8,4c0,2.2,1.6,4,3.8,4c2.2,0,3.8-1.8,3.8-4C309.7,644.1,308.1,642.3,305.9,642.3z"/>
			<path fill="#FFFFFF" d="M319.5,641.2v1.3h-3.3v9h-1.5v-9h-1.4v-1.3h1.4v-0.9c0-2.3,1.1-3.5,3.1-3.5c0.7,0,1.2,0.1,1.7,0.3v1.3
				c-0.6-0.2-1-0.3-1.5-0.3c-1.2,0-1.8,0.7-1.8,2.2v0.8H319.5z"/>
			<path fill="#FFFFFF" d="M329.5,648.6c0,1.3,0.7,1.7,1.7,1.7c0.5,0,1-0.1,1.5-0.4v1.3c-0.5,0.3-1.1,0.4-1.9,0.4
				c-1.7,0-2.9-0.8-2.9-2.9v-6.2h-1.4v-1.4h1.4V638h1.5v3.1h3.3v1.4h-3.3V648.6z"/>
			<path fill="#FFFFFF" d="M337,651.5h-1.5v-14.6h1.5v6.1c0.7-1.1,1.8-2,3.5-2c2.5,0,4,1.7,4,4.1v6.4H343v-6c0-1.9-1-3.1-2.9-3.1
				c-1.8,0-3.1,1.3-3.1,3.2V651.5z"/>
			<path fill="#FFFFFF" d="M352.4,650.4c1.4,0,2.4-0.6,3.3-1.5l1,0.9c-1,1.2-2.3,1.9-4.3,1.9c-2.8,0-5.2-2.2-5.2-5.4
				c0-3,2.1-5.4,5-5.4c3.1,0,4.8,2.4,4.8,5.5c0,0.1,0,0.3,0,0.5h-8.2C349,649.1,350.6,650.4,352.4,650.4z M355.4,645.8
				c-0.2-1.9-1.2-3.5-3.3-3.5c-1.8,0-3.2,1.5-3.4,3.5H355.4z"/>
			<path fill="#FFFFFF" d="M367.7,648.6c0,1.3,0.7,1.7,1.7,1.7c0.5,0,1-0.1,1.5-0.4v1.3c-0.5,0.3-1.1,0.4-1.9,0.4
				c-1.7,0-2.9-0.8-2.9-2.9v-6.2h-1.4v-1.4h1.4V638h1.5v3.1h3.3v1.4h-3.3V648.6z"/>
			<path fill="#FFFFFF" d="M375.3,651.5h-1.5v-14.6h1.5v6.1c0.7-1.1,1.8-2,3.5-2c2.5,0,4,1.7,4,4.1v6.4h-1.5v-6c0-1.9-1-3.1-2.9-3.1
				c-1.8,0-3.1,1.3-3.1,3.2V651.5z"/>
			<path fill="#FFFFFF" d="M386.1,638.9v-1.7h1.8v1.7H386.1z M386.2,651.5v-10.3h1.5v10.3H386.2z"/>
			<path fill="#FFFFFF" d="M392.9,651.5h-1.5v-10.3h1.5v1.8c0.7-1.1,1.8-2,3.5-2c2.5,0,4,1.7,4,4.1v6.4h-1.5v-6c0-1.9-1-3.1-2.9-3.1
				c-1.8,0-3.1,1.3-3.1,3.2V651.5z"/>
			<path fill="#FFFFFF" d="M408.2,654.7c-1.7,0-3.3-0.5-4.7-1.4l0.7-1.2c1.2,0.9,2.5,1.3,4,1.3c2.3,0,3.8-1.3,3.8-3.7v-1.2
				c-0.9,1.2-2.2,2.2-4.1,2.2c-2.5,0-4.9-1.8-4.9-4.9c0-3,2.4-4.9,4.9-4.9c1.9,0,3.2,1,4,2.1v-1.9h1.5v8.5
				C413.5,653,411.4,654.7,408.2,654.7z M408.2,642.3c-2,0-3.6,1.3-3.6,3.5c0,2.1,1.7,3.5,3.6,3.5c2,0,3.8-1.4,3.8-3.5
				C412,643.7,410.2,642.3,408.2,642.3z"/>
			<path fill="#FFFFFF" d="M420.3,651.7c-1.5,0-3.1-0.6-4.3-1.5l0.8-1.1c1.1,0.8,2.4,1.3,3.6,1.3c1.2,0,2.1-0.6,2.1-1.6v0
				c0-1-1.2-1.4-2.6-1.8c-1.6-0.5-3.4-1-3.4-2.9v0c0-1.8,1.5-3,3.5-3c1.3,0,2.7,0.4,3.7,1.1l-0.7,1.2c-1-0.6-2.1-1-3.1-1
				c-1.2,0-2,0.6-2,1.5v0c0,1,1.3,1.4,2.7,1.8c1.6,0.5,3.3,1.1,3.3,3v0C424,650.6,422.4,651.7,420.3,651.7z"/>
			<path fill="#FFFFFF" d="M437.9,651.8c-0.9,2.1-1.9,2.9-3.4,2.9c-0.9,0-1.5-0.2-2.2-0.5l0.5-1.2c0.5,0.3,1,0.4,1.6,0.4
				c0.9,0,1.5-0.5,2.1-1.9l-4.7-10.3h1.7l3.8,8.6l3.3-8.6h1.6L437.9,651.8z"/>
			<path fill="#FFFFFF" d="M448.8,651.7c-3.1,0-5.4-2.4-5.4-5.4s2.3-5.4,5.4-5.4c3.1,0,5.4,2.4,5.4,5.4S451.9,651.7,448.8,651.7z
				 M448.8,642.3c-2.2,0-3.8,1.8-3.8,4c0,2.2,1.6,4,3.8,4c2.2,0,3.8-1.8,3.8-4C452.7,644.1,451,642.3,448.8,642.3z"/>
			<path fill="#FFFFFF" d="M464.4,641.2h1.5v10.3h-1.5v-1.8c-0.7,1.1-1.8,2-3.5,2c-2.5,0-4-1.7-4-4.1v-6.4h1.5v6
				c0,1.9,1,3.1,2.9,3.1c1.8,0,3.1-1.3,3.1-3.2V641.2z"/>
			<path fill="#FFFFFF" d="M475.5,651.5v-14.6h1.5v14.6H475.5z"/>
			<path fill="#FFFFFF" d="M485.3,651.7c-3.1,0-5.4-2.4-5.4-5.4s2.3-5.4,5.4-5.4c3.1,0,5.4,2.4,5.4,5.4S488.4,651.7,485.3,651.7z
				 M485.3,642.3c-2.2,0-3.8,1.8-3.8,4c0,2.2,1.6,4,3.8,4c2.2,0,3.8-1.8,3.8-4C489.2,644.1,487.5,642.3,485.3,642.3z"/>
			<path fill="#FFFFFF" d="M500.6,641.2h1.7l-4.5,10.4h-1.4l-4.5-10.4h1.7l3.5,8.6L500.6,641.2z"/>
			<path fill="#FFFFFF" d="M508.6,650.4c1.4,0,2.4-0.6,3.3-1.5l1,0.9c-1,1.2-2.3,1.9-4.3,1.9c-2.8,0-5.2-2.2-5.2-5.4
				c0-3,2.1-5.4,5-5.4c3.1,0,4.8,2.4,4.8,5.5c0,0.1,0,0.3,0,0.5H505C505.2,649.1,506.8,650.4,508.6,650.4z M511.6,645.8
				c-0.2-1.9-1.2-3.5-3.3-3.5c-1.8,0-3.2,1.5-3.4,3.5H511.6z"/>
			<path fill="#FFFFFF" d="M515.5,651.5v-2.1h1.8v2.1H515.5z"/>
		</g>
		<g>
			<path fill="#0160BA" d="M243.1,580.2l2.1-1.9c1.2,1.4,2.5,2.2,4.4,2.2c1.7,0,2.9-1,2.9-2.5v0c0-1.7-1.5-2.6-3.9-2.6h-1.4
				l-0.5-1.8l4.5-4.8H244v-2.6h11.1v2.2l-4.7,4.8c2.5,0.3,4.9,1.6,4.9,4.7v0c0,3.1-2.4,5.3-5.9,5.3
				C246.6,583.2,244.5,582,243.1,580.2z"/>
			<path fill="#0160BA" d="M258.5,579.6h3.2v3.3h-3.2V579.6z"/>
			<path fill="#0160BA" d="M272,574.5L272,574.5c0-4.8,3.6-8.7,8.7-8.7c3.1,0,5,1.1,6.6,2.6l-1.9,2.2c-1.3-1.2-2.8-2.1-4.7-2.1
				c-3.2,0-5.5,2.6-5.5,5.9v0c0,3.3,2.3,6,5.5,6c2.1,0,3.4-0.8,4.8-2.2l1.9,1.9c-1.8,1.8-3.7,3-6.8,3
				C275.6,583.2,272,579.4,272,574.5z"/>
			<path fill="#0160BA" d="M289.2,576.6L289.2,576.6c0-3.7,2.9-6.7,6.8-6.7c3.9,0,6.7,3,6.7,6.6v0c0,3.6-2.9,6.6-6.8,6.6
				C292,583.2,289.2,580.2,289.2,576.6z M299.8,576.6L299.8,576.6c0-2.3-1.6-4.1-3.9-4.1c-2.3,0-3.8,1.8-3.8,4v0
				c0,2.2,1.6,4.1,3.9,4.1C298.3,580.6,299.8,578.8,299.8,576.6z"/>
			<path fill="#0160BA" d="M305.6,570.2h2.9v1.9c0.8-1.1,1.9-2.2,3.9-2.2c1.8,0,3.1,0.9,3.8,2.2c1-1.3,2.4-2.2,4.3-2.2
				c2.8,0,4.4,1.8,4.4,4.8v8.1H322v-7.2c0-2-0.9-3.1-2.6-3.1c-1.6,0-2.7,1.1-2.7,3.1v7.2h-2.9v-7.2c0-2-1-3.1-2.6-3.1
				c-1.6,0-2.7,1.2-2.7,3.1v7.2h-2.9V570.2z"/>
			<path fill="#0160BA" d="M328.4,570.2h2.9v2.1c0.9-1.3,2.3-2.4,4.3-2.4c3,0,5.9,2.4,5.9,6.6v0c0,4.2-2.9,6.6-5.9,6.6
				c-2.1,0-3.4-1.1-4.3-2.2v5.8h-2.9V570.2z M338.6,576.6L338.6,576.6c0-2.5-1.7-4.1-3.6-4.1s-3.7,1.6-3.7,4.1v0
				c0,2.4,1.7,4.1,3.7,4.1C336.9,580.6,338.6,579.1,338.6,576.6z"/>
			<path fill="#0160BA" d="M344.7,565.4h2.9v17.5h-2.9V565.4z"/>
			<path fill="#0160BA" d="M350.7,576.6L350.7,576.6c0-3.7,2.6-6.6,6.2-6.6c4,0,6.1,3.2,6.1,6.8c0,0.3,0,0.5,0,0.8h-9.3
				c0.3,2.1,1.8,3.2,3.6,3.2c1.4,0,2.4-0.5,3.4-1.5l1.7,1.5c-1.2,1.4-2.9,2.4-5.2,2.4C353.5,583.2,350.7,580.5,350.7,576.6z
				 M360.1,575.7c-0.2-1.9-1.3-3.3-3.2-3.3c-1.8,0-3,1.4-3.3,3.3H360.1z"/>
			<path fill="#0160BA" d="M366.5,579.4v-6.7h-1.6v-2.5h1.6v-3.5h2.9v3.5h3.4v2.5h-3.4v6.2c0,1.1,0.6,1.6,1.6,1.6
				c0.6,0,1.2-0.1,1.8-0.4v2.4c-0.7,0.4-1.5,0.6-2.6,0.6C368,583.1,366.5,582.2,366.5,579.4z"/>
			<path fill="#0160BA" d="M374.7,576.6L374.7,576.6c0-3.7,2.6-6.6,6.2-6.6c4,0,6.1,3.2,6.1,6.8c0,0.3,0,0.5,0,0.8h-9.3
				c0.3,2.1,1.8,3.2,3.6,3.2c1.4,0,2.4-0.5,3.4-1.5l1.7,1.5c-1.2,1.4-2.9,2.4-5.2,2.4C377.5,583.2,374.7,580.5,374.7,576.6z
				 M384.1,575.7c-0.2-1.9-1.3-3.3-3.2-3.3c-1.8,0-3,1.4-3.3,3.3H384.1z"/>
		</g>
	</g>
	<g>
		<path fill="#7AC6FF" d="M259.9,49H272v1.8h-10.2v6h9.1v1.7h-9.1v7.3h-1.9V49z"/>
		<path fill="#7AC6FF" d="M275.3,53.4h1.8v3.2c0.9-2.1,2.7-3.6,5.1-3.5v2h-0.1c-2.7,0-4.9,1.9-4.9,5.7v4.9h-1.8V53.4z"/>
		<path fill="#7AC6FF" d="M283.7,59.6L283.7,59.6c0-3.6,2.5-6.5,6-6.5c3.7,0,5.8,2.9,5.8,6.6c0,0.2,0,0.4,0,0.6h-9.8
			c0.3,2.7,2.2,4.2,4.4,4.2c1.7,0,2.9-0.7,3.9-1.8l1.2,1c-1.2,1.4-2.8,2.3-5.1,2.3C286.5,66.1,283.7,63.5,283.7,59.6z M293.6,58.9
			c-0.2-2.3-1.5-4.2-4-4.2c-2.2,0-3.8,1.8-4,4.2H293.6z"/>
		<path fill="#7AC6FF" d="M297.9,59.6L297.9,59.6c0-3.6,2.5-6.5,6-6.5c3.7,0,5.8,2.9,5.8,6.6c0,0.2,0,0.4,0,0.6h-9.8
			c0.3,2.7,2.2,4.2,4.4,4.2c1.7,0,2.9-0.7,3.9-1.8l1.2,1c-1.2,1.4-2.8,2.3-5.1,2.3C300.7,66.1,297.9,63.5,297.9,59.6z M307.8,58.9
			c-0.2-2.3-1.5-4.2-4-4.2c-2.2,0-3.8,1.8-4,4.2H307.8z"/>
		<path fill="#7AC6FF" d="M319.9,61.1v-7.7h1.8v7.2c0,2.3,1.2,3.7,3.4,3.7c2.1,0,3.7-1.6,3.7-3.9v-7.1h1.8v12.4h-1.8v-2.2
			c-0.8,1.3-2.1,2.4-4.2,2.4C321.7,66.1,319.9,64,319.9,61.1z"/>
		<path fill="#7AC6FF" d="M334.9,53.4h1.8v2.5c1-1.5,2.5-2.8,4.8-2.8c3,0,5.9,2.4,5.9,6.4v0c0,4.1-2.9,6.5-5.9,6.5
			c-2.3,0-3.8-1.2-4.8-2.6v6.2h-1.8V53.4z M345.5,59.6L345.5,59.6c0-3-2-4.8-4.4-4.8c-2.3,0-4.5,1.9-4.5,4.8v0
			c0,2.9,2.2,4.8,4.5,4.8C343.6,64.4,345.5,62.6,345.5,59.6z"/>
		<path fill="#7AC6FF" d="M367.3,53.4h2l-5.2,12.8c-1.1,2.6-2.3,3.5-4.1,3.5c-1,0-1.8-0.2-2.6-0.6l0.6-1.5c0.6,0.3,1.2,0.5,1.9,0.5
			c1.1,0,1.8-0.6,2.5-2.3l-5.6-12.4h2l4.5,10.3L367.3,53.4z"/>
		<path fill="#7AC6FF" d="M370.7,59.7L370.7,59.7c0-3.6,2.7-6.5,6.5-6.5c3.7,0,6.5,2.9,6.5,6.4v0c0,3.5-2.8,6.5-6.5,6.5
			C373.4,66.1,370.7,63.2,370.7,59.7z M381.8,59.7L381.8,59.7c0-2.7-2-4.9-4.6-4.9c-2.7,0-4.5,2.2-4.5,4.8v0c0,2.7,2,4.8,4.6,4.8
			C379.9,64.4,381.8,62.3,381.8,59.7z"/>
		<path fill="#7AC6FF" d="M386.8,61.1v-7.7h1.8v7.2c0,2.3,1.2,3.7,3.4,3.7c2.1,0,3.7-1.6,3.7-3.9v-7.1h1.8v12.4h-1.8v-2.2
			c-0.8,1.3-2.1,2.4-4.2,2.4C388.6,66.1,386.8,64,386.8,61.1z"/>
		<path fill="#7AC6FF" d="M401.8,53.4h1.8v3.2c0.9-2.1,2.7-3.6,5.1-3.5v2h-0.1c-2.7,0-4.9,1.9-4.9,5.7v4.9h-1.8V53.4z"/>
		<path fill="#7AC6FF" d="M420.6,63.4v2.4h-1.8V48.3h1.8v7.6c1-1.5,2.5-2.8,4.8-2.8c3,0,5.9,2.4,5.9,6.4v0c0,4.1-2.9,6.5-5.9,6.5
			C423,66.1,421.5,64.8,420.6,63.4z M429.3,59.6L429.3,59.6c0-3-2-4.8-4.4-4.8c-2.3,0-4.5,1.9-4.5,4.8v0c0,2.9,2.2,4.8,4.5,4.8
			C427.4,64.4,429.3,62.6,429.3,59.6z"/>
		<path fill="#7AC6FF" d="M434.4,61.1v-7.7h1.8v7.2c0,2.3,1.2,3.7,3.4,3.7c2.1,0,3.7-1.6,3.7-3.9v-7.1h1.8v12.4h-1.8v-2.2
			c-0.8,1.3-2.1,2.4-4.2,2.4C436.2,66.1,434.4,64,434.4,61.1z"/>
		<path fill="#7AC6FF" d="M448.4,64.2l0.9-1.3c1.3,1,2.8,1.6,4.3,1.6c1.5,0,2.6-0.8,2.6-2v0c0-1.2-1.5-1.7-3.1-2.2
			c-1.9-0.6-4.1-1.2-4.1-3.5v0c0-2.1,1.8-3.6,4.2-3.6c1.5,0,3.2,0.5,4.5,1.4l-0.8,1.4c-1.2-0.7-2.5-1.2-3.7-1.2
			c-1.5,0-2.4,0.8-2.4,1.8v0c0,1.2,1.5,1.6,3.2,2.1c1.9,0.6,4,1.3,4,3.6v0c0,2.4-1.9,3.7-4.4,3.7C451.7,66,449.8,65.3,448.4,64.2z"
			/>
		<path fill="#7AC6FF" d="M470.3,53.4h2l-5.2,12.8c-1.1,2.6-2.3,3.5-4.1,3.5c-1,0-1.8-0.2-2.6-0.6l0.6-1.5c0.6,0.3,1.2,0.5,1.9,0.5
			c1.1,0,1.8-0.6,2.5-2.3l-5.6-12.4h2l4.5,10.3L470.3,53.4z"/>
		<path fill="#7AC6FF" d="M481.4,64.2l0.9-1.3c1.3,1,2.8,1.6,4.3,1.6c1.5,0,2.6-0.8,2.6-2v0c0-1.2-1.5-1.7-3.1-2.2
			c-1.9-0.6-4.1-1.2-4.1-3.5v0c0-2.1,1.8-3.6,4.2-3.6c1.5,0,3.2,0.5,4.5,1.4l-0.8,1.4c-1.2-0.7-2.5-1.2-3.7-1.2
			c-1.5,0-2.4,0.8-2.4,1.8v0c0,1.2,1.5,1.6,3.2,2.1c1.9,0.6,4,1.3,4,3.6v0c0,2.4-1.9,3.7-4.4,3.7C484.7,66,482.8,65.3,481.4,64.2z"
			/>
		<path fill="#7AC6FF" d="M493.6,59.7L493.6,59.7c0-3.6,2.7-6.5,6.4-6.5c2.4,0,3.8,1,5,2.2l-1.2,1.3c-1-1-2.1-1.9-3.8-1.9
			c-2.5,0-4.4,2.1-4.4,4.8v0c0,2.7,2,4.8,4.6,4.8c1.6,0,2.8-0.8,3.8-1.8l1.2,1.1c-1.2,1.4-2.7,2.4-5.1,2.4
			C496.3,66.1,493.6,63.1,493.6,59.7z"/>
		<path fill="#7AC6FF" d="M508.1,48.3h1.8v7.3c0.8-1.3,2.1-2.4,4.2-2.4c3,0,4.8,2,4.8,5v7.7h-1.8v-7.2c0-2.3-1.2-3.7-3.4-3.7
			c-2.1,0-3.7,1.6-3.7,3.9v7.1h-1.8V48.3z"/>
		<path fill="#7AC6FF" d="M522.1,59.6L522.1,59.6c0-3.6,2.5-6.5,6-6.5c3.7,0,5.8,2.9,5.8,6.6c0,0.2,0,0.4,0,0.6h-9.8
			c0.3,2.7,2.2,4.2,4.4,4.2c1.7,0,2.9-0.7,3.9-1.8l1.2,1c-1.2,1.4-2.8,2.3-5.1,2.3C524.9,66.1,522.1,63.5,522.1,59.6z M531.9,58.9
			c-0.2-2.3-1.5-4.2-4-4.2c-2.2,0-3.8,1.8-4,4.2H531.9z"/>
		<path fill="#7AC6FF" d="M536.3,59.6L536.3,59.6c0-4.1,3-6.5,5.9-6.5c2.3,0,3.8,1.2,4.8,2.6v-7.5h1.8v17.5H547v-2.5
			c-1,1.5-2.5,2.8-4.8,2.8C539.3,66.1,536.3,63.7,536.3,59.6z M547.1,59.6L547.1,59.6c0-2.9-2.2-4.8-4.5-4.8c-2.4,0-4.4,1.8-4.4,4.8
			v0c0,2.9,2,4.8,4.4,4.8C544.9,64.4,547.1,62.5,547.1,59.6z"/>
		<path fill="#7AC6FF" d="M552.8,61.1v-7.7h1.8v7.2c0,2.3,1.2,3.7,3.4,3.7c2.1,0,3.7-1.6,3.7-3.9v-7.1h1.8v12.4h-1.8v-2.2
			c-0.8,1.3-2.1,2.4-4.2,2.4C554.5,66.1,552.8,64,552.8,61.1z"/>
		<path fill="#7AC6FF" d="M567.9,48.3h1.8v17.5h-1.8V48.3z"/>
		<path fill="#7AC6FF" d="M573.3,59.6L573.3,59.6c0-3.6,2.5-6.5,6-6.5c3.7,0,5.8,2.9,5.8,6.6c0,0.2,0,0.4,0,0.6h-9.8
			c0.3,2.7,2.2,4.2,4.4,4.2c1.7,0,2.9-0.7,3.9-1.8l1.2,1c-1.2,1.4-2.8,2.3-5.1,2.3C576.1,66.1,573.3,63.5,573.3,59.6z M583.2,58.9
			c-0.2-2.3-1.5-4.2-4-4.2c-2.2,0-3.8,1.8-4,4.2H583.2z"/>
	</g>
	<g>
		<g>
			<g>
				<path fill="#0160BA" d="M62,668.9c-33.9,0-61.5-27.6-61.5-61.5s27.6-61.5,61.5-61.5s61.5,27.6,61.5,61.5S95.9,668.9,62,668.9z
					 M62,548.9c-32.3,0-58.5,26.2-58.5,58.5s26.2,58.5,58.5,58.5s58.5-26.2,58.5-58.5S94.3,548.9,62,548.9z"/>
			</g>
			<g>
				<polygon fill="#0160BA" points="53.9,628.4 34.6,609 41,602.6 53.9,615.5 83,586.4 89.4,592.9 				"/>
			</g>
		</g>
		<g>
			<g>
				<path fill="#0160BA" d="M62,474.9c-33.9,0-61.5-27.6-61.5-61.5s27.6-61.5,61.5-61.5s61.5,27.6,61.5,61.5S95.9,474.9,62,474.9z
					 M62,354.9c-32.3,0-58.5,26.2-58.5,58.5s26.2,58.5,58.5,58.5s58.5-26.2,58.5-58.5S94.3,354.9,62,354.9z"/>
			</g>
			<g>
				<g>
					<g id="XMLID_8_">
						<g>
							<path fill="#0160BA" d="M92.2,402.8c0,5.6-4.6,10.2-10.2,10.2s-10.3-4.6-10.3-10.2c0-5.6,4.6-10.2,10.3-10.2
								S92.2,397.1,92.2,402.8z"/>
							<path fill="#0160BA" d="M98.9,434.4H65.1c1-9.3,4.6-16.9,9.4-20.8c2.1,1.4,4.6,2.3,7.4,2.3c2.7,0,5.3-0.9,7.4-2.3
								C94.2,417.6,97.8,425.2,98.9,434.4z"/>
						</g>
					</g>
				</g>
				<g>
					<g id="XMLID_7_">
						<g>
							<path fill="#0160BA" d="M58.9,434.3H25.2c1-9.3,4.6-16.9,9.4-20.8c2.1,1.4,4.6,2.3,7.4,2.3c2.7,0,5.3-0.9,7.4-2.3
								C54.3,417.4,57.9,425,58.9,434.3z"/>
							<path fill="#0160BA" d="M52.3,402.6c0,5.6-4.6,10.2-10.2,10.2c-5.7,0-10.3-4.6-10.3-10.2c0-5.6,4.6-10.2,10.3-10.2
								C47.7,392.4,52.3,397,52.3,402.6z"/>
						</g>
					</g>
				</g>
				<g>
					<path fill="#0160BA" d="M70.4,414.5H53.6c-0.6,0-1-0.4-1-1s0.4-1,1-1h16.8c0.6,0,1,0.4,1,1S70.9,414.5,70.4,414.5z"/>
				</g>
			</g>
		</g>
		<g>
			<g>
				<path fill="#0160BA" d="M62,280.9c-33.9,0-61.5-27.6-61.5-61.5s27.6-61.5,61.5-61.5s61.5,27.6,61.5,61.5S95.9,280.9,62,280.9z
					 M62,160.9c-32.3,0-58.5,26.2-58.5,58.5s26.2,58.5,58.5,58.5s58.5-26.2,58.5-58.5S94.3,160.9,62,160.9z"/>
			</g>
			<g>
				<g>
					<path fill="#0160BA" d="M82.8,238.6H47.9l5.8-1.9c0.8-0.1,1.6-0.4,2.2-1l25.3-25.3c1.4-1.4,1.4-3.6,0-5l-6-6
						c-1.4-1.4-3.6-1.4-5,0L45,224.8c-0.6,0.6-0.9,1.4-1,2.2l-3.5,11.1c-0.2,0.6,0,1.3,0.4,1.8c0.3,0.3,0.7,0.4,1.1,0.5
						c0,0,0.1,0,0.1,0h40.7c0.5,0,0.9-0.4,0.9-0.9S83.3,238.6,82.8,238.6z M72.7,202l6,6l-24.7,24.7l-6-6L72.7,202z M47.1,228.4
						c0-0.1,0-0.2,0-0.2l5.4,5.4c-0.1,0-0.2,0-0.2,0l-7.5,2.3L47.1,228.4z"/>
				</g>
			</g>
		</g>
		<g>
			<g>
				<path fill="#0160BA" d="M62,280.9c-0.4,0-0.8-0.2-1.1-0.4c-0.3-0.3-0.4-0.7-0.4-1.1c0-0.4,0.2-0.8,0.4-1.1
					c0.6-0.6,1.6-0.6,2.1,0c0.3,0.3,0.4,0.7,0.4,1.1c0,0.4-0.2,0.8-0.4,1.1C62.8,280.7,62.4,280.9,62,280.9z"/>
			</g>
			<g>
				<path fill="#0160BA" d="M60.5,347.2c0-0.8,0.7-1.5,1.5-1.5l0,0c0.8,0,1.5,0.7,1.5,1.5l0,0c0,0.8-0.7,1.5-1.5,1.5l0,0
					C61.2,348.7,60.5,348.1,60.5,347.2z M60.5,341.1c0-0.8,0.7-1.5,1.5-1.5l0,0c0.8,0,1.5,0.7,1.5,1.5l0,0c0,0.8-0.7,1.5-1.5,1.5
					l0,0C61.2,342.6,60.5,341.9,60.5,341.1z M60.5,334.9c0-0.8,0.7-1.5,1.5-1.5l0,0c0.8,0,1.5,0.7,1.5,1.5l0,0
					c0,0.8-0.7,1.5-1.5,1.5l0,0C61.2,336.4,60.5,335.7,60.5,334.9z M60.5,328.7c0-0.8,0.7-1.5,1.5-1.5l0,0c0.8,0,1.5,0.7,1.5,1.5
					l0,0c0,0.8-0.7,1.5-1.5,1.5l0,0C61.2,330.2,60.5,329.6,60.5,328.7z M60.5,322.6c0-0.8,0.7-1.5,1.5-1.5l0,0
					c0.8,0,1.5,0.7,1.5,1.5l0,0c0,0.8-0.7,1.5-1.5,1.5l0,0C61.2,324.1,60.5,323.4,60.5,322.6z M60.5,316.4c0-0.8,0.7-1.5,1.5-1.5
					l0,0c0.8,0,1.5,0.7,1.5,1.5l0,0c0,0.8-0.7,1.5-1.5,1.5l0,0C61.2,317.9,60.5,317.2,60.5,316.4z M60.5,310.2
					c0-0.8,0.7-1.5,1.5-1.5l0,0c0.8,0,1.5,0.7,1.5,1.5l0,0c0,0.8-0.7,1.5-1.5,1.5l0,0C61.2,311.7,60.5,311.1,60.5,310.2z
					 M60.5,304.1c0-0.8,0.7-1.5,1.5-1.5l0,0c0.8,0,1.5,0.7,1.5,1.5l0,0c0,0.8-0.7,1.5-1.5,1.5l0,0C61.2,305.6,60.5,304.9,60.5,304.1
					z M60.5,297.9c0-0.8,0.7-1.5,1.5-1.5l0,0c0.8,0,1.5,0.7,1.5,1.5l0,0c0,0.8-0.7,1.5-1.5,1.5l0,0
					C61.2,299.4,60.5,298.7,60.5,297.9z M60.5,291.7c0-0.8,0.7-1.5,1.5-1.5l0,0c0.8,0,1.5,0.7,1.5,1.5l0,0c0,0.8-0.7,1.5-1.5,1.5
					l0,0C61.2,293.2,60.5,292.6,60.5,291.7z M60.5,285.6c0-0.8,0.7-1.5,1.5-1.5l0,0c0.8,0,1.5,0.7,1.5,1.5l0,0
					c0,0.8-0.7,1.5-1.5,1.5l0,0C61.2,287.1,60.5,286.4,60.5,285.6z"/>
			</g>
			<g>
				<path fill="#0160BA" d="M62,354.9c-0.4,0-0.8-0.2-1.1-0.4c-0.3-0.3-0.4-0.7-0.4-1.1c0-0.4,0.2-0.8,0.4-1.1
					c0.5-0.6,1.6-0.6,2.1,0c0.3,0.3,0.4,0.7,0.4,1.1c0,0.4-0.2,0.8-0.4,1.1C62.8,354.7,62.4,354.9,62,354.9z"/>
			</g>
		</g>
		<g>
			<g>
				<path fill="#0160BA" d="M62,474.9c-0.4,0-0.8-0.2-1.1-0.4c-0.3-0.3-0.4-0.7-0.4-1.1c0-0.4,0.2-0.8,0.4-1.1
					c0.5-0.6,1.6-0.6,2.1,0c0.3,0.3,0.4,0.7,0.4,1.1c0,0.4-0.2,0.8-0.4,1.1C62.8,474.7,62.4,474.9,62,474.9z"/>
			</g>
			<g>
				<path fill="#0160BA" d="M60.5,541.2c0-0.8,0.7-1.5,1.5-1.5l0,0c0.8,0,1.5,0.7,1.5,1.5l0,0c0,0.8-0.7,1.5-1.5,1.5l0,0
					C61.2,542.7,60.5,542.1,60.5,541.2z M60.5,535.1c0-0.8,0.7-1.5,1.5-1.5l0,0c0.8,0,1.5,0.7,1.5,1.5l0,0c0,0.8-0.7,1.5-1.5,1.5
					l0,0C61.2,536.6,60.5,535.9,60.5,535.1z M60.5,528.9c0-0.8,0.7-1.5,1.5-1.5l0,0c0.8,0,1.5,0.7,1.5,1.5l0,0
					c0,0.8-0.7,1.5-1.5,1.5l0,0C61.2,530.4,60.5,529.7,60.5,528.9z M60.5,522.7c0-0.8,0.7-1.5,1.5-1.5l0,0c0.8,0,1.5,0.7,1.5,1.5
					l0,0c0,0.8-0.7,1.5-1.5,1.5l0,0C61.2,524.2,60.5,523.6,60.5,522.7z M60.5,516.6c0-0.8,0.7-1.5,1.5-1.5l0,0
					c0.8,0,1.5,0.7,1.5,1.5l0,0c0,0.8-0.7,1.5-1.5,1.5l0,0C61.2,518.1,60.5,517.4,60.5,516.6z M60.5,510.4c0-0.8,0.7-1.5,1.5-1.5
					l0,0c0.8,0,1.5,0.7,1.5,1.5l0,0c0,0.8-0.7,1.5-1.5,1.5l0,0C61.2,511.9,60.5,511.2,60.5,510.4z M60.5,504.2
					c0-0.8,0.7-1.5,1.5-1.5l0,0c0.8,0,1.5,0.7,1.5,1.5l0,0c0,0.8-0.7,1.5-1.5,1.5l0,0C61.2,505.7,60.5,505.1,60.5,504.2z
					 M60.5,498.1c0-0.8,0.7-1.5,1.5-1.5l0,0c0.8,0,1.5,0.7,1.5,1.5l0,0c0,0.8-0.7,1.5-1.5,1.5l0,0C61.2,499.6,60.5,498.9,60.5,498.1
					z M60.5,491.9c0-0.8,0.7-1.5,1.5-1.5l0,0c0.8,0,1.5,0.7,1.5,1.5l0,0c0,0.8-0.7,1.5-1.5,1.5l0,0
					C61.2,493.4,60.5,492.7,60.5,491.9z M60.5,485.7c0-0.8,0.7-1.5,1.5-1.5l0,0c0.8,0,1.5,0.7,1.5,1.5l0,0c0,0.8-0.7,1.5-1.5,1.5
					l0,0C61.2,487.2,60.5,486.6,60.5,485.7z M60.5,479.6c0-0.8,0.7-1.5,1.5-1.5l0,0c0.8,0,1.5,0.7,1.5,1.5l0,0
					c0,0.8-0.7,1.5-1.5,1.5l0,0C61.2,481.1,60.5,480.4,60.5,479.6z"/>
			</g>
			<g>
				<path fill="#0160BA" d="M62,548.9c-0.4,0-0.8-0.2-1.1-0.4c-0.3-0.3-0.4-0.7-0.4-1.1c0-0.4,0.2-0.8,0.4-1.1
					c0.6-0.6,1.6-0.6,2.1,0c0.3,0.3,0.4,0.7,0.4,1.1c0,0.4-0.2,0.8-0.4,1.1C62.8,548.7,62.4,548.9,62,548.9z"/>
			</g>
		</g>
	</g>
</g>
</svg>
