<?xml version="1.0" encoding="utf-8"?>
<!-- Generator: Adobe Illustrator 18.0.0, SVG Export Plug-In . SVG Version: 6.00 Build 0)  -->
<!DOCTYPE svg PUBLIC "-//W3C//DTD SVG 1.1//EN" "http://www.w3.org/Graphics/SVG/1.1/DTD/svg11.dtd">
<svg version="1.1" id="Layer_1" xmlns="http://www.w3.org/2000/svg" xmlns:xlink="http://www.w3.org/1999/xlink" x="0px" y="0px"
	 viewBox="0 0 748.9 669.9" enable-background="new 0 0 748.9 669.9" xml:space="preserve">
<g>
	<g>
		<path fill="#FFFFFF" d="M355.1,12.5L355.1,12.5c0-5.9,4.5-10.9,10.8-10.9c3.7,0,5.9,1,8.1,2.9l-2.3,2.8c-1.6-1.4-3.2-2.2-5.9-2.2
			c-3.9,0-6.8,3.4-6.8,7.4v0.1c0,4.3,2.8,7.5,7.1,7.5c2,0,3.8-0.6,5.1-1.6v-3.9h-5.4v-3.2h8.9V20c-2.1,1.8-5,3.3-8.8,3.3
			C359.4,23.3,355.1,18.6,355.1,12.5z"/>
		<path fill="#FFFFFF" d="M378.3,15L378.3,15c0-4.6,3.2-8.3,7.7-8.3c5,0,7.6,4,7.6,8.5c0,0.3,0,0.7-0.1,1h-11.6c0.4,2.6,2.2,4,4.6,4
			c1.8,0,3-0.7,4.3-1.9l2.1,1.9c-1.5,1.8-3.6,3-6.5,3C381.8,23.3,378.3,19.9,378.3,15z M390,13.9c-0.2-2.3-1.6-4.2-4-4.2
			c-2.2,0-3.8,1.7-4.1,4.2H390z"/>
		<path fill="#FFFFFF" d="M398,18.5v-8.3h-2V7.1h2V2.7h3.6v4.3h4.3v3.1h-4.3v7.8c0,1.4,0.7,2,1.9,2c0.8,0,1.5-0.2,2.2-0.5v3
			c-0.9,0.5-1.9,0.8-3.3,0.8C399.9,23.2,398,22,398,18.5z"/>
		<path fill="#FFFFFF" d="M417.5,18.3L417.5,18.3c0-3.5,2.7-5.2,6.5-5.2c1.8,0,3,0.3,4.3,0.7v-0.4c0-2.2-1.4-3.5-3.9-3.5
			c-1.8,0-3.1,0.4-4.5,1l-1-2.9c1.7-0.8,3.4-1.3,6-1.3c2.4,0,4.1,0.6,5.2,1.8c1.2,1.1,1.7,2.8,1.7,4.9v9.4h-3.5v-2
			c-1.1,1.3-2.7,2.3-5.2,2.3C420.2,23.2,417.5,21.5,417.5,18.3z M428.4,17.2v-1.1c-0.9-0.4-2.2-0.6-3.6-0.6c-2.3,0-3.7,1-3.7,2.6
			v0.1c0,1.5,1.4,2.4,3.1,2.4C426.6,20.6,428.4,19.2,428.4,17.2z"/>
		<path fill="#FFFFFF" d="M442.7,27.6v-2.9c0.4,0.1,0.7,0.1,1,0.1c1,0,1.7-0.5,1.7-1.9V7.1h3.6v16c0,3.2-1.7,4.7-4.6,4.7
			C443.8,27.8,443.3,27.7,442.7,27.6z M445.3,1.2h3.9v3.4h-3.9V1.2z"/>
		<path fill="#FFFFFF" d="M452.9,15.1L452.9,15.1c0-4.6,3.6-8.3,8.5-8.3c4.9,0,8.4,3.7,8.4,8.2V15c0,4.5-3.6,8.2-8.5,8.2
			C456.5,23.3,452.9,19.6,452.9,15.1z M466.2,15.1L466.2,15.1c0-2.8-2-5.2-4.9-5.2c-2.9,0-4.8,2.3-4.8,5V15c0,2.8,2,5.1,4.8,5.1
			C464.3,20.1,466.2,17.8,466.2,15.1z"/>
		<path fill="#FFFFFF" d="M477.1,20.4v2.5h-3.6V1h3.6v8.7c1.2-1.7,2.8-3,5.4-3c3.7,0,7.3,2.9,7.3,8.2V15c0,5.2-3.6,8.2-7.3,8.2
			C479.9,23.2,478.3,21.9,477.1,20.4z M486.2,15L486.2,15c0-3.1-2.1-5.1-4.5-5.1s-4.6,2-4.6,5.1V15c0,3,2.2,5.1,4.6,5.1
			C484.2,20.1,486.2,18.1,486.2,15z"/>
	</g>
	<g>
		<g>
			<g>
				<path fill="#FFFFFF" d="M254.6,226.9h-8.5v4.8h7.6v1.4h-7.6v4.9h8.6v1.4h-10.2v-14h10.1V226.9z"/>
				<path fill="#FFFFFF" d="M258.2,231.1l-0.5-1.3c1.1-0.5,2.3-0.9,3.8-0.9c2.8,0,4.4,1.4,4.4,4.2v6.3h-1.5v-1.6
					c-0.7,0.9-1.9,1.8-3.7,1.8c-1.9,0-3.9-1.1-3.9-3.2c0-2.2,1.8-3.4,4.4-3.4c1.3,0,2.3,0.2,3.2,0.4v-0.4c0-1.9-1.1-2.8-3.1-2.8
					C260.1,230.4,259.2,230.7,258.2,231.1z M258.4,236.4c0,1.3,1.2,2.1,2.6,2.1c1.9,0,3.5-1.2,3.5-2.8v-1c-0.8-0.2-1.8-0.4-3-0.4
					C259.5,234.3,258.4,235.1,258.4,236.4z"/>
				<path fill="#FFFFFF" d="M272.6,239.7c-1.5,0-3.1-0.6-4.3-1.5l0.8-1.1c1.1,0.8,2.4,1.3,3.6,1.3c1.2,0,2.1-0.6,2.1-1.6v0
					c0-1-1.2-1.4-2.6-1.8c-1.6-0.5-3.4-1-3.4-2.9v0c0-1.8,1.5-3,3.5-3c1.3,0,2.7,0.4,3.7,1.1l-0.7,1.2c-1-0.6-2.1-1-3.1-1
					c-1.2,0-2,0.6-2,1.5v0c0,1,1.3,1.4,2.7,1.8c1.6,0.5,3.3,1.1,3.3,3v0C276.3,238.6,274.7,239.7,272.6,239.7z"/>
				<path fill="#FFFFFF" d="M279.2,226.9v-1.7h1.8v1.7H279.2z M279.3,239.5v-10.3h1.5v10.3H279.3z"/>
				<path fill="#FFFFFF" d="M284.6,239.5v-14.6h1.5v14.6H284.6z"/>
				<path fill="#FFFFFF" d="M294.7,239.8c-0.9,2.1-1.9,2.9-3.4,2.9c-0.9,0-1.5-0.2-2.2-0.5l0.5-1.2c0.5,0.3,1,0.4,1.6,0.4
					c0.9,0,1.5-0.5,2.1-1.9l-4.7-10.3h1.7l3.8,8.6l3.3-8.6h1.6L294.7,239.8z"/>
				<path fill="#FFFFFF" d="M310.9,239.7c-1.5,0-3.1-0.6-4.3-1.5l0.8-1.1c1.1,0.8,2.4,1.3,3.6,1.3c1.2,0,2.1-0.6,2.1-1.6v0
					c0-1-1.2-1.4-2.6-1.8c-1.6-0.5-3.4-1-3.4-2.9v0c0-1.8,1.5-3,3.5-3c1.3,0,2.7,0.4,3.7,1.1l-0.7,1.2c-1-0.6-2.1-1-3.1-1
					c-1.2,0-2,0.6-2,1.5v0c0,1,1.3,1.4,2.7,1.8c1.6,0.5,3.3,1.1,3.3,3v0C314.6,238.6,313,239.7,310.9,239.7z"/>
				<path fill="#FFFFFF" d="M322,238.4c1.4,0,2.4-0.6,3.3-1.5l1,0.9c-1,1.2-2.3,1.9-4.3,1.9c-2.8,0-5.2-2.2-5.2-5.4
					c0-3,2.1-5.4,5-5.4c3.1,0,4.8,2.4,4.8,5.5c0,0.1,0,0.3,0,0.5h-8.2C318.6,237.1,320.2,238.4,322,238.4z M325,233.8
					c-0.2-1.9-1.2-3.5-3.3-3.5c-1.8,0-3.2,1.5-3.4,3.5H325z"/>
				<path fill="#FFFFFF" d="M329.9,231.1l-0.5-1.3c1.1-0.5,2.3-0.9,3.8-0.9c2.8,0,4.4,1.4,4.4,4.2v6.3h-1.5v-1.6
					c-0.7,0.9-1.9,1.8-3.7,1.8c-1.9,0-3.9-1.1-3.9-3.2c0-2.2,1.8-3.4,4.4-3.4c1.3,0,2.3,0.2,3.2,0.4v-0.4c0-1.9-1.1-2.8-3.1-2.8
					C331.8,230.4,330.9,230.7,329.9,231.1z M330.1,236.4c0,1.3,1.2,2.1,2.6,2.1c1.9,0,3.5-1.2,3.5-2.8v-1c-0.8-0.2-1.8-0.4-3-0.4
					C331.2,234.3,330.1,235.1,330.1,236.4z"/>
				<path fill="#FFFFFF" d="M342.4,239.5h-1.5v-10.3h1.5v2.7c0.8-1.7,2.3-3,4.2-2.9v1.7h-0.1c-2.3,0-4.1,1.6-4.1,4.7V239.5z"/>
				<path fill="#FFFFFF" d="M353.2,239.7c-3,0-5.3-2.5-5.3-5.4c0-2.9,2.3-5.4,5.3-5.4c2,0,3.2,0.8,4.1,1.8l-1,1.1
					c-0.8-0.9-1.7-1.6-3.1-1.6c-2.1,0-3.7,1.8-3.7,4c0,2.3,1.6,4,3.8,4c1.3,0,2.3-0.7,3.2-1.5l1,0.9
					C356.4,238.9,355.1,239.7,353.2,239.7z"/>
				<path fill="#FFFFFF" d="M361.5,239.5H360v-14.6h1.5v6.1c0.7-1.1,1.8-2,3.5-2c2.5,0,4,1.7,4,4.1v6.4h-1.5v-6c0-1.9-1-3.1-2.9-3.1
					c-1.8,0-3.1,1.3-3.1,3.2V239.5z"/>
				<path fill="#FFFFFF" d="M383.7,229.2v1.3h-3.3v9h-1.5v-9h-1.4v-1.3h1.4v-0.9c0-2.3,1.1-3.5,3.1-3.5c0.7,0,1.2,0.1,1.7,0.3v1.3
					c-0.6-0.2-1-0.3-1.5-0.3c-1.2,0-1.8,0.7-1.8,2.2v0.8H383.7z"/>
				<path fill="#FFFFFF" d="M390.1,239.7c-3.1,0-5.4-2.4-5.4-5.4s2.3-5.4,5.4-5.4c3.1,0,5.4,2.4,5.4,5.4
					C395.6,237.3,393.3,239.7,390.1,239.7z M390.1,230.3c-2.2,0-3.8,1.8-3.8,4c0,2.2,1.6,4,3.8,4c2.2,0,3.8-1.8,3.8-4
					C394,232.1,392.3,230.3,390.1,230.3z"/>
				<path fill="#FFFFFF" d="M399.9,239.5h-1.5v-10.3h1.5v2.7c0.8-1.7,2.3-3,4.2-2.9v1.7H404c-2.3,0-4.1,1.6-4.1,4.7V239.5z"/>
				<path fill="#FFFFFF" d="M412.6,239.5v-14.6h1.5v14.6H412.6z"/>
				<path fill="#FFFFFF" d="M417.7,226.9v-1.7h1.8v1.7H417.7z M417.8,239.5v-10.3h1.5v10.3H417.8z"/>
				<path fill="#FFFFFF" d="M426.4,239.7c-1.5,0-3.1-0.6-4.3-1.5l0.8-1.1c1.1,0.8,2.4,1.3,3.6,1.3c1.2,0,2.1-0.6,2.1-1.6v0
					c0-1-1.2-1.4-2.6-1.8c-1.6-0.5-3.4-1-3.4-2.9v0c0-1.8,1.5-3,3.5-3c1.3,0,2.7,0.4,3.7,1.1l-0.7,1.2c-1-0.6-2.1-1-3.1-1
					c-1.2,0-2,0.6-2,1.5v0c0,1,1.3,1.4,2.7,1.8c1.6,0.5,3.3,1.1,3.3,3v0C430.1,238.6,428.4,239.7,426.4,239.7z"/>
				<path fill="#FFFFFF" d="M434.8,236.6c0,1.3,0.7,1.7,1.7,1.7c0.5,0,1-0.1,1.5-0.4v1.3c-0.5,0.3-1.1,0.4-1.9,0.4
					c-1.7,0-2.9-0.8-2.9-2.9v-6.2h-1.4v-1.4h1.4V226h1.5v3.1h3.3v1.4h-3.3V236.6z"/>
				<path fill="#FFFFFF" d="M445.1,238.4c1.4,0,2.4-0.6,3.3-1.5l1,0.9c-1,1.2-2.3,1.9-4.3,1.9c-2.8,0-5.2-2.2-5.2-5.4
					c0-3,2.1-5.4,5-5.4c3.1,0,4.8,2.4,4.8,5.5c0,0.1,0,0.3,0,0.5h-8.2C441.6,237.1,443.2,238.4,445.1,238.4z M448.1,233.8
					c-0.2-1.9-1.2-3.5-3.3-3.5c-1.8,0-3.2,1.5-3.4,3.5H448.1z"/>
				<path fill="#FFFFFF" d="M460.6,239.5v-2.1c-0.8,1.2-2.1,2.3-4,2.3c-2.5,0-4.9-2-4.9-5.4c0-3.4,2.5-5.4,4.9-5.4
					c1.9,0,3.2,1,4,2.2v-6.2h1.5v14.6H460.6z M457,230.3c-2,0-3.6,1.5-3.6,4c0,2.5,1.7,4,3.6,4c1.9,0,3.7-1.6,3.7-4
					C460.7,231.9,458.9,230.3,457,230.3z"/>
				<path fill="#FFFFFF" d="M473.3,229.2v10.9c0,1.8-1,2.7-2.5,2.7c-0.4,0-0.6,0-1-0.1v-1.3c0.2,0,0.5,0.1,0.8,0.1
					c0.7,0,1.2-0.4,1.2-1.4v-10.9H473.3z M471.7,226.9v-1.7h1.8v1.7H471.7z"/>
				<path fill="#FFFFFF" d="M481.6,239.7c-3.1,0-5.4-2.4-5.4-5.4s2.3-5.4,5.4-5.4c3.1,0,5.4,2.4,5.4,5.4
					C487,237.3,484.7,239.7,481.6,239.7z M481.6,230.3c-2.2,0-3.8,1.8-3.8,4c0,2.2,1.6,4,3.8,4c2.2,0,3.8-1.8,3.8-4
					C485.4,232.1,483.8,230.3,481.6,230.3z"/>
				<path fill="#FFFFFF" d="M495.3,239.7c-1.9,0-3.2-1-4-2.2v2h-1.5v-14.6h1.5v6.3c0.8-1.2,2.1-2.3,4-2.3c2.5,0,4.9,2,4.9,5.4
					C500.2,237.7,497.8,239.7,495.3,239.7z M495,230.3c-1.9,0-3.7,1.6-3.7,4c0,2.4,1.8,4,3.7,4c2,0,3.6-1.5,3.6-4
					C498.7,231.9,497,230.3,495,230.3z"/>
				<path fill="#FFFFFF" d="M506.5,239.7c-1.5,0-3.1-0.6-4.3-1.5l0.8-1.1c1.1,0.8,2.4,1.3,3.6,1.3c1.2,0,2.1-0.6,2.1-1.6v0
					c0-1-1.2-1.4-2.6-1.8c-1.6-0.5-3.4-1-3.4-2.9v0c0-1.8,1.5-3,3.5-3c1.3,0,2.7,0.4,3.7,1.1l-0.7,1.2c-1-0.6-2.1-1-3.1-1
					c-1.2,0-2,0.6-2,1.5v0c0,1,1.3,1.4,2.7,1.8c1.6,0.5,3.3,1.1,3.3,3v0C510.2,238.6,508.6,239.7,506.5,239.7z"/>
				<path fill="#FFFFFF" d="M529.4,237.5l2.7-8.3h1.6l-3.6,10.4h-1.3l-2.8-8.2l-2.8,8.2h-1.4l-3.6-10.4h1.6l2.7,8.3l2.8-8.3h1.3
					L529.4,237.5z"/>
				<path fill="#FFFFFF" d="M536.3,226.9v-1.7h1.8v1.7H536.3z M536.4,239.5v-10.3h1.5v10.3H536.4z"/>
				<path fill="#FFFFFF" d="M543.6,236.6c0,1.3,0.7,1.7,1.7,1.7c0.5,0,1-0.1,1.5-0.4v1.3c-0.5,0.3-1.1,0.4-1.9,0.4
					c-1.7,0-2.9-0.8-2.9-2.9v-6.2h-1.4v-1.4h1.4V226h1.5v3.1h3.3v1.4h-3.3V236.6z"/>
				<path fill="#FFFFFF" d="M551.1,239.5h-1.5v-14.6h1.5v6.1c0.7-1.1,1.8-2,3.5-2c2.5,0,4,1.7,4,4.1v6.4h-1.5v-6
					c0-1.9-1-3.1-2.9-3.1c-1.8,0-3.1,1.3-3.1,3.2V239.5z"/>
				<path fill="#FFFFFF" d="M562,226.9v-1.7h1.8v1.7H562z M562.1,239.5v-10.3h1.5v10.3H562.1z"/>
				<path fill="#FFFFFF" d="M568.7,239.5h-1.5v-10.3h1.5v1.8c0.7-1.1,1.8-2,3.5-2c2.5,0,4,1.7,4,4.1v6.4h-1.5v-6
					c0-1.9-1-3.1-2.9-3.1c-1.8,0-3.1,1.3-3.1,3.2V239.5z"/>
				<path fill="#FFFFFF" d="M590.5,239.8c-0.9,2.1-1.9,2.9-3.4,2.9c-0.9,0-1.5-0.2-2.2-0.5l0.5-1.2c0.5,0.3,1,0.4,1.6,0.4
					c0.9,0,1.5-0.5,2.1-1.9l-4.7-10.3h1.7l3.8,8.6l3.3-8.6h1.6L590.5,239.8z"/>
				<path fill="#FFFFFF" d="M601.4,239.7c-3.1,0-5.4-2.4-5.4-5.4s2.3-5.4,5.4-5.4c3.1,0,5.4,2.4,5.4,5.4
					C606.9,237.3,604.6,239.7,601.4,239.7z M601.4,230.3c-2.2,0-3.8,1.8-3.8,4c0,2.2,1.6,4,3.8,4c2.2,0,3.8-1.8,3.8-4
					C605.3,232.1,603.6,230.3,601.4,230.3z"/>
				<path fill="#FFFFFF" d="M617,229.2h1.5v10.3H617v-1.8c-0.7,1.1-1.8,2-3.5,2c-2.5,0-4-1.7-4-4.1v-6.4h1.5v6c0,1.9,1,3.1,2.9,3.1
					c1.8,0,3.1-1.3,3.1-3.2V229.2z"/>
				<path fill="#FFFFFF" d="M623.5,239.5H622v-10.3h1.5v2.7c0.8-1.7,2.3-3,4.2-2.9v1.7h-0.1c-2.3,0-4.1,1.6-4.1,4.7V239.5z"/>
				<path fill="#FFFFFF" d="M640.7,239.7c-3,0-5.3-2.5-5.3-5.4c0-2.9,2.3-5.4,5.3-5.4c2,0,3.2,0.8,4.1,1.8l-1,1.1
					c-0.8-0.9-1.7-1.6-3.1-1.6c-2.1,0-3.7,1.8-3.7,4c0,2.3,1.6,4,3.8,4c1.3,0,2.3-0.7,3.2-1.5l1,0.9
					C643.9,238.9,642.7,239.7,640.7,239.7z"/>
				<path fill="#FFFFFF" d="M651.9,239.7c-3.1,0-5.4-2.4-5.4-5.4s2.3-5.4,5.4-5.4c3.1,0,5.4,2.4,5.4,5.4
					C657.3,237.3,655,239.7,651.9,239.7z M651.9,230.3c-2.2,0-3.8,1.8-3.8,4c0,2.2,1.6,4,3.8,4c2.2,0,3.8-1.8,3.8-4
					C655.7,232.1,654.1,230.3,651.9,230.3z"/>
				<path fill="#FFFFFF" d="M671.9,228.9c2.4,0,3.8,1.6,3.8,4.2v6.4h-1.5v-6c0-2-1-3.1-2.7-3.1c-1.6,0-2.9,1.2-2.9,3.2v6h-1.5v-6.1
					c0-1.9-1-3.1-2.7-3.1s-2.9,1.4-2.9,3.3v5.9h-1.5v-10.3h1.5v1.7c0.7-1,1.6-2,3.3-2c1.7,0,2.8,0.9,3.3,2.1
					C669,229.9,670.1,228.9,671.9,228.9z"/>
				<path fill="#FFFFFF" d="M691,228.9c2.4,0,3.8,1.6,3.8,4.2v6.4h-1.5v-6c0-2-1-3.1-2.7-3.1c-1.6,0-2.9,1.2-2.9,3.2v6h-1.5v-6.1
					c0-1.9-1-3.1-2.7-3.1s-2.9,1.4-2.9,3.3v5.9h-1.5v-10.3h1.5v1.7c0.7-1,1.6-2,3.3-2c1.7,0,2.8,0.9,3.3,2.1
					C688.1,229.9,689.2,228.9,691,228.9z"/>
				<path fill="#FFFFFF" d="M705.5,229.2h1.5v10.3h-1.5v-1.8c-0.7,1.1-1.8,2-3.5,2c-2.5,0-4-1.7-4-4.1v-6.4h1.5v6
					c0,1.9,1,3.1,2.9,3.1c1.8,0,3.1-1.3,3.1-3.2V229.2z"/>
				<path fill="#FFFFFF" d="M712,239.5h-1.5v-10.3h1.5v1.8c0.7-1.1,1.8-2,3.5-2c2.5,0,4,1.7,4,4.1v6.4H718v-6c0-1.9-1-3.1-2.9-3.1
					c-1.8,0-3.1,1.3-3.1,3.2V239.5z"/>
				<path fill="#FFFFFF" d="M722.8,226.9v-1.7h1.8v1.7H722.8z M722.9,239.5v-10.3h1.5v10.3H722.9z"/>
				<path fill="#FFFFFF" d="M730.1,236.6c0,1.3,0.7,1.7,1.7,1.7c0.5,0,1-0.1,1.5-0.4v1.3c-0.5,0.3-1.1,0.4-1.9,0.4
					c-1.7,0-2.9-0.8-2.9-2.9v-6.2h-1.4v-1.4h1.4V226h1.5v3.1h3.3v1.4h-3.3V236.6z"/>
				<path fill="#FFFFFF" d="M741.2,239.8c-0.9,2.1-1.9,2.9-3.4,2.9c-0.9,0-1.5-0.2-2.2-0.5l0.5-1.2c0.5,0.3,1,0.4,1.6,0.4
					c0.9,0,1.5-0.5,2.1-1.9l-4.7-10.3h1.7l3.8,8.6l3.3-8.6h1.6L741.2,239.8z"/>
				<path fill="#FFFFFF" d="M746.1,239.5v-2.1h1.8v2.1H746.1z"/>
			</g>
			<g>
				<path fill="#21A0FF" d="M246.8,181l-3,0.8l-0.6-2.4l4.5-1.4h2v16.9h-2.9V181z"/>
				<path fill="#21A0FF" d="M253.7,191.6h3.2v3.3h-3.2V191.6z"/>
				<path fill="#21A0FF" d="M266.8,192.5l1.8-2.1c1.6,1.4,3.2,2.2,5.3,2.2c1.8,0,3-0.9,3-2.1v0c0-1.2-0.7-1.8-3.8-2.6
					c-3.6-0.9-5.6-1.9-5.6-5v0c0-2.9,2.4-4.9,5.7-4.9c2.4,0,4.4,0.7,6.1,2.1l-1.6,2.2c-1.5-1.1-3-1.7-4.6-1.7c-1.7,0-2.7,0.9-2.7,2
					v0c0,1.3,0.8,1.9,4,2.6c3.6,0.9,5.4,2.1,5.4,4.9v0c0,3.1-2.5,5-6,5C271.2,195.1,268.8,194.3,266.8,192.5z"/>
				<path fill="#21A0FF" d="M282.2,188.6L282.2,188.6c0-3.7,2.6-6.6,6.2-6.6c4,0,6.1,3.2,6.1,6.8c0,0.3,0,0.5,0,0.8h-9.3
					c0.3,2.1,1.8,3.2,3.6,3.2c1.4,0,2.4-0.5,3.4-1.5l1.7,1.5c-1.2,1.4-2.9,2.4-5.2,2.4C285.1,195.2,282.2,192.5,282.2,188.6z
					 M291.6,187.7c-0.2-1.9-1.3-3.3-3.2-3.3c-1.8,0-3,1.4-3.3,3.3H291.6z"/>
				<path fill="#21A0FF" d="M296.6,191.3L296.6,191.3c0-2.8,2.1-4.1,5.2-4.1c1.4,0,2.4,0.2,3.4,0.5v-0.3c0-1.8-1.1-2.8-3.1-2.8
					c-1.4,0-2.5,0.3-3.6,0.8l-0.8-2.3c1.4-0.6,2.8-1,4.8-1c1.9,0,3.3,0.5,4.2,1.4c0.9,0.9,1.4,2.3,1.4,3.9v7.5h-2.8v-1.6
					c-0.9,1-2.2,1.8-4.1,1.8C298.7,195.2,296.6,193.8,296.6,191.3z M305.3,190.3v-0.9c-0.7-0.3-1.7-0.5-2.9-0.5c-1.9,0-3,0.8-3,2.1
					v0c0,1.2,1.1,1.9,2.5,1.9C303.8,193.1,305.3,191.9,305.3,190.3z"/>
				<path fill="#21A0FF" d="M311.5,182.2h2.9v2.9c0.8-1.9,2.3-3.2,4.5-3.1v3.1h-0.2c-2.5,0-4.3,1.7-4.3,5v4.8h-2.9V182.2z"/>
				<path fill="#21A0FF" d="M320.3,188.6L320.3,188.6c0-3.6,2.8-6.7,6.6-6.7c2.4,0,3.9,0.9,5.1,2.2l-1.8,1.9
					c-0.9-0.9-1.8-1.6-3.3-1.6c-2.1,0-3.7,1.8-3.7,4v0c0,2.3,1.6,4.1,3.8,4.1c1.4,0,2.4-0.6,3.3-1.6l1.8,1.7
					c-1.2,1.4-2.7,2.4-5.2,2.4C323.1,195.2,320.3,192.2,320.3,188.6z"/>
				<path fill="#21A0FF" d="M334.7,177.4h2.9v6.8c0.8-1.2,2-2.2,4-2.2c2.9,0,4.5,1.9,4.5,4.8v8.1h-2.9v-7.2c0-2-1-3.1-2.7-3.1
					c-1.7,0-2.9,1.2-2.9,3.1v7.2h-2.9V177.4z"/>
			</g>
		</g>
		<g>
			<g>
				<path fill="#FFFFFF" d="M250.9,433.7c-4,0-7-3.2-7-7.2c0-4,3-7.3,7.1-7.3c2.5,0,4.1,0.9,5.5,2.2l-1.1,1.2
					c-1.2-1.1-2.5-1.9-4.4-1.9c-3.1,0-5.4,2.5-5.4,5.8s2.3,5.8,5.4,5.8c1.9,0,3.2-0.7,4.5-2l1,1C255,432.8,253.4,433.7,250.9,433.7z
					"/>
				<path fill="#FFFFFF" d="M263.5,433.7c-3.1,0-5.4-2.4-5.4-5.4s2.3-5.4,5.4-5.4c3.1,0,5.4,2.4,5.4,5.4S266.6,433.7,263.5,433.7z
					 M263.5,424.3c-2.2,0-3.8,1.8-3.8,4c0,2.2,1.6,4,3.8,4c2.2,0,3.8-1.8,3.8-4C267.3,426.1,265.7,424.3,263.5,424.3z"/>
				<path fill="#FFFFFF" d="M273.2,433.5h-1.5v-10.3h1.5v1.8c0.7-1.1,1.8-2,3.5-2c2.5,0,4,1.7,4,4.1v6.4h-1.5v-6
					c0-1.9-1-3.1-2.9-3.1c-1.8,0-3.1,1.3-3.1,3.2V433.5z"/>
				<path fill="#FFFFFF" d="M285.6,433.5H284v-10.3h1.5v1.8c0.7-1.1,1.8-2,3.5-2c2.5,0,4,1.7,4,4.1v6.4h-1.5v-6c0-1.9-1-3.1-2.9-3.1
					c-1.8,0-3.1,1.3-3.1,3.2V433.5z"/>
				<path fill="#FFFFFF" d="M300.9,432.4c1.4,0,2.4-0.6,3.3-1.5l1,0.9c-1,1.2-2.3,1.9-4.3,1.9c-2.8,0-5.2-2.2-5.2-5.4
					c0-3,2.1-5.4,5-5.4c3.1,0,4.8,2.4,4.8,5.5c0,0.1,0,0.3,0,0.5h-8.2C297.5,431.1,299.1,432.4,300.9,432.4z M303.9,427.8
					c-0.2-1.9-1.2-3.5-3.3-3.5c-1.8,0-3.2,1.5-3.4,3.5H303.9z"/>
				<path fill="#FFFFFF" d="M312.8,433.7c-3,0-5.3-2.5-5.3-5.4c0-2.9,2.3-5.4,5.3-5.4c2,0,3.2,0.8,4.1,1.8l-1,1.1
					c-0.8-0.9-1.7-1.6-3.1-1.6c-2.1,0-3.7,1.8-3.7,4c0,2.3,1.6,4,3.8,4c1.3,0,2.3-0.7,3.2-1.5l1,0.9
					C316,432.9,314.8,433.7,312.8,433.7z"/>
				<path fill="#FFFFFF" d="M321.7,430.6c0,1.3,0.7,1.7,1.7,1.7c0.5,0,1-0.1,1.5-0.4v1.3c-0.5,0.3-1.1,0.4-1.9,0.4
					c-1.7,0-2.9-0.8-2.9-2.9v-6.2h-1.4v-1.4h1.4V420h1.5v3.1h3.3v1.4h-3.3V430.6z"/>
				<path fill="#FFFFFF" d="M344,431.5l2.7-8.3h1.6l-3.6,10.4h-1.3l-2.8-8.2l-2.8,8.2h-1.4l-3.6-10.4h1.6l2.7,8.3l2.8-8.3h1.3
					L344,431.5z"/>
				<path fill="#FFFFFF" d="M350.9,420.9v-1.7h1.8v1.7H350.9z M351,433.5v-10.3h1.5v10.3H351z"/>
				<path fill="#FFFFFF" d="M358.2,430.6c0,1.3,0.7,1.7,1.7,1.7c0.5,0,1-0.1,1.5-0.4v1.3c-0.5,0.3-1.1,0.4-1.9,0.4
					c-1.7,0-2.9-0.8-2.9-2.9v-6.2h-1.4v-1.4h1.4V420h1.5v3.1h3.3v1.4h-3.3V430.6z"/>
				<path fill="#FFFFFF" d="M365.8,433.5h-1.5v-14.6h1.5v6.1c0.7-1.1,1.8-2,3.5-2c2.5,0,4,1.7,4,4.1v6.4h-1.5v-6
					c0-1.9-1-3.1-2.9-3.1c-1.8,0-3.1,1.3-3.1,3.2V433.5z"/>
				<path fill="#FFFFFF" d="M386,433.7c-1.5,0-3.1-0.6-4.3-1.5l0.8-1.1c1.1,0.8,2.4,1.3,3.6,1.3c1.2,0,2.1-0.6,2.1-1.6v0
					c0-1-1.2-1.4-2.6-1.8c-1.6-0.5-3.4-1-3.4-2.9v0c0-1.8,1.5-3,3.5-3c1.3,0,2.7,0.4,3.7,1.1l-0.7,1.2c-1-0.6-2.1-1-3.1-1
					c-1.2,0-2,0.6-2,1.5v0c0,1,1.3,1.4,2.7,1.8c1.6,0.5,3.3,1.1,3.3,3v0C389.7,432.6,388,433.7,386,433.7z"/>
				<path fill="#FFFFFF" d="M397.2,433.7c-3.1,0-5.4-2.4-5.4-5.4s2.3-5.4,5.4-5.4c3.1,0,5.4,2.4,5.4,5.4S400.4,433.7,397.2,433.7z
					 M397.2,424.3c-2.2,0-3.8,1.8-3.8,4c0,2.2,1.6,4,3.8,4c2.2,0,3.8-1.8,3.8-4C401.1,426.1,399.4,424.3,397.2,424.3z"/>
				<path fill="#FFFFFF" d="M417.3,422.9c2.4,0,3.8,1.6,3.8,4.2v6.4h-1.5v-6c0-2-1-3.1-2.7-3.1c-1.6,0-2.9,1.2-2.9,3.2v6h-1.5v-6.1
					c0-1.9-1-3.1-2.7-3.1s-2.9,1.4-2.9,3.3v5.9h-1.5v-10.3h1.5v1.7c0.7-1,1.6-2,3.3-2c1.7,0,2.8,0.9,3.3,2.1
					C414.4,423.9,415.5,422.9,417.3,422.9z"/>
				<path fill="#FFFFFF" d="M429,432.4c1.4,0,2.4-0.6,3.3-1.5l1,0.9c-1,1.2-2.3,1.9-4.3,1.9c-2.8,0-5.2-2.2-5.2-5.4
					c0-3,2.1-5.4,5-5.4c3.1,0,4.8,2.4,4.8,5.5c0,0.1,0,0.3,0,0.5h-8.2C425.6,431.1,427.2,432.4,429,432.4z M432,427.8
					c-0.2-1.9-1.2-3.5-3.3-3.5c-1.8,0-3.2,1.5-3.4,3.5H432z"/>
				<path fill="#FFFFFF" d="M441,433.7c-3.1,0-5.4-2.4-5.4-5.4s2.3-5.4,5.4-5.4c3.1,0,5.4,2.4,5.4,5.4S444.1,433.7,441,433.7z
					 M441,424.3c-2.2,0-3.8,1.8-3.8,4c0,2.2,1.6,4,3.8,4c2.2,0,3.8-1.8,3.8-4C444.9,426.1,443.2,424.3,441,424.3z"/>
				<path fill="#FFFFFF" d="M450.8,433.5h-1.5v-10.3h1.5v1.8c0.7-1.1,1.8-2,3.5-2c2.5,0,4,1.7,4,4.1v6.4h-1.5v-6
					c0-1.9-1-3.1-2.9-3.1c-1.8,0-3.1,1.3-3.1,3.2V433.5z"/>
				<path fill="#FFFFFF" d="M466.1,432.4c1.4,0,2.4-0.6,3.3-1.5l1,0.9c-1,1.2-2.3,1.9-4.3,1.9c-2.8,0-5.2-2.2-5.2-5.4
					c0-3,2.1-5.4,5-5.4c3.1,0,4.8,2.4,4.8,5.5c0,0.1,0,0.3,0,0.5h-8.2C462.7,431.1,464.3,432.4,466.1,432.4z M469.1,427.8
					c-0.2-1.9-1.2-3.5-3.3-3.5c-1.8,0-3.2,1.5-3.4,3.5H469.1z"/>
				<path fill="#FFFFFF" d="M481.5,430.6c0,1.3,0.7,1.7,1.7,1.7c0.5,0,1-0.1,1.5-0.4v1.3c-0.5,0.3-1.1,0.4-1.9,0.4
					c-1.7,0-2.9-0.8-2.9-2.9v-6.2h-1.4v-1.4h1.4V420h1.5v3.1h3.3v1.4h-3.3V430.6z"/>
				<path fill="#FFFFFF" d="M489,433.5h-1.5v-14.6h1.5v6.1c0.7-1.1,1.8-2,3.5-2c2.5,0,4,1.7,4,4.1v6.4H495v-6c0-1.9-1-3.1-2.9-3.1
					c-1.8,0-3.1,1.3-3.1,3.2V433.5z"/>
				<path fill="#FFFFFF" d="M500.4,425.1l-0.5-1.3c1.1-0.5,2.3-0.9,3.8-0.9c2.8,0,4.4,1.4,4.4,4.2v6.3h-1.5v-1.6
					c-0.7,0.9-1.9,1.8-3.7,1.8c-1.9,0-3.9-1.1-3.9-3.2c0-2.2,1.8-3.4,4.4-3.4c1.3,0,2.3,0.2,3.2,0.4v-0.4c0-1.9-1.1-2.8-3.1-2.8
					C502.3,424.4,501.3,424.7,500.4,425.1z M500.6,430.4c0,1.3,1.2,2.1,2.6,2.1c1.9,0,3.5-1.2,3.5-2.8v-1c-0.8-0.2-1.8-0.4-3-0.4
					C501.6,428.3,500.6,429.1,500.6,430.4z"/>
				<path fill="#FFFFFF" d="M513.3,430.6c0,1.3,0.7,1.7,1.7,1.7c0.5,0,1-0.1,1.5-0.4v1.3c-0.5,0.3-1.1,0.4-1.9,0.4
					c-1.7,0-2.9-0.8-2.9-2.9v-6.2h-1.4v-1.4h1.4V420h1.5v3.1h3.3v1.4h-3.3V430.6z"/>
				<path fill="#FFFFFF" d="M526.9,433.5h-1.5v-10.3h1.5v1.8c0.7-1.1,1.8-2,3.5-2c2.5,0,4,1.7,4,4.1v6.4h-1.5v-6
					c0-1.9-1-3.1-2.9-3.1c-1.8,0-3.1,1.3-3.1,3.2V433.5z"/>
				<path fill="#FFFFFF" d="M542.2,432.4c1.4,0,2.4-0.6,3.3-1.5l1,0.9c-1,1.2-2.3,1.9-4.3,1.9c-2.8,0-5.2-2.2-5.2-5.4
					c0-3,2.1-5.4,5-5.4c3.1,0,4.8,2.4,4.8,5.5c0,0.1,0,0.3,0,0.5h-8.2C538.8,431.1,540.4,432.4,542.2,432.4z M545.2,427.8
					c-0.2-1.9-1.2-3.5-3.3-3.5c-1.8,0-3.2,1.5-3.4,3.5H545.2z"/>
				<path fill="#FFFFFF" d="M554.1,432.4c1.4,0,2.4-0.6,3.3-1.5l1,0.9c-1,1.2-2.3,1.9-4.3,1.9c-2.8,0-5.2-2.2-5.2-5.4
					c0-3,2.1-5.4,5-5.4c3.1,0,4.8,2.4,4.8,5.5c0,0.1,0,0.3,0,0.5h-8.2C550.6,431.1,552.2,432.4,554.1,432.4z M557.1,427.8
					c-0.2-1.9-1.2-3.5-3.3-3.5c-1.8,0-3.2,1.5-3.4,3.5H557.1z"/>
				<path fill="#FFFFFF" d="M569.6,433.5v-2.1c-0.8,1.2-2.1,2.3-4,2.3c-2.5,0-4.9-2-4.9-5.4c0-3.4,2.5-5.4,4.9-5.4
					c1.9,0,3.2,1,4,2.2v-6.2h1.5v14.6H569.6z M566,424.3c-2,0-3.6,1.5-3.6,4c0,2.5,1.7,4,3.6,4c1.9,0,3.7-1.6,3.7-4
					C569.7,425.9,567.9,424.3,566,424.3z"/>
				<path fill="#FFFFFF" d="M578,433.7c-1.5,0-3.1-0.6-4.3-1.5l0.8-1.1c1.1,0.8,2.4,1.3,3.6,1.3c1.2,0,2.1-0.6,2.1-1.6v0
					c0-1-1.2-1.4-2.6-1.8c-1.6-0.5-3.4-1-3.4-2.9v0c0-1.8,1.5-3,3.5-3c1.3,0,2.7,0.4,3.7,1.1l-0.7,1.2c-1-0.6-2.1-1-3.1-1
					c-1.2,0-2,0.6-2,1.5v0c0,1,1.3,1.4,2.7,1.8c1.6,0.5,3.3,1.1,3.3,3v0C581.7,432.6,580.1,433.7,578,433.7z"/>
				<path fill="#FFFFFF" d="M595.6,433.8c-0.9,2.1-1.9,2.9-3.4,2.9c-0.9,0-1.5-0.2-2.2-0.5l0.5-1.2c0.5,0.3,1,0.4,1.6,0.4
					c0.9,0,1.5-0.5,2.1-1.9l-4.7-10.3h1.7l3.8,8.6l3.3-8.6h1.6L595.6,433.8z"/>
				<path fill="#FFFFFF" d="M606.5,433.7c-3.1,0-5.4-2.4-5.4-5.4s2.3-5.4,5.4-5.4c3.1,0,5.4,2.4,5.4,5.4S609.6,433.7,606.5,433.7z
					 M606.5,424.3c-2.2,0-3.8,1.8-3.8,4c0,2.2,1.6,4,3.8,4c2.2,0,3.8-1.8,3.8-4C610.4,426.1,608.7,424.3,606.5,424.3z"/>
				<path fill="#FFFFFF" d="M622.1,423.2h1.5v10.3h-1.5v-1.8c-0.7,1.1-1.8,2-3.5,2c-2.5,0-4-1.7-4-4.1v-6.4h1.5v6
					c0,1.9,1,3.1,2.9,3.1c1.8,0,3.1-1.3,3.1-3.2V423.2z"/>
				<path fill="#FFFFFF" d="M628.6,433.5H627v-10.3h1.5v2.7c0.8-1.7,2.3-3,4.2-2.9v1.7h-0.1c-2.3,0-4.1,1.6-4.1,4.7V433.5z"/>
				<path fill="#FFFFFF" d="M642.7,433.5h-1.5v-14.6h1.5v6.1c0.7-1.1,1.8-2,3.5-2c2.5,0,4,1.7,4,4.1v6.4h-1.5v-6
					c0-1.9-1-3.1-2.9-3.1c-1.8,0-3.1,1.3-3.1,3.2V433.5z"/>
				<path fill="#FFFFFF" d="M658,432.4c1.4,0,2.4-0.6,3.3-1.5l1,0.9c-1,1.2-2.3,1.9-4.3,1.9c-2.8,0-5.2-2.2-5.2-5.4
					c0-3,2.1-5.4,5-5.4c3.1,0,4.8,2.4,4.8,5.5c0,0.1,0,0.3,0,0.5h-8.2C654.6,431.1,656.2,432.4,658,432.4z M661,427.8
					c-0.2-1.9-1.2-3.5-3.3-3.5c-1.8,0-3.2,1.5-3.4,3.5H661z"/>
				<path fill="#FFFFFF" d="M665.4,433.5v-14.6h1.5v14.6H665.4z"/>
				<path fill="#FFFFFF" d="M676.1,433.7c-1.9,0-3.2-1-4-2.2v5.2h-1.5v-13.5h1.5v2.1c0.8-1.2,2.1-2.3,4-2.3c2.5,0,4.9,2,4.9,5.4
					C681,431.7,678.6,433.7,676.1,433.7z M675.8,424.3c-1.9,0-3.7,1.6-3.7,4c0,2.4,1.8,4,3.7,4c2,0,3.6-1.5,3.6-4
					C679.4,425.9,677.7,424.3,675.8,424.3z"/>
				<path fill="#FFFFFF" d="M691.9,430.6c0,1.3,0.7,1.7,1.7,1.7c0.5,0,1-0.1,1.5-0.4v1.3c-0.5,0.3-1.1,0.4-1.9,0.4
					c-1.7,0-2.9-0.8-2.9-2.9v-6.2h-1.4v-1.4h1.4V420h1.5v3.1h3.3v1.4h-3.3V430.6z"/>
				<path fill="#FFFFFF" d="M702.3,433.7c-3.1,0-5.4-2.4-5.4-5.4s2.3-5.4,5.4-5.4c3.1,0,5.4,2.4,5.4,5.4S705.5,433.7,702.3,433.7z
					 M702.3,424.3c-2.2,0-3.8,1.8-3.8,4c0,2.2,1.6,4,3.8,4c2.2,0,3.8-1.8,3.8-4C706.2,426.1,704.5,424.3,702.3,424.3z"/>
				<path fill="#FFFFFF" d="M248.9,457.7c-3,0-5.3-2.5-5.3-5.4c0-2.9,2.3-5.4,5.3-5.4c2,0,3.2,0.8,4.1,1.8l-1,1.1
					c-0.8-0.9-1.7-1.6-3.1-1.6c-2.1,0-3.7,1.8-3.7,4c0,2.3,1.6,4,3.8,4c1.3,0,2.3-0.7,3.2-1.5l1,0.9
					C252.1,456.9,250.8,457.7,248.9,457.7z"/>
				<path fill="#FFFFFF" d="M260.1,457.7c-3.1,0-5.4-2.4-5.4-5.4s2.3-5.4,5.4-5.4c3.1,0,5.4,2.4,5.4,5.4S263.2,457.7,260.1,457.7z
					 M260.1,448.3c-2.2,0-3.8,1.8-3.8,4c0,2.2,1.6,4,3.8,4c2.2,0,3.8-1.8,3.8-4C263.9,450.1,262.2,448.3,260.1,448.3z"/>
				<path fill="#FFFFFF" d="M280.1,446.9c2.4,0,3.8,1.6,3.8,4.2v6.4h-1.5v-6c0-2-1-3.1-2.7-3.1c-1.6,0-2.9,1.2-2.9,3.2v6h-1.5v-6.1
					c0-1.9-1-3.1-2.7-3.1s-2.9,1.4-2.9,3.3v5.9h-1.5v-10.3h1.5v1.7c0.7-1,1.6-2,3.3-2c1.7,0,2.8,0.9,3.3,2.1
					C277.2,447.9,278.3,446.9,280.1,446.9z"/>
				<path fill="#FFFFFF" d="M292.8,457.7c-1.9,0-3.2-1-4-2.2v5.2h-1.5v-13.5h1.5v2.1c0.8-1.2,2.1-2.3,4-2.3c2.5,0,4.9,2,4.9,5.4
					C297.7,455.7,295.3,457.7,292.8,457.7z M292.5,448.3c-1.9,0-3.7,1.6-3.7,4c0,2.4,1.8,4,3.7,4c2,0,3.6-1.5,3.6-4
					C296.1,449.9,294.5,448.3,292.5,448.3z"/>
				<path fill="#FFFFFF" d="M300.7,457.5v-14.6h1.5v14.6H300.7z"/>
				<path fill="#FFFFFF" d="M310.4,456.4c1.4,0,2.4-0.6,3.3-1.5l1,0.9c-1,1.2-2.3,1.9-4.3,1.9c-2.8,0-5.2-2.2-5.2-5.4
					c0-3,2.1-5.4,5-5.4c3.1,0,4.8,2.4,4.8,5.5c0,0.1,0,0.3,0,0.5h-8.2C307,455.1,308.6,456.4,310.4,456.4z M313.4,451.8
					c-0.2-1.9-1.2-3.5-3.3-3.5c-1.8,0-3.2,1.5-3.4,3.5H313.4z"/>
				<path fill="#FFFFFF" d="M319.7,454.6c0,1.3,0.7,1.7,1.7,1.7c0.5,0,1-0.1,1.5-0.4v1.3c-0.5,0.3-1.1,0.4-1.9,0.4
					c-1.7,0-2.9-0.8-2.9-2.9v-6.2h-1.4v-1.4h1.4V444h1.5v3.1h3.3v1.4h-3.3V454.6z"/>
				<path fill="#FFFFFF" d="M330,456.4c1.4,0,2.4-0.6,3.3-1.5l1,0.9c-1,1.2-2.3,1.9-4.3,1.9c-2.8,0-5.2-2.2-5.2-5.4
					c0-3,2.1-5.4,5-5.4c3.1,0,4.8,2.4,4.8,5.5c0,0.1,0,0.3,0,0.5h-8.2C326.6,455.1,328.2,456.4,330,456.4z M333,451.8
					c-0.2-1.9-1.2-3.5-3.3-3.5c-1.8,0-3.2,1.5-3.4,3.5H333z"/>
				<path fill="#FFFFFF" d="M343.9,449.1l-0.5-1.3c1.1-0.5,2.3-0.9,3.8-0.9c2.8,0,4.4,1.4,4.4,4.2v6.3h-1.5v-1.6
					c-0.7,0.9-1.9,1.8-3.7,1.8c-1.9,0-3.9-1.1-3.9-3.2c0-2.2,1.8-3.4,4.4-3.4c1.3,0,2.3,0.2,3.2,0.4v-0.4c0-1.9-1.1-2.8-3.1-2.8
					C345.8,448.4,344.8,448.7,343.9,449.1z M344.1,454.4c0,1.3,1.2,2.1,2.6,2.1c1.9,0,3.5-1.2,3.5-2.8v-1c-0.8-0.2-1.8-0.4-3-0.4
					C345.1,452.3,344.1,453.1,344.1,454.4z"/>
				<path fill="#FFFFFF" d="M362.9,454.6c0,1.3,0.7,1.7,1.7,1.7c0.5,0,1-0.1,1.5-0.4v1.3c-0.5,0.3-1.1,0.4-1.9,0.4
					c-1.7,0-2.9-0.8-2.9-2.9v-6.2H360v-1.4h1.4V444h1.5v3.1h3.3v1.4h-3.3V454.6z"/>
				<path fill="#FFFFFF" d="M369.5,449.1l-0.5-1.3c1.1-0.5,2.3-0.9,3.8-0.9c2.8,0,4.4,1.4,4.4,4.2v6.3h-1.5v-1.6
					c-0.7,0.9-1.9,1.8-3.7,1.8c-1.9,0-3.9-1.1-3.9-3.2c0-2.2,1.8-3.4,4.4-3.4c1.3,0,2.3,0.2,3.2,0.4v-0.4c0-1.9-1.1-2.8-3.1-2.8
					C371.5,448.4,370.5,448.7,369.5,449.1z M369.7,454.4c0,1.3,1.2,2.1,2.6,2.1c1.9,0,3.5-1.2,3.5-2.8v-1c-0.8-0.2-1.8-0.4-3-0.4
					C370.8,452.3,369.7,453.1,369.7,454.4z"/>
				<path fill="#FFFFFF" d="M383.9,457.7c-1.5,0-3.1-0.6-4.3-1.5l0.8-1.1c1.1,0.8,2.4,1.3,3.6,1.3c1.2,0,2.1-0.6,2.1-1.6v0
					c0-1-1.2-1.4-2.6-1.8c-1.6-0.5-3.4-1-3.4-2.9v0c0-1.8,1.5-3,3.5-3c1.3,0,2.7,0.4,3.7,1.1l-0.7,1.2c-1-0.6-2.1-1-3.1-1
					c-1.2,0-2,0.6-2,1.5v0c0,1,1.3,1.4,2.7,1.8c1.6,0.5,3.3,1.1,3.3,3v0C387.6,456.6,386,457.7,383.9,457.7z"/>
				<path fill="#FFFFFF" d="M399.7,457.5h-1.8l-3.7-4.8l-2.1,2.1v2.7h-1.5v-14.6h1.5V453l5.6-5.8h1.9l-4.3,4.4L399.7,457.5z"/>
				<path fill="#FFFFFF" d="M401.7,457.5v-2.1h1.8v2.1H401.7z"/>
			</g>
			<g>
				<path fill="#21A0FF" d="M243.8,386.5l6-5.1c2.4-2,3.3-3.1,3.3-4.7c0-1.7-1.2-2.7-2.8-2.7s-2.7,0.9-4,2.6l-2.2-1.7
					c1.7-2.3,3.3-3.6,6.4-3.6c3.4,0,5.8,2.1,5.8,5.2v0c0,2.7-1.5,4.2-4.5,6.8l-3.6,3h8.3v2.7h-12.6V386.5z"/>
				<path fill="#21A0FF" d="M259.6,385.5h3.3v3.4h-3.3V385.5z"/>
				<path fill="#21A0FF" d="M273.6,380.2L273.6,380.2c0-5,3.7-9.1,9-9.1c3.2,0,5.2,1.1,6.8,2.7l-2,2.3c-1.4-1.3-2.9-2.2-4.9-2.2
					c-3.3,0-5.8,2.8-5.8,6.2v0c0,3.4,2.4,6.2,5.8,6.2c2.1,0,3.5-0.8,5-2.2l2,2c-1.8,1.9-3.8,3.1-7.1,3.1
					C277.4,389.2,273.6,385.2,273.6,380.2z"/>
				<path fill="#21A0FF" d="M291.5,382.4L291.5,382.4c0-3.8,3-6.9,7-6.9c4,0,7,3.1,7,6.8v0c0,3.7-3,6.9-7.1,6.9
					C294.5,389.2,291.5,386.1,291.5,382.4z M302.5,382.4L302.5,382.4c0-2.4-1.7-4.3-4-4.3c-2.4,0-4,1.9-4,4.2v0c0,2.3,1.7,4.2,4,4.2
					C301,386.5,302.5,384.7,302.5,382.4z"/>
				<path fill="#21A0FF" d="M308.7,375.7h3v2c0.8-1.2,2.1-2.3,4.1-2.3c3,0,4.7,2,4.7,5v8.4h-3v-7.5c0-2-1-3.2-2.8-3.2
					c-1.8,0-3,1.2-3,3.3v7.4h-3V375.7z"/>
				<path fill="#21A0FF" d="M324.1,375.7h3v2c0.8-1.2,2.1-2.3,4.1-2.3c3,0,4.7,2,4.7,5v8.4h-3v-7.5c0-2-1-3.2-2.8-3.2
					c-1.8,0-3,1.2-3,3.3v7.4h-3V375.7z"/>
				<path fill="#21A0FF" d="M338.9,382.4L338.9,382.4c0-3.8,2.7-6.9,6.4-6.9c4.2,0,6.3,3.3,6.3,7.1c0,0.3,0,0.5,0,0.8H342
					c0.3,2.1,1.8,3.3,3.8,3.3c1.5,0,2.5-0.5,3.6-1.6l1.8,1.6c-1.2,1.5-3,2.5-5.4,2.5C341.9,389.2,338.9,386.4,338.9,382.4z
					 M348.7,381.4c-0.2-1.9-1.3-3.5-3.3-3.5c-1.8,0-3.2,1.4-3.4,3.5H348.7z"/>
				<path fill="#21A0FF" d="M354,382.4L354,382.4c0-3.8,2.9-6.9,6.9-6.9c2.5,0,4,0.9,5.3,2.3l-1.9,2c-0.9-1-1.9-1.6-3.4-1.6
					c-2.2,0-3.8,1.9-3.8,4.2v0c0,2.3,1.6,4.2,3.9,4.2c1.4,0,2.5-0.6,3.4-1.6l1.8,1.8c-1.3,1.5-2.8,2.5-5.4,2.5
					C356.9,389.2,354,386.1,354,382.4z"/>
				<path fill="#21A0FF" d="M369.7,385.3v-6.9H368v-2.6h1.7v-3.6h3v3.6h3.5v2.6h-3.5v6.5c0,1.2,0.6,1.6,1.6,1.6
					c0.7,0,1.3-0.1,1.9-0.4v2.5c-0.8,0.4-1.6,0.7-2.7,0.7C371.2,389.1,369.7,388.1,369.7,385.3z"/>
			</g>
		</g>
		<g>
			<g>
				<path fill="#FFFFFF" d="M254.6,614.9h-8.5v4.8h7.6v1.4h-7.6v4.9h8.6v1.4h-10.2v-14h10.1V614.9z"/>
				<path fill="#FFFFFF" d="M258.2,619.1l-0.5-1.3c1.1-0.5,2.3-0.9,3.8-0.9c2.8,0,4.4,1.4,4.4,4.2v6.3h-1.5v-1.6
					c-0.7,0.9-1.9,1.8-3.7,1.8c-1.9,0-3.9-1.1-3.9-3.2c0-2.2,1.8-3.4,4.4-3.4c1.3,0,2.3,0.2,3.2,0.4v-0.4c0-1.9-1.1-2.8-3.1-2.8
					C260.1,618.4,259.2,618.7,258.2,619.1z M258.4,624.4c0,1.3,1.2,2.1,2.6,2.1c1.9,0,3.5-1.2,3.5-2.8v-1c-0.8-0.2-1.8-0.4-3-0.4
					C259.5,622.3,258.4,623.1,258.4,624.4z"/>
				<path fill="#FFFFFF" d="M270.7,627.5h-1.5v-10.3h1.5v2.7c0.8-1.7,2.3-3,4.2-2.9v1.7h-0.1c-2.3,0-4.1,1.6-4.1,4.7V627.5z"/>
				<path fill="#FFFFFF" d="M278.8,627.5h-1.5v-10.3h1.5v1.8c0.7-1.1,1.8-2,3.5-2c2.5,0,4,1.7,4,4.1v6.4h-1.5v-6
					c0-1.9-1-3.1-2.9-3.1c-1.8,0-3.1,1.3-3.1,3.2V627.5z"/>
				<path fill="#FFFFFF" d="M295.7,614.9v-1.7h1.8v1.7H295.7z M295.8,627.5v-10.3h1.5v10.3H295.8z"/>
				<path fill="#FFFFFF" d="M302.4,627.5h-1.5v-10.3h1.5v1.8c0.7-1.1,1.8-2,3.5-2c2.5,0,4,1.7,4,4.1v6.4h-1.5v-6
					c0-1.9-1-3.1-2.9-3.1c-1.8,0-3.1,1.3-3.1,3.2V627.5z"/>
				<path fill="#FFFFFF" d="M316.6,627.7c-1.5,0-3.1-0.6-4.3-1.5l0.8-1.1c1.1,0.8,2.4,1.3,3.6,1.3c1.2,0,2.1-0.6,2.1-1.6v0
					c0-1-1.2-1.4-2.6-1.8c-1.6-0.5-3.4-1-3.4-2.9v0c0-1.8,1.5-3,3.5-3c1.3,0,2.7,0.4,3.7,1.1l-0.7,1.2c-1-0.6-2.1-1-3.1-1
					c-1.2,0-2,0.6-2,1.5v0c0,1,1.3,1.4,2.7,1.8c1.6,0.5,3.3,1.1,3.3,3v0C320.3,626.6,318.7,627.7,316.6,627.7z"/>
				<path fill="#FFFFFF" d="M325,624.6c0,1.3,0.7,1.7,1.7,1.7c0.5,0,1-0.1,1.5-0.4v1.3c-0.5,0.3-1.1,0.4-1.9,0.4
					c-1.7,0-2.9-0.8-2.9-2.9v-6.2h-1.4v-1.4h1.4V614h1.5v3.1h3.3v1.4H325V624.6z"/>
				<path fill="#FFFFFF" d="M331.6,619.1l-0.5-1.3c1.1-0.5,2.3-0.9,3.8-0.9c2.8,0,4.4,1.4,4.4,4.2v6.3h-1.5v-1.6
					c-0.7,0.9-1.9,1.8-3.7,1.8c-1.9,0-3.9-1.1-3.9-3.2c0-2.2,1.8-3.4,4.4-3.4c1.3,0,2.3,0.2,3.2,0.4v-0.4c0-1.9-1.1-2.8-3.1-2.8
					C333.6,618.4,332.6,618.7,331.6,619.1z M331.8,624.4c0,1.3,1.2,2.1,2.6,2.1c1.9,0,3.5-1.2,3.5-2.8v-1c-0.8-0.2-1.8-0.4-3-0.4
					C332.9,622.3,331.8,623.1,331.8,624.4z"/>
				<path fill="#FFFFFF" d="M344.2,627.5h-1.5v-10.3h1.5v1.8c0.7-1.1,1.8-2,3.5-2c2.5,0,4,1.7,4,4.1v6.4h-1.5v-6
					c0-1.9-1-3.1-2.9-3.1c-1.8,0-3.1,1.3-3.1,3.2V627.5z"/>
				<path fill="#FFFFFF" d="M357,624.6c0,1.3,0.7,1.7,1.7,1.7c0.5,0,1-0.1,1.5-0.4v1.3c-0.5,0.3-1.1,0.4-1.9,0.4
					c-1.7,0-2.9-0.8-2.9-2.9v-6.2H354v-1.4h1.4V614h1.5v3.1h3.3v1.4H357V624.6z"/>
				<path fill="#FFFFFF" d="M363.2,627.5v-14.6h1.5v14.6H363.2z"/>
				<path fill="#FFFFFF" d="M373.3,627.8c-0.9,2.1-1.9,2.9-3.4,2.9c-0.9,0-1.5-0.2-2.2-0.5l0.5-1.2c0.5,0.3,1,0.4,1.6,0.4
					c0.9,0,1.5-0.5,2.1-1.9l-4.7-10.3h1.7l3.8,8.6l3.3-8.6h1.6L373.3,627.8z"/>
				<path fill="#FFFFFF" d="M393.4,617.2h1.5v10.3h-1.5v-1.8c-0.7,1.1-1.8,2-3.5,2c-2.5,0-4-1.7-4-4.1v-6.4h1.5v6
					c0,1.9,1,3.1,2.9,3.1c1.8,0,3.1-1.3,3.1-3.2V617.2z"/>
				<path fill="#FFFFFF" d="M403.9,627.7c-1.9,0-3.2-1-4-2.2v5.2h-1.5v-13.5h1.5v2.1c0.8-1.2,2.1-2.3,4-2.3c2.5,0,4.9,2,4.9,5.4
					C408.9,625.7,406.4,627.7,403.9,627.7z M403.6,618.3c-1.9,0-3.7,1.6-3.7,4c0,2.4,1.8,4,3.7,4c2,0,3.6-1.5,3.6-4
					C407.3,619.9,405.6,618.3,403.6,618.3z"/>
				<path fill="#FFFFFF" d="M416.4,627.7c-3.1,0-5.4-2.4-5.4-5.4s2.3-5.4,5.4-5.4c3.1,0,5.4,2.4,5.4,5.4S419.5,627.7,416.4,627.7z
					 M416.4,618.3c-2.2,0-3.8,1.8-3.8,4c0,2.2,1.6,4,3.8,4c2.2,0,3.8-1.8,3.8-4C420.3,620.1,418.6,618.3,416.4,618.3z"/>
				<path fill="#FFFFFF" d="M426.2,627.5h-1.5v-10.3h1.5v1.8c0.7-1.1,1.8-2,3.5-2c2.5,0,4,1.7,4,4.1v6.4h-1.5v-6
					c0-1.9-1-3.1-2.9-3.1c-1.8,0-3.1,1.3-3.1,3.2V627.5z"/>
				<path fill="#FFFFFF" d="M447.6,627.7c-3,0-5.3-2.5-5.3-5.4c0-2.9,2.3-5.4,5.3-5.4c2,0,3.2,0.8,4.1,1.8l-1,1.1
					c-0.8-0.9-1.7-1.6-3.1-1.6c-2.1,0-3.7,1.8-3.7,4c0,2.3,1.6,4,3.8,4c1.3,0,2.3-0.7,3.2-1.5l1,0.9
					C450.8,626.9,449.5,627.7,447.6,627.7z"/>
				<path fill="#FFFFFF" d="M458.8,627.7c-3.1,0-5.4-2.4-5.4-5.4s2.3-5.4,5.4-5.4c3.1,0,5.4,2.4,5.4,5.4S461.9,627.7,458.8,627.7z
					 M458.8,618.3c-2.2,0-3.8,1.8-3.8,4c0,2.2,1.6,4,3.8,4c2.2,0,3.8-1.8,3.8-4C462.6,620.1,461,618.3,458.8,618.3z"/>
				<path fill="#FFFFFF" d="M478.8,616.9c2.4,0,3.8,1.6,3.8,4.2v6.4h-1.5v-6c0-2-1-3.1-2.7-3.1c-1.6,0-2.9,1.2-2.9,3.2v6h-1.5v-6.1
					c0-1.9-1-3.1-2.7-3.1c-1.6,0-2.9,1.4-2.9,3.3v5.9H467v-10.3h1.5v1.7c0.7-1,1.6-2,3.3-2c1.7,0,2.8,0.9,3.3,2.1
					C475.9,617.9,477,616.9,478.8,616.9z"/>
				<path fill="#FFFFFF" d="M491.5,627.7c-1.9,0-3.2-1-4-2.2v5.2H486v-13.5h1.5v2.1c0.8-1.2,2.1-2.3,4-2.3c2.5,0,4.9,2,4.9,5.4
					C496.4,625.7,494,627.7,491.5,627.7z M491.2,618.3c-1.9,0-3.7,1.6-3.7,4c0,2.4,1.8,4,3.7,4c2,0,3.6-1.5,3.6-4
					C494.9,619.9,493.2,618.3,491.2,618.3z"/>
				<path fill="#FFFFFF" d="M499.4,627.5v-14.6h1.5v14.6H499.4z"/>
				<path fill="#FFFFFF" d="M509.1,626.4c1.4,0,2.4-0.6,3.3-1.5l1,0.9c-1,1.2-2.3,1.9-4.3,1.9c-2.8,0-5.2-2.2-5.2-5.4
					c0-3,2.1-5.4,5-5.4c3.1,0,4.8,2.4,4.8,5.5c0,0.1,0,0.3,0,0.5h-8.2C505.7,625.1,507.3,626.4,509.1,626.4z M512.1,621.8
					c-0.2-1.9-1.2-3.5-3.3-3.5c-1.8,0-3.2,1.5-3.4,3.5H512.1z"/>
				<path fill="#FFFFFF" d="M518.5,624.6c0,1.3,0.7,1.7,1.7,1.7c0.5,0,1-0.1,1.5-0.4v1.3c-0.5,0.3-1.1,0.4-1.9,0.4
					c-1.7,0-2.9-0.8-2.9-2.9v-6.2h-1.4v-1.4h1.4V614h1.5v3.1h3.3v1.4h-3.3V624.6z"/>
				<path fill="#FFFFFF" d="M524.5,614.9v-1.7h1.8v1.7H524.5z M524.6,627.5v-10.3h1.5v10.3H524.6z"/>
				<path fill="#FFFFFF" d="M531.3,627.5h-1.5v-10.3h1.5v1.8c0.7-1.1,1.8-2,3.5-2c2.5,0,4,1.7,4,4.1v6.4h-1.5v-6
					c0-1.9-1-3.1-2.9-3.1c-1.8,0-3.1,1.3-3.1,3.2V627.5z"/>
				<path fill="#FFFFFF" d="M546.6,630.7c-1.7,0-3.3-0.5-4.7-1.4l0.7-1.2c1.2,0.9,2.5,1.3,4,1.3c2.3,0,3.8-1.3,3.8-3.7v-1.2
					c-0.9,1.2-2.2,2.2-4.1,2.2c-2.5,0-4.9-1.8-4.9-4.9c0-3,2.4-4.9,4.9-4.9c1.9,0,3.2,1,4,2.1v-1.9h1.5v8.5
					C551.9,629,549.8,630.7,546.6,630.7z M546.6,618.3c-2,0-3.6,1.3-3.6,3.5c0,2.1,1.7,3.5,3.6,3.5c2,0,3.8-1.4,3.8-3.5
					C550.4,619.7,548.6,618.3,546.6,618.3z"/>
				<path fill="#FFFFFF" d="M563.4,624.6c0,1.3,0.7,1.7,1.7,1.7c0.5,0,1-0.1,1.5-0.4v1.3c-0.5,0.3-1.1,0.4-1.9,0.4
					c-1.7,0-2.9-0.8-2.9-2.9v-6.2h-1.4v-1.4h1.4V614h1.5v3.1h3.3v1.4h-3.3V624.6z"/>
				<path fill="#FFFFFF" d="M570.9,627.5h-1.5v-14.6h1.5v6.1c0.7-1.1,1.8-2,3.5-2c2.5,0,4,1.7,4,4.1v6.4h-1.5v-6
					c0-1.9-1-3.1-2.9-3.1c-1.8,0-3.1,1.3-3.1,3.2V627.5z"/>
				<path fill="#FFFFFF" d="M586.3,626.4c1.4,0,2.4-0.6,3.3-1.5l1,0.9c-1,1.2-2.3,1.9-4.3,1.9c-2.8,0-5.2-2.2-5.2-5.4
					c0-3,2.1-5.4,5-5.4c3.1,0,4.8,2.4,4.8,5.5c0,0.1,0,0.3,0,0.5h-8.2C582.9,625.1,584.5,626.4,586.3,626.4z M589.3,621.8
					c-0.2-1.9-1.2-3.5-3.3-3.5c-1.8,0-3.2,1.5-3.4,3.5H589.3z"/>
				<path fill="#FFFFFF" d="M601.2,617.2v10.9c0,1.8-1,2.7-2.5,2.7c-0.4,0-0.6,0-1-0.1v-1.3c0.2,0,0.5,0.1,0.8,0.1
					c0.7,0,1.2-0.4,1.2-1.4v-10.9H601.2z M599.6,614.9v-1.7h1.8v1.7H599.6z"/>
				<path fill="#FFFFFF" d="M609.5,627.7c-3.1,0-5.4-2.4-5.4-5.4s2.3-5.4,5.4-5.4c3.1,0,5.4,2.4,5.4,5.4S612.7,627.7,609.5,627.7z
					 M609.5,618.3c-2.2,0-3.8,1.8-3.8,4c0,2.2,1.6,4,3.8,4c2.2,0,3.8-1.8,3.8-4C613.4,620.1,611.7,618.3,609.5,618.3z"/>
				<path fill="#FFFFFF" d="M623.2,627.7c-1.9,0-3.2-1-4-2.2v2h-1.5v-14.6h1.5v6.3c0.8-1.2,2.1-2.3,4-2.3c2.5,0,4.9,2,4.9,5.4
					C628.2,625.7,625.7,627.7,623.2,627.7z M623,618.3c-1.9,0-3.7,1.6-3.7,4c0,2.4,1.8,4,3.7,4c2,0,3.6-1.5,3.6-4
					C626.6,619.9,624.9,618.3,623,618.3z"/>
				<path fill="#FFFFFF" d="M631.4,627.5h-0.7v-2.1h1.8v1.8c0,1.6-0.7,2.4-2.2,2.7l-0.2-0.7C631,628.9,631.4,628.4,631.4,627.5z"/>
				<path fill="#FFFFFF" d="M642.3,619.1l-0.5-1.3c1.1-0.5,2.3-0.9,3.8-0.9c2.8,0,4.4,1.4,4.4,4.2v6.3h-1.5v-1.6
					c-0.7,0.9-1.9,1.8-3.7,1.8c-1.9,0-3.9-1.1-3.9-3.2c0-2.2,1.8-3.4,4.4-3.4c1.3,0,2.3,0.2,3.2,0.4v-0.4c0-1.9-1.1-2.8-3.1-2.8
					C644.2,618.4,643.3,618.7,642.3,619.1z M642.5,624.4c0,1.3,1.2,2.1,2.6,2.1c1.9,0,3.5-1.2,3.5-2.8v-1c-0.8-0.2-1.8-0.4-3-0.4
					C643.6,622.3,642.5,623.1,642.5,624.4z"/>
				<path fill="#FFFFFF" d="M654.8,627.5h-1.5v-10.3h1.5v1.8c0.7-1.1,1.8-2,3.5-2c2.5,0,4,1.7,4,4.1v6.4h-1.5v-6
					c0-1.9-1-3.1-2.9-3.1c-1.8,0-3.1,1.3-3.1,3.2V627.5z"/>
				<path fill="#FFFFFF" d="M673.9,627.5v-2.1c-0.8,1.2-2.1,2.3-4,2.3c-2.5,0-4.9-2-4.9-5.4c0-3.4,2.5-5.4,4.9-5.4
					c1.9,0,3.2,1,4,2.2v-6.2h1.5v14.6H673.9z M670.2,618.3c-2,0-3.6,1.5-3.6,4c0,2.5,1.7,4,3.6,4c1.9,0,3.7-1.6,3.7-4
					C674,619.9,672.2,618.3,670.2,618.3z"/>
				<path fill="#FFFFFF" d="M695.2,625.5l2.7-8.3h1.6l-3.6,10.4h-1.3l-2.8-8.2l-2.8,8.2h-1.4l-3.6-10.4h1.6l2.7,8.3l2.8-8.3h1.3
					L695.2,625.5z"/>
				<path fill="#FFFFFF" d="M706.3,627.7c-3.1,0-5.4-2.4-5.4-5.4s2.3-5.4,5.4-5.4c3.1,0,5.4,2.4,5.4,5.4S709.5,627.7,706.3,627.7z
					 M706.3,618.3c-2.2,0-3.8,1.8-3.8,4c0,2.2,1.6,4,3.8,4c2.2,0,3.8-1.8,3.8-4C710.2,620.1,708.5,618.3,706.3,618.3z"/>
				<path fill="#FFFFFF" d="M716.1,627.5h-1.5v-10.3h1.5v2.7c0.8-1.7,2.3-3,4.2-2.9v1.7h-0.1c-2.3,0-4.1,1.6-4.1,4.7V627.5z"/>
				<path fill="#FFFFFF" d="M731.8,627.5H730l-3.7-4.8l-2.1,2.1v2.7h-1.5v-14.6h1.5V623l5.6-5.8h1.9l-4.3,4.4L731.8,627.5z"/>
				<path fill="#FFFFFF" d="M248.9,651.7c-3.1,0-5.4-2.4-5.4-5.4s2.3-5.4,5.4-5.4c3.1,0,5.4,2.4,5.4,5.4S252.1,651.7,248.9,651.7z
					 M248.9,642.3c-2.2,0-3.8,1.8-3.8,4c0,2.2,1.6,4,3.8,4c2.2,0,3.8-1.8,3.8-4C252.8,644.1,251.1,642.3,248.9,642.3z"/>
				<path fill="#FFFFFF" d="M258.7,651.5h-1.5v-10.3h1.5v1.8c0.7-1.1,1.8-2,3.5-2c2.5,0,4,1.7,4,4.1v6.4h-1.5v-6
					c0-1.9-1-3.1-2.9-3.1c-1.8,0-3.1,1.3-3.1,3.2V651.5z"/>
				<path fill="#FFFFFF" d="M280.5,651.8c-0.9,2.1-1.9,2.9-3.4,2.9c-0.9,0-1.5-0.2-2.2-0.5l0.5-1.2c0.5,0.3,1,0.4,1.6,0.4
					c0.9,0,1.5-0.5,2.1-1.9l-4.7-10.3h1.7l3.8,8.6l3.3-8.6h1.6L280.5,651.8z"/>
				<path fill="#FFFFFF" d="M291.4,651.7c-3.1,0-5.4-2.4-5.4-5.4s2.3-5.4,5.4-5.4c3.1,0,5.4,2.4,5.4,5.4S294.5,651.7,291.4,651.7z
					 M291.4,642.3c-2.2,0-3.8,1.8-3.8,4c0,2.2,1.6,4,3.8,4c2.2,0,3.8-1.8,3.8-4C295.2,644.1,293.6,642.3,291.4,642.3z"/>
				<path fill="#FFFFFF" d="M306.9,641.2h1.5v10.3h-1.5v-1.8c-0.7,1.1-1.8,2-3.5,2c-2.5,0-4-1.7-4-4.1v-6.4h1.5v6
					c0,1.9,1,3.1,2.9,3.1c1.8,0,3.1-1.3,3.1-3.2V641.2z"/>
				<path fill="#FFFFFF" d="M313.5,651.5h-1.5v-10.3h1.5v2.7c0.8-1.7,2.3-3,4.2-2.9v1.7h-0.1c-2.3,0-4.1,1.6-4.1,4.7V651.5z"/>
				<path fill="#FFFFFF" d="M330.7,651.7c-3.1,0-5.4-2.4-5.4-5.4s2.3-5.4,5.4-5.4c3.1,0,5.4,2.4,5.4,5.4S333.9,651.7,330.7,651.7z
					 M330.7,642.3c-2.2,0-3.8,1.8-3.8,4c0,2.2,1.6,4,3.8,4c2.2,0,3.8-1.8,3.8-4C334.6,644.1,332.9,642.3,330.7,642.3z"/>
				<path fill="#FFFFFF" d="M348.8,649.5l2.7-8.3h1.6l-3.6,10.4h-1.3l-2.8-8.2l-2.8,8.2h-1.4l-3.6-10.4h1.6l2.7,8.3l2.8-8.3h1.3
					L348.8,649.5z"/>
				<path fill="#FFFFFF" d="M357.2,651.5h-1.5v-10.3h1.5v1.8c0.7-1.1,1.8-2,3.5-2c2.5,0,4,1.7,4,4.1v6.4h-1.5v-6
					c0-1.9-1-3.1-2.9-3.1c-1.8,0-3.1,1.3-3.1,3.2V651.5z"/>
				<path fill="#FFFFFF" d="M376.1,648.6c0,1.3,0.7,1.7,1.7,1.7c0.5,0,1-0.1,1.5-0.4v1.3c-0.5,0.3-1.1,0.4-1.9,0.4
					c-1.7,0-2.9-0.8-2.9-2.9v-6.2h-1.4v-1.4h1.4V638h1.5v3.1h3.3v1.4h-3.3V648.6z"/>
				<path fill="#FFFFFF" d="M382.1,638.9v-1.7h1.8v1.7H382.1z M382.2,651.5v-10.3h1.5v10.3H382.2z"/>
				<path fill="#FFFFFF" d="M399.2,640.9c2.4,0,3.8,1.6,3.8,4.2v6.4h-1.5v-6c0-2-1-3.1-2.7-3.1c-1.6,0-2.9,1.2-2.9,3.2v6h-1.5v-6.1
					c0-1.9-1-3.1-2.7-3.1c-1.6,0-2.9,1.4-2.9,3.3v5.9h-1.5v-10.3h1.5v1.7c0.7-1,1.6-2,3.3-2c1.7,0,2.8,0.9,3.3,2.1
					C396.3,641.9,397.4,640.9,399.2,640.9z"/>
				<path fill="#FFFFFF" d="M410.9,650.4c1.4,0,2.4-0.6,3.3-1.5l1,0.9c-1,1.2-2.3,1.9-4.3,1.9c-2.8,0-5.2-2.2-5.2-5.4
					c0-3,2.1-5.4,5-5.4c3.1,0,4.8,2.4,4.8,5.5c0,0.1,0,0.3,0,0.5h-8.2C407.5,649.1,409.1,650.4,410.9,650.4z M413.9,645.8
					c-0.2-1.9-1.2-3.5-3.3-3.5c-1.8,0-3.2,1.5-3.4,3.5H413.9z"/>
				<path fill="#FFFFFF" d="M417.8,651.5v-2.1h1.8v2.1H417.8z"/>
			</g>
			<g>
				<path fill="#21A0FF" d="M243.6,580.2l2.1-1.9c1.2,1.4,2.5,2.2,4.4,2.2c1.7,0,2.9-1,2.9-2.5v0c0-1.7-1.5-2.6-3.9-2.6h-1.4
					l-0.5-1.8l4.5-4.8h-7.3v-2.6h11.1v2.2l-4.7,4.8c2.5,0.3,4.9,1.6,4.9,4.7v0c0,3.1-2.4,5.3-5.9,5.3
					C247.1,583.2,245,582,243.6,580.2z"/>
				<path fill="#21A0FF" d="M259,579.6h3.2v3.3H259V579.6z"/>
				<path fill="#21A0FF" d="M273.2,566.1h12.5v2.6h-9.5v4.4h8.4v2.6h-8.4v4.5h9.6v2.6h-12.6V566.1z"/>
				<path fill="#21A0FF" d="M288.1,579.3L288.1,579.3c0-2.8,2.1-4.1,5.2-4.1c1.4,0,2.4,0.2,3.4,0.5v-0.3c0-1.8-1.1-2.8-3.1-2.8
					c-1.4,0-2.5,0.3-3.6,0.8l-0.8-2.3c1.4-0.6,2.8-1,4.8-1c1.9,0,3.3,0.5,4.2,1.4c0.9,0.9,1.4,2.3,1.4,3.9v7.5h-2.8v-1.6
					c-0.9,1-2.2,1.8-4.1,1.8C290.2,583.2,288.1,581.8,288.1,579.3z M296.8,578.3v-0.9c-0.7-0.3-1.7-0.5-2.9-0.5c-1.9,0-3,0.8-3,2.1
					v0c0,1.2,1.1,1.9,2.5,1.9C295.4,581.1,296.8,579.9,296.8,578.3z"/>
				<path fill="#21A0FF" d="M303,570.2h2.9v2.9c0.8-1.9,2.3-3.2,4.5-3.1v3.1h-0.2c-2.5,0-4.3,1.7-4.3,5v4.8H303V570.2z"/>
				<path fill="#21A0FF" d="M313,570.2h2.9v1.9c0.8-1.2,2-2.2,4-2.2c2.9,0,4.5,1.9,4.5,4.8v8.1h-2.9v-7.2c0-2-1-3.1-2.7-3.1
					c-1.7,0-2.9,1.2-2.9,3.1v7.2H313V570.2z"/>
			</g>
		</g>
	</g>
	<g>
		<path fill="#67A0D6" d="M236,49h2.1l4.8,14l4.6-14h1.6l4.6,14l4.8-14h2l-6,16.9h-1.6l-4.6-13.6l-4.6,13.6H242L236,49z"/>
		<path fill="#67A0D6" d="M261.2,59.7L261.2,59.7c0-3.6,2.7-6.5,6.5-6.5c3.7,0,6.5,2.9,6.5,6.4v0c0,3.5-2.8,6.5-6.5,6.5
			C263.9,66.1,261.2,63.2,261.2,59.7z M272.2,59.7L272.2,59.7c0-2.7-2-4.9-4.6-4.9c-2.7,0-4.5,2.2-4.5,4.8v0c0,2.7,2,4.8,4.6,4.8
			C270.4,64.4,272.2,62.3,272.2,59.7z"/>
		<path fill="#67A0D6" d="M277.4,53.4h1.8v3.2c0.9-2.1,2.7-3.6,5.1-3.5v2h-0.1c-2.7,0-4.9,1.9-4.9,5.7v4.9h-1.8V53.4z"/>
		<path fill="#67A0D6" d="M287.2,48.3h1.8v12.1l6.7-7h2.3l-5.2,5.3l5.4,7.1H296l-4.4-5.8l-2.5,2.5v3.2h-1.8V48.3z"/>
		<path fill="#67A0D6" d="M307,53.4h2l3.3,10l3.3-10h1.5l3.4,10l3.3-10h1.9l-4.4,12.5h-1.6l-3.3-9.8l-3.4,9.8h-1.6L307,53.4z"/>
		<path fill="#67A0D6" d="M328.8,48.6h2.1v2h-2.1V48.6z M328.9,53.4h1.8v12.4h-1.8V53.4z"/>
		<path fill="#67A0D6" d="M335.7,62.5V55h-1.7v-1.6h1.7v-3.7h1.8v3.7h3.9V55h-3.9v7.2c0,1.5,0.8,2.1,2.1,2.1c0.6,0,1.2-0.1,1.8-0.4
			v1.6c-0.6,0.3-1.3,0.5-2.2,0.5C337.2,66,335.7,65,335.7,62.5z"/>
		<path fill="#67A0D6" d="M344.7,48.3h1.8v7.3c0.8-1.3,2.1-2.4,4.2-2.4c3,0,4.8,2,4.8,5v7.7h-1.8v-7.2c0-2.3-1.2-3.7-3.4-3.7
			c-2.1,0-3.7,1.6-3.7,3.9v7.1h-1.8V48.3z"/>
		<path fill="#67A0D6" d="M359.5,48.6h2.1v2h-2.1V48.6z M359.7,53.4h1.8v12.4h-1.8V53.4z"/>
		<path fill="#67A0D6" d="M365.8,53.4h1.8v2.2c0.8-1.3,2.1-2.4,4.2-2.4c3,0,4.8,2,4.8,5v7.7h-1.8v-7.2c0-2.3-1.2-3.7-3.4-3.7
			c-2.1,0-3.7,1.6-3.7,3.9v7.1h-1.8V53.4z"/>
		<path fill="#67A0D6" d="M397.1,53.4h2l-5.2,12.8c-1.1,2.6-2.3,3.5-4.1,3.5c-1,0-1.8-0.2-2.6-0.6l0.6-1.5c0.6,0.3,1.2,0.5,1.9,0.5
			c1.1,0,1.8-0.6,2.5-2.3l-5.6-12.4h2l4.5,10.3L397.1,53.4z"/>
		<path fill="#67A0D6" d="M400.5,59.7L400.5,59.7c0-3.6,2.7-6.5,6.5-6.5c3.7,0,6.5,2.9,6.5,6.4v0c0,3.5-2.8,6.5-6.5,6.5
			C403.2,66.1,400.5,63.2,400.5,59.7z M411.5,59.7L411.5,59.7c0-2.7-2-4.9-4.6-4.9c-2.7,0-4.5,2.2-4.5,4.8v0c0,2.7,2,4.8,4.6,4.8
			C409.6,64.4,411.5,62.3,411.5,59.7z"/>
		<path fill="#67A0D6" d="M416.6,61.1v-7.7h1.8v7.2c0,2.3,1.2,3.7,3.4,3.7c2.1,0,3.7-1.6,3.7-3.9v-7.1h1.8v12.4h-1.8v-2.2
			c-0.8,1.3-2.1,2.4-4.2,2.4C418.3,66.1,416.6,64,416.6,61.1z"/>
		<path fill="#67A0D6" d="M431.5,53.4h1.8v3.2c0.9-2.1,2.7-3.6,5.1-3.5v2h-0.1c-2.7,0-4.9,1.9-4.9,5.7v4.9h-1.8V53.4z"/>
		<path fill="#67A0D6" d="M447.7,59.7L447.7,59.7c0-3.6,2.7-6.5,6.5-6.5c3.7,0,6.5,2.9,6.5,6.4v0c0,3.5-2.8,6.5-6.5,6.5
			C450.4,66.1,447.7,63.2,447.7,59.7z M458.7,59.7L458.7,59.7c0-2.7-2-4.9-4.6-4.9c-2.7,0-4.5,2.2-4.5,4.8v0c0,2.7,2,4.8,4.6,4.8
			C456.9,64.4,458.7,62.3,458.7,59.7z"/>
		<path fill="#67A0D6" d="M462.3,53.4h2l3.3,10l3.3-10h1.5l3.4,10l3.3-10h1.9l-4.4,12.5H475l-3.3-9.8l-3.4,9.8h-1.6L462.3,53.4z"/>
		<path fill="#67A0D6" d="M484,53.4h1.8v2.2c0.8-1.3,2.1-2.4,4.2-2.4c3,0,4.8,2,4.8,5v7.7H493v-7.2c0-2.3-1.2-3.7-3.4-3.7
			c-2.1,0-3.7,1.6-3.7,3.9v7.1H484V53.4z"/>
		<path fill="#67A0D6" d="M505,64.2l0.9-1.3c1.3,1,2.8,1.6,4.3,1.6c1.5,0,2.6-0.8,2.6-2v0c0-1.2-1.5-1.7-3.1-2.2
			c-1.9-0.6-4.1-1.2-4.1-3.5v0c0-2.1,1.8-3.6,4.2-3.6c1.5,0,3.2,0.5,4.5,1.4l-0.8,1.4c-1.2-0.7-2.5-1.2-3.7-1.2
			c-1.5,0-2.4,0.8-2.4,1.8v0c0,1.2,1.5,1.6,3.2,2.1c1.9,0.6,4,1.3,4,3.6v0c0,2.4-1.9,3.7-4.4,3.7C508.3,66,506.4,65.3,505,64.2z"/>
		<path fill="#67A0D6" d="M517.2,59.7L517.2,59.7c0-3.6,2.7-6.5,6.4-6.5c2.4,0,3.8,1,5,2.2l-1.2,1.3c-1-1-2.1-1.9-3.8-1.9
			c-2.5,0-4.4,2.1-4.4,4.8v0c0,2.7,2,4.8,4.6,4.8c1.6,0,2.8-0.8,3.8-1.8l1.2,1.1c-1.2,1.4-2.7,2.4-5.1,2.4
			C519.9,66.1,517.2,63.1,517.2,59.7z"/>
		<path fill="#67A0D6" d="M531.7,48.3h1.8v7.3c0.8-1.3,2.1-2.4,4.2-2.4c3,0,4.8,2,4.8,5v7.7h-1.8v-7.2c0-2.3-1.2-3.7-3.4-3.7
			c-2.1,0-3.7,1.6-3.7,3.9v7.1h-1.8V48.3z"/>
		<path fill="#67A0D6" d="M545.7,59.6L545.7,59.6c0-3.6,2.5-6.5,6-6.5c3.7,0,5.8,2.9,5.8,6.6c0,0.2,0,0.4,0,0.6h-9.8
			c0.3,2.7,2.2,4.2,4.4,4.2c1.7,0,2.9-0.7,3.9-1.8l1.2,1c-1.2,1.4-2.8,2.3-5.1,2.3C548.5,66.1,545.7,63.5,545.7,59.6z M555.6,58.9
			c-0.2-2.3-1.5-4.2-4-4.2c-2.2,0-3.8,1.8-4,4.2H555.6z"/>
		<path fill="#67A0D6" d="M560,59.6L560,59.6c0-4.1,3-6.5,5.9-6.5c2.3,0,3.8,1.2,4.8,2.6v-7.5h1.8v17.5h-1.8v-2.5
			c-1,1.5-2.5,2.8-4.8,2.8C562.9,66.1,560,63.7,560,59.6z M570.7,59.6L570.7,59.6c0-2.9-2.2-4.8-4.5-4.8c-2.4,0-4.4,1.8-4.4,4.8v0
			c0,2.9,2,4.8,4.4,4.8C568.5,64.4,570.7,62.5,570.7,59.6z"/>
		<path fill="#67A0D6" d="M576.4,61.1v-7.7h1.8v7.2c0,2.3,1.2,3.7,3.4,3.7c2.1,0,3.7-1.6,3.7-3.9v-7.1h1.8v12.4h-1.8v-2.2
			c-0.8,1.3-2.1,2.4-4.2,2.4C578.2,66.1,576.4,64,576.4,61.1z"/>
		<path fill="#67A0D6" d="M591.6,48.3h1.8v17.5h-1.8V48.3z"/>
		<path fill="#67A0D6" d="M596.9,59.6L596.9,59.6c0-3.6,2.5-6.5,6-6.5c3.7,0,5.8,2.9,5.8,6.6c0,0.2,0,0.4,0,0.6h-9.8
			c0.3,2.7,2.2,4.2,4.4,4.2c1.7,0,2.9-0.7,3.9-1.8l1.2,1c-1.2,1.4-2.8,2.3-5.1,2.3C599.7,66.1,596.9,63.5,596.9,59.6z M606.8,58.9
			c-0.2-2.3-1.5-4.2-4-4.2c-2.2,0-3.8,1.8-4,4.2H606.8z"/>
	</g>
	<g>
		<g>
			<path fill="#21A0FF" d="M62.5,474.9C28.6,474.9,1,447.3,1,413.4s27.6-61.5,61.5-61.5s61.5,27.6,61.5,61.5S96.4,474.9,62.5,474.9z
				 M62.5,354.9C30.2,354.9,4,381.1,4,413.4s26.2,58.5,58.5,58.5s58.5-26.2,58.5-58.5S94.8,354.9,62.5,354.9z"/>
		</g>
		<g>
			<g>
				<g>
					<g id="XMLID_6_">
						<g>
							<path fill="#21A0FF" d="M99.4,434.4H65.6c1-9.3,4.6-16.9,9.4-20.8c2.1,1.4,4.6,2.3,7.4,2.3c2.7,0,5.3-0.9,7.4-2.3
								C94.8,417.6,98.4,425.2,99.4,434.4z"/>
							<path fill="#21A0FF" d="M82.5,392.5c5.6,0,10.2,4.6,10.2,10.2c0,5.6-4.6,10.2-10.2,10.2c-5.6,0-10.3-4.6-10.3-10.2
								C72.2,397.1,76.8,392.5,82.5,392.5z"/>
						</g>
					</g>
				</g>
				<g>
					<g id="XMLID_5_">
						<g>
							<path fill="#21A0FF" d="M59.4,434.3H25.7c1-9.3,4.6-16.9,9.4-20.8c2.1,1.4,4.6,2.3,7.4,2.3c2.7,0,5.3-0.9,7.4-2.3
								C54.8,417.4,58.4,425,59.4,434.3z"/>
							<path fill="#21A0FF" d="M42.6,392.4c5.6,0,10.2,4.6,10.2,10.2c0,5.6-4.6,10.2-10.2,10.2c-5.6,0-10.3-4.6-10.3-10.2
								C32.3,397,36.9,392.4,42.6,392.4z"/>
						</g>
					</g>
				</g>
				<g>
					<path fill="#21A0FF" d="M70.9,414.5H54.1c-0.6,0-1-0.4-1-1s0.4-1,1-1h16.8c0.6,0,1,0.4,1,1S71.4,414.5,70.9,414.5z"/>
				</g>
			</g>
			<g>
				<g>
					<path fill="#21A0FF" d="M62.5,280.9C28.6,280.9,1,253.3,1,219.4s27.6-61.5,61.5-61.5s61.5,27.6,61.5,61.5
						S96.4,280.9,62.5,280.9z M62.5,160.9C30.3,160.9,4,187.1,4,219.4s26.2,58.5,58.5,58.5s58.5-26.2,58.5-58.5
						S94.8,160.9,62.5,160.9z"/>
				</g>
				<g>
					<g>
						<path fill="#21A0FF" d="M82.7,235.9l-12.6-12.6c1.8-2.6,2.9-5.7,2.9-9.1c0-8.7-7-15.7-15.7-15.7s-15.7,7-15.7,15.7
							c0,8.7,7,15.7,15.7,15.7c3.4,0,6.5-1.1,9.1-2.9L79,239.6c1,1,2.7,1,3.7,0C83.7,238.6,83.7,236.9,82.7,235.9z M66.3,219.5
							c-0.9,1.5-2.2,2.8-3.7,3.7c-1.6,0.9-3.4,1.5-5.3,1.5c-5.8,0-10.5-4.7-10.5-10.5c0-5.8,4.7-10.5,10.5-10.5s10.5,4.7,10.5,10.5
							C67.8,216.1,67.2,217.9,66.3,219.5z"/>
					</g>
				</g>
			</g>
			<g>
				<g>
					<path fill="#21A0FF" d="M62.5,668.9C28.6,668.9,1,641.3,1,607.4s27.6-61.5,61.5-61.5s61.5,27.6,61.5,61.5
						S96.4,668.9,62.5,668.9z M62.5,548.9C30.2,548.9,4,575.1,4,607.4s26.2,58.5,58.5,58.5s58.5-26.2,58.5-58.5
						S94.8,548.9,62.5,548.9z"/>
				</g>
				<g>
					<g>
						<path fill="#21A0FF" d="M62.5,622.4c-5.6,0-11.5-1.2-14.9-3.7c0,0,0,0.1,0,0.1c0,0.6,0,2.9,0,3.6c0,3.3,6.7,5.9,15,5.9
							c8.3,0,15-2.7,15-5.9c0-0.6,0-2.9,0-3.6c0,0,0-0.1,0-0.1C74,621.2,68.1,622.4,62.5,622.4z"/>
					</g>
					<g>
						<path fill="#21A0FF" d="M62.5,613.5c-5.6,0-11.5-1.2-14.9-3.7c0,0,0,0.1,0,0.1c0,0.6,0,2.9,0,3.6c0,3.3,6.7,5.9,15,5.9
							c8.3,0,15-2.7,15-5.9c0-0.6,0-2.9,0-3.6c0,0,0-0.1,0-0.1C74,612.3,68.1,613.5,62.5,613.5z"/>
					</g>
					<g>
						<path fill="#21A0FF" d="M47.5,601.2c0,0.8,0,2.8,0,3.4c0,3.3,6.7,5.9,15,5.9c8.3,0,15-2.7,15-5.9c0-0.6,0-2.7,0-3.4
							c-3.4,2.5-9.3,3.7-15,3.7C56.9,604.9,51,603.7,47.5,601.2z"/>
					</g>
					<g>
						<path fill="#21A0FF" d="M62.5,586.4c-8.3,0-15,2.7-15,5.9c0,0.6,0,2.9,0,3.6c0,3.3,6.7,5.9,15,5.9c8.3,0,15-2.7,15-5.9
							c0-0.6,0-2.9,0-3.6C77.5,589.1,70.8,586.4,62.5,586.4z"/>
					</g>
				</g>
			</g>
			<g>
				<g>
					<path fill="#21A0FF" d="M62.5,280.9c-0.4,0-0.8-0.2-1.1-0.4c-0.3-0.3-0.4-0.7-0.4-1.1c0-0.4,0.2-0.8,0.4-1.1
						c0.6-0.6,1.6-0.6,2.1,0c0.3,0.3,0.4,0.7,0.4,1.1c0,0.4-0.2,0.8-0.4,1.1C63.3,280.7,62.9,280.9,62.5,280.9z"/>
				</g>
				<g>
					<path fill="#21A0FF" d="M61,347.2c0-0.8,0.7-1.5,1.5-1.5l0,0c0.8,0,1.5,0.7,1.5,1.5l0,0c0,0.8-0.7,1.5-1.5,1.5l0,0
						C61.7,348.7,61,348.1,61,347.2z M61,341.1c0-0.8,0.7-1.5,1.5-1.5l0,0c0.8,0,1.5,0.7,1.5,1.5l0,0c0,0.8-0.7,1.5-1.5,1.5l0,0
						C61.7,342.6,61,341.9,61,341.1z M61,334.9c0-0.8,0.7-1.5,1.5-1.5l0,0c0.8,0,1.5,0.7,1.5,1.5l0,0c0,0.8-0.7,1.5-1.5,1.5l0,0
						C61.7,336.4,61,335.7,61,334.9z M61,328.7c0-0.8,0.7-1.5,1.5-1.5l0,0c0.8,0,1.5,0.7,1.5,1.5l0,0c0,0.8-0.7,1.5-1.5,1.5l0,0
						C61.7,330.2,61,329.6,61,328.7z M62.5,324.1c-0.8,0-1.5-0.7-1.5-1.5l0,0c0-0.8,0.7-1.5,1.5-1.5l0,0c0.8,0,1.5,0.7,1.5,1.5l0,0
						C64,323.4,63.3,324.1,62.5,324.1L62.5,324.1L62.5,324.1z M61,316.4c0-0.8,0.7-1.5,1.5-1.5l0,0c0.8,0,1.5,0.7,1.5,1.5l0,0
						c0,0.8-0.7,1.5-1.5,1.5l0,0C61.7,317.9,61,317.2,61,316.4z M62.5,311.7c-0.8,0-1.5-0.7-1.5-1.5l0,0c0-0.8,0.7-1.5,1.5-1.5l0,0
						c0.8,0,1.5,0.7,1.5,1.5l0,0C64,311.1,63.3,311.7,62.5,311.7L62.5,311.7C62.5,311.7,62.5,311.7,62.5,311.7z M61,304.1
						c0-0.8,0.7-1.5,1.5-1.5l0,0c0.8,0,1.5,0.7,1.5,1.5l0,0c0,0.8-0.7,1.5-1.5,1.5l0,0C61.7,305.6,61,304.9,61,304.1z M61,297.9
						c0-0.8,0.7-1.5,1.5-1.5l0,0c0.8,0,1.5,0.7,1.5,1.5l0,0c0,0.8-0.7,1.5-1.5,1.5l0,0C61.7,299.4,61,298.7,61,297.9z M61,291.7
						c0-0.8,0.7-1.5,1.5-1.5l0,0c0.8,0,1.5,0.7,1.5,1.5l0,0c0,0.8-0.7,1.5-1.5,1.5l0,0C61.7,293.2,61,292.6,61,291.7z M61,285.6
						c0-0.8,0.7-1.5,1.5-1.5l0,0c0.8,0,1.5,0.7,1.5,1.5l0,0c0,0.8-0.7,1.5-1.5,1.5l0,0C61.7,287.1,61,286.4,61,285.6z"/>
				</g>
				<g>
					<path fill="#21A0FF" d="M62.5,354.9c-0.4,0-0.8-0.2-1.1-0.4c-0.3-0.3-0.4-0.7-0.4-1.1c0-0.4,0.2-0.8,0.4-1.1
						c0.6-0.6,1.6-0.6,2.1,0c0.3,0.3,0.4,0.7,0.4,1.1c0,0.4-0.2,0.8-0.4,1.1C63.3,354.7,62.9,354.9,62.5,354.9z"/>
				</g>
			</g>
			<g>
				<g>
					<path fill="#21A0FF" d="M62.5,474.9c-0.4,0-0.8-0.2-1.1-0.4c-0.3-0.3-0.4-0.7-0.4-1.1c0-0.4,0.2-0.8,0.4-1.1
						c0.6-0.6,1.6-0.6,2.1,0c0.3,0.3,0.4,0.7,0.4,1.1c0,0.4-0.2,0.8-0.4,1.1C63.3,474.7,62.9,474.9,62.5,474.9z"/>
				</g>
				<g>
					<path fill="#21A0FF" d="M61,541.2c0-0.8,0.7-1.5,1.5-1.5l0,0c0.8,0,1.5,0.7,1.5,1.5l0,0c0,0.8-0.7,1.5-1.5,1.5l0,0
						C61.7,542.7,61,542.1,61,541.2z M61,535.1c0-0.8,0.7-1.5,1.5-1.5l0,0c0.8,0,1.5,0.7,1.5,1.5l0,0c0,0.8-0.7,1.5-1.5,1.5l0,0
						C61.7,536.6,61,535.9,61,535.1z M62.5,530.4c-0.8,0-1.5-0.7-1.5-1.5l0,0c0-0.8,0.7-1.5,1.5-1.5l0,0c0.8,0,1.5,0.7,1.5,1.5l0,0
						C64,529.7,63.3,530.4,62.5,530.4L62.5,530.4L62.5,530.4z M61,522.7c0-0.8,0.7-1.5,1.5-1.5l0,0c0.8,0,1.5,0.7,1.5,1.5l0,0
						c0,0.8-0.7,1.5-1.5,1.5l0,0C61.7,524.2,61,523.6,61,522.7z M61,516.6c0-0.8,0.7-1.5,1.5-1.5l0,0c0.8,0,1.5,0.7,1.5,1.5l0,0
						c0,0.8-0.7,1.5-1.5,1.5l0,0C61.7,518.1,61,517.4,61,516.6z M61,510.4c0-0.8,0.7-1.5,1.5-1.5l0,0c0.8,0,1.5,0.7,1.5,1.5l0,0
						c0,0.8-0.7,1.5-1.5,1.5l0,0C61.7,511.9,61,511.2,61,510.4z M61,504.2c0-0.8,0.7-1.5,1.5-1.5l0,0c0.8,0,1.5,0.7,1.5,1.5l0,0
						c0,0.8-0.7,1.5-1.5,1.5l0,0C61.7,505.7,61,505.1,61,504.2z M62.5,499.6c-0.8,0-1.5-0.7-1.5-1.5l0,0c0-0.8,0.7-1.5,1.5-1.5l0,0
						c0.8,0,1.5,0.7,1.5,1.5l0,0C64,498.9,63.3,499.6,62.5,499.6L62.5,499.6C62.5,499.6,62.5,499.6,62.5,499.6z M61,491.9
						c0-0.8,0.7-1.5,1.5-1.5l0,0c0.8,0,1.5,0.7,1.5,1.5l0,0c0,0.8-0.7,1.5-1.5,1.5l0,0C61.7,493.4,61,492.7,61,491.9z M62.5,487.2
						c-0.8,0-1.5-0.7-1.5-1.5l0,0c0-0.8,0.7-1.5,1.5-1.5l0,0c0.8,0,1.5,0.7,1.5,1.5l0,0C64,486.6,63.3,487.2,62.5,487.2L62.5,487.2
						C62.5,487.2,62.5,487.2,62.5,487.2z M61,479.6c0-0.8,0.7-1.5,1.5-1.5l0,0c0.8,0,1.5,0.7,1.5,1.5l0,0c0,0.8-0.7,1.5-1.5,1.5l0,0
						C61.7,481.1,61,480.4,61,479.6z"/>
				</g>
				<g>
					<path fill="#21A0FF" d="M62.5,548.9c-0.4,0-0.8-0.2-1.1-0.4c-0.3-0.3-0.4-0.7-0.4-1.1c0-0.4,0.2-0.8,0.4-1.1
						c0.6-0.6,1.6-0.6,2.1,0c0.3,0.3,0.4,0.7,0.4,1.1c0,0.4-0.2,0.8-0.4,1.1C63.3,548.7,62.9,548.9,62.5,548.9z"/>
				</g>
			</g>
		</g>
	</g>
</g>
</svg>
