<svg xmlns="http://www.w3.org/2000/svg" viewBox="0 0 758 513" enable-background="new 0 0 758 513"><g fill="#fff"><path d="M254.6 70h-8.5v4.8h7.6v1.4h-7.6v4.9h8.6v1.4h-10.2v-14h10.1V70zM258.2 74.2l-.5-1.3c1.1-.5 2.3-.9 3.8-.9 2.8 0 4.4 1.4 4.4 4.2v6.3h-1.5V81c-.7.9-1.9 1.8-3.7 1.8-1.9 0-3.9-1.1-3.9-3.2 0-2.2 1.8-3.4 4.4-3.4 1.3 0 2.3.2 3.2.4v-.4c0-1.9-1.1-2.8-3.1-2.8-1.2.1-2.1.4-3.1.8zm.2 5.3c0 1.3 1.2 2.1 2.6 2.1 1.9 0 3.5-1.2 3.5-2.8v-1c-.8-.2-1.8-.4-3-.4-2 0-3.1.8-3.1 2.1zM272.6 82.8c-1.5 0-3.1-.6-4.3-1.5l.8-1.1c1.1.8 2.4 1.3 3.6 1.3 1.2 0 2.1-.6 2.1-1.6s-1.2-1.4-2.6-1.8c-1.6-.5-3.4-1-3.4-2.9 0-1.8 1.5-3 3.5-3 1.3 0 2.7.4 3.7 1.1l-.7 1.2c-1-.6-2.1-1-3.1-1-1.2 0-2 .6-2 1.5 0 1 1.3 1.4 2.7 1.8 1.6.5 3.3 1.1 3.3 3 .1 1.9-1.5 3-3.6 3zM279.2 70v-1.7h1.8V70h-1.8zm.1 12.6V72.3h1.5v10.3h-1.5zM284.6 82.6V68h1.5v14.6h-1.5zM294.7 82.9c-.9 2.1-1.9 2.9-3.4 2.9-.9 0-1.5-.2-2.2-.5l.5-1.2c.5.3 1 .4 1.6.4.9 0 1.5-.5 2.1-1.9l-4.7-10.3h1.7l3.8 8.6 3.3-8.6h1.6l-4.3 10.6zM307.6 82.6V68h1.5v14.6h-1.5zM312.8 70v-1.7h1.8V70h-1.8zm.1 12.6V72.3h1.5v10.3h-1.5zM321.4 82.8c-1.5 0-3.1-.6-4.3-1.5l.8-1.1c1.1.8 2.4 1.3 3.6 1.3 1.2 0 2.1-.6 2.1-1.6s-1.2-1.4-2.6-1.8c-1.6-.5-3.4-1-3.4-2.9 0-1.8 1.5-3 3.5-3 1.3 0 2.7.4 3.7 1.1l-.7 1.2c-1-.6-2.1-1-3.1-1-1.2 0-2 .6-2 1.5 0 1 1.3 1.4 2.7 1.8 1.6.5 3.3 1.1 3.3 3 .1 1.9-1.5 3-3.6 3zM329.9 79.7c0 1.3.7 1.7 1.7 1.7.5 0 1-.1 1.5-.4v1.3c-.5.3-1.1.4-1.9.4-1.7 0-2.9-.8-2.9-2.9v-6.2h-1.4v-1.4h1.4v-3.1h1.5v3.1h3.3v1.4h-3.3v6.1zM342.5 74.2L342 73c1.1-.5 2.3-.9 3.8-.9 2.8 0 4.4 1.4 4.4 4.2v6.3h-1.5V81c-.7.9-1.9 1.8-3.7 1.8-1.9 0-3.9-1.1-3.9-3.2 0-2.2 1.8-3.4 4.4-3.4 1.3 0 2.3.2 3.2.4v-.4c0-1.9-1.1-2.8-3.1-2.8-1.2.1-2.2.4-3.1.8zm.1 5.3c0 1.3 1.2 2.1 2.6 2.1 1.9 0 3.5-1.2 3.5-2.8v-1c-.8-.2-1.8-.4-3-.4-2 0-3.1.8-3.1 2.1zM361.5 79.7c0 1.3.7 1.7 1.7 1.7.5 0 1-.1 1.5-.4v1.3c-.5.3-1.1.4-1.9.4-1.7 0-2.9-.8-2.9-2.9v-6.2h-1.4v-1.4h1.4v-3.1h1.5v3.1h3.3v1.4h-3.3v6.1zM368.1 74.2l-.5-1.3c1.1-.5 2.3-.9 3.8-.9 2.8 0 4.4 1.4 4.4 4.2v6.3h-1.5V81c-.7.9-1.9 1.8-3.7 1.8-1.9 0-3.9-1.1-3.9-3.2 0-2.2 1.8-3.4 4.4-3.4 1.3 0 2.3.2 3.2.4v-.4c0-1.9-1.1-2.8-3.1-2.8-1.2.1-2.1.4-3.1.8zm.2 5.3c0 1.3 1.2 2.1 2.6 2.1 1.9 0 3.5-1.2 3.5-2.8v-1c-.8-.2-1.8-.4-3-.4-2 0-3.1.8-3.1 2.1zM382.5 82.8c-1.5 0-3.1-.6-4.3-1.5l.8-1.1c1.1.8 2.4 1.3 3.6 1.3 1.2 0 2.1-.6 2.1-1.6s-1.2-1.4-2.6-1.8c-1.6-.5-3.4-1-3.4-2.9 0-1.8 1.5-3 3.5-3 1.3 0 2.7.4 3.7 1.1l-.7 1.2c-1-.6-2.1-1-3.1-1-1.2 0-2 .6-2 1.5 0 1 1.3 1.4 2.7 1.8 1.6.5 3.3 1.1 3.3 3 .1 1.9-1.5 3-3.6 3zM398.2 82.6h-1.8l-3.7-4.8-2.1 2.1v2.7h-1.5V68h1.5v10.1l5.6-5.8h1.9l-4.3 4.4 4.4 5.9zM411.5 82.9c-.9 2.1-1.9 2.9-3.4 2.9-.9 0-1.5-.2-2.2-.5l.5-1.2c.5.3 1 .4 1.6.4.9 0 1.5-.5 2.1-1.9l-4.7-10.3h1.7l3.8 8.6 3.3-8.6h1.6l-4.3 10.6zM422.4 82.8c-3.1 0-5.4-2.4-5.4-5.4s2.3-5.4 5.4-5.4c3.1 0 5.4 2.4 5.4 5.4 0 3-2.3 5.4-5.4 5.4zm0-9.4c-2.2 0-3.8 1.8-3.8 4s1.6 4 3.8 4c2.2 0 3.8-1.8 3.8-4s-1.6-4-3.8-4zM437.9 72.3h1.5v10.3h-1.5v-1.8c-.7 1.1-1.8 2-3.5 2-2.5 0-4-1.7-4-4.1v-6.4h1.5v6c0 1.9 1 3.1 2.9 3.1 1.8 0 3.1-1.3 3.1-3.2v-5.9zM450.4 82.6h-1.5V72.3h1.5v1.8c.7-1.1 1.8-2 3.5-2 2.5 0 4 1.7 4 4.1v6.4h-1.5v-6c0-1.9-1-3.1-2.9-3.1-1.8 0-3.1 1.3-3.1 3.2v5.9zM465.8 81.5c1.4 0 2.4-.6 3.3-1.5l1 .9c-1 1.2-2.3 1.9-4.3 1.9-2.8 0-5.2-2.2-5.2-5.4 0-3 2.1-5.4 5-5.4 3.1 0 4.8 2.4 4.8 5.5 0 .1 0 .3 0 .5h-8.2c.2 2.2 1.8 3.5 3.6 3.5zm3-4.6c-.2-1.9-1.2-3.5-3.3-3.5-1.8 0-3.2 1.5-3.4 3.5h6.7zM477.6 81.5c1.4 0 2.4-.6 3.3-1.5l1 .9c-1 1.2-2.3 1.9-4.3 1.9-2.8 0-5.2-2.2-5.2-5.4 0-3 2.1-5.4 5-5.4 3.1 0 4.8 2.4 4.8 5.5 0 .1 0 .3 0 .5H474c.2 2.2 1.8 3.5 3.6 3.5zm3-4.6c-.2-1.9-1.2-3.5-3.3-3.5-1.8 0-3.2 1.5-3.4 3.5h6.7zM493.2 82.6v-2.1c-.8 1.2-2.1 2.3-4 2.3-2.5 0-4.9-2-4.9-5.4 0-3.4 2.5-5.4 4.9-5.4 1.9 0 3.2 1 4 2.2V68h1.5v14.6h-1.5zm-3.7-9.2c-2 0-3.6 1.5-3.6 4s1.7 4 3.6 4c1.9 0 3.7-1.6 3.7-4 .1-2.4-1.8-4-3.7-4zM508.8 82.8c-3 0-5.3-2.5-5.3-5.4 0-2.9 2.3-5.4 5.3-5.4 2 0 3.2.8 4.1 1.8l-1 1.1c-.8-.9-1.7-1.6-3.1-1.6-2.1 0-3.7 1.8-3.7 4 0 2.3 1.6 4 3.8 4 1.3 0 2.3-.7 3.2-1.5l1 .9c-1.1 1.3-2.3 2.1-4.3 2.1zM520 82.8c-3.1 0-5.4-2.4-5.4-5.4s2.3-5.4 5.4-5.4c3.1 0 5.4 2.4 5.4 5.4 0 3-2.3 5.4-5.4 5.4zm0-9.4c-2.2 0-3.8 1.8-3.8 4s1.6 4 3.8 4c2.2 0 3.8-1.8 3.8-4 .1-2.2-1.6-4-3.8-4zM540.1 72c2.4 0 3.8 1.6 3.8 4.2v6.4h-1.5v-6c0-2-1-3.1-2.7-3.1-1.6 0-2.9 1.2-2.9 3.2v6h-1.5v-6.1c0-1.9-1-3.1-2.7-3.1-1.6 0-2.9 1.4-2.9 3.3v5.9h-1.5V72.3h1.5V74c.7-1 1.6-2 3.3-2 1.7 0 2.8.9 3.3 2.1.9-1.1 2-2.1 3.8-2.1zM552.7 82.8c-1.9 0-3.2-1-4-2.2v5.2h-1.5V72.3h1.5v2.1c.8-1.2 2.1-2.3 4-2.3 2.5 0 4.9 2 4.9 5.4.1 3.3-2.4 5.3-4.9 5.3zm-.2-9.4c-1.9 0-3.7 1.6-3.7 4s1.8 4 3.7 4c2 0 3.6-1.5 3.6-4 0-2.4-1.7-4-3.6-4zM560.7 82.6V68h1.5v14.6h-1.5zM570.3 81.5c1.4 0 2.4-.6 3.3-1.5l1 .9c-1 1.2-2.3 1.9-4.3 1.9-2.8 0-5.2-2.2-5.2-5.4 0-3 2.1-5.4 5-5.4 3.1 0 4.8 2.4 4.8 5.5 0 .1 0 .3 0 .5h-8.2c.2 2.2 1.8 3.5 3.6 3.5zm3.1-4.6c-.2-1.9-1.2-3.5-3.3-3.5-1.8 0-3.2 1.5-3.4 3.5h6.7zM579.7 79.7c0 1.3.7 1.7 1.7 1.7.5 0 1-.1 1.5-.4v1.3c-.5.3-1.1.4-1.9.4-1.7 0-2.9-.8-2.9-2.9v-6.2h-1.4v-1.4h1.4v-3.1h1.5v3.1h3.3v1.4h-3.3v6.1zM590 81.5c1.4 0 2.4-.6 3.3-1.5l1 .9c-1 1.2-2.3 1.9-4.3 1.9-2.8 0-5.2-2.2-5.2-5.4 0-3 2.1-5.4 5-5.4 3.1 0 4.8 2.4 4.8 5.5 0 .1 0 .3 0 .5h-8.2c.1 2.2 1.7 3.5 3.6 3.5zm3-4.6c-.2-1.9-1.2-3.5-3.3-3.5-1.8 0-3.2 1.5-3.4 3.5h6.7zM605.5 82.6v-2.1c-.8 1.2-2.1 2.3-4 2.3-2.5 0-4.9-2-4.9-5.4 0-3.4 2.5-5.4 4.9-5.4 1.9 0 3.2 1 4 2.2V68h1.5v14.6h-1.5zm-3.6-9.2c-2 0-3.6 1.5-3.6 4s1.7 4 3.6 4c1.9 0 3.7-1.6 3.7-4s-1.8-4-3.7-4zM610.3 82.6v-2.1h1.8v2.1h-1.8z"/></g><g fill="#0160BA"><path d="M246.8 24.1l-3 .8-.6-2.4 4.5-1.4h2V38h-2.9V24.1zM253.7 34.7h3.2V38h-3.2v-3.3zM267.9 21.2h3v14.1h8.8V38h-11.8V21.2zM282.4 20.6h3.1v2.8h-3.1v-2.8zm.2 4.7h2.9V38h-2.9V25.3zM288.2 36.3l1.3-2c1.4 1 2.9 1.6 4.2 1.6 1.2 0 2-.5 2-1.4 0-1-1.3-1.3-2.8-1.8-1.9-.5-4-1.3-4-3.7 0-2.4 2-3.9 4.5-3.9 1.6 0 3.3.6 4.7 1.4l-1.2 2.1c-1.2-.7-2.5-1.2-3.6-1.2s-1.8.5-1.8 1.2c0 .9 1.4 1.3 2.9 1.8 1.8.6 3.9 1.4 3.9 3.7 0 2.7-2.1 4-4.7 4-1.8.1-3.8-.5-5.4-1.8zM301.6 34.5v-6.7H300v-2.5h1.6v-3.5h2.9v3.5h3.4v2.5h-3.4V34c0 1.1.6 1.6 1.6 1.6.6 0 1.2-.1 1.8-.4v2.4c-.7.4-1.5.6-2.6.6-2.1 0-3.7-.9-3.7-3.7z"/></g><g fill="#fff"><path d="M243.9 269.6c0-4 3-7.3 7.1-7.3 2.5 0 4.1.9 5.5 2.2l-1.1 1.2c-1.2-1.1-2.5-1.9-4.4-1.9-3.1 0-5.4 2.5-5.4 5.7s2.3 5.8 5.4 5.8c1.9 0 3.2-.7 4.5-2l1 1c-1.5 1.5-3.1 2.5-5.6 2.5-4.1 0-7-3.1-7-7.2zM258.1 271.5c0-3 2.3-5.4 5.4-5.4 3.1 0 5.4 2.4 5.4 5.4 0 2.9-2.3 5.4-5.4 5.4-3.1-.1-5.4-2.5-5.4-5.4zm9.2 0c0-2.3-1.7-4.1-3.8-4.1-2.2 0-3.8 1.8-3.8 4s1.6 4 3.8 4c2.3.1 3.8-1.7 3.8-3.9zM271.7 266.3h1.5v1.8c.7-1.1 1.8-2 3.5-2 2.5 0 4 1.7 4 4.1v6.4h-1.5v-6c0-1.9-1-3.1-2.9-3.1-1.8 0-3.1 1.3-3.1 3.2v5.9h-1.5v-10.3zM284 266.3h1.5v1.8c.7-1.1 1.8-2 3.5-2 2.5 0 4 1.7 4 4.1v6.4h-1.5v-6c0-1.9-1-3.1-2.9-3.1-1.8 0-3.1 1.3-3.1 3.2v5.9H284v-10.3zM295.7 271.5c0-3 2.1-5.4 5-5.4 3.1 0 4.8 2.4 4.8 5.5 0 .2 0 .3 0 .5h-8.2c.2 2.2 1.8 3.5 3.6 3.5 1.4 0 2.4-.6 3.3-1.5l1 .9c-1 1.2-2.3 1.9-4.3 1.9-2.9-.1-5.2-2.2-5.2-5.4zm8.2-.6c-.2-1.9-1.2-3.5-3.3-3.5-1.8 0-3.2 1.5-3.4 3.5h6.7zM307.5 271.5c0-3 2.3-5.4 5.3-5.4 2 0 3.2.8 4.1 1.8l-1 1.1c-.8-.9-1.7-1.6-3.1-1.6-2.1 0-3.7 1.8-3.7 4s1.6 4 3.8 4c1.3 0 2.3-.7 3.2-1.5l1 .9c-1 1.2-2.3 2-4.2 2-3.1 0-5.4-2.4-5.4-5.3zM320.1 273.9v-6.2h-1.4v-1.4h1.4v-3.1h1.5v3.1h3.3v1.4h-3.3v6c0 1.3.7 1.7 1.7 1.7.5 0 1-.1 1.5-.4v1.3c-.5.3-1.1.4-1.9.4-1.5.1-2.8-.7-2.8-2.8zM332.8 266.3h1.6l2.7 8.3 2.8-8.3h1.3l2.8 8.3 2.7-8.3h1.6l-3.6 10.4h-1.3l-2.8-8.2-2.8 8.2h-1.4l-3.6-10.4zM350.9 262.3h1.8v1.7h-1.8v-1.7zm.1 4h1.5v10.3H351v-10.3zM356.7 273.9v-6.2h-1.4v-1.4h1.4v-3.1h1.5v3.1h3.3v1.4h-3.3v6c0 1.3.7 1.7 1.7 1.7.5 0 1-.1 1.5-.4v1.3c-.5.3-1.1.4-1.9.4-1.5.1-2.8-.7-2.8-2.8zM364.2 262h1.5v6.1c.7-1.1 1.8-2 3.5-2 2.5 0 4 1.7 4 4.1v6.4h-1.5v-6c0-1.9-1-3.1-2.9-3.1-1.8 0-3.1 1.3-3.1 3.2v5.9h-1.5V262zM383.1 273.9v-6.2h-1.4v-1.4h1.4v-3.1h1.5v3.1h3.3v1.4h-3.3v6c0 1.3.7 1.7 1.7 1.7.5 0 1-.1 1.5-.4v1.3c-.5.3-1.1.4-1.9.4-1.5.1-2.8-.7-2.8-2.8zM389.7 271.5c0-3 2.3-5.4 5.4-5.4 3.1 0 5.4 2.4 5.4 5.4 0 2.9-2.3 5.4-5.4 5.4-3.1-.1-5.4-2.5-5.4-5.4zm9.2 0c0-2.3-1.7-4.1-3.8-4.1-2.2 0-3.8 1.8-3.8 4s1.6 4 3.8 4c2.2.1 3.8-1.7 3.8-3.9zM403.3 266.3h1.5v2.1c.8-1.2 2.1-2.3 4-2.3 2.5 0 4.9 2 4.9 5.4 0 3.4-2.4 5.4-4.9 5.4-1.9 0-3.2-1-4-2.2v5.2h-1.5v-13.6zm8.8 5.2c0-2.5-1.7-4-3.6-4-1.9 0-3.7 1.6-3.7 4s1.8 4 3.7 4c2-.1 3.6-1.5 3.6-4zM421.8 273.6c0-2.2 1.8-3.4 4.4-3.4 1.3 0 2.3.2 3.2.4v-.4c0-1.9-1.1-2.8-3.1-2.8-1.2 0-2.2.3-3.1.8l-.5-1.3c1.1-.5 2.3-.9 3.8-.9s2.6.4 3.3 1.1c.7.7 1.1 1.7 1.1 3v6.3h-1.5V275c-.7.9-1.9 1.8-3.7 1.8-2 0-3.9-1.1-3.9-3.2zm7.6-.8v-1c-.8-.2-1.8-.4-3-.4-1.9 0-3 .8-3 2.1s1.2 2.1 2.6 2.1c1.8 0 3.4-1.2 3.4-2.8zM434.1 266.3h1.5v2.1c.8-1.2 2.1-2.3 4-2.3 2.5 0 4.9 2 4.9 5.4 0 3.4-2.4 5.4-4.9 5.4-1.9 0-3.2-1-4-2.2v5.2h-1.5v-13.6zm8.9 5.2c0-2.5-1.7-4-3.6-4-1.9 0-3.7 1.6-3.7 4s1.8 4 3.7 4c1.9-.1 3.6-1.5 3.6-4zM447.4 266.3h1.5v2.1c.8-1.2 2.1-2.3 4-2.3 2.5 0 4.9 2 4.9 5.4 0 3.4-2.4 5.4-4.9 5.4-1.9 0-3.2-1-4-2.2v5.2h-1.5v-13.6zm8.9 5.2c0-2.5-1.7-4-3.6-4-1.9 0-3.7 1.6-3.7 4s1.8 4 3.7 4c1.9-.1 3.6-1.5 3.6-4zM460.8 262h1.5v14.6h-1.5V262zM466 262.3h1.8v1.7H466v-1.7zm.1 4h1.5v10.3h-1.5v-10.3zM470.6 271.5c0-3 2.3-5.4 5.3-5.4 2 0 3.2.8 4.1 1.8l-1 1.1c-.8-.9-1.7-1.6-3.1-1.6-2.1 0-3.7 1.8-3.7 4s1.6 4 3.8 4c1.3 0 2.3-.7 3.2-1.5l1 .9c-1 1.2-2.3 2-4.2 2-3.2 0-5.4-2.4-5.4-5.3zM481.8 273.6c0-2.2 1.8-3.4 4.4-3.4 1.3 0 2.3.2 3.2.4v-.4c0-1.9-1.1-2.8-3.1-2.8-1.2 0-2.2.3-3.1.8l-.5-1.3c1.1-.5 2.3-.9 3.8-.9s2.6.4 3.3 1.1c.7.7 1.1 1.7 1.1 3v6.3h-1.5V275c-.7.9-1.9 1.8-3.7 1.8-1.9 0-3.9-1.1-3.9-3.2zm7.7-.8v-1c-.8-.2-1.8-.4-3-.4-1.9 0-3 .8-3 2.1s1.2 2.1 2.6 2.1c1.8 0 3.4-1.2 3.4-2.8zM494.2 266.3h1.5v1.8c.7-1.1 1.8-2 3.5-2 2.5 0 4 1.7 4 4.1v6.4h-1.5v-6c0-1.9-1-3.1-2.9-3.1-1.8 0-3.1 1.3-3.1 3.2v5.9h-1.5v-10.3zM507.1 273.9v-6.2h-1.4v-1.4h1.4v-3.1h1.5v3.1h3.3v1.4h-3.3v6c0 1.3.7 1.7 1.7 1.7.5 0 1-.1 1.5-.4v1.3c-.5.3-1.1.4-1.9.4-1.6.1-2.8-.7-2.8-2.8zM513.7 275.3l.8-1.1c1.1.8 2.4 1.3 3.6 1.3 1.2 0 2.1-.6 2.1-1.6s-1.2-1.4-2.6-1.8c-1.6-.5-3.4-1-3.4-2.9 0-1.8 1.5-3 3.5-3 1.3 0 2.7.4 3.7 1.1l-.7 1.2c-1-.6-2.1-1-3.1-1-1.2 0-2 .6-2 1.5 0 1 1.3 1.4 2.7 1.8 1.6.5 3.3 1.1 3.3 3 0 2-1.6 3.1-3.7 3.1-1.4-.1-3-.7-4.2-1.6zM529.7 266.3h1.6l2.7 8.3 2.8-8.3h1.3l2.8 8.3 2.7-8.3h1.6l-3.6 10.4h-1.3l-2.8-8.2-2.8 8.2h-1.4l-3.6-10.4zM547.8 262.3h1.8v1.7h-1.8v-1.7zm.1 4h1.5v10.3h-1.5v-10.3zM553.6 273.9v-6.2h-1.4v-1.4h1.4v-3.1h1.5v3.1h3.3v1.4h-3.3v6c0 1.3.7 1.7 1.7 1.7.5 0 1-.1 1.5-.4v1.3c-.5.3-1.1.4-1.9.4-1.6.1-2.8-.7-2.8-2.8zM561.1 262h1.5v6.1c.7-1.1 1.8-2 3.5-2 2.5 0 4 1.7 4 4.1v6.4h-1.5v-6c0-1.9-1-3.1-2.9-3.1-1.8 0-3.1 1.3-3.1 3.2v5.9h-1.5V262zM573.5 262.3h1.8v1.7h-1.8v-1.7zm.1 4h1.5v10.3h-1.5v-10.3zM578.7 266.3h1.5v1.8c.7-1.1 1.8-2 3.5-2 2.5 0 4 1.7 4 4.1v6.4h-1.5v-6c0-1.9-1-3.1-2.9-3.1-1.8 0-3.1 1.3-3.1 3.2v5.9h-1.5v-10.3zM604.8 266.3h1.6l-4.3 10.7c-.9 2.1-1.9 2.9-3.4 2.9-.9 0-1.5-.2-2.2-.5l.5-1.2c.5.3 1 .4 1.6.4.9 0 1.5-.5 2.1-1.9l-4.7-10.3h1.7l3.8 8.6 3.3-8.7zM607.6 271.5c0-3 2.3-5.4 5.4-5.4 3.1 0 5.4 2.4 5.4 5.4 0 2.9-2.3 5.4-5.4 5.4-3.1-.1-5.4-2.5-5.4-5.4zm9.2 0c0-2.3-1.7-4.1-3.8-4.1-2.2 0-3.8 1.8-3.8 4s1.6 4 3.8 4c2.2.1 3.8-1.7 3.8-3.9zM621 272.7v-6.4h1.5v6c0 1.9 1 3.1 2.9 3.1 1.8 0 3.1-1.3 3.1-3.2v-5.9h1.5v10.3h-1.5v-1.8c-.7 1.1-1.8 2-3.5 2-2.5 0-4-1.7-4-4.1zM633.5 266.3h1.5v2.7c.8-1.7 2.3-3 4.2-2.9v1.7h-.1c-2.3 0-4.1 1.6-4.1 4.7v4.1h-1.5v-10.3zM646.9 271.5c0-3 2.3-5.4 5.3-5.4 2 0 3.2.8 4.1 1.8l-1 1.1c-.8-.9-1.7-1.6-3.1-1.6-2.1 0-3.7 1.8-3.7 4s1.6 4 3.8 4c1.3 0 2.3-.7 3.2-1.5l1 .9c-1 1.2-2.3 2-4.2 2-3.1 0-5.4-2.4-5.4-5.3zM658.1 271.5c0-3 2.3-5.4 5.4-5.4 3.1 0 5.4 2.4 5.4 5.4 0 2.9-2.3 5.4-5.4 5.4-3.2-.1-5.4-2.5-5.4-5.4zm9.2 0c0-2.3-1.7-4.1-3.8-4.1-2.2 0-3.8 1.8-3.8 4s1.6 4 3.8 4c2.2.1 3.8-1.7 3.8-3.9zM671.6 266.3h1.5v1.7c.7-1 1.6-2 3.3-2 1.7 0 2.8.9 3.3 2.1.7-1.1 1.8-2.1 3.6-2.1 2.4 0 3.8 1.6 3.8 4.2v6.4h-1.5v-6c0-2-1-3.1-2.7-3.1-1.6 0-2.8 1.2-2.8 3.2v6h-1.5v-6.1c0-1.9-1-3.1-2.7-3.1-1.6 0-2.9 1.4-2.9 3.3v5.9h-1.5v-10.4zM690.6 266.3h1.5v1.7c.7-1 1.6-2 3.3-2 1.7 0 2.8.9 3.3 2.1.7-1.1 1.8-2.1 3.6-2.1 2.4 0 3.8 1.6 3.8 4.2v6.4h-1.5v-6c0-2-1-3.1-2.7-3.1-1.6 0-2.8 1.2-2.8 3.2v6h-1.5v-6.1c0-1.9-1-3.1-2.7-3.1-1.6 0-2.9 1.4-2.9 3.3v5.9h-1.5v-10.4zM709.5 272.7v-6.4h1.5v6c0 1.9 1 3.1 2.9 3.1 1.8 0 3.1-1.3 3.1-3.2v-5.9h1.5v10.3H717v-1.8c-.7 1.1-1.8 2-3.5 2-2.5 0-4-1.7-4-4.1zM722 266.3h1.5v1.8c.7-1.1 1.8-2 3.5-2 2.5 0 4 1.7 4 4.1v6.4h-1.5v-6c0-1.9-1-3.1-2.9-3.1-1.8 0-3.1 1.3-3.1 3.2v5.9H722v-10.3zM734.3 262.3h1.8v1.7h-1.8v-1.7zm.1 4h1.5v10.3h-1.5v-10.3zM740.1 273.9v-6.2h-1.4v-1.4h1.4v-3.1h1.5v3.1h3.3v1.4h-3.3v6c0 1.3.7 1.7 1.7 1.7.5 0 1-.1 1.5-.4v1.3c-.5.3-1.1.4-1.9.4-1.5.1-2.8-.7-2.8-2.8zM755.4 266.3h1.6l-4.3 10.7c-.9 2.1-1.9 2.9-3.4 2.9-.9 0-1.5-.2-2.2-.5l.5-1.2c.5.3 1 .4 1.6.4.9 0 1.5-.5 2.1-1.9l-4.7-10.3h1.7l3.8 8.6 3.3-8.7zM245.8 298.6v2h-1.5V286h1.5v6.3c.8-1.2 2.1-2.3 4-2.3 2.5 0 4.9 2 4.9 5.4 0 3.4-2.4 5.4-4.9 5.4-2 0-3.2-1-4-2.2zm7.3-3.1c0-2.5-1.7-4-3.6-4-1.9 0-3.7 1.6-3.7 4s1.8 4 3.7 4c1.9-.1 3.6-1.5 3.6-4zM256.7 297.6c0-2.2 1.8-3.4 4.4-3.4 1.3 0 2.3.2 3.2.4v-.4c0-1.9-1.1-2.8-3.1-2.8-1.2 0-2.2.3-3.1.8l-.5-1.3c1.1-.5 2.3-.9 3.8-.9s2.6.4 3.3 1.1c.7.7 1.1 1.7 1.1 3v6.3h-1.5V299c-.7.9-1.9 1.8-3.7 1.8-1.9 0-3.9-1.1-3.9-3.2zm7.6-.8v-1c-.8-.2-1.8-.4-3-.4-1.9 0-3 .8-3 2.1s1.2 2.1 2.6 2.1c1.9 0 3.4-1.2 3.4-2.8zM268.2 299.3l.8-1.1c1.1.8 2.4 1.3 3.6 1.3 1.2 0 2.1-.6 2.1-1.6s-1.2-1.4-2.6-1.8c-1.6-.5-3.4-1-3.4-2.9 0-1.8 1.5-3 3.5-3 1.3 0 2.7.4 3.7 1.1l-.7 1.2c-1-.6-2.1-1-3.1-1-1.2 0-2 .6-2 1.5 0 1 1.3 1.4 2.7 1.8 1.6.5 3.3 1.1 3.3 3 0 2-1.6 3.1-3.7 3.1-1.4-.1-3-.7-4.2-1.6zM278.4 295.5c0-3 2.1-5.4 5-5.4 3.1 0 4.8 2.4 4.8 5.5 0 .2 0 .3 0 .5H280c.2 2.2 1.8 3.5 3.6 3.5 1.4 0 2.4-.6 3.3-1.5l1 .9c-1 1.2-2.3 1.9-4.3 1.9-2.9-.1-5.2-2.2-5.2-5.4zm8.2-.6c-.2-1.9-1.2-3.5-3.3-3.5-1.8 0-3.2 1.5-3.4 3.5h6.7zM290.3 295.5c0-3.4 2.5-5.4 4.9-5.4 1.9 0 3.2 1 4 2.2V286h1.5v14.6h-1.5v-2.1c-.8 1.2-2.1 2.3-4 2.3-2.5 0-4.9-1.9-4.9-5.3zm8.9-.1c0-2.4-1.8-4-3.7-4-2 0-3.6 1.5-3.6 4 0 2.4 1.7 4 3.6 4 1.9 0 3.7-1.6 3.7-4zM309.5 295.5c0-3 2.3-5.4 5.4-5.4 3.1 0 5.4 2.4 5.4 5.4 0 2.9-2.3 5.4-5.4 5.4-3.1-.1-5.4-2.5-5.4-5.4zm9.2 0c0-2.3-1.7-4.1-3.8-4.1-2.2 0-3.8 1.8-3.8 4s1.6 4 3.8 4c2.3.1 3.8-1.7 3.8-3.9zM323.1 290.3h1.5v1.8c.7-1.1 1.8-2 3.5-2 2.5 0 4 1.7 4 4.1v6.4h-1.5v-6c0-1.9-1-3.1-2.9-3.1-1.8 0-3.1 1.3-3.1 3.2v5.9h-1.5v-10.3zM349.1 290.3h1.6l-4.3 10.7c-.9 2.1-1.9 2.9-3.4 2.9-.9 0-1.5-.2-2.2-.5l.5-1.2c.5.3 1 .4 1.6.4.9 0 1.5-.5 2.1-1.9l-4.7-10.3h1.7l3.8 8.6 3.3-8.7zM352 295.5c0-3 2.3-5.4 5.4-5.4 3.1 0 5.4 2.4 5.4 5.4 0 2.9-2.3 5.4-5.4 5.4-3.2-.1-5.4-2.5-5.4-5.4zm9.2 0c0-2.3-1.7-4.1-3.8-4.1-2.2 0-3.8 1.8-3.8 4s1.6 4 3.8 4c2.2.1 3.8-1.7 3.8-3.9zM365.4 296.7v-6.4h1.5v6c0 1.9 1 3.1 2.9 3.1 1.8 0 3.1-1.3 3.1-3.2v-5.9h1.5v10.3h-1.5v-1.8c-.7 1.1-1.8 2-3.5 2-2.6 0-4-1.7-4-4.1zM377.9 290.3h1.5v2.7c.8-1.7 2.3-3 4.2-2.9v1.7h-.1c-2.3 0-4.1 1.6-4.1 4.7v4.1h-1.5v-10.3zM391.4 295.5c0-3.4 2.5-5.4 4.9-5.4 1.9 0 3.2 1 4 2.2V286h1.5v14.6h-1.5v-2.1c-.8 1.2-2.1 2.3-4 2.3-2.5 0-4.9-1.9-4.9-5.3zm8.9-.1c0-2.4-1.8-4-3.7-4-2 0-3.6 1.5-3.6 4 0 2.4 1.7 4 3.6 4 1.9 0 3.7-1.6 3.7-4zM404.6 295.5c0-3 2.1-5.4 5-5.4 3.1 0 4.8 2.4 4.8 5.5 0 .2 0 .3 0 .5h-8.2c.2 2.2 1.8 3.5 3.6 3.5 1.4 0 2.4-.6 3.3-1.5l1 .9c-1 1.2-2.3 1.9-4.3 1.9-2.9-.1-5.2-2.2-5.2-5.4zm8.2-.6c-.2-1.9-1.2-3.5-3.3-3.5-1.8 0-3.2 1.5-3.4 3.5h6.7zM416.2 299.3l.8-1.1c1.1.8 2.4 1.3 3.6 1.3 1.2 0 2.1-.6 2.1-1.6s-1.2-1.4-2.6-1.8c-1.6-.5-3.4-1-3.4-2.9 0-1.8 1.5-3 3.5-3 1.3 0 2.7.4 3.7 1.1l-.7 1.2c-1-.6-2.1-1-3.1-1-1.2 0-2 .6-2 1.5 0 1 1.3 1.4 2.7 1.8 1.6.5 3.3 1.1 3.3 3 0 2-1.6 3.1-3.7 3.1-1.4-.1-3-.7-4.2-1.6zM426.4 295.5c0-3 2.3-5.4 5.3-5.4 2 0 3.2.8 4.1 1.8l-1 1.1c-.8-.9-1.7-1.6-3.1-1.6-2.1 0-3.7 1.8-3.7 4s1.6 4 3.8 4c1.3 0 2.3-.7 3.2-1.5l1 .9c-1 1.2-2.3 2-4.2 2-3.1 0-5.4-2.4-5.4-5.3zM438.5 290.3h1.5v2.7c.8-1.7 2.3-3 4.2-2.9v1.7h-.1c-2.3 0-4.1 1.6-4.1 4.7v4.1h-1.5v-10.3zM446.6 286.3h1.8v1.7h-1.8v-1.7zm.1 4h1.5v10.3h-1.5v-10.3zM451.8 290.3h1.5v2.1c.8-1.2 2.1-2.3 4-2.3 2.5 0 4.9 2 4.9 5.4 0 3.4-2.4 5.4-4.9 5.4-1.9 0-3.2-1-4-2.2v5.2h-1.5v-13.6zm8.9 5.2c0-2.5-1.7-4-3.6-4-1.9 0-3.7 1.6-3.7 4s1.8 4 3.7 4c1.9-.1 3.6-1.5 3.6-4zM465.6 297.9v-6.2h-1.4v-1.4h1.4v-3.1h1.5v3.1h3.3v1.4h-3.3v6c0 1.3.7 1.7 1.7 1.7.5 0 1-.1 1.5-.4v1.3c-.5.3-1.1.4-1.9.4-1.5.1-2.8-.7-2.8-2.8zM473.2 286.3h1.8v1.7h-1.8v-1.7zm.1 4h1.5v10.3h-1.5v-10.3zM477.8 295.5c0-3 2.3-5.4 5.4-5.4 3.1 0 5.4 2.4 5.4 5.4 0 2.9-2.3 5.4-5.4 5.4-3.1-.1-5.4-2.5-5.4-5.4zm9.2 0c0-2.3-1.7-4.1-3.8-4.1-2.2 0-3.8 1.8-3.8 4s1.6 4 3.8 4c2.2.1 3.8-1.7 3.8-3.9zM491.4 290.3h1.5v1.8c.7-1.1 1.8-2 3.5-2 2.5 0 4 1.7 4 4.1v6.4h-1.5v-6c0-1.9-1-3.1-2.9-3.1-1.8 0-3.1 1.3-3.1 3.2v5.9h-1.5v-10.3zM508.9 297.6c0-2.2 1.8-3.4 4.4-3.4 1.3 0 2.3.2 3.2.4v-.4c0-1.9-1.1-2.8-3.1-2.8-1.2 0-2.2.3-3.1.8l-.5-1.3c1.1-.5 2.3-.9 3.8-.9s2.6.4 3.3 1.1c.7.7 1.1 1.7 1.1 3v6.3h-1.5V299c-.7.9-1.9 1.8-3.7 1.8-2 0-3.9-1.1-3.9-3.2zm7.6-.8v-1c-.8-.2-1.8-.4-3-.4-1.9 0-3 .8-3 2.1s1.2 2.1 2.6 2.1c1.9 0 3.4-1.2 3.4-2.8zM521.3 290.3h1.5v1.8c.7-1.1 1.8-2 3.5-2 2.5 0 4 1.7 4 4.1v6.4h-1.5v-6c0-1.9-1-3.1-2.9-3.1-1.8 0-3.1 1.3-3.1 3.2v5.9h-1.5v-10.3zM533 295.5c0-3.4 2.5-5.4 4.9-5.4 1.9 0 3.2 1 4 2.2V286h1.5v14.6h-1.5v-2.1c-.8 1.2-2.1 2.3-4 2.3-2.5 0-4.9-1.9-4.9-5.3zm8.9-.1c0-2.4-1.8-4-3.7-4-2 0-3.6 1.5-3.6 4 0 2.4 1.7 4 3.6 4 1.9 0 3.7-1.6 3.7-4zM553.4 297.9v-6.2H552v-1.4h1.4v-3.1h1.5v3.1h3.3v1.4h-3.3v6c0 1.3.7 1.7 1.7 1.7.5 0 1-.1 1.5-.4v1.3c-.5.3-1.1.4-1.9.4-1.5.1-2.8-.7-2.8-2.8zM560.9 286h1.5v6.1c.7-1.1 1.8-2 3.5-2 2.5 0 4 1.7 4 4.1v6.4h-1.5v-6c0-1.9-1-3.1-2.9-3.1-1.8 0-3.1 1.3-3.1 3.2v5.9h-1.5V286zM572.6 295.5c0-3 2.1-5.4 5-5.4 3.1 0 4.8 2.4 4.8 5.5 0 .2 0 .3 0 .5h-8.2c.2 2.2 1.8 3.5 3.6 3.5 1.4 0 2.4-.6 3.3-1.5l1 .9c-1 1.2-2.3 1.9-4.3 1.9-2.9-.1-5.2-2.2-5.2-5.4zm8.2-.6c-.2-1.9-1.2-3.5-3.3-3.5-1.8 0-3.2 1.5-3.4 3.5h6.7zM585.1 286.3h1.8v1.7h-1.8v-1.7zm.1 4h1.5v10.3h-1.5v-10.3zM590.4 290.3h1.5v2.7c.8-1.7 2.3-3 4.2-2.9v1.7h-.1c-2.3 0-4.1 1.6-4.1 4.7v4.1h-1.5v-10.3zM604.5 290.3h1.5v1.7c.7-1 1.6-2 3.3-2 1.7 0 2.8.9 3.3 2.1.7-1.1 1.8-2.1 3.6-2.1 2.4 0 3.8 1.6 3.8 4.2v6.4h-1.5v-6c0-2-1-3.1-2.7-3.1-1.6 0-2.8 1.2-2.8 3.2v6h-1.5v-6.1c0-1.9-1-3.1-2.7-3.1-1.6 0-2.9 1.4-2.9 3.3v5.9h-1.5v-10.4zM622.8 295.5c0-3 2.1-5.4 5-5.4 3.1 0 4.8 2.4 4.8 5.5 0 .2 0 .3 0 .5h-8.2c.2 2.2 1.8 3.5 3.6 3.5 1.4 0 2.4-.6 3.3-1.5l1 .9c-1 1.2-2.3 1.9-4.3 1.9-2.8-.1-5.2-2.2-5.2-5.4zm8.3-.6c-.2-1.9-1.2-3.5-3.3-3.5-1.8 0-3.2 1.5-3.4 3.5h6.7zM635.3 290.3h1.5v2.7c.8-1.7 2.3-3 4.2-2.9v1.7c-2.3 0-4.1 1.6-4.1 4.7v4.1h-1.5v-10.3zM643.5 286.3h1.8v1.7h-1.8v-1.7zm.1 4h1.5v10.3h-1.5v-10.3zM649.2 297.9v-6.2h-1.4v-1.4h1.4v-3.1h1.5v3.1h3.3v1.4h-3.3v6c0 1.3.7 1.7 1.7 1.7.5 0 1-.1 1.5-.4v1.3c-.5.3-1.1.4-1.9.4-1.5.1-2.8-.7-2.8-2.8zM656.6 298.5h1.8v2.1h-1.8v-2.1z"/></g><g fill="#0160BA"><path d="M243.8 229.6l6-5.1c2.4-2 3.3-3.1 3.3-4.7 0-1.7-1.2-2.7-2.8-2.7s-2.7.9-4 2.6l-2.2-1.7c1.7-2.3 3.3-3.6 6.4-3.6 3.4 0 5.8 2.1 5.8 5.2 0 2.7-1.4 4.2-4.5 6.8l-3.6 3h8.3v2.7h-12.6v-2.5zM259.6 228.6h3.3v3.4h-3.3v-3.4zM273.6 223.3c0-5 3.7-9.1 9-9.1 3.2 0 5.2 1.1 6.8 2.7l-2 2.3c-1.4-1.3-2.9-2.2-4.9-2.2-3.3 0-5.8 2.8-5.8 6.2 0 3.4 2.4 6.2 5.8 6.2 2.1 0 3.5-.8 5-2.2l2 2c-1.8 1.9-3.8 3.1-7.1 3.1-5 0-8.8-4-8.8-9zM291.5 225.5c0-3.8 3-6.9 7-6.9s7 3.1 7 6.8c0 3.7-3 6.9-7.1 6.9-3.9 0-6.9-3.1-6.9-6.8zm11 0c0-2.4-1.7-4.3-4-4.3-2.4 0-4 1.9-4 4.2 0 2.3 1.7 4.2 4 4.2 2.5.1 4-1.8 4-4.1zM308.7 218.8h3v2c.8-1.2 2.1-2.3 4.1-2.3 3 0 4.7 2 4.7 5v8.4h-3v-7.5c0-2-1-3.2-2.8-3.2-1.7 0-3 1.2-3 3.3v7.4h-3v-13.1zM324.1 218.8h3v2c.8-1.2 2.1-2.3 4.1-2.3 3 0 4.7 2 4.7 5v8.4h-3v-7.5c0-2-1-3.2-2.8-3.2-1.8 0-3 1.2-3 3.3v7.4h-3v-13.1zM338.9 225.5c0-3.8 2.7-6.9 6.4-6.9 4.2 0 6.3 3.3 6.3 7.1 0 .3 0 .5 0 .8H342c.3 2.1 1.8 3.3 3.8 3.3 1.5 0 2.5-.5 3.6-1.6l1.8 1.6c-1.2 1.5-3 2.5-5.4 2.5-3.9 0-6.9-2.8-6.9-6.8zm9.8-1c-.2-1.9-1.3-3.5-3.3-3.5-1.8 0-3.1 1.4-3.4 3.5h6.7zM354 225.5c0-3.8 2.9-6.9 6.9-6.9 2.5 0 4 .9 5.3 2.3l-1.9 2c-.9-1-1.9-1.6-3.4-1.6-2.2 0-3.8 1.9-3.8 4.2 0 2.3 1.6 4.2 3.9 4.2 1.4 0 2.5-.6 3.4-1.6l1.8 1.8c-1.3 1.5-2.8 2.5-5.4 2.5-3.9-.1-6.8-3.2-6.8-6.9zM369.7 228.4v-6.9H368v-2.6h1.7v-3.6h3v3.6h3.5v2.6h-3.5v6.5c0 1.2.6 1.6 1.6 1.6.7 0 1.3-.1 1.9-.4v2.5c-.8.4-1.6.7-2.7.7-2.3-.2-3.8-1.2-3.8-4z"/></g><g fill="#fff"><path d="M250.9 470.8c-4 0-7-3.2-7-7.2s3-7.3 7.1-7.3c2.5 0 4.1.9 5.5 2.2l-1.1 1.2c-1.2-1.1-2.5-1.9-4.4-1.9-3.1 0-5.4 2.5-5.4 5.8s2.3 5.8 5.4 5.8c1.9 0 3.2-.7 4.5-2l1 1c-1.5 1.5-3.1 2.4-5.6 2.4zM263.5 470.8c-3.1 0-5.4-2.4-5.4-5.4s2.3-5.4 5.4-5.4c3.1 0 5.4 2.4 5.4 5.4s-2.3 5.4-5.4 5.4zm0-9.4c-2.2 0-3.8 1.8-3.8 4s1.6 4 3.8 4c2.2 0 3.8-1.8 3.8-4s-1.6-4-3.8-4zM283.5 460c2.4 0 3.8 1.6 3.8 4.2v6.4h-1.5v-6c0-2-1-3.1-2.7-3.1-1.6 0-2.9 1.2-2.9 3.2v6h-1.5v-6.1c0-1.9-1-3.1-2.7-3.1-1.6 0-2.9 1.4-2.9 3.3v5.9h-1.5v-10.3h1.5v1.7c.7-1 1.6-2 3.3-2 1.7 0 2.8.9 3.3 2.1.9-1.2 2-2.2 3.8-2.2zM296.2 470.8c-1.9 0-3.2-1-4-2.2v5.2h-1.5v-13.5h1.5v2.1c.8-1.2 2.1-2.3 4-2.3 2.5 0 4.9 2 4.9 5.4.1 3.3-2.4 5.3-4.9 5.3zm-.3-9.4c-1.9 0-3.7 1.6-3.7 4s1.8 4 3.7 4c2 0 3.6-1.5 3.6-4 .1-2.4-1.6-4-3.6-4zM304.1 470.6V456h1.5v14.6h-1.5zM313.8 469.5c1.4 0 2.4-.6 3.3-1.5l1 .9c-1 1.2-2.3 1.9-4.3 1.9-2.8 0-5.2-2.2-5.2-5.4 0-3 2.1-5.4 5-5.4 3.1 0 4.8 2.4 4.8 5.5 0 .1 0 .3 0 .5h-8.2c.2 2.2 1.8 3.5 3.6 3.5zm3-4.6c-.2-1.9-1.2-3.5-3.3-3.5-1.8 0-3.2 1.5-3.4 3.5h6.7zM323.2 467.7c0 1.3.7 1.7 1.7 1.7.5 0 1-.1 1.5-.4v1.3c-.5.3-1.1.4-1.9.4-1.7 0-2.9-.8-2.9-2.9v-6.2h-1.4v-1.4h1.4v-3.1h1.5v3.1h3.3v1.4h-3.3v6.1zM333.4 469.5c1.4 0 2.4-.6 3.3-1.5l1 .9c-1 1.2-2.3 1.9-4.3 1.9-2.8 0-5.2-2.2-5.2-5.4 0-3 2.1-5.4 5-5.4 3.1 0 4.8 2.4 4.8 5.5 0 .1 0 .3 0 .5h-8.2c.2 2.2 1.8 3.5 3.6 3.5zm3.1-4.6c-.2-1.9-1.2-3.5-3.3-3.5-1.8 0-3.2 1.5-3.4 3.5h6.7zM348.8 467.7c0 1.3.7 1.7 1.7 1.7.5 0 1-.1 1.5-.4v1.3c-.5.3-1.1.4-1.9.4-1.7 0-2.9-.8-2.9-2.9v-6.2h-1.4v-1.4h1.4v-3.1h1.5v3.1h3.3v1.4h-3.3v6.1zM356.3 470.6h-1.5V456h1.5v6.1c.7-1.1 1.8-2 3.5-2 2.5 0 4 1.7 4 4.1v6.4h-1.5v-6c0-1.9-1-3.1-2.9-3.1-1.8 0-3.1 1.3-3.1 3.2v5.9zM371.7 469.5c1.4 0 2.4-.6 3.3-1.5l1 .9c-1 1.2-2.3 1.9-4.3 1.9-2.8 0-5.2-2.2-5.2-5.4 0-3 2.1-5.4 5-5.4 3.1 0 4.8 2.4 4.8 5.5 0 .1 0 .3 0 .5H368c.3 2.2 1.9 3.5 3.7 3.5zm3-4.6c-.2-1.9-1.2-3.5-3.3-3.5-1.8 0-3.2 1.5-3.4 3.5h6.7zM387 467.7c0 1.3.7 1.7 1.7 1.7.5 0 1-.1 1.5-.4v1.3c-.5.3-1.1.4-1.9.4-1.7 0-2.9-.8-2.9-2.9v-6.2H384v-1.4h1.4v-3.1h1.5v3.1h3.3v1.4H387v6.1zM393.6 462.2l-.5-1.3c1.1-.5 2.3-.9 3.8-.9 2.8 0 4.4 1.4 4.4 4.2v6.3h-1.5V469c-.7.9-1.9 1.8-3.7 1.8-1.9 0-3.9-1.1-3.9-3.2 0-2.2 1.8-3.4 4.4-3.4 1.3 0 2.3.2 3.2.4v-.4c0-1.9-1.1-2.8-3.1-2.8-1.1.1-2.1.4-3.1.8zm.2 5.3c0 1.3 1.2 2.1 2.6 2.1 1.9 0 3.5-1.2 3.5-2.8v-1c-.8-.2-1.8-.4-3-.4-2 0-3.1.8-3.1 2.1zM408 470.8c-1.5 0-3.1-.6-4.3-1.5l.8-1.1c1.1.8 2.4 1.3 3.6 1.3 1.2 0 2.1-.6 2.1-1.6s-1.2-1.4-2.6-1.8c-1.6-.5-3.4-1-3.4-2.9 0-1.8 1.5-3 3.5-3 1.3 0 2.7.4 3.7 1.1l-.7 1.2c-1-.6-2.1-1-3.1-1-1.2 0-2 .6-2 1.5 0 1 1.3 1.4 2.7 1.8 1.6.5 3.3 1.1 3.3 3 .1 1.9-1.5 3-3.6 3zM423.8 470.6H422l-3.7-4.8-2.1 2.1v2.7h-1.5V456h1.5v10.1l5.6-5.8h1.9l-4.3 4.4 4.4 5.9zM436.5 469.5c1.4 0 2.4-.6 3.3-1.5l1 .9c-1 1.2-2.3 1.9-4.3 1.9-2.8 0-5.2-2.2-5.2-5.4 0-3 2.1-5.4 5-5.4 3.1 0 4.8 2.4 4.8 5.5 0 .1 0 .3 0 .5h-8.2c.2 2.2 1.8 3.5 3.6 3.5zm3-4.6c-.2-1.9-1.2-3.5-3.3-3.5-1.8 0-3.2 1.5-3.4 3.5h6.7zM449.2 460.3v1.3h-3.3v9h-1.5v-9H443v-1.3h1.4v-.9c0-2.3 1.1-3.5 3.1-3.5.7 0 1.2.1 1.7.3v1.3c-.6-.2-1-.3-1.5-.3-1.2 0-1.8.7-1.8 2.2v.8h3.3zM456.5 460.3v1.3h-3.3v9h-1.5v-9h-1.4v-1.3h1.4v-.9c0-2.3 1.1-3.5 3.1-3.5.7 0 1.2.1 1.7.3v1.3c-.6-.2-1-.3-1.5-.3-1.2 0-1.8.7-1.8 2.2v.8h3.3zM458.5 458v-1.7h1.8v1.7h-1.8zm.1 12.6v-10.3h1.5v10.3h-1.5zM468.4 470.8c-3 0-5.3-2.5-5.3-5.4 0-2.9 2.3-5.4 5.3-5.4 2 0 3.2.8 4.1 1.8l-1 1.1c-.8-.9-1.7-1.6-3.1-1.6-2.1 0-3.7 1.8-3.7 4 0 2.3 1.6 4 3.8 4 1.3 0 2.3-.7 3.2-1.5l1 .9c-1.1 1.3-2.4 2.1-4.3 2.1zM475.2 458v-1.7h1.8v1.7h-1.8zm.1 12.6v-10.3h1.5v10.3h-1.5zM485 469.5c1.4 0 2.4-.6 3.3-1.5l1 .9c-1 1.2-2.3 1.9-4.3 1.9-2.8 0-5.2-2.2-5.2-5.4 0-3 2.1-5.4 5-5.4 3.1 0 4.8 2.4 4.8 5.5 0 .1 0 .3 0 .5h-8.2c.2 2.2 1.8 3.5 3.6 3.5zm3-4.6c-.2-1.9-1.2-3.5-3.3-3.5-1.8 0-3.2 1.5-3.4 3.5h6.7zM493.8 470.6h-1.5v-10.3h1.5v1.8c.7-1.1 1.8-2 3.5-2 2.5 0 4 1.7 4 4.1v6.4h-1.5v-6c0-1.9-1-3.1-2.9-3.1-1.8 0-3.1 1.3-3.1 3.2v5.9zM506.7 467.7c0 1.3.7 1.7 1.7 1.7.5 0 1-.1 1.5-.4v1.3c-.5.3-1.1.4-1.9.4-1.7 0-2.9-.8-2.9-2.9v-6.2h-1.4v-1.4h1.4v-3.1h1.5v3.1h3.3v1.4h-3.3v6.1zM512.8 470.6V456h1.5v14.6h-1.5zM523 470.9c-.9 2.1-1.9 2.9-3.4 2.9-.9 0-1.5-.2-2.2-.5l.5-1.2c.5.3 1 .4 1.6.4.9 0 1.5-.5 2.1-1.9l-4.7-10.3h1.7l3.8 8.6 3.3-8.6h1.6l-4.3 10.6zM528.6 470.6h-.7v-2.1h1.8v1.8c0 1.6-.7 2.4-2.2 2.7l-.2-.7c.9-.3 1.4-.8 1.3-1.7zM539.5 462.2l-.5-1.3c1.1-.5 2.3-.9 3.8-.9 2.8 0 4.4 1.4 4.4 4.2v6.3h-1.5V469c-.7.9-1.9 1.8-3.7 1.8-1.9 0-3.9-1.1-3.9-3.2 0-2.2 1.8-3.4 4.4-3.4 1.3 0 2.3.2 3.2.4v-.4c0-1.9-1.1-2.8-3.1-2.8-1.1.1-2.1.4-3.1.8zm.2 5.3c0 1.3 1.2 2.1 2.6 2.1 1.9 0 3.5-1.2 3.5-2.8v-1c-.8-.2-1.8-.4-3-.4-2 0-3.1.8-3.1 2.1zM552.1 470.6h-1.5v-10.3h1.5v1.8c.7-1.1 1.8-2 3.5-2 2.5 0 4 1.7 4 4.1v6.4H558v-6c0-1.9-1-3.1-2.9-3.1-1.8 0-3.1 1.3-3.1 3.2v5.9zM571.1 470.6v-2.1c-.8 1.2-2.1 2.3-4 2.3-2.5 0-4.9-2-4.9-5.4 0-3.4 2.5-5.4 4.9-5.4 1.9 0 3.2 1 4 2.2V456h1.5v14.6h-1.5zm-3.6-9.2c-2 0-3.6 1.5-3.6 4s1.7 4 3.6 4c1.9 0 3.7-1.6 3.7-4s-1.8-4-3.7-4zM585.5 470.8c-1.5 0-3.1-.6-4.3-1.5l.8-1.1c1.1.8 2.4 1.3 3.6 1.3 1.2 0 2.1-.6 2.1-1.6s-1.2-1.4-2.6-1.8c-1.6-.5-3.4-1-3.4-2.9 0-1.8 1.5-3 3.5-3 1.3 0 2.7.4 3.7 1.1l-.7 1.2c-1-.6-2.1-1-3.1-1-1.2 0-2 .6-2 1.5 0 1 1.3 1.4 2.7 1.8 1.6.5 3.3 1.1 3.3 3 .1 1.9-1.5 3-3.6 3zM597.6 470.8c-1.9 0-3.2-1-4-2.2v5.2h-1.5v-13.5h1.5v2.1c.8-1.2 2.1-2.3 4-2.3 2.5 0 4.9 2 4.9 5.4 0 3.3-2.4 5.3-4.9 5.3zm-.3-9.4c-1.9 0-3.7 1.6-3.7 4s1.8 4 3.7 4c2 0 3.6-1.5 3.6-4 0-2.4-1.6-4-3.6-4zM609.9 469.5c1.4 0 2.4-.6 3.3-1.5l1 .9c-1 1.2-2.3 1.9-4.3 1.9-2.8 0-5.2-2.2-5.2-5.4 0-3 2.1-5.4 5-5.4 3.1 0 4.8 2.4 4.8 5.5 0 .1 0 .3 0 .5h-8.2c.2 2.2 1.8 3.5 3.6 3.5zm3-4.6c-.2-1.9-1.2-3.5-3.3-3.5-1.8 0-3.2 1.5-3.4 3.5h6.7zM618.7 470.6h-1.5v-10.3h1.5v1.8c.7-1.1 1.8-2 3.5-2 2.5 0 4 1.7 4 4.1v6.4h-1.5v-6c0-1.9-1-3.1-2.9-3.1-1.8 0-3.1 1.3-3.1 3.2v5.9zM637.8 470.6v-2.1c-.8 1.2-2.1 2.3-4 2.3-2.5 0-4.9-2-4.9-5.4 0-3.4 2.5-5.4 4.9-5.4 1.9 0 3.2 1 4 2.2V456h1.5v14.6h-1.5zm-3.7-9.2c-2 0-3.6 1.5-3.6 4s1.7 4 3.6 4c1.9 0 3.7-1.6 3.7-4 .1-2.4-1.7-4-3.7-4zM650.9 467.7c0 1.3.7 1.7 1.7 1.7.5 0 1-.1 1.5-.4v1.3c-.5.3-1.1.4-1.9.4-1.7 0-2.9-.8-2.9-2.9v-6.2h-1.4v-1.4h1.4v-3.1h1.5v3.1h3.3v1.4h-3.3v6.1zM656.9 458v-1.7h1.8v1.7h-1.8zm.1 12.6v-10.3h1.5v10.3H657zM674 460c2.4 0 3.8 1.6 3.8 4.2v6.4h-1.5v-6c0-2-1-3.1-2.7-3.1-1.6 0-2.9 1.2-2.9 3.2v6h-1.5v-6.1c0-1.9-1-3.1-2.7-3.1-1.6 0-2.9 1.4-2.9 3.3v5.9h-1.5v-10.3h1.5v1.7c.7-1 1.6-2 3.3-2 1.7 0 2.8.9 3.3 2.1.9-1.2 2-2.2 3.8-2.2zM685.7 469.5c1.4 0 2.4-.6 3.3-1.5l1 .9c-1 1.2-2.3 1.9-4.3 1.9-2.8 0-5.2-2.2-5.2-5.4 0-3 2.1-5.4 5-5.4 3.1 0 4.8 2.4 4.8 5.5 0 .1 0 .3 0 .5h-8.2c.2 2.2 1.8 3.5 3.6 3.5zm3-4.6c-.2-1.9-1.2-3.5-3.3-3.5-1.8 0-3.2 1.5-3.4 3.5h6.7zM707.3 470.6v-2.1c-.8 1.2-2.1 2.3-4 2.3-2.5 0-4.9-2-4.9-5.4 0-3.4 2.5-5.4 4.9-5.4 1.9 0 3.2 1 4 2.2V456h1.5v14.6h-1.5zm-3.7-9.2c-2 0-3.6 1.5-3.6 4s1.7 4 3.6 4c1.9 0 3.7-1.6 3.7-4 .1-2.4-1.8-4-3.7-4zM717 470.8c-3.1 0-5.4-2.4-5.4-5.4s2.3-5.4 5.4-5.4c3.1 0 5.4 2.4 5.4 5.4s-2.3 5.4-5.4 5.4zm0-9.4c-2.2 0-3.8 1.8-3.8 4s1.6 4 3.8 4c2.2 0 3.8-1.8 3.8-4s-1.6-4-3.8-4zM725.2 458v-1.7h1.8v1.7h-1.8zm.1 12.6v-10.3h1.5v10.3h-1.5zM732 470.6h-1.5v-10.3h1.5v1.8c.7-1.1 1.8-2 3.5-2 2.5 0 4 1.7 4 4.1v6.4H738v-6c0-1.9-1-3.1-2.9-3.1-1.8 0-3.1 1.3-3.1 3.2v5.9zM747.4 473.8c-1.7 0-3.3-.5-4.7-1.4l.7-1.2c1.2.9 2.5 1.3 4 1.3 2.3 0 3.8-1.3 3.8-3.7v-1.2c-.9 1.2-2.2 2.2-4.1 2.2-2.5 0-4.9-1.8-4.9-4.9 0-3 2.4-4.9 4.9-4.9 1.9 0 3.2 1 4 2.1v-1.9h1.5v8.5c0 3.4-2.1 5.1-5.2 5.1zm-.1-12.4c-2 0-3.6 1.3-3.6 3.5 0 2.1 1.7 3.5 3.6 3.5 2 0 3.8-1.4 3.8-3.5s-1.8-3.5-3.8-3.5zM256.1 484c2.4 0 3.8 1.6 3.8 4.2v6.4h-1.5v-6c0-2-1-3.1-2.7-3.1-1.6 0-2.9 1.2-2.9 3.2v6h-1.5v-6.1c0-1.9-1-3.1-2.7-3.1-1.6 0-2.9 1.4-2.9 3.3v5.9h-1.5v-10.3h1.5v1.7c.7-1 1.6-2 3.3-2 1.7 0 2.8.9 3.3 2.1.9-1.2 2-2.2 3.8-2.2zM268 494.8c-3.1 0-5.4-2.4-5.4-5.4s2.3-5.4 5.4-5.4c3.1 0 5.4 2.4 5.4 5.4s-2.3 5.4-5.4 5.4zm0-9.4c-2.2 0-3.8 1.8-3.8 4s1.6 4 3.8 4c2.2 0 3.8-1.8 3.8-4s-1.7-4-3.8-4zM277.7 494.6h-1.5v-10.3h1.5v2.7c.8-1.7 2.3-3 4.2-2.9v1.7h-.1c-2.3 0-4.1 1.6-4.1 4.7v4.1zM288.4 493.5c1.4 0 2.4-.6 3.3-1.5l1 .9c-1 1.2-2.3 1.9-4.3 1.9-2.8 0-5.2-2.2-5.2-5.4 0-3 2.1-5.4 5-5.4 3.1 0 4.8 2.4 4.8 5.5 0 .1 0 .3 0 .5h-8.2c.2 2.2 1.8 3.5 3.6 3.5zm3-4.6c-.2-1.9-1.2-3.5-3.3-3.5-1.8 0-3.2 1.5-3.4 3.5h6.7zM306.4 494.8c-3.1 0-5.4-2.4-5.4-5.4s2.3-5.4 5.4-5.4c3.1 0 5.4 2.4 5.4 5.4s-2.3 5.4-5.4 5.4zm0-9.4c-2.2 0-3.8 1.8-3.8 4s1.6 4 3.8 4c2.2 0 3.8-1.8 3.8-4s-1.6-4-3.8-4zM320 484.3v1.3h-3.3v9h-1.5v-9h-1.4v-1.3h1.4v-.9c0-2.3 1.1-3.5 3.1-3.5.7 0 1.2.1 1.7.3v1.3c-.6-.2-1-.3-1.5-.3-1.2 0-1.8.7-1.8 2.2v.8h3.3zM330 491.7c0 1.3.7 1.7 1.7 1.7.5 0 1-.1 1.5-.4v1.3c-.5.3-1.1.4-1.9.4-1.7 0-2.9-.8-2.9-2.9v-6.2H327v-1.4h1.4v-3.1h1.5v3.1h3.3v1.4H330v6.1zM337.5 494.6H336V480h1.5v6.1c.7-1.1 1.8-2 3.5-2 2.5 0 4 1.7 4 4.1v6.4h-1.5v-6c0-1.9-1-3.1-2.9-3.1-1.8 0-3.1 1.3-3.1 3.2v5.9zM352.9 493.5c1.4 0 2.4-.6 3.3-1.5l1 .9c-1 1.2-2.3 1.9-4.3 1.9-2.8 0-5.2-2.2-5.2-5.4 0-3 2.1-5.4 5-5.4 3.1 0 4.8 2.4 4.8 5.5 0 .1 0 .3 0 .5h-8.2c.2 2.2 1.8 3.5 3.6 3.5zm3-4.6c-.2-1.9-1.2-3.5-3.3-3.5-1.8 0-3.2 1.5-3.4 3.5h6.7zM368.2 491.7c0 1.3.7 1.7 1.7 1.7.5 0 1-.1 1.5-.4v1.3c-.5.3-1.1.4-1.9.4-1.7 0-2.9-.8-2.9-2.9v-6.2h-1.4v-1.4h1.4v-3.1h1.5v3.1h3.3v1.4h-3.3v6.1zM375.8 494.6h-1.5V480h1.5v6.1c.7-1.1 1.8-2 3.5-2 2.5 0 4 1.7 4 4.1v6.4h-1.5v-6c0-1.9-1-3.1-2.9-3.1-1.8 0-3.1 1.3-3.1 3.2v5.9zM386.6 482v-1.7h1.8v1.7h-1.8zm.1 12.6v-10.3h1.5v10.3h-1.5zM393.4 494.6h-1.5v-10.3h1.5v1.8c.7-1.1 1.8-2 3.5-2 2.5 0 4 1.7 4 4.1v6.4h-1.5v-6c0-1.9-1-3.1-2.9-3.1-1.8 0-3.1 1.3-3.1 3.2v5.9zM408.7 497.8c-1.7 0-3.3-.5-4.7-1.4l.7-1.2c1.2.9 2.5 1.3 4 1.3 2.3 0 3.8-1.3 3.8-3.7v-1.2c-.9 1.2-2.2 2.2-4.1 2.2-2.5 0-4.9-1.8-4.9-4.9 0-3 2.4-4.9 4.9-4.9 1.9 0 3.2 1 4 2.1v-1.9h1.5v8.5c.1 3.4-2 5.1-5.2 5.1zm0-12.4c-2 0-3.6 1.3-3.6 3.5 0 2.1 1.7 3.5 3.6 3.5 2 0 3.8-1.4 3.8-3.5s-1.8-3.5-3.8-3.5zM420.8 494.8c-1.5 0-3.1-.6-4.3-1.5l.8-1.1c1.1.8 2.4 1.3 3.6 1.3 1.2 0 2.1-.6 2.1-1.6s-1.2-1.4-2.6-1.8c-1.6-.5-3.4-1-3.4-2.9 0-1.8 1.5-3 3.5-3 1.3 0 2.7.4 3.7 1.1l-.7 1.2c-1-.6-2.1-1-3.1-1-1.2 0-2 .6-2 1.5 0 1 1.3 1.4 2.7 1.8 1.6.5 3.3 1.1 3.3 3 .1 1.9-1.5 3-3.6 3zM438.4 494.9c-.9 2.1-1.9 2.9-3.4 2.9-.9 0-1.5-.2-2.2-.5l.5-1.2c.5.3 1 .4 1.6.4.9 0 1.5-.5 2.1-1.9l-4.7-10.3h1.7l3.8 8.6 3.3-8.6h1.6l-4.3 10.6zM449.3 494.8c-3.1 0-5.4-2.4-5.4-5.4s2.3-5.4 5.4-5.4c3.1 0 5.4 2.4 5.4 5.4s-2.3 5.4-5.4 5.4zm0-9.4c-2.2 0-3.8 1.8-3.8 4s1.6 4 3.8 4c2.2 0 3.8-1.8 3.8-4 .1-2.2-1.6-4-3.8-4zM464.9 484.3h1.5v10.3h-1.5v-1.8c-.7 1.1-1.8 2-3.5 2-2.5 0-4-1.7-4-4.1v-6.4h1.5v6c0 1.9 1 3.1 2.9 3.1 1.8 0 3.1-1.3 3.1-3.2v-5.9zM476 494.6V480h1.5v14.6H476zM485.8 494.8c-3.1 0-5.4-2.4-5.4-5.4s2.3-5.4 5.4-5.4c3.1 0 5.4 2.4 5.4 5.4s-2.3 5.4-5.4 5.4zm0-9.4c-2.2 0-3.8 1.8-3.8 4s1.6 4 3.8 4c2.2 0 3.8-1.8 3.8-4 .1-2.2-1.6-4-3.8-4zM501.1 484.3h1.7l-4.5 10.4h-1.4l-4.5-10.4h1.7l3.5 8.6 3.5-8.6zM509.1 493.5c1.4 0 2.4-.6 3.3-1.5l1 .9c-1 1.2-2.3 1.9-4.3 1.9-2.8 0-5.2-2.2-5.2-5.4 0-3 2.1-5.4 5-5.4 3.1 0 4.8 2.4 4.8 5.5 0 .1 0 .3 0 .5h-8.2c.2 2.2 1.8 3.5 3.6 3.5zm3-4.6c-.2-1.9-1.2-3.5-3.3-3.5-1.8 0-3.2 1.5-3.4 3.5h6.7zM516 494.6v-2.1h1.8v2.1H516z"/></g><g fill="#0160BA"><path d="M243.6 423.3l2.1-1.9c1.2 1.4 2.5 2.2 4.4 2.2 1.7 0 2.9-1 2.9-2.5 0-1.7-1.5-2.6-3.9-2.6h-1.4l-.5-1.8 4.5-4.8h-7.3v-2.6h11.1v2.2l-4.7 4.8c2.5.3 4.9 1.6 4.9 4.7s-2.4 5.3-5.9 5.3c-2.7 0-4.8-1.2-6.2-3zM259 422.7h3.2v3.3H259v-3.3zM272.5 417.6c0-4.8 3.6-8.7 8.7-8.7 3.1 0 5 1.1 6.6 2.6l-1.9 2.2c-1.3-1.2-2.8-2.1-4.7-2.1-3.2 0-5.5 2.6-5.5 5.9 0 3.3 2.3 6 5.5 6 2.1 0 3.4-.8 4.8-2.2l1.9 1.9c-1.8 1.8-3.7 3-6.8 3-5 .1-8.6-3.7-8.6-8.6zM289.7 419.7c0-3.7 2.9-6.7 6.8-6.7s6.7 3 6.7 6.6c0 3.6-2.9 6.6-6.8 6.6-3.9.1-6.7-2.9-6.7-6.5zm10.6 0c0-2.3-1.6-4.1-3.9-4.1s-3.8 1.8-3.8 4 1.6 4.1 3.9 4.1 3.8-1.8 3.8-4zM306.1 413.3h2.9v1.9c.8-1.1 1.9-2.2 3.9-2.2 1.8 0 3.1.9 3.8 2.2 1-1.3 2.4-2.2 4.3-2.2 2.8 0 4.4 1.8 4.4 4.8v8.1h-2.9v-7.2c0-2-.9-3.1-2.6-3.1-1.6 0-2.7 1.1-2.7 3.1v7.2h-2.9v-7.2c0-2-1-3.1-2.6-3.1s-2.7 1.2-2.7 3.1v7.2h-2.9v-12.6zM328.9 413.3h2.9v2.1c.9-1.3 2.3-2.4 4.3-2.4 3 0 5.9 2.4 5.9 6.6 0 4.2-2.9 6.6-5.9 6.6-2.1 0-3.4-1.1-4.3-2.2v5.8h-2.9v-16.5zm10.2 6.4c0-2.5-1.7-4.1-3.6-4.1s-3.7 1.6-3.7 4.1c0 2.4 1.7 4.1 3.7 4.1 1.9-.1 3.6-1.6 3.6-4.1zM345.2 408.5h2.9V426h-2.9v-17.5zM351.2 419.7c0-3.7 2.6-6.6 6.2-6.6 4 0 6.1 3.2 6.1 6.8 0 .3 0 .5 0 .8h-9.3c.3 2.1 1.8 3.2 3.6 3.2 1.4 0 2.4-.5 3.4-1.5l1.7 1.5c-1.2 1.4-2.9 2.4-5.2 2.4-3.7 0-6.5-2.7-6.5-6.6zm9.4-.9c-.2-1.9-1.3-3.3-3.2-3.3-1.8 0-3 1.4-3.3 3.3h6.5zM367 422.5v-6.7h-1.6v-2.5h1.6v-3.5h2.9v3.5h3.4v2.5h-3.4v6.2c0 1.1.6 1.6 1.6 1.6.6 0 1.2-.1 1.8-.4v2.4c-.7.4-1.5.6-2.6.6-2.2 0-3.7-.9-3.7-3.7zM375.2 419.7c0-3.7 2.6-6.6 6.2-6.6 4 0 6.1 3.2 6.1 6.8 0 .3 0 .5 0 .8h-9.3c.3 2.1 1.8 3.2 3.6 3.2 1.4 0 2.4-.5 3.4-1.5l1.7 1.5c-1.2 1.4-2.9 2.4-5.2 2.4-3.7 0-6.5-2.7-6.5-6.6zm9.4-.9c-.2-1.9-1.3-3.3-3.2-3.3-1.8 0-3 1.4-3.3 3.3h6.5z"/></g><path fill="#0160BA" d="M62.5 512C28.6 512 1 484.4 1 450.5S28.6 389 62.5 389s61.5 27.6 61.5 61.5S96.4 512 62.5 512zm0-120C30.2 392 4 418.2 4 450.5S30.2 509 62.5 509s58.5-26.2 58.5-58.5S94.8 392 62.5 392zM54.4 471.5l-19.3-19.4 6.4-6.4 12.9 12.9 29.1-29.1 6.4 6.5zM62.5 318C28.6 318 1 290.4 1 256.5S28.6 195 62.5 195s61.5 27.6 61.5 61.5S96.4 318 62.5 318zm0-120C30.2 198 4 224.2 4 256.5S30.2 315 62.5 315s58.5-26.2 58.5-58.5S94.8 198 62.5 198z"/><g fill="#0160BA"><path d="M92.7 245.9c0 5.6-4.6 10.2-10.2 10.2s-10.3-4.6-10.3-10.2 4.6-10.2 10.3-10.2c5.6-.1 10.2 4.5 10.2 10.2zM99.4 277.5H65.6c1-9.3 4.6-16.9 9.4-20.8 2.1 1.4 4.6 2.3 7.4 2.3 2.7 0 5.3-.9 7.4-2.3 4.9 4 8.5 11.6 9.6 20.8z"/></g><g fill="#0160BA"><path d="M59.4 277.4H25.7c1-9.3 4.6-16.9 9.4-20.8 2.1 1.4 4.6 2.3 7.4 2.3 2.7 0 5.3-.9 7.4-2.3 4.9 3.9 8.5 11.5 9.5 20.8zM52.8 245.7c0 5.6-4.6 10.2-10.2 10.2s-10.3-4.6-10.3-10.2 4.6-10.2 10.3-10.2c5.6 0 10.2 4.6 10.2 10.2z"/></g><path fill="#0160BA" d="M70.9 257.6H54.1c-.6 0-1-.4-1-1s.4-1 1-1h16.8c.6 0 1 .4 1 1s-.5 1-1 1zM62.5 124C28.6 124 1 96.4 1 62.5S28.6 1 62.5 1 124 28.6 124 62.5 96.4 124 62.5 124zm0-120C30.2 4 4 30.2 4 62.5S30.2 121 62.5 121 121 94.8 121 62.5 94.8 4 62.5 4zM83.3 81.7H48.4l5.8-1.9c.8-.1 1.6-.4 2.2-1l25.3-25.3c1.4-1.4 1.4-3.6 0-5l-6-6c-1.4-1.4-3.6-1.4-5 0L45.5 67.9c-.6.6-.9 1.4-1 2.2L41 81.2c-.2.6 0 1.3.4 1.8.3.3.7.4 1.1.5 0 0 .1 0 .1 0h40.7c.5 0 .9-.4.9-.9s-.4-.9-.9-.9zM73.2 45.1l6 6-24.6 24.6-6-6 24.6-24.6zM47.6 71.5c0-.1 0-.2 0-.2l5.4 5.4c-.1 0-.2 0-.2 0L45.3 79l2.3-7.5zM62.5 124c-.4 0-.8-.2-1.1-.4-.3-.3-.4-.7-.4-1.1 0-.4.2-.8.4-1.1.6-.6 1.6-.6 2.1 0 .3.3.4.7.4 1.1 0 .4-.2.8-.4 1.1-.2.2-.6.4-1 .4zM61 190.3c0-.8.7-1.5 1.5-1.5s1.5.7 1.5 1.5-.7 1.5-1.5 1.5-1.5-.6-1.5-1.5zm0-6.1c0-.8.7-1.5 1.5-1.5s1.5.7 1.5 1.5-.7 1.5-1.5 1.5-1.5-.7-1.5-1.5zm0-6.2c0-.8.7-1.5 1.5-1.5s1.5.7 1.5 1.5-.7 1.5-1.5 1.5-1.5-.7-1.5-1.5zm0-6.2c0-.8.7-1.5 1.5-1.5s1.5.7 1.5 1.5-.7 1.5-1.5 1.5-1.5-.6-1.5-1.5zm0-6.1c0-.8.7-1.5 1.5-1.5s1.5.7 1.5 1.5-.7 1.5-1.5 1.5-1.5-.7-1.5-1.5zm0-6.2c0-.8.7-1.5 1.5-1.5s1.5.7 1.5 1.5-.7 1.5-1.5 1.5-1.5-.7-1.5-1.5zm0-6.2c0-.8.7-1.5 1.5-1.5s1.5.7 1.5 1.5-.7 1.5-1.5 1.5-1.5-.6-1.5-1.5zm0-6.1c0-.8.7-1.5 1.5-1.5s1.5.7 1.5 1.5-.7 1.5-1.5 1.5-1.5-.7-1.5-1.5zm0-6.2c0-.8.7-1.5 1.5-1.5s1.5.7 1.5 1.5-.7 1.5-1.5 1.5-1.5-.7-1.5-1.5zm0-6.2c0-.8.7-1.5 1.5-1.5s1.5.7 1.5 1.5-.7 1.5-1.5 1.5-1.5-.6-1.5-1.5zm0-6.1c0-.8.7-1.5 1.5-1.5s1.5.7 1.5 1.5-.7 1.5-1.5 1.5-1.5-.7-1.5-1.5zM62.5 198c-.4 0-.8-.2-1.1-.4-.3-.3-.4-.7-.4-1.1 0-.4.2-.8.4-1.1.5-.6 1.6-.6 2.1 0 .3.3.4.7.4 1.1 0 .4-.2.8-.4 1.1-.2.2-.6.4-1 .4zM62.5 318c-.4 0-.8-.2-1.1-.4-.3-.3-.4-.7-.4-1.1 0-.4.2-.8.4-1.1.5-.6 1.6-.6 2.1 0 .3.3.4.7.4 1.1 0 .4-.2.8-.4 1.1-.2.2-.6.4-1 .4zM61 384.3c0-.8.7-1.5 1.5-1.5s1.5.7 1.5 1.5-.7 1.5-1.5 1.5-1.5-.6-1.5-1.5zm0-6.1c0-.8.7-1.5 1.5-1.5s1.5.7 1.5 1.5-.7 1.5-1.5 1.5-1.5-.7-1.5-1.5zm0-6.2c0-.8.7-1.5 1.5-1.5s1.5.7 1.5 1.5-.7 1.5-1.5 1.5-1.5-.7-1.5-1.5zm0-6.2c0-.8.7-1.5 1.5-1.5s1.5.7 1.5 1.5-.7 1.5-1.5 1.5-1.5-.6-1.5-1.5zm0-6.1c0-.8.7-1.5 1.5-1.5s1.5.7 1.5 1.5-.7 1.5-1.5 1.5-1.5-.7-1.5-1.5zm0-6.2c0-.8.7-1.5 1.5-1.5s1.5.7 1.5 1.5-.7 1.5-1.5 1.5-1.5-.7-1.5-1.5zm0-6.2c0-.8.7-1.5 1.5-1.5s1.5.7 1.5 1.5-.7 1.5-1.5 1.5-1.5-.6-1.5-1.5zm0-6.1c0-.8.7-1.5 1.5-1.5s1.5.7 1.5 1.5-.7 1.5-1.5 1.5-1.5-.7-1.5-1.5zm0-6.2c0-.8.7-1.5 1.5-1.5s1.5.7 1.5 1.5-.7 1.5-1.5 1.5-1.5-.7-1.5-1.5zm0-6.2c0-.8.7-1.5 1.5-1.5s1.5.7 1.5 1.5-.7 1.5-1.5 1.5-1.5-.6-1.5-1.5zm0-6.1c0-.8.7-1.5 1.5-1.5s1.5.7 1.5 1.5-.7 1.5-1.5 1.5-1.5-.7-1.5-1.5zM62.5 392c-.4 0-.8-.2-1.1-.4-.3-.3-.4-.7-.4-1.1 0-.4.2-.8.4-1.1.6-.6 1.6-.6 2.1 0 .3.3.4.7.4 1.1 0 .4-.2.8-.4 1.1-.2.2-.6.4-1 .4z"/></svg>