<?xml version="1.0" encoding="utf-8"?>
<!-- Generator: Adobe Illustrator 18.0.0, SVG Export Plug-In . SVG Version: 6.00 Build 0)  -->
<!DOCTYPE svg PUBLIC "-//W3C//DTD SVG 1.1//EN" "http://www.w3.org/Graphics/SVG/1.1/DTD/svg11.dtd">
<svg version="1.1" id="Layer_1" xmlns="http://www.w3.org/2000/svg" xmlns:xlink="http://www.w3.org/1999/xlink" x="0px" y="0px"
	 viewBox="0 0 125 125" enable-background="new 0 0 125 125" xml:space="preserve">
<g>
	<g>
		<path fill="#21A0FF" d="M62.5,124C28.6,124,1,96.4,1,62.5S28.6,1,62.5,1S124,28.6,124,62.5S96.4,124,62.5,124z M62.5,4
			C30.2,4,4,30.2,4,62.5S30.2,121,62.5,121S121,94.8,121,62.5S94.8,4,62.5,4z"/>
	</g>
	<g>
		<g>
			<path fill="#21A0FF" d="M82.7,79L70.1,66.4c1.8-2.6,2.9-5.7,2.9-9.1c0-8.7-7-15.7-15.7-15.7s-15.7,7-15.7,15.7
				c0,8.7,7,15.7,15.7,15.7c3.4,0,6.5-1.1,9.1-2.9L79,82.7c1,1,2.7,1,3.7,0C83.7,81.7,83.7,80,82.7,79z M66.3,62.6
				c-0.9,1.5-2.2,2.8-3.7,3.7c-1.6,0.9-3.4,1.5-5.3,1.5c-5.8,0-10.5-4.7-10.5-10.5s4.7-10.5,10.5-10.5s10.5,4.7,10.5,10.5
				C67.7,59.2,67.2,61,66.3,62.6z"/>
		</g>
	</g>
</g>
</svg>
