<?xml version="1.0" encoding="utf-8"?>
<!-- Generator: Adobe Illustrator 18.0.0, SVG Export Plug-In . SVG Version: 6.00 Build 0)  -->
<!DOCTYPE svg PUBLIC "-//W3C//DTD SVG 1.1//EN" "http://www.w3.org/Graphics/SVG/1.1/DTD/svg11.dtd">
<svg version="1.1" id="Layer_1" xmlns="http://www.w3.org/2000/svg" xmlns:xlink="http://www.w3.org/1999/xlink" x="0px" y="0px"
	 viewBox="0 0 50 50" enable-background="new 0 0 50 50" xml:space="preserve">
<g>
	<g>
		<path fill="#0160BA" d="M43.5,10h-37c-1.3,0-2.4,1.1-2.4,2.4v25.1c0,1.3,1.1,2.4,2.4,2.4h37c1.3,0,2.4-1.1,2.4-2.4V12.4
			C45.9,11.1,44.9,10,43.5,10z M42.7,35.5l-11.9-7.7l11.9-11.9V35.5z M23.3,31.8c0.5,0.5,1.1,0.7,1.7,0.7c0.6,0,1.2-0.2,1.7-0.7
			l2.9-2.9l12.1,7.8H8.3l12.1-7.8L23.3,31.8z M40.7,13.2L25,28.9L9.3,13.2H40.7z M19.2,27.8L7.3,35.4V15.8L19.2,27.8z"/>
	</g>
</g>
</svg>
