<svg xmlns="http://www.w3.org/2000/svg" viewBox="0 0 139.7 42" enable-background="new 0 0 139.7 42"><path fill="#21A0FF" d="M21 35.6c.1 0 .2 0 .2 0 4.7 0 9.4 0 14.1 0 .6 0 1.1.3 1.4.8.1.2.2.3.3.5 0 .1.1.1.1.2 0 0-.1 0-.1 0s-.1 0-.1 0c-4.7 0-9.3 0-14 0-.7 0-1.2-.3-1.5-.9-.1-.2-.2-.3-.3-.5-.1 0-.1 0-.1-.1zM1 1c.1 0 .1 0 .2 0 2.3 0 4.7 0 7 0 .4 0 .7.2 1 .4.2.1.3.3.4.5 1.4 2.3 2.7 4.7 4.1 7 1.7 2.9 3.3 5.7 5 8.6.5.9 1 1.8 1.5 2.6s1.2 1.3 2.1 1.5c.1 0 .3 0 .4 0 1.5 0 3.1 0 4.6 0 .6 0 1.1.3 1.4.8 1.2 2 2.4 4.1 3.5 6.1 0 .1.1.1.1.2-.1 0-.1 0-.2 0-4.7 0-9.4 0-14.1 0-.2 0-.5-.1-.7-.2-.3-.2-.6-.4-.8-.7-1.8-3.2-3.7-6.4-5.5-9.6-2-3.3-3.9-6.6-5.9-10-1.3-2.3-2.7-4.6-4-7 0 0-.1-.1-.1-.2z"/><path fill="#0160BA" d="M48.9 41c-.1 0-.1 0-.2 0-2.3 0-4.6 0-7 0-.6 0-1.1-.3-1.4-.8-2.1-3.6-4.2-7.3-6.3-10.9-1.4-2.5-2.9-5-4.3-7.5-.3-.6-.9-1-1.5-1.2-.3-.1-.7-.2-1-.2-1.5 0-3 0-4.5 0-.6 0-1.1-.3-1.4-.8-1.2-2-2.3-4.1-3.5-6.1 0-.1-.1-.1-.1-.2.1 0 .1 0 .2 0 .8 0 1.5 0 2.3 0 3.9 0 7.9 0 11.8 0 .5 0 1.2.4 1.5.8 2 3.5 4.1 7.1 6.1 10.6 2.4 4.2 4.9 8.4 7.3 12.7.7 1.2 1.3 2.3 2 3.5 0 0 0 0 0 .1zM28.9 6.4c-.1 0-.1 0-.2 0-3.7 0-7.3 0-11 0-1 0-2.1 0-3.1 0-.6 0-1.1-.3-1.4-.8-.1-.2-.2-.3-.3-.5 0 0-.1-.1-.1-.1s.1 0 .2 0c.3 0 .5 0 .8 0 4.4 0 8.9 0 13.3 0 .6 0 1.1.3 1.5.8.1.2.2.3.3.5 0 0 0 0 0 .1zM14.5 7.7c.1 0 .1 0 .2 0 2.9 0 5.9 0 8.8 0 1.7 0 3.5 0 5.2 0 .6 0 1.1.3 1.5.8.1.2.2.3.3.5 0 0 .1.1.1.1s-.1 0-.1 0-.1 0-.1 0c-4.7 0-9.3 0-14 0-.5 0-.9-.2-1.3-.6-.1-.1-.1-.1-.2-.2-.1-.2-.2-.4-.4-.6 0 .1 0 0 0 0z"/><path fill="#21A0FF" d="M35.5 34.3c-.1 0-.1 0-.2 0-4.7 0-9.4 0-14.1 0-.6 0-1.1-.3-1.5-.8-.1-.2-.2-.3-.3-.5 0 0-.1-.1-.1-.1s.1 0 .1 0 .1 0 .1 0c4.7 0 9.4 0 14.1 0 .6 0 1.1.3 1.5.8.1.2.2.3.3.5 0 0 .1 0 .1.1z"/><path fill="#0160BA" d="M16.1 10.5c.1 0 .1 0 .2 0 4.7 0 9.5 0 14.2 0 .4 0 .8.2 1.1.5.1.1.2.2.3.4.1.2.2.3.3.5 0 0 .1.1.1.1s-.1 0-.1 0-.1 0-.1 0c-4.7 0-9.4 0-14 0-.6 0-1.1-.3-1.5-.9-.1-.2-.2-.3-.3-.5-.2 0-.2-.1-.2-.1z"/><path fill="#21A0FF" d="M33.9 31.5c-.1 0-.1 0-.2 0-3.1 0-6.1 0-9.2 0-1.7 0-3.3 0-5 0-.5 0-1.2-.4-1.4-.8-.1-.2-.2-.4-.3-.5 0 0-.1-.1-.1-.1s.1 0 .1 0 .1 0 .1 0c4.7 0 9.4 0 14.1 0 .6 0 1.1.3 1.4.8.1.2.2.4.3.5.1 0 .1.1.2.1z"/><g fill="#0160BA"><path d="M80 35.1H63V6.6h3.4v25.6H80v2.9zM80.3 35.4H62.6V6.3h4.1v25.6h13.6v3.5zm-17-.7h16.3v-2.2H65.9V7h-2.7v27.7zM82.1 15h3.2v20h-3.2V15zm3.2-8.5v3h-3v-3h3zM85.7 35.4h-3.9V14.7h3.9v20.7zm-3.2-.7H85V15.4h-2.5v19.3zm3.1-24.8h-3.7V6.1h3.7v3.8zm-3-.7h2.3V6.8h-2.3v2.4zM102.1 18.5c-.7-.5-1.5-.8-2.5-1-1-.2-2-.3-3.1-.3-.6 0-1.2.1-1.7.2s-.9.3-1.3.6c-.4.2-.7.5-.9.9-.2.3-.3.7-.3 1.2s.1.8.3 1.2c.2.3.5.6.9.8.4.2.8.5 1.3.6.5.2 1 .4 1.6.5.5.2 1.1.3 1.7.5.6.2 1.2.4 1.8.6.6.2 1.1.5 1.7.8.5.3 1 .7 1.4 1.1.4.4.7.9 1 1.5.2.6.4 1.2.4 1.9 0 1-.2 1.9-.7 2.6-.5.7-1.1 1.4-1.9 1.9-.8.5-1.6.9-2.6 1.1-1 .2-2 .4-3 .4-.7 0-1.4 0-2.1-.1-.7-.1-1.3-.2-1.9-.4s-1.2-.4-1.7-.7c-.5-.3-1-.6-1.4-1.1l.9-2.6c.4.4.8.8 1.2 1.1.5.3 1 .5 1.5.7.5.2 1.1.3 1.7.4.6.1 1.1.1 1.7.1.7 0 1.4-.1 2-.2.6-.1 1.1-.3 1.6-.6s.8-.6 1.1-1c.3-.4.4-.9.4-1.4 0-.6-.1-1.1-.4-1.5-.3-.4-.7-.7-1.2-1-.5-.3-1.1-.5-1.8-.7-.7-.2-1.5-.4-2.3-.7-1-.3-1.9-.6-2.7-1-.8-.3-1.5-.7-2-1.2s-1-1-1.3-1.6c-.4-.6-.5-1.3-.5-2.1 0-.9.2-1.7.6-2.4.4-.7 1-1.3 1.7-1.7.7-.4 1.5-.8 2.4-1 .9-.2 1.8-.3 2.7-.3 1.3 0 2.6.1 3.7.4s2.1.7 2.9 1.3l-.9 2.2zM96.1 35.9c-.7 0-1.4 0-2.1-.1-.7-.1-1.4-.2-2-.4-.6-.2-1.2-.4-1.8-.7-.6-.3-1.1-.7-1.5-1.2l-.1-.2 1.1-3.4.4.5c.3.4.7.7 1.2 1 .4.3.9.5 1.4.7.5.2 1.1.3 1.6.4 1.3.2 2.5.2 3.6-.1.6-.1 1.1-.3 1.5-.6.4-.2.7-.5.9-.9.2-.3.3-.7.3-1.2s-.1-.9-.4-1.2c-.3-.3-.6-.6-1.1-.9-.5-.3-1.1-.5-1.8-.7-.7-.2-1.5-.4-2.3-.7-1-.3-1.9-.7-2.7-1-.8-.4-1.5-.8-2.1-1.3-.6-.5-1-1.1-1.4-1.7-.3-.7-.5-1.4-.5-2.3 0-1 .2-1.9.7-2.6.4-.7 1-1.3 1.8-1.8.7-.5 1.5-.8 2.5-1.1.9-.2 1.8-.3 2.8-.3 1.4 0 2.6.1 3.8.4 1.2.3 2.2.7 3 1.4l.2.2-1.1 3-.4-.3c-.7-.5-1.5-.8-2.4-1-1-.2-2-.3-3-.3-.6 0-1.1.1-1.6.2s-.9.3-1.2.5c-.3.2-.6.5-.8.8-.2.3-.3.6-.3 1s.1.7.3 1c.2.3.5.5.8.8.4.2.8.4 1.3.6.5.2 1 .4 1.6.5.5.2 1.1.3 1.7.5.6.2 1.2.4 1.8.6.6.2 1.2.5 1.7.8.6.3 1.1.7 1.5 1.1.4.4.8 1 1 1.6.3.6.4 1.3.4 2.1 0 1.1-.3 2-.8 2.8-.5.8-1.2 1.5-2 2s-1.7.9-2.7 1.2c-.6.1-1.7.3-2.8.3zm-6.6-2.8c.3.3.7.6 1.1.8.5.3 1.1.5 1.7.7.6.2 1.2.3 1.9.4 1.7.2 3.4.2 5-.2.9-.2 1.8-.6 2.5-1.1.7-.5 1.3-1.1 1.7-1.8.4-.7.6-1.5.6-2.5 0-.7-.1-1.3-.3-1.8-.2-.5-.5-1-.9-1.4-.4-.4-.8-.7-1.3-1-.5-.3-1.1-.6-1.6-.8-.6-.2-1.2-.4-1.7-.6-.6-.2-1.2-.3-1.7-.5-.6-.2-1.1-.4-1.6-.5-.5-.2-1-.4-1.4-.7-.4-.3-.8-.6-1-.9-.3-.4-.4-.8-.4-1.4 0-.5.1-.9.4-1.3.2-.4.6-.7 1-1 .4-.3.9-.5 1.4-.6.5-.1 1.1-.2 1.7-.2 1.1 0 2.2.1 3.2.3.9.2 1.6.5 2.3.9l.6-1.6c-.7-.5-1.6-.9-2.6-1.1-1.1-.2-2.3-.4-3.6-.4-.9 0-1.8.1-2.6.3-.8.2-1.6.5-2.3 1-.6.4-1.2 1-1.6 1.6-.4.6-.6 1.4-.6 2.2 0 .8.1 1.5.4 2 .3.6.7 1.1 1.2 1.5.5.4 1.2.8 1.9 1.1.8.3 1.7.7 2.6 1 .8.3 1.6.5 2.3.7.7.2 1.4.5 1.9.7.6.3 1 .6 1.3 1.1.3.4.5 1 .5 1.7 0 .6-.1 1.1-.4 1.6-.3.4-.7.8-1.2 1.1-.5.3-1.1.5-1.7.6-1.1.2-2.5.3-3.8.1-.6-.1-1.2-.2-1.7-.4-.7-.2-1.2-.4-1.7-.7-.3-.2-.6-.4-.9-.7l-.6 1.8zM109.1 17.1h-4V15h4l.1-5.3 3.1-.9V15h5v2.1h-5v12c0 .4 0 .9 0 1.4 0 .5.1.9.3 1.3.1.4.4.7.7.9.3.2.8.4 1.3.4.4 0 .9-.1 1.3-.2.5-.1 1-.3 1.5-.5v2.4c-.5.3-1 .4-1.5.6-.5.1-1.1.2-1.8.2-1.1 0-2-.2-2.6-.6-.7-.4-1.2-.9-1.5-1.5-.4-.6-.6-1.4-.7-2.2-.1-.8-.2-1.7-.2-2.6V17.1zM114.2 35.9c-1.2 0-2.1-.2-2.8-.6-.7-.4-1.3-.9-1.7-1.6-.4-.7-.6-1.4-.8-2.3-.1-.8-.2-1.7-.2-2.7V17.5h-4v-2.8h4l.1-5.2 3.8-1.1v6.4h5v2.8h-5v11.6c0 .4 0 .9 0 1.3s.1.8.2 1.2c.1.3.3.6.6.8.4.3 1.4.4 2.3.1.4-.1.9-.3 1.5-.4l.5-.2v3.1l-.2.1c-.5.3-1 .5-1.6.6-.4 0-1.1.1-1.7.1zm-8.7-19.2h4v11.9c0 .9.1 1.8.2 2.6s.3 1.5.7 2.1c.3.6.8 1 1.4 1.4.6.3 1.4.5 2.5.5.7 0 1.2-.1 1.7-.2.4-.1.8-.2 1.2-.4v-1.7c-.4.1-.7.2-1.1.3-1.2.3-2.3.2-2.9-.3-.4-.3-.6-.6-.8-1.1-.2-.4-.3-.9-.3-1.4 0-.5 0-.9 0-1.4V16.7h5v-1.4h-5v-6l-2.4.7-.1 5.4h-4v1.3zM128 14.5c.8 0 1.6.1 2.2.2.7.1 1.3.4 1.9.6.6.3 1.1.6 1.6 1s.9.9 1.3 1.4l.1-2.8h3.2l-.1 4.9v15.1H135v-2.8c-.3.4-.7.8-1.2 1.2-.5.4-1 .7-1.6 1-.6.3-1.3.5-2 .7-.7.2-1.5.3-2.3.3-1.1 0-2.1-.1-3-.4-.9-.3-1.7-.7-2.4-1.2s-1.3-1.1-1.9-1.8c-.5-.7-1-1.4-1.3-2.2-.3-.8-.6-1.6-.8-2.5-.2-.9-.3-1.7-.3-2.5 0-1.3.2-2.6.6-3.8.4-1.2 1-2.3 1.8-3.3s1.8-1.7 3-2.3c1.4-.5 2.8-.8 4.4-.8zm.4 18.4c.9 0 1.8-.2 2.6-.6.8-.4 1.5-.9 2.1-1.6.6-.7 1.1-1.6 1.4-2.7s.5-2.3.6-3.7c0-1.1-.2-2-.5-2.9-.3-.9-.8-1.6-1.4-2.3-.6-.6-1.3-1.1-2.1-1.5-.8-.4-1.8-.5-2.8-.5-.8 0-1.5.1-2.1.3-.6.2-1.2.5-1.7.9s-.9.8-1.3 1.3-.7 1.1-.9 1.6c-.2.6-.4 1.2-.5 1.8s-.2 1.2-.2 1.9c0 .6 0 1.2.1 1.8.1.6.2 1.2.4 1.8.2.6.5 1.1.8 1.7.3.5.8 1 1.3 1.4.5.4 1.1.7 1.8.9.6.3 1.4.4 2.4.4zM128 35.9c-1.2 0-2.2-.2-3.2-.5-.9-.3-1.8-.7-2.5-1.3-.7-.5-1.4-1.2-1.9-1.9s-1-1.5-1.3-2.3c-.3-.8-.6-1.7-.8-2.5-.2-.9-.3-1.7-.3-2.6 0-1.3.2-2.6.6-3.9.4-1.3 1-2.4 1.9-3.4.8-1 1.9-1.8 3.1-2.4 1.2-.6 2.7-.9 4.4-.9.8 0 1.6.1 2.3.2.7.2 1.4.4 2 .7.6.3 1.2.6 1.7 1.1.3.2.5.5.8.8l.1-2.2h3.9l-.1 5.3v15.5h-3.9v-2.2c-.2.2-.4.4-.6.5-.5.4-1.1.8-1.7 1.1-.6.3-1.3.6-2.1.7-.8.1-1.5.2-2.4.2zm0-21c-1.6 0-2.9.3-4.1.8-1.2.6-2.1 1.3-2.9 2.2-.8.9-1.4 2-1.7 3.2-.4 1.2-.6 2.4-.6 3.7 0 .8.1 1.6.2 2.5.2.8.4 1.6.7 2.4.3.8.7 1.5 1.3 2.2.5.7 1.1 1.2 1.8 1.7s1.5.9 2.3 1.2c.9.3 1.9.4 2.9.4.8 0 1.5-.1 2.2-.3.7-.2 1.3-.4 1.9-.7.6-.3 1.1-.6 1.5-1 .5-.4.8-.8 1.1-1.2l.7-.9v3.5h2.5V20l.1-4.6h-2.5l-.1 3.3-.6-.7c-.4-.5-.8-.9-1.3-1.3s-1-.7-1.5-1c-.5-.3-1.2-.5-1.8-.6-.6-.1-1.3-.2-2.1-.2zm.4 18.4c-1 0-1.8-.1-2.5-.4-.7-.2-1.4-.6-1.9-1s-1-.9-1.3-1.4c-.4-.5-.6-1.1-.8-1.7-.2-.6-.3-1.2-.4-1.9-.1-.6-.1-1.3-.1-1.9 0-.6.1-1.3.2-1.9.1-.6.3-1.3.5-1.9.2-.6.6-1.2.9-1.7.4-.5.8-1 1.4-1.4.5-.4 1.1-.7 1.8-.9.7-.2 1.4-.3 2.3-.3 1.1 0 2.1.2 3 .6.9.4 1.6.9 2.3 1.6.6.7 1.1 1.5 1.4 2.4.3.9.5 1.9.5 3 0 1.4-.2 2.7-.6 3.8-.4 1.1-.9 2.1-1.5 2.8-.6.8-1.4 1.3-2.2 1.7-1.2.3-2.1.5-3 .5zm-.2-15.8c-.8 0-1.4.1-2 .3-.6.2-1.1.5-1.6.8-.5.4-.9.8-1.2 1.3-.3.5-.6 1-.9 1.6-.2.6-.4 1.1-.5 1.7-.1.6-.2 1.2-.2 1.8 0 .6 0 1.2.1 1.8.1.6.2 1.2.4 1.8.2.6.4 1.1.8 1.6.3.5.7.9 1.2 1.3s1 .6 1.7.9c.7.2 1.4.3 2.3.3.9 0 1.7-.2 2.4-.5s1.4-.9 2-1.5c.6-.7 1-1.6 1.4-2.6.3-1 .5-2.2.5-3.6 0-1-.2-1.9-.5-2.8-.3-.8-.7-1.5-1.3-2.1-.5-.6-1.2-1.1-2-1.4-.7-.5-1.6-.7-2.6-.7z"/></g></svg>